G04 #@! TF.GenerationSoftware,KiCad,Pcbnew,8.0.5*
G04 #@! TF.CreationDate,2024-09-27T20:56:44+02:00*
G04 #@! TF.ProjectId,half-swept,68616c66-2d73-4776-9570-742e6b696361,rev?*
G04 #@! TF.SameCoordinates,Original*
G04 #@! TF.FileFunction,Legend,Top*
G04 #@! TF.FilePolarity,Positive*
%FSLAX46Y46*%
G04 Gerber Fmt 4.6, Leading zero omitted, Abs format (unit mm)*
G04 Created by KiCad (PCBNEW 8.0.5) date 2024-09-27 20:56:44*
%MOMM*%
%LPD*%
G01*
G04 APERTURE LIST*
G04 Aperture macros list*
%AMRotRect*
0 Rectangle, with rotation*
0 The origin of the aperture is its center*
0 $1 length*
0 $2 width*
0 $3 Rotation angle, in degrees counterclockwise*
0 Add horizontal line*
21,1,$1,$2,0,0,$3*%
%AMFreePoly0*
4,1,6,0.600000,0.200000,0.000000,-0.400000,-0.600000,0.200000,-0.600000,0.400000,0.600000,0.400000,0.600000,0.200000,0.600000,0.200000,$1*%
%AMFreePoly1*
4,1,6,0.600000,-0.250000,-0.600000,-0.250000,-0.600000,1.000000,0.000000,0.400000,0.600000,1.000000,0.600000,-0.250000,0.600000,-0.250000,$1*%
G04 Aperture macros list end*
%ADD10C,0.150000*%
%ADD11C,0.300000*%
%ADD12C,0.120000*%
%ADD13C,0.160000*%
%ADD14C,0.100000*%
%ADD15C,0.200000*%
%ADD16C,0.010000*%
%ADD17C,0.000000*%
%ADD18C,1.397000*%
%ADD19C,0.250000*%
%ADD20C,0.800000*%
%ADD21O,2.000000X1.600000*%
%ADD22C,1.701800*%
%ADD23C,0.990600*%
%ADD24C,3.429000*%
%ADD25C,2.262000*%
%ADD26C,1.600000*%
%ADD27FreePoly0,270.000000*%
%ADD28FreePoly0,90.000000*%
%ADD29R,1.600000X1.600000*%
%ADD30FreePoly1,90.000000*%
%ADD31FreePoly1,270.000000*%
%ADD32C,4.400000*%
%ADD33C,1.000000*%
%ADD34RotRect,0.900000X0.900000X344.500000*%
%ADD35RotRect,0.900000X1.250000X344.500000*%
%ADD36R,0.900000X1.700000*%
G04 APERTURE END LIST*
D10*
X115626247Y-71586163D02*
X115626247Y-72157592D01*
X115626247Y-71871877D02*
X114626247Y-71746877D01*
X114626247Y-71746877D02*
X114769104Y-71859973D01*
X114769104Y-71859973D02*
X114864342Y-71967116D01*
X114864342Y-71967116D02*
X114911961Y-72068306D01*
X116007199Y-71300449D02*
X115959580Y-71246877D01*
X115959580Y-71246877D02*
X115816723Y-71133782D01*
X115816723Y-71133782D02*
X115721485Y-71074258D01*
X115721485Y-71074258D02*
X115578628Y-71008782D01*
X115578628Y-71008782D02*
X115340532Y-70931401D01*
X115340532Y-70931401D02*
X115150056Y-70907592D01*
X115150056Y-70907592D02*
X114911961Y-70925449D01*
X114911961Y-70925449D02*
X114769104Y-70955211D01*
X114769104Y-70955211D02*
X114673866Y-70990925D01*
X114673866Y-70990925D02*
X114531008Y-71068306D01*
X114531008Y-71068306D02*
X114483389Y-71109973D01*
X115626247Y-69729020D02*
X114626247Y-69604020D01*
X114626247Y-69604020D02*
X114626247Y-69223067D01*
X114626247Y-69223067D02*
X114673866Y-69133782D01*
X114673866Y-69133782D02*
X114721485Y-69092115D01*
X114721485Y-69092115D02*
X114816723Y-69056401D01*
X114816723Y-69056401D02*
X114959580Y-69074258D01*
X114959580Y-69074258D02*
X115054818Y-69133782D01*
X115054818Y-69133782D02*
X115102437Y-69187353D01*
X115102437Y-69187353D02*
X115150056Y-69288543D01*
X115150056Y-69288543D02*
X115150056Y-69669496D01*
X115626247Y-68586163D02*
X115578628Y-68675448D01*
X115578628Y-68675448D02*
X115483389Y-68711163D01*
X115483389Y-68711163D02*
X114626247Y-68604020D01*
X115626247Y-67776638D02*
X115102437Y-67711162D01*
X115102437Y-67711162D02*
X115007199Y-67746876D01*
X115007199Y-67746876D02*
X114959580Y-67836162D01*
X114959580Y-67836162D02*
X114959580Y-68026638D01*
X114959580Y-68026638D02*
X115007199Y-68127829D01*
X115578628Y-67770686D02*
X115626247Y-67871876D01*
X115626247Y-67871876D02*
X115626247Y-68109972D01*
X115626247Y-68109972D02*
X115578628Y-68199257D01*
X115578628Y-68199257D02*
X115483389Y-68234972D01*
X115483389Y-68234972D02*
X115388151Y-68223067D01*
X115388151Y-68223067D02*
X115292913Y-68163543D01*
X115292913Y-68163543D02*
X115245294Y-68062353D01*
X115245294Y-68062353D02*
X115245294Y-67824257D01*
X115245294Y-67824257D02*
X115197675Y-67723067D01*
X115578628Y-66865924D02*
X115626247Y-66967114D01*
X115626247Y-66967114D02*
X115626247Y-67157591D01*
X115626247Y-67157591D02*
X115578628Y-67246876D01*
X115578628Y-67246876D02*
X115531008Y-67288543D01*
X115531008Y-67288543D02*
X115435770Y-67324257D01*
X115435770Y-67324257D02*
X115150056Y-67288543D01*
X115150056Y-67288543D02*
X115054818Y-67229019D01*
X115054818Y-67229019D02*
X115007199Y-67175448D01*
X115007199Y-67175448D02*
X114959580Y-67074257D01*
X114959580Y-67074257D02*
X114959580Y-66883781D01*
X114959580Y-66883781D02*
X115007199Y-66794495D01*
X115578628Y-66056400D02*
X115626247Y-66157590D01*
X115626247Y-66157590D02*
X115626247Y-66348067D01*
X115626247Y-66348067D02*
X115578628Y-66437352D01*
X115578628Y-66437352D02*
X115483389Y-66473067D01*
X115483389Y-66473067D02*
X115102437Y-66425448D01*
X115102437Y-66425448D02*
X115007199Y-66365924D01*
X115007199Y-66365924D02*
X114959580Y-66264733D01*
X114959580Y-66264733D02*
X114959580Y-66074257D01*
X114959580Y-66074257D02*
X115007199Y-65984971D01*
X115007199Y-65984971D02*
X115102437Y-65949257D01*
X115102437Y-65949257D02*
X115197675Y-65961162D01*
X115197675Y-65961162D02*
X115292913Y-66449257D01*
X115626247Y-64824257D02*
X114626247Y-64699257D01*
X114626247Y-64699257D02*
X114626247Y-64318304D01*
X114626247Y-64318304D02*
X114673866Y-64229019D01*
X114673866Y-64229019D02*
X114721485Y-64187352D01*
X114721485Y-64187352D02*
X114816723Y-64151638D01*
X114816723Y-64151638D02*
X114959580Y-64169495D01*
X114959580Y-64169495D02*
X115054818Y-64229019D01*
X115054818Y-64229019D02*
X115102437Y-64282590D01*
X115102437Y-64282590D02*
X115150056Y-64383780D01*
X115150056Y-64383780D02*
X115150056Y-64764733D01*
X115626247Y-63824257D02*
X114959580Y-63740923D01*
X115150056Y-63764733D02*
X115054818Y-63705209D01*
X115054818Y-63705209D02*
X115007199Y-63651638D01*
X115007199Y-63651638D02*
X114959580Y-63550447D01*
X114959580Y-63550447D02*
X114959580Y-63455209D01*
X115626247Y-63062352D02*
X115578628Y-63151637D01*
X115578628Y-63151637D02*
X115531008Y-63193304D01*
X115531008Y-63193304D02*
X115435770Y-63229018D01*
X115435770Y-63229018D02*
X115150056Y-63193304D01*
X115150056Y-63193304D02*
X115054818Y-63133780D01*
X115054818Y-63133780D02*
X115007199Y-63080209D01*
X115007199Y-63080209D02*
X114959580Y-62979018D01*
X114959580Y-62979018D02*
X114959580Y-62836161D01*
X114959580Y-62836161D02*
X115007199Y-62746875D01*
X115007199Y-62746875D02*
X115054818Y-62705209D01*
X115054818Y-62705209D02*
X115150056Y-62669494D01*
X115150056Y-62669494D02*
X115435770Y-62705209D01*
X115435770Y-62705209D02*
X115531008Y-62764732D01*
X115531008Y-62764732D02*
X115578628Y-62818304D01*
X115578628Y-62818304D02*
X115626247Y-62919494D01*
X115626247Y-62919494D02*
X115626247Y-63062352D01*
X115245294Y-62252828D02*
X115245294Y-61490923D01*
X115626247Y-61062352D02*
X114626247Y-60937352D01*
X114626247Y-60937352D02*
X115340532Y-60693304D01*
X115340532Y-60693304D02*
X114626247Y-60270685D01*
X114626247Y-60270685D02*
X115626247Y-60395685D01*
X115626247Y-59919495D02*
X114959580Y-59836161D01*
X114626247Y-59794495D02*
X114673866Y-59848066D01*
X114673866Y-59848066D02*
X114721485Y-59806399D01*
X114721485Y-59806399D02*
X114673866Y-59752828D01*
X114673866Y-59752828D02*
X114626247Y-59794495D01*
X114626247Y-59794495D02*
X114721485Y-59806399D01*
X115578628Y-59008781D02*
X115626247Y-59109971D01*
X115626247Y-59109971D02*
X115626247Y-59300448D01*
X115626247Y-59300448D02*
X115578628Y-59389733D01*
X115578628Y-59389733D02*
X115531008Y-59431400D01*
X115531008Y-59431400D02*
X115435770Y-59467114D01*
X115435770Y-59467114D02*
X115150056Y-59431400D01*
X115150056Y-59431400D02*
X115054818Y-59371876D01*
X115054818Y-59371876D02*
X115007199Y-59318305D01*
X115007199Y-59318305D02*
X114959580Y-59217114D01*
X114959580Y-59217114D02*
X114959580Y-59026638D01*
X114959580Y-59026638D02*
X115007199Y-58937352D01*
X115626247Y-58586162D02*
X114959580Y-58502828D01*
X115150056Y-58526638D02*
X115054818Y-58467114D01*
X115054818Y-58467114D02*
X115007199Y-58413543D01*
X115007199Y-58413543D02*
X114959580Y-58312352D01*
X114959580Y-58312352D02*
X114959580Y-58217114D01*
X115626247Y-57824257D02*
X115578628Y-57913542D01*
X115578628Y-57913542D02*
X115531008Y-57955209D01*
X115531008Y-57955209D02*
X115435770Y-57990923D01*
X115435770Y-57990923D02*
X115150056Y-57955209D01*
X115150056Y-57955209D02*
X115054818Y-57895685D01*
X115054818Y-57895685D02*
X115007199Y-57842114D01*
X115007199Y-57842114D02*
X114959580Y-57740923D01*
X114959580Y-57740923D02*
X114959580Y-57598066D01*
X114959580Y-57598066D02*
X115007199Y-57508780D01*
X115007199Y-57508780D02*
X115054818Y-57467114D01*
X115054818Y-57467114D02*
X115150056Y-57431399D01*
X115150056Y-57431399D02*
X115435770Y-57467114D01*
X115435770Y-57467114D02*
X115531008Y-57526637D01*
X115531008Y-57526637D02*
X115578628Y-57580209D01*
X115578628Y-57580209D02*
X115626247Y-57681399D01*
X115626247Y-57681399D02*
X115626247Y-57824257D01*
X114959580Y-56312351D02*
X115626247Y-56205209D01*
X115626247Y-56205209D02*
X115150056Y-55955209D01*
X115150056Y-55955209D02*
X115626247Y-55824256D01*
X115626247Y-55824256D02*
X114959580Y-55550447D01*
X115626247Y-55252828D02*
X114959580Y-55169494D01*
X114626247Y-55127828D02*
X114673866Y-55181399D01*
X114673866Y-55181399D02*
X114721485Y-55139732D01*
X114721485Y-55139732D02*
X114673866Y-55086161D01*
X114673866Y-55086161D02*
X114626247Y-55127828D01*
X114626247Y-55127828D02*
X114721485Y-55139732D01*
X114959580Y-54836161D02*
X114959580Y-54455209D01*
X114626247Y-54651638D02*
X115483389Y-54758781D01*
X115483389Y-54758781D02*
X115578628Y-54723066D01*
X115578628Y-54723066D02*
X115626247Y-54633781D01*
X115626247Y-54633781D02*
X115626247Y-54538542D01*
X115626247Y-54205209D02*
X114626247Y-54080209D01*
X115626247Y-53776637D02*
X115102437Y-53711161D01*
X115102437Y-53711161D02*
X115007199Y-53746875D01*
X115007199Y-53746875D02*
X114959580Y-53836161D01*
X114959580Y-53836161D02*
X114959580Y-53979018D01*
X114959580Y-53979018D02*
X115007199Y-54080209D01*
X115007199Y-54080209D02*
X115054818Y-54133780D01*
X117188572Y-71675449D02*
X117236191Y-71776639D01*
X117236191Y-71776639D02*
X117236191Y-71967116D01*
X117236191Y-71967116D02*
X117188572Y-72056401D01*
X117188572Y-72056401D02*
X117140952Y-72098068D01*
X117140952Y-72098068D02*
X117045714Y-72133782D01*
X117045714Y-72133782D02*
X116760000Y-72098068D01*
X116760000Y-72098068D02*
X116664762Y-72038544D01*
X116664762Y-72038544D02*
X116617143Y-71984973D01*
X116617143Y-71984973D02*
X116569524Y-71883782D01*
X116569524Y-71883782D02*
X116569524Y-71693306D01*
X116569524Y-71693306D02*
X116617143Y-71604020D01*
X117236191Y-71109973D02*
X117188572Y-71199258D01*
X117188572Y-71199258D02*
X117140952Y-71240925D01*
X117140952Y-71240925D02*
X117045714Y-71276639D01*
X117045714Y-71276639D02*
X116760000Y-71240925D01*
X116760000Y-71240925D02*
X116664762Y-71181401D01*
X116664762Y-71181401D02*
X116617143Y-71127830D01*
X116617143Y-71127830D02*
X116569524Y-71026639D01*
X116569524Y-71026639D02*
X116569524Y-70883782D01*
X116569524Y-70883782D02*
X116617143Y-70794496D01*
X116617143Y-70794496D02*
X116664762Y-70752830D01*
X116664762Y-70752830D02*
X116760000Y-70717115D01*
X116760000Y-70717115D02*
X117045714Y-70752830D01*
X117045714Y-70752830D02*
X117140952Y-70812353D01*
X117140952Y-70812353D02*
X117188572Y-70865925D01*
X117188572Y-70865925D02*
X117236191Y-70967115D01*
X117236191Y-70967115D02*
X117236191Y-71109973D01*
X117236191Y-70348068D02*
X116569524Y-70264734D01*
X116664762Y-70276639D02*
X116617143Y-70223068D01*
X116617143Y-70223068D02*
X116569524Y-70121877D01*
X116569524Y-70121877D02*
X116569524Y-69979020D01*
X116569524Y-69979020D02*
X116617143Y-69889734D01*
X116617143Y-69889734D02*
X116712381Y-69854020D01*
X116712381Y-69854020D02*
X117236191Y-69919496D01*
X116712381Y-69854020D02*
X116617143Y-69794496D01*
X116617143Y-69794496D02*
X116569524Y-69693306D01*
X116569524Y-69693306D02*
X116569524Y-69550449D01*
X116569524Y-69550449D02*
X116617143Y-69461163D01*
X116617143Y-69461163D02*
X116712381Y-69425449D01*
X116712381Y-69425449D02*
X117236191Y-69490925D01*
X116569524Y-68931401D02*
X117569524Y-69056401D01*
X116617143Y-68937354D02*
X116569524Y-68836163D01*
X116569524Y-68836163D02*
X116569524Y-68645687D01*
X116569524Y-68645687D02*
X116617143Y-68556401D01*
X116617143Y-68556401D02*
X116664762Y-68514735D01*
X116664762Y-68514735D02*
X116760000Y-68479020D01*
X116760000Y-68479020D02*
X117045714Y-68514735D01*
X117045714Y-68514735D02*
X117140952Y-68574258D01*
X117140952Y-68574258D02*
X117188572Y-68627830D01*
X117188572Y-68627830D02*
X117236191Y-68729020D01*
X117236191Y-68729020D02*
X117236191Y-68919497D01*
X117236191Y-68919497D02*
X117188572Y-69008782D01*
X117236191Y-67967116D02*
X117188572Y-68056401D01*
X117188572Y-68056401D02*
X117140952Y-68098068D01*
X117140952Y-68098068D02*
X117045714Y-68133782D01*
X117045714Y-68133782D02*
X116760000Y-68098068D01*
X116760000Y-68098068D02*
X116664762Y-68038544D01*
X116664762Y-68038544D02*
X116617143Y-67984973D01*
X116617143Y-67984973D02*
X116569524Y-67883782D01*
X116569524Y-67883782D02*
X116569524Y-67740925D01*
X116569524Y-67740925D02*
X116617143Y-67651639D01*
X116617143Y-67651639D02*
X116664762Y-67609973D01*
X116664762Y-67609973D02*
X116760000Y-67574258D01*
X116760000Y-67574258D02*
X117045714Y-67609973D01*
X117045714Y-67609973D02*
X117140952Y-67669496D01*
X117140952Y-67669496D02*
X117188572Y-67723068D01*
X117188572Y-67723068D02*
X117236191Y-67824258D01*
X117236191Y-67824258D02*
X117236191Y-67967116D01*
X116569524Y-67121877D02*
X117236191Y-67205211D01*
X116664762Y-67133782D02*
X116617143Y-67080211D01*
X116617143Y-67080211D02*
X116569524Y-66979020D01*
X116569524Y-66979020D02*
X116569524Y-66836163D01*
X116569524Y-66836163D02*
X116617143Y-66746877D01*
X116617143Y-66746877D02*
X116712381Y-66711163D01*
X116712381Y-66711163D02*
X117236191Y-66776639D01*
X117188572Y-65913544D02*
X117236191Y-66014734D01*
X117236191Y-66014734D02*
X117236191Y-66205211D01*
X117236191Y-66205211D02*
X117188572Y-66294496D01*
X117188572Y-66294496D02*
X117093333Y-66330211D01*
X117093333Y-66330211D02*
X116712381Y-66282592D01*
X116712381Y-66282592D02*
X116617143Y-66223068D01*
X116617143Y-66223068D02*
X116569524Y-66121877D01*
X116569524Y-66121877D02*
X116569524Y-65931401D01*
X116569524Y-65931401D02*
X116617143Y-65842115D01*
X116617143Y-65842115D02*
X116712381Y-65806401D01*
X116712381Y-65806401D02*
X116807619Y-65818306D01*
X116807619Y-65818306D02*
X116902857Y-66306401D01*
X116569524Y-65359972D02*
X117236191Y-65443306D01*
X116664762Y-65371877D02*
X116617143Y-65318306D01*
X116617143Y-65318306D02*
X116569524Y-65217115D01*
X116569524Y-65217115D02*
X116569524Y-65074258D01*
X116569524Y-65074258D02*
X116617143Y-64984972D01*
X116617143Y-64984972D02*
X116712381Y-64949258D01*
X116712381Y-64949258D02*
X117236191Y-65014734D01*
X116569524Y-64598067D02*
X116569524Y-64217115D01*
X116236191Y-64413544D02*
X117093333Y-64520687D01*
X117093333Y-64520687D02*
X117188572Y-64484972D01*
X117188572Y-64484972D02*
X117236191Y-64395687D01*
X117236191Y-64395687D02*
X117236191Y-64300448D01*
X117188572Y-64008781D02*
X117236191Y-63919496D01*
X117236191Y-63919496D02*
X117236191Y-63729019D01*
X117236191Y-63729019D02*
X117188572Y-63627829D01*
X117188572Y-63627829D02*
X117093333Y-63568305D01*
X117093333Y-63568305D02*
X117045714Y-63562353D01*
X117045714Y-63562353D02*
X116950476Y-63598067D01*
X116950476Y-63598067D02*
X116902857Y-63687353D01*
X116902857Y-63687353D02*
X116902857Y-63830210D01*
X116902857Y-63830210D02*
X116855238Y-63919496D01*
X116855238Y-63919496D02*
X116760000Y-63955210D01*
X116760000Y-63955210D02*
X116712381Y-63949258D01*
X116712381Y-63949258D02*
X116617143Y-63889734D01*
X116617143Y-63889734D02*
X116569524Y-63788543D01*
X116569524Y-63788543D02*
X116569524Y-63645686D01*
X116569524Y-63645686D02*
X116617143Y-63556400D01*
X116569524Y-62455209D02*
X116569524Y-62074257D01*
X117236191Y-62395686D02*
X116379048Y-62288543D01*
X116379048Y-62288543D02*
X116283810Y-62229019D01*
X116283810Y-62229019D02*
X116236191Y-62127829D01*
X116236191Y-62127829D02*
X116236191Y-62032590D01*
X117236191Y-61395685D02*
X116712381Y-61330209D01*
X116712381Y-61330209D02*
X116617143Y-61365923D01*
X116617143Y-61365923D02*
X116569524Y-61455209D01*
X116569524Y-61455209D02*
X116569524Y-61645685D01*
X116569524Y-61645685D02*
X116617143Y-61746876D01*
X117188572Y-61389733D02*
X117236191Y-61490923D01*
X117236191Y-61490923D02*
X117236191Y-61729019D01*
X117236191Y-61729019D02*
X117188572Y-61818304D01*
X117188572Y-61818304D02*
X117093333Y-61854019D01*
X117093333Y-61854019D02*
X116998095Y-61842114D01*
X116998095Y-61842114D02*
X116902857Y-61782590D01*
X116902857Y-61782590D02*
X116855238Y-61681400D01*
X116855238Y-61681400D02*
X116855238Y-61443304D01*
X116855238Y-61443304D02*
X116807619Y-61342114D01*
X117188572Y-60484971D02*
X117236191Y-60586161D01*
X117236191Y-60586161D02*
X117236191Y-60776638D01*
X117236191Y-60776638D02*
X117188572Y-60865923D01*
X117188572Y-60865923D02*
X117140952Y-60907590D01*
X117140952Y-60907590D02*
X117045714Y-60943304D01*
X117045714Y-60943304D02*
X116760000Y-60907590D01*
X116760000Y-60907590D02*
X116664762Y-60848066D01*
X116664762Y-60848066D02*
X116617143Y-60794495D01*
X116617143Y-60794495D02*
X116569524Y-60693304D01*
X116569524Y-60693304D02*
X116569524Y-60502828D01*
X116569524Y-60502828D02*
X116617143Y-60413542D01*
X117236191Y-60062352D02*
X116569524Y-59979018D01*
X116236191Y-59937352D02*
X116283810Y-59990923D01*
X116283810Y-59990923D02*
X116331429Y-59949256D01*
X116331429Y-59949256D02*
X116283810Y-59895685D01*
X116283810Y-59895685D02*
X116236191Y-59937352D01*
X116236191Y-59937352D02*
X116331429Y-59949256D01*
X116569524Y-59502828D02*
X117236191Y-59586162D01*
X116664762Y-59514733D02*
X116617143Y-59461162D01*
X116617143Y-59461162D02*
X116569524Y-59359971D01*
X116569524Y-59359971D02*
X116569524Y-59217114D01*
X116569524Y-59217114D02*
X116617143Y-59127828D01*
X116617143Y-59127828D02*
X116712381Y-59092114D01*
X116712381Y-59092114D02*
X117236191Y-59157590D01*
X116569524Y-58169495D02*
X117379048Y-58270685D01*
X117379048Y-58270685D02*
X117474286Y-58330209D01*
X117474286Y-58330209D02*
X117521905Y-58383781D01*
X117521905Y-58383781D02*
X117569524Y-58484971D01*
X117569524Y-58484971D02*
X117569524Y-58627828D01*
X117569524Y-58627828D02*
X117521905Y-58717114D01*
X117188572Y-58246876D02*
X117236191Y-58348066D01*
X117236191Y-58348066D02*
X117236191Y-58538543D01*
X117236191Y-58538543D02*
X117188572Y-58627828D01*
X117188572Y-58627828D02*
X117140952Y-58669495D01*
X117140952Y-58669495D02*
X117045714Y-58705209D01*
X117045714Y-58705209D02*
X116760000Y-58669495D01*
X116760000Y-58669495D02*
X116664762Y-58609971D01*
X116664762Y-58609971D02*
X116617143Y-58556400D01*
X116617143Y-58556400D02*
X116569524Y-58455209D01*
X116569524Y-58455209D02*
X116569524Y-58264733D01*
X116569524Y-58264733D02*
X116617143Y-58175447D01*
X117236191Y-57014733D02*
X116236191Y-56889733D01*
X116236191Y-56889733D02*
X116236191Y-56651637D01*
X116236191Y-56651637D02*
X116283810Y-56514733D01*
X116283810Y-56514733D02*
X116379048Y-56431399D01*
X116379048Y-56431399D02*
X116474286Y-56395685D01*
X116474286Y-56395685D02*
X116664762Y-56371876D01*
X116664762Y-56371876D02*
X116807619Y-56389733D01*
X116807619Y-56389733D02*
X116998095Y-56461161D01*
X116998095Y-56461161D02*
X117093333Y-56520685D01*
X117093333Y-56520685D02*
X117188572Y-56627828D01*
X117188572Y-56627828D02*
X117236191Y-56776637D01*
X117236191Y-56776637D02*
X117236191Y-57014733D01*
X116236191Y-55699256D02*
X116236191Y-55508780D01*
X116236191Y-55508780D02*
X116283810Y-55419495D01*
X116283810Y-55419495D02*
X116379048Y-55336161D01*
X116379048Y-55336161D02*
X116569524Y-55312352D01*
X116569524Y-55312352D02*
X116902857Y-55354018D01*
X116902857Y-55354018D02*
X117093333Y-55425447D01*
X117093333Y-55425447D02*
X117188572Y-55532590D01*
X117188572Y-55532590D02*
X117236191Y-55633780D01*
X117236191Y-55633780D02*
X117236191Y-55824256D01*
X117236191Y-55824256D02*
X117188572Y-55913542D01*
X117188572Y-55913542D02*
X117093333Y-55996876D01*
X117093333Y-55996876D02*
X116902857Y-56020685D01*
X116902857Y-56020685D02*
X116569524Y-55979018D01*
X116569524Y-55979018D02*
X116379048Y-55907590D01*
X116379048Y-55907590D02*
X116283810Y-55800447D01*
X116283810Y-55800447D02*
X116236191Y-55699256D01*
X116236191Y-54937352D02*
X117236191Y-54824257D01*
X117236191Y-54824257D02*
X116521905Y-54544495D01*
X116521905Y-54544495D02*
X117236191Y-54443304D01*
X117236191Y-54443304D02*
X116236191Y-54080209D01*
X117236191Y-53824257D02*
X116236191Y-53699257D01*
X116236191Y-53699257D02*
X117236191Y-53252828D01*
X117236191Y-53252828D02*
X116236191Y-53127828D01*
D11*
X22189999Y-36492328D02*
X22189999Y-34992328D01*
X22189999Y-35706614D02*
X23047142Y-35706614D01*
X23047142Y-36492328D02*
X23047142Y-34992328D01*
X24404286Y-36492328D02*
X24404286Y-35706614D01*
X24404286Y-35706614D02*
X24332857Y-35563757D01*
X24332857Y-35563757D02*
X24190000Y-35492328D01*
X24190000Y-35492328D02*
X23904286Y-35492328D01*
X23904286Y-35492328D02*
X23761428Y-35563757D01*
X24404286Y-36420900D02*
X24261428Y-36492328D01*
X24261428Y-36492328D02*
X23904286Y-36492328D01*
X23904286Y-36492328D02*
X23761428Y-36420900D01*
X23761428Y-36420900D02*
X23690000Y-36278042D01*
X23690000Y-36278042D02*
X23690000Y-36135185D01*
X23690000Y-36135185D02*
X23761428Y-35992328D01*
X23761428Y-35992328D02*
X23904286Y-35920900D01*
X23904286Y-35920900D02*
X24261428Y-35920900D01*
X24261428Y-35920900D02*
X24404286Y-35849471D01*
X25332857Y-36492328D02*
X25190000Y-36420900D01*
X25190000Y-36420900D02*
X25118571Y-36278042D01*
X25118571Y-36278042D02*
X25118571Y-34992328D01*
X25690000Y-35492328D02*
X26261428Y-35492328D01*
X25904285Y-36492328D02*
X25904285Y-35206614D01*
X25904285Y-35206614D02*
X25975714Y-35063757D01*
X25975714Y-35063757D02*
X26118571Y-34992328D01*
X26118571Y-34992328D02*
X26261428Y-34992328D01*
X27832857Y-36420900D02*
X28047143Y-36492328D01*
X28047143Y-36492328D02*
X28404285Y-36492328D01*
X28404285Y-36492328D02*
X28547143Y-36420900D01*
X28547143Y-36420900D02*
X28618571Y-36349471D01*
X28618571Y-36349471D02*
X28690000Y-36206614D01*
X28690000Y-36206614D02*
X28690000Y-36063757D01*
X28690000Y-36063757D02*
X28618571Y-35920900D01*
X28618571Y-35920900D02*
X28547143Y-35849471D01*
X28547143Y-35849471D02*
X28404285Y-35778042D01*
X28404285Y-35778042D02*
X28118571Y-35706614D01*
X28118571Y-35706614D02*
X27975714Y-35635185D01*
X27975714Y-35635185D02*
X27904285Y-35563757D01*
X27904285Y-35563757D02*
X27832857Y-35420900D01*
X27832857Y-35420900D02*
X27832857Y-35278042D01*
X27832857Y-35278042D02*
X27904285Y-35135185D01*
X27904285Y-35135185D02*
X27975714Y-35063757D01*
X27975714Y-35063757D02*
X28118571Y-34992328D01*
X28118571Y-34992328D02*
X28475714Y-34992328D01*
X28475714Y-34992328D02*
X28690000Y-35063757D01*
X29189999Y-35492328D02*
X29475714Y-36492328D01*
X29475714Y-36492328D02*
X29761428Y-35778042D01*
X29761428Y-35778042D02*
X30047142Y-36492328D01*
X30047142Y-36492328D02*
X30332856Y-35492328D01*
X31475714Y-36420900D02*
X31332857Y-36492328D01*
X31332857Y-36492328D02*
X31047143Y-36492328D01*
X31047143Y-36492328D02*
X30904285Y-36420900D01*
X30904285Y-36420900D02*
X30832857Y-36278042D01*
X30832857Y-36278042D02*
X30832857Y-35706614D01*
X30832857Y-35706614D02*
X30904285Y-35563757D01*
X30904285Y-35563757D02*
X31047143Y-35492328D01*
X31047143Y-35492328D02*
X31332857Y-35492328D01*
X31332857Y-35492328D02*
X31475714Y-35563757D01*
X31475714Y-35563757D02*
X31547143Y-35706614D01*
X31547143Y-35706614D02*
X31547143Y-35849471D01*
X31547143Y-35849471D02*
X30832857Y-35992328D01*
X32189999Y-35492328D02*
X32189999Y-36992328D01*
X32189999Y-35563757D02*
X32332857Y-35492328D01*
X32332857Y-35492328D02*
X32618571Y-35492328D01*
X32618571Y-35492328D02*
X32761428Y-35563757D01*
X32761428Y-35563757D02*
X32832857Y-35635185D01*
X32832857Y-35635185D02*
X32904285Y-35778042D01*
X32904285Y-35778042D02*
X32904285Y-36206614D01*
X32904285Y-36206614D02*
X32832857Y-36349471D01*
X32832857Y-36349471D02*
X32761428Y-36420900D01*
X32761428Y-36420900D02*
X32618571Y-36492328D01*
X32618571Y-36492328D02*
X32332857Y-36492328D01*
X32332857Y-36492328D02*
X32189999Y-36420900D01*
X33332857Y-35492328D02*
X33904285Y-35492328D01*
X33547142Y-34992328D02*
X33547142Y-36278042D01*
X33547142Y-36278042D02*
X33618571Y-36420900D01*
X33618571Y-36420900D02*
X33761428Y-36492328D01*
X33761428Y-36492328D02*
X33904285Y-36492328D01*
D12*
X121897289Y-51312702D02*
X121840147Y-51284131D01*
X121840147Y-51284131D02*
X121754432Y-51284131D01*
X121754432Y-51284131D02*
X121668718Y-51312702D01*
X121668718Y-51312702D02*
X121611575Y-51369845D01*
X121611575Y-51369845D02*
X121583004Y-51426988D01*
X121583004Y-51426988D02*
X121554432Y-51541274D01*
X121554432Y-51541274D02*
X121554432Y-51626988D01*
X121554432Y-51626988D02*
X121583004Y-51741274D01*
X121583004Y-51741274D02*
X121611575Y-51798417D01*
X121611575Y-51798417D02*
X121668718Y-51855560D01*
X121668718Y-51855560D02*
X121754432Y-51884131D01*
X121754432Y-51884131D02*
X121811575Y-51884131D01*
X121811575Y-51884131D02*
X121897289Y-51855560D01*
X121897289Y-51855560D02*
X121925861Y-51826988D01*
X121925861Y-51826988D02*
X121925861Y-51626988D01*
X121925861Y-51626988D02*
X121811575Y-51626988D01*
X122183004Y-51884131D02*
X122183004Y-51284131D01*
X122183004Y-51284131D02*
X122525861Y-51884131D01*
X122525861Y-51884131D02*
X122525861Y-51284131D01*
X122811575Y-51884131D02*
X122811575Y-51284131D01*
X122811575Y-51284131D02*
X122954432Y-51284131D01*
X122954432Y-51284131D02*
X123040146Y-51312702D01*
X123040146Y-51312702D02*
X123097289Y-51369845D01*
X123097289Y-51369845D02*
X123125860Y-51426988D01*
X123125860Y-51426988D02*
X123154432Y-51541274D01*
X123154432Y-51541274D02*
X123154432Y-51626988D01*
X123154432Y-51626988D02*
X123125860Y-51741274D01*
X123125860Y-51741274D02*
X123097289Y-51798417D01*
X123097289Y-51798417D02*
X123040146Y-51855560D01*
X123040146Y-51855560D02*
X122954432Y-51884131D01*
X122954432Y-51884131D02*
X122811575Y-51884131D01*
D10*
X120614285Y-72044496D02*
X120566666Y-71990925D01*
X120566666Y-71990925D02*
X120519047Y-71889735D01*
X120519047Y-71889735D02*
X120519047Y-71651639D01*
X120519047Y-71651639D02*
X120566666Y-71562354D01*
X120566666Y-71562354D02*
X120614285Y-71520687D01*
X120614285Y-71520687D02*
X120709523Y-71484973D01*
X120709523Y-71484973D02*
X120804761Y-71496877D01*
X120804761Y-71496877D02*
X120947618Y-71562354D01*
X120947618Y-71562354D02*
X121519047Y-72205211D01*
X121519047Y-72205211D02*
X121519047Y-71586163D01*
X121899999Y-71300449D02*
X121852380Y-71246877D01*
X121852380Y-71246877D02*
X121709523Y-71133782D01*
X121709523Y-71133782D02*
X121614285Y-71074258D01*
X121614285Y-71074258D02*
X121471428Y-71008782D01*
X121471428Y-71008782D02*
X121233332Y-70931401D01*
X121233332Y-70931401D02*
X121042856Y-70907592D01*
X121042856Y-70907592D02*
X120804761Y-70925449D01*
X120804761Y-70925449D02*
X120661904Y-70955211D01*
X120661904Y-70955211D02*
X120566666Y-70990925D01*
X120566666Y-70990925D02*
X120423808Y-71068306D01*
X120423808Y-71068306D02*
X120376189Y-71109973D01*
X121423808Y-69145686D02*
X121471428Y-69199258D01*
X121471428Y-69199258D02*
X121519047Y-69348067D01*
X121519047Y-69348067D02*
X121519047Y-69443305D01*
X121519047Y-69443305D02*
X121471428Y-69580210D01*
X121471428Y-69580210D02*
X121376189Y-69663543D01*
X121376189Y-69663543D02*
X121280951Y-69699258D01*
X121280951Y-69699258D02*
X121090475Y-69723067D01*
X121090475Y-69723067D02*
X120947618Y-69705210D01*
X120947618Y-69705210D02*
X120757142Y-69633782D01*
X120757142Y-69633782D02*
X120661904Y-69574258D01*
X120661904Y-69574258D02*
X120566666Y-69467115D01*
X120566666Y-69467115D02*
X120519047Y-69318305D01*
X120519047Y-69318305D02*
X120519047Y-69223067D01*
X120519047Y-69223067D02*
X120566666Y-69086163D01*
X120566666Y-69086163D02*
X120614285Y-69044496D01*
X121519047Y-68586163D02*
X121471428Y-68675448D01*
X121471428Y-68675448D02*
X121376189Y-68711163D01*
X121376189Y-68711163D02*
X120519047Y-68604020D01*
X121519047Y-68062353D02*
X121471428Y-68151638D01*
X121471428Y-68151638D02*
X121423808Y-68193305D01*
X121423808Y-68193305D02*
X121328570Y-68229019D01*
X121328570Y-68229019D02*
X121042856Y-68193305D01*
X121042856Y-68193305D02*
X120947618Y-68133781D01*
X120947618Y-68133781D02*
X120899999Y-68080210D01*
X120899999Y-68080210D02*
X120852380Y-67979019D01*
X120852380Y-67979019D02*
X120852380Y-67836162D01*
X120852380Y-67836162D02*
X120899999Y-67746876D01*
X120899999Y-67746876D02*
X120947618Y-67705210D01*
X120947618Y-67705210D02*
X121042856Y-67669495D01*
X121042856Y-67669495D02*
X121328570Y-67705210D01*
X121328570Y-67705210D02*
X121423808Y-67764733D01*
X121423808Y-67764733D02*
X121471428Y-67818305D01*
X121471428Y-67818305D02*
X121519047Y-67919495D01*
X121519047Y-67919495D02*
X121519047Y-68062353D01*
X121471428Y-67342114D02*
X121519047Y-67252829D01*
X121519047Y-67252829D02*
X121519047Y-67062352D01*
X121519047Y-67062352D02*
X121471428Y-66961162D01*
X121471428Y-66961162D02*
X121376189Y-66901638D01*
X121376189Y-66901638D02*
X121328570Y-66895686D01*
X121328570Y-66895686D02*
X121233332Y-66931400D01*
X121233332Y-66931400D02*
X121185713Y-67020686D01*
X121185713Y-67020686D02*
X121185713Y-67163543D01*
X121185713Y-67163543D02*
X121138094Y-67252829D01*
X121138094Y-67252829D02*
X121042856Y-67288543D01*
X121042856Y-67288543D02*
X120995237Y-67282591D01*
X120995237Y-67282591D02*
X120899999Y-67223067D01*
X120899999Y-67223067D02*
X120852380Y-67121876D01*
X120852380Y-67121876D02*
X120852380Y-66979019D01*
X120852380Y-66979019D02*
X120899999Y-66889733D01*
X121471428Y-66104019D02*
X121519047Y-66205209D01*
X121519047Y-66205209D02*
X121519047Y-66395686D01*
X121519047Y-66395686D02*
X121471428Y-66484971D01*
X121471428Y-66484971D02*
X121376189Y-66520686D01*
X121376189Y-66520686D02*
X120995237Y-66473067D01*
X120995237Y-66473067D02*
X120899999Y-66413543D01*
X120899999Y-66413543D02*
X120852380Y-66312352D01*
X120852380Y-66312352D02*
X120852380Y-66121876D01*
X120852380Y-66121876D02*
X120899999Y-66032590D01*
X120899999Y-66032590D02*
X120995237Y-65996876D01*
X120995237Y-65996876D02*
X121090475Y-66008781D01*
X121090475Y-66008781D02*
X121185713Y-66496876D01*
X120519047Y-64461161D02*
X121233332Y-64550447D01*
X121233332Y-64550447D02*
X121376189Y-64615923D01*
X121376189Y-64615923D02*
X121471428Y-64723066D01*
X121471428Y-64723066D02*
X121519047Y-64871876D01*
X121519047Y-64871876D02*
X121519047Y-64967114D01*
X120519047Y-63984971D02*
X121328570Y-64086161D01*
X121328570Y-64086161D02*
X121423808Y-64050447D01*
X121423808Y-64050447D02*
X121471428Y-64008780D01*
X121471428Y-64008780D02*
X121519047Y-63919494D01*
X121519047Y-63919494D02*
X121519047Y-63729018D01*
X121519047Y-63729018D02*
X121471428Y-63627828D01*
X121471428Y-63627828D02*
X121423808Y-63574256D01*
X121423808Y-63574256D02*
X121328570Y-63514733D01*
X121328570Y-63514733D02*
X120519047Y-63413542D01*
X121519047Y-63062352D02*
X120519047Y-62937352D01*
X120519047Y-62937352D02*
X121233332Y-62693304D01*
X121233332Y-62693304D02*
X120519047Y-62270685D01*
X120519047Y-62270685D02*
X121519047Y-62395685D01*
X121519047Y-61919495D02*
X120519047Y-61794495D01*
X120519047Y-61794495D02*
X120519047Y-61413542D01*
X120519047Y-61413542D02*
X120566666Y-61324257D01*
X120566666Y-61324257D02*
X120614285Y-61282590D01*
X120614285Y-61282590D02*
X120709523Y-61246876D01*
X120709523Y-61246876D02*
X120852380Y-61264733D01*
X120852380Y-61264733D02*
X120947618Y-61324257D01*
X120947618Y-61324257D02*
X120995237Y-61377828D01*
X120995237Y-61377828D02*
X121042856Y-61479018D01*
X121042856Y-61479018D02*
X121042856Y-61859971D01*
X120995237Y-60854018D02*
X120995237Y-60520685D01*
X121519047Y-60443304D02*
X121519047Y-60919495D01*
X121519047Y-60919495D02*
X120519047Y-60794495D01*
X120519047Y-60794495D02*
X120519047Y-60318304D01*
X121519047Y-59443304D02*
X121042856Y-59717114D01*
X121519047Y-60014733D02*
X120519047Y-59889733D01*
X120519047Y-59889733D02*
X120519047Y-59508780D01*
X120519047Y-59508780D02*
X120566666Y-59419495D01*
X120566666Y-59419495D02*
X120614285Y-59377828D01*
X120614285Y-59377828D02*
X120709523Y-59342114D01*
X120709523Y-59342114D02*
X120852380Y-59359971D01*
X120852380Y-59359971D02*
X120947618Y-59419495D01*
X120947618Y-59419495D02*
X120995237Y-59473066D01*
X120995237Y-59473066D02*
X121042856Y-59574256D01*
X121042856Y-59574256D02*
X121042856Y-59955209D01*
X121519047Y-58252828D02*
X120519047Y-58127828D01*
X120519047Y-58127828D02*
X120519047Y-57746875D01*
X120519047Y-57746875D02*
X120566666Y-57657590D01*
X120566666Y-57657590D02*
X120614285Y-57615923D01*
X120614285Y-57615923D02*
X120709523Y-57580209D01*
X120709523Y-57580209D02*
X120852380Y-57598066D01*
X120852380Y-57598066D02*
X120947618Y-57657590D01*
X120947618Y-57657590D02*
X120995237Y-57711161D01*
X120995237Y-57711161D02*
X121042856Y-57812351D01*
X121042856Y-57812351D02*
X121042856Y-58193304D01*
X121233332Y-57264732D02*
X121233332Y-56788542D01*
X121519047Y-57395685D02*
X120519047Y-56937351D01*
X120519047Y-56937351D02*
X121519047Y-56729018D01*
X121519047Y-56395685D02*
X120519047Y-56270685D01*
X120519047Y-56270685D02*
X120519047Y-56032589D01*
X120519047Y-56032589D02*
X120566666Y-55895685D01*
X120566666Y-55895685D02*
X120661904Y-55812351D01*
X120661904Y-55812351D02*
X120757142Y-55776637D01*
X120757142Y-55776637D02*
X120947618Y-55752828D01*
X120947618Y-55752828D02*
X121090475Y-55770685D01*
X121090475Y-55770685D02*
X121280951Y-55842113D01*
X121280951Y-55842113D02*
X121376189Y-55901637D01*
X121376189Y-55901637D02*
X121471428Y-56008780D01*
X121471428Y-56008780D02*
X121519047Y-56157589D01*
X121519047Y-56157589D02*
X121519047Y-56395685D01*
X121471428Y-55437351D02*
X121519047Y-55300447D01*
X121519047Y-55300447D02*
X121519047Y-55062351D01*
X121519047Y-55062351D02*
X121471428Y-54961161D01*
X121471428Y-54961161D02*
X121423808Y-54907589D01*
X121423808Y-54907589D02*
X121328570Y-54848066D01*
X121328570Y-54848066D02*
X121233332Y-54836161D01*
X121233332Y-54836161D02*
X121138094Y-54871875D01*
X121138094Y-54871875D02*
X121090475Y-54913542D01*
X121090475Y-54913542D02*
X121042856Y-55002828D01*
X121042856Y-55002828D02*
X120995237Y-55187351D01*
X120995237Y-55187351D02*
X120947618Y-55276637D01*
X120947618Y-55276637D02*
X120899999Y-55318304D01*
X120899999Y-55318304D02*
X120804761Y-55354018D01*
X120804761Y-55354018D02*
X120709523Y-55342113D01*
X120709523Y-55342113D02*
X120614285Y-55282589D01*
X120614285Y-55282589D02*
X120566666Y-55229018D01*
X120566666Y-55229018D02*
X120519047Y-55127828D01*
X120519047Y-55127828D02*
X120519047Y-54889732D01*
X120519047Y-54889732D02*
X120566666Y-54752828D01*
X123128991Y-71967116D02*
X123081372Y-72056401D01*
X123081372Y-72056401D02*
X123033752Y-72098068D01*
X123033752Y-72098068D02*
X122938514Y-72133782D01*
X122938514Y-72133782D02*
X122652800Y-72098068D01*
X122652800Y-72098068D02*
X122557562Y-72038544D01*
X122557562Y-72038544D02*
X122509943Y-71984973D01*
X122509943Y-71984973D02*
X122462324Y-71883782D01*
X122462324Y-71883782D02*
X122462324Y-71740925D01*
X122462324Y-71740925D02*
X122509943Y-71651639D01*
X122509943Y-71651639D02*
X122557562Y-71609973D01*
X122557562Y-71609973D02*
X122652800Y-71574258D01*
X122652800Y-71574258D02*
X122938514Y-71609973D01*
X122938514Y-71609973D02*
X123033752Y-71669496D01*
X123033752Y-71669496D02*
X123081372Y-71723068D01*
X123081372Y-71723068D02*
X123128991Y-71824258D01*
X123128991Y-71824258D02*
X123128991Y-71967116D01*
X122462324Y-71121877D02*
X123128991Y-71205211D01*
X122557562Y-71133782D02*
X122509943Y-71080211D01*
X122509943Y-71080211D02*
X122462324Y-70979020D01*
X122462324Y-70979020D02*
X122462324Y-70836163D01*
X122462324Y-70836163D02*
X122509943Y-70746877D01*
X122509943Y-70746877D02*
X122605181Y-70711163D01*
X122605181Y-70711163D02*
X123128991Y-70776639D01*
X122462324Y-69598067D02*
X122462324Y-69217115D01*
X122128991Y-69413544D02*
X122986133Y-69520687D01*
X122986133Y-69520687D02*
X123081372Y-69484972D01*
X123081372Y-69484972D02*
X123128991Y-69395687D01*
X123128991Y-69395687D02*
X123128991Y-69300448D01*
X123128991Y-68967115D02*
X122128991Y-68842115D01*
X123128991Y-68538543D02*
X122605181Y-68473067D01*
X122605181Y-68473067D02*
X122509943Y-68508781D01*
X122509943Y-68508781D02*
X122462324Y-68598067D01*
X122462324Y-68598067D02*
X122462324Y-68740924D01*
X122462324Y-68740924D02*
X122509943Y-68842115D01*
X122509943Y-68842115D02*
X122557562Y-68895686D01*
X123081372Y-67675448D02*
X123128991Y-67776638D01*
X123128991Y-67776638D02*
X123128991Y-67967115D01*
X123128991Y-67967115D02*
X123081372Y-68056400D01*
X123081372Y-68056400D02*
X122986133Y-68092115D01*
X122986133Y-68092115D02*
X122605181Y-68044496D01*
X122605181Y-68044496D02*
X122509943Y-67984972D01*
X122509943Y-67984972D02*
X122462324Y-67883781D01*
X122462324Y-67883781D02*
X122462324Y-67693305D01*
X122462324Y-67693305D02*
X122509943Y-67604019D01*
X122509943Y-67604019D02*
X122605181Y-67568305D01*
X122605181Y-67568305D02*
X122700419Y-67580210D01*
X122700419Y-67580210D02*
X122795657Y-68068305D01*
X122128991Y-66127828D02*
X122128991Y-65937352D01*
X122128991Y-65937352D02*
X122176610Y-65848067D01*
X122176610Y-65848067D02*
X122271848Y-65764733D01*
X122271848Y-65764733D02*
X122462324Y-65740924D01*
X122462324Y-65740924D02*
X122795657Y-65782590D01*
X122795657Y-65782590D02*
X122986133Y-65854019D01*
X122986133Y-65854019D02*
X123081372Y-65961162D01*
X123081372Y-65961162D02*
X123128991Y-66062352D01*
X123128991Y-66062352D02*
X123128991Y-66252828D01*
X123128991Y-66252828D02*
X123081372Y-66342114D01*
X123081372Y-66342114D02*
X122986133Y-66425448D01*
X122986133Y-66425448D02*
X122795657Y-66449257D01*
X122795657Y-66449257D02*
X122462324Y-66407590D01*
X122462324Y-66407590D02*
X122271848Y-66336162D01*
X122271848Y-66336162D02*
X122176610Y-66229019D01*
X122176610Y-66229019D02*
X122128991Y-66127828D01*
X123128991Y-65395686D02*
X122128991Y-65270686D01*
X122128991Y-65270686D02*
X122128991Y-64889733D01*
X122128991Y-64889733D02*
X122176610Y-64800448D01*
X122176610Y-64800448D02*
X122224229Y-64758781D01*
X122224229Y-64758781D02*
X122319467Y-64723067D01*
X122319467Y-64723067D02*
X122462324Y-64740924D01*
X122462324Y-64740924D02*
X122557562Y-64800448D01*
X122557562Y-64800448D02*
X122605181Y-64854019D01*
X122605181Y-64854019D02*
X122652800Y-64955209D01*
X122652800Y-64955209D02*
X122652800Y-65336162D01*
X123128991Y-64395686D02*
X122128991Y-64270686D01*
X122128991Y-64270686D02*
X122128991Y-63889733D01*
X122128991Y-63889733D02*
X122176610Y-63800448D01*
X122176610Y-63800448D02*
X122224229Y-63758781D01*
X122224229Y-63758781D02*
X122319467Y-63723067D01*
X122319467Y-63723067D02*
X122462324Y-63740924D01*
X122462324Y-63740924D02*
X122557562Y-63800448D01*
X122557562Y-63800448D02*
X122605181Y-63854019D01*
X122605181Y-63854019D02*
X122652800Y-63955209D01*
X122652800Y-63955209D02*
X122652800Y-64336162D01*
X122128991Y-63080209D02*
X122128991Y-62889733D01*
X122128991Y-62889733D02*
X122176610Y-62800448D01*
X122176610Y-62800448D02*
X122271848Y-62717114D01*
X122271848Y-62717114D02*
X122462324Y-62693305D01*
X122462324Y-62693305D02*
X122795657Y-62734971D01*
X122795657Y-62734971D02*
X122986133Y-62806400D01*
X122986133Y-62806400D02*
X123081372Y-62913543D01*
X123081372Y-62913543D02*
X123128991Y-63014733D01*
X123128991Y-63014733D02*
X123128991Y-63205209D01*
X123128991Y-63205209D02*
X123081372Y-63294495D01*
X123081372Y-63294495D02*
X122986133Y-63377829D01*
X122986133Y-63377829D02*
X122795657Y-63401638D01*
X122795657Y-63401638D02*
X122462324Y-63359971D01*
X122462324Y-63359971D02*
X122271848Y-63288543D01*
X122271848Y-63288543D02*
X122176610Y-63181400D01*
X122176610Y-63181400D02*
X122128991Y-63080209D01*
X123081372Y-62389733D02*
X123128991Y-62252829D01*
X123128991Y-62252829D02*
X123128991Y-62014733D01*
X123128991Y-62014733D02*
X123081372Y-61913543D01*
X123081372Y-61913543D02*
X123033752Y-61859971D01*
X123033752Y-61859971D02*
X122938514Y-61800448D01*
X122938514Y-61800448D02*
X122843276Y-61788543D01*
X122843276Y-61788543D02*
X122748038Y-61824257D01*
X122748038Y-61824257D02*
X122700419Y-61865924D01*
X122700419Y-61865924D02*
X122652800Y-61955210D01*
X122652800Y-61955210D02*
X122605181Y-62139733D01*
X122605181Y-62139733D02*
X122557562Y-62229019D01*
X122557562Y-62229019D02*
X122509943Y-62270686D01*
X122509943Y-62270686D02*
X122414705Y-62306400D01*
X122414705Y-62306400D02*
X122319467Y-62294495D01*
X122319467Y-62294495D02*
X122224229Y-62234971D01*
X122224229Y-62234971D02*
X122176610Y-62181400D01*
X122176610Y-62181400D02*
X122128991Y-62080210D01*
X122128991Y-62080210D02*
X122128991Y-61842114D01*
X122128991Y-61842114D02*
X122176610Y-61705210D01*
X123128991Y-61395686D02*
X122128991Y-61270686D01*
X122128991Y-60937353D02*
X122128991Y-60365924D01*
X123128991Y-60776639D02*
X122128991Y-60651639D01*
X122605181Y-60092114D02*
X122605181Y-59758781D01*
X123128991Y-59681400D02*
X123128991Y-60157591D01*
X123128991Y-60157591D02*
X122128991Y-60032591D01*
X122128991Y-60032591D02*
X122128991Y-59556400D01*
X123081372Y-58532590D02*
X123128991Y-58395686D01*
X123128991Y-58395686D02*
X123128991Y-58157590D01*
X123128991Y-58157590D02*
X123081372Y-58056400D01*
X123081372Y-58056400D02*
X123033752Y-58002828D01*
X123033752Y-58002828D02*
X122938514Y-57943305D01*
X122938514Y-57943305D02*
X122843276Y-57931400D01*
X122843276Y-57931400D02*
X122748038Y-57967114D01*
X122748038Y-57967114D02*
X122700419Y-58008781D01*
X122700419Y-58008781D02*
X122652800Y-58098067D01*
X122652800Y-58098067D02*
X122605181Y-58282590D01*
X122605181Y-58282590D02*
X122557562Y-58371876D01*
X122557562Y-58371876D02*
X122509943Y-58413543D01*
X122509943Y-58413543D02*
X122414705Y-58449257D01*
X122414705Y-58449257D02*
X122319467Y-58437352D01*
X122319467Y-58437352D02*
X122224229Y-58377828D01*
X122224229Y-58377828D02*
X122176610Y-58324257D01*
X122176610Y-58324257D02*
X122128991Y-58223067D01*
X122128991Y-58223067D02*
X122128991Y-57984971D01*
X122128991Y-57984971D02*
X122176610Y-57848067D01*
X123128991Y-57538543D02*
X122128991Y-57413543D01*
X123128991Y-57062353D02*
X122128991Y-56937353D01*
X122128991Y-56937353D02*
X122128991Y-56699257D01*
X122128991Y-56699257D02*
X122176610Y-56562353D01*
X122176610Y-56562353D02*
X122271848Y-56479019D01*
X122271848Y-56479019D02*
X122367086Y-56443305D01*
X122367086Y-56443305D02*
X122557562Y-56419496D01*
X122557562Y-56419496D02*
X122700419Y-56437353D01*
X122700419Y-56437353D02*
X122890895Y-56508781D01*
X122890895Y-56508781D02*
X122986133Y-56568305D01*
X122986133Y-56568305D02*
X123081372Y-56675448D01*
X123081372Y-56675448D02*
X123128991Y-56824257D01*
X123128991Y-56824257D02*
X123128991Y-57062353D01*
X122605181Y-55996876D02*
X122605181Y-55663543D01*
X123128991Y-55586162D02*
X123128991Y-56062353D01*
X123128991Y-56062353D02*
X122128991Y-55937353D01*
X122128991Y-55937353D02*
X122128991Y-55461162D01*
X117110095Y-82131819D02*
X117681523Y-82131819D01*
X117395809Y-83131819D02*
X117395809Y-82131819D01*
X118586285Y-83131819D02*
X118252952Y-82655628D01*
X118014857Y-83131819D02*
X118014857Y-82131819D01*
X118014857Y-82131819D02*
X118395809Y-82131819D01*
X118395809Y-82131819D02*
X118491047Y-82179438D01*
X118491047Y-82179438D02*
X118538666Y-82227057D01*
X118538666Y-82227057D02*
X118586285Y-82322295D01*
X118586285Y-82322295D02*
X118586285Y-82465152D01*
X118586285Y-82465152D02*
X118538666Y-82560390D01*
X118538666Y-82560390D02*
X118491047Y-82608009D01*
X118491047Y-82608009D02*
X118395809Y-82655628D01*
X118395809Y-82655628D02*
X118014857Y-82655628D01*
X119586285Y-83131819D02*
X119252952Y-82655628D01*
X119014857Y-83131819D02*
X119014857Y-82131819D01*
X119014857Y-82131819D02*
X119395809Y-82131819D01*
X119395809Y-82131819D02*
X119491047Y-82179438D01*
X119491047Y-82179438D02*
X119538666Y-82227057D01*
X119538666Y-82227057D02*
X119586285Y-82322295D01*
X119586285Y-82322295D02*
X119586285Y-82465152D01*
X119586285Y-82465152D02*
X119538666Y-82560390D01*
X119538666Y-82560390D02*
X119491047Y-82608009D01*
X119491047Y-82608009D02*
X119395809Y-82655628D01*
X119395809Y-82655628D02*
X119014857Y-82655628D01*
X119967238Y-83084200D02*
X120110095Y-83131819D01*
X120110095Y-83131819D02*
X120348190Y-83131819D01*
X120348190Y-83131819D02*
X120443428Y-83084200D01*
X120443428Y-83084200D02*
X120491047Y-83036580D01*
X120491047Y-83036580D02*
X120538666Y-82941342D01*
X120538666Y-82941342D02*
X120538666Y-82846104D01*
X120538666Y-82846104D02*
X120491047Y-82750866D01*
X120491047Y-82750866D02*
X120443428Y-82703247D01*
X120443428Y-82703247D02*
X120348190Y-82655628D01*
X120348190Y-82655628D02*
X120157714Y-82608009D01*
X120157714Y-82608009D02*
X120062476Y-82560390D01*
X120062476Y-82560390D02*
X120014857Y-82512771D01*
X120014857Y-82512771D02*
X119967238Y-82417533D01*
X119967238Y-82417533D02*
X119967238Y-82322295D01*
X119967238Y-82322295D02*
X120014857Y-82227057D01*
X120014857Y-82227057D02*
X120062476Y-82179438D01*
X120062476Y-82179438D02*
X120157714Y-82131819D01*
X120157714Y-82131819D02*
X120395809Y-82131819D01*
X120395809Y-82131819D02*
X120538666Y-82179438D01*
D12*
X121925861Y-49344131D02*
X121725861Y-49058417D01*
X121583004Y-49344131D02*
X121583004Y-48744131D01*
X121583004Y-48744131D02*
X121811575Y-48744131D01*
X121811575Y-48744131D02*
X121868718Y-48772702D01*
X121868718Y-48772702D02*
X121897289Y-48801274D01*
X121897289Y-48801274D02*
X121925861Y-48858417D01*
X121925861Y-48858417D02*
X121925861Y-48944131D01*
X121925861Y-48944131D02*
X121897289Y-49001274D01*
X121897289Y-49001274D02*
X121868718Y-49029845D01*
X121868718Y-49029845D02*
X121811575Y-49058417D01*
X121811575Y-49058417D02*
X121583004Y-49058417D01*
X122154432Y-49172702D02*
X122440147Y-49172702D01*
X122097289Y-49344131D02*
X122297289Y-48744131D01*
X122297289Y-48744131D02*
X122497289Y-49344131D01*
X122640147Y-48744131D02*
X122783004Y-49344131D01*
X122783004Y-49344131D02*
X122897290Y-48915560D01*
X122897290Y-48915560D02*
X123011575Y-49344131D01*
X123011575Y-49344131D02*
X123154433Y-48744131D01*
D10*
X124385429Y-45929485D02*
X124471143Y-45958057D01*
X124471143Y-45958057D02*
X124499714Y-45986628D01*
X124499714Y-45986628D02*
X124528286Y-46043771D01*
X124528286Y-46043771D02*
X124528286Y-46129485D01*
X124528286Y-46129485D02*
X124499714Y-46186628D01*
X124499714Y-46186628D02*
X124471143Y-46215200D01*
X124471143Y-46215200D02*
X124414000Y-46243771D01*
X124414000Y-46243771D02*
X124185429Y-46243771D01*
X124185429Y-46243771D02*
X124185429Y-45643771D01*
X124185429Y-45643771D02*
X124385429Y-45643771D01*
X124385429Y-45643771D02*
X124442572Y-45672342D01*
X124442572Y-45672342D02*
X124471143Y-45700914D01*
X124471143Y-45700914D02*
X124499714Y-45758057D01*
X124499714Y-45758057D02*
X124499714Y-45815200D01*
X124499714Y-45815200D02*
X124471143Y-45872342D01*
X124471143Y-45872342D02*
X124442572Y-45900914D01*
X124442572Y-45900914D02*
X124385429Y-45929485D01*
X124385429Y-45929485D02*
X124185429Y-45929485D01*
X124785429Y-46015200D02*
X125242572Y-46015200D01*
X125014000Y-46243771D02*
X125014000Y-45786628D01*
X112701429Y-45929485D02*
X112787143Y-45958057D01*
X112787143Y-45958057D02*
X112815714Y-45986628D01*
X112815714Y-45986628D02*
X112844286Y-46043771D01*
X112844286Y-46043771D02*
X112844286Y-46129485D01*
X112844286Y-46129485D02*
X112815714Y-46186628D01*
X112815714Y-46186628D02*
X112787143Y-46215200D01*
X112787143Y-46215200D02*
X112730000Y-46243771D01*
X112730000Y-46243771D02*
X112501429Y-46243771D01*
X112501429Y-46243771D02*
X112501429Y-45643771D01*
X112501429Y-45643771D02*
X112701429Y-45643771D01*
X112701429Y-45643771D02*
X112758572Y-45672342D01*
X112758572Y-45672342D02*
X112787143Y-45700914D01*
X112787143Y-45700914D02*
X112815714Y-45758057D01*
X112815714Y-45758057D02*
X112815714Y-45815200D01*
X112815714Y-45815200D02*
X112787143Y-45872342D01*
X112787143Y-45872342D02*
X112758572Y-45900914D01*
X112758572Y-45900914D02*
X112701429Y-45929485D01*
X112701429Y-45929485D02*
X112501429Y-45929485D01*
X113101429Y-46015200D02*
X113558572Y-46015200D01*
D13*
X21057491Y-40806380D02*
X21186063Y-40849237D01*
X21186063Y-40849237D02*
X21400348Y-40849237D01*
X21400348Y-40849237D02*
X21486063Y-40806380D01*
X21486063Y-40806380D02*
X21528920Y-40763522D01*
X21528920Y-40763522D02*
X21571777Y-40677808D01*
X21571777Y-40677808D02*
X21571777Y-40592094D01*
X21571777Y-40592094D02*
X21528920Y-40506380D01*
X21528920Y-40506380D02*
X21486063Y-40463522D01*
X21486063Y-40463522D02*
X21400348Y-40420665D01*
X21400348Y-40420665D02*
X21228920Y-40377808D01*
X21228920Y-40377808D02*
X21143205Y-40334951D01*
X21143205Y-40334951D02*
X21100348Y-40292094D01*
X21100348Y-40292094D02*
X21057491Y-40206380D01*
X21057491Y-40206380D02*
X21057491Y-40120665D01*
X21057491Y-40120665D02*
X21100348Y-40034951D01*
X21100348Y-40034951D02*
X21143205Y-39992094D01*
X21143205Y-39992094D02*
X21228920Y-39949237D01*
X21228920Y-39949237D02*
X21443205Y-39949237D01*
X21443205Y-39949237D02*
X21571777Y-39992094D01*
X21871777Y-39949237D02*
X22086063Y-40849237D01*
X22086063Y-40849237D02*
X22257491Y-40206380D01*
X22257491Y-40206380D02*
X22428920Y-40849237D01*
X22428920Y-40849237D02*
X22643206Y-39949237D01*
X23457491Y-40849237D02*
X22943205Y-40849237D01*
X23200348Y-40849237D02*
X23200348Y-39949237D01*
X23200348Y-39949237D02*
X23114634Y-40077808D01*
X23114634Y-40077808D02*
X23028919Y-40163522D01*
X23028919Y-40163522D02*
X22943205Y-40206380D01*
X39057491Y-28806380D02*
X39186063Y-28849237D01*
X39186063Y-28849237D02*
X39400348Y-28849237D01*
X39400348Y-28849237D02*
X39486063Y-28806380D01*
X39486063Y-28806380D02*
X39528920Y-28763522D01*
X39528920Y-28763522D02*
X39571777Y-28677808D01*
X39571777Y-28677808D02*
X39571777Y-28592094D01*
X39571777Y-28592094D02*
X39528920Y-28506380D01*
X39528920Y-28506380D02*
X39486063Y-28463522D01*
X39486063Y-28463522D02*
X39400348Y-28420665D01*
X39400348Y-28420665D02*
X39228920Y-28377808D01*
X39228920Y-28377808D02*
X39143205Y-28334951D01*
X39143205Y-28334951D02*
X39100348Y-28292094D01*
X39100348Y-28292094D02*
X39057491Y-28206380D01*
X39057491Y-28206380D02*
X39057491Y-28120665D01*
X39057491Y-28120665D02*
X39100348Y-28034951D01*
X39100348Y-28034951D02*
X39143205Y-27992094D01*
X39143205Y-27992094D02*
X39228920Y-27949237D01*
X39228920Y-27949237D02*
X39443205Y-27949237D01*
X39443205Y-27949237D02*
X39571777Y-27992094D01*
X39871777Y-27949237D02*
X40086063Y-28849237D01*
X40086063Y-28849237D02*
X40257491Y-28206380D01*
X40257491Y-28206380D02*
X40428920Y-28849237D01*
X40428920Y-28849237D02*
X40643206Y-27949237D01*
X40943205Y-28034951D02*
X40986062Y-27992094D01*
X40986062Y-27992094D02*
X41071777Y-27949237D01*
X41071777Y-27949237D02*
X41286062Y-27949237D01*
X41286062Y-27949237D02*
X41371777Y-27992094D01*
X41371777Y-27992094D02*
X41414634Y-28034951D01*
X41414634Y-28034951D02*
X41457491Y-28120665D01*
X41457491Y-28120665D02*
X41457491Y-28206380D01*
X41457491Y-28206380D02*
X41414634Y-28334951D01*
X41414634Y-28334951D02*
X40900348Y-28849237D01*
X40900348Y-28849237D02*
X41457491Y-28849237D01*
X57057491Y-21806380D02*
X57186063Y-21849237D01*
X57186063Y-21849237D02*
X57400348Y-21849237D01*
X57400348Y-21849237D02*
X57486063Y-21806380D01*
X57486063Y-21806380D02*
X57528920Y-21763522D01*
X57528920Y-21763522D02*
X57571777Y-21677808D01*
X57571777Y-21677808D02*
X57571777Y-21592094D01*
X57571777Y-21592094D02*
X57528920Y-21506380D01*
X57528920Y-21506380D02*
X57486063Y-21463522D01*
X57486063Y-21463522D02*
X57400348Y-21420665D01*
X57400348Y-21420665D02*
X57228920Y-21377808D01*
X57228920Y-21377808D02*
X57143205Y-21334951D01*
X57143205Y-21334951D02*
X57100348Y-21292094D01*
X57100348Y-21292094D02*
X57057491Y-21206380D01*
X57057491Y-21206380D02*
X57057491Y-21120665D01*
X57057491Y-21120665D02*
X57100348Y-21034951D01*
X57100348Y-21034951D02*
X57143205Y-20992094D01*
X57143205Y-20992094D02*
X57228920Y-20949237D01*
X57228920Y-20949237D02*
X57443205Y-20949237D01*
X57443205Y-20949237D02*
X57571777Y-20992094D01*
X57871777Y-20949237D02*
X58086063Y-21849237D01*
X58086063Y-21849237D02*
X58257491Y-21206380D01*
X58257491Y-21206380D02*
X58428920Y-21849237D01*
X58428920Y-21849237D02*
X58643206Y-20949237D01*
X58900348Y-20949237D02*
X59457491Y-20949237D01*
X59457491Y-20949237D02*
X59157491Y-21292094D01*
X59157491Y-21292094D02*
X59286062Y-21292094D01*
X59286062Y-21292094D02*
X59371777Y-21334951D01*
X59371777Y-21334951D02*
X59414634Y-21377808D01*
X59414634Y-21377808D02*
X59457491Y-21463522D01*
X59457491Y-21463522D02*
X59457491Y-21677808D01*
X59457491Y-21677808D02*
X59414634Y-21763522D01*
X59414634Y-21763522D02*
X59371777Y-21806380D01*
X59371777Y-21806380D02*
X59286062Y-21849237D01*
X59286062Y-21849237D02*
X59028919Y-21849237D01*
X59028919Y-21849237D02*
X58943205Y-21806380D01*
X58943205Y-21806380D02*
X58900348Y-21763522D01*
X75057491Y-27306380D02*
X75186063Y-27349237D01*
X75186063Y-27349237D02*
X75400348Y-27349237D01*
X75400348Y-27349237D02*
X75486063Y-27306380D01*
X75486063Y-27306380D02*
X75528920Y-27263522D01*
X75528920Y-27263522D02*
X75571777Y-27177808D01*
X75571777Y-27177808D02*
X75571777Y-27092094D01*
X75571777Y-27092094D02*
X75528920Y-27006380D01*
X75528920Y-27006380D02*
X75486063Y-26963522D01*
X75486063Y-26963522D02*
X75400348Y-26920665D01*
X75400348Y-26920665D02*
X75228920Y-26877808D01*
X75228920Y-26877808D02*
X75143205Y-26834951D01*
X75143205Y-26834951D02*
X75100348Y-26792094D01*
X75100348Y-26792094D02*
X75057491Y-26706380D01*
X75057491Y-26706380D02*
X75057491Y-26620665D01*
X75057491Y-26620665D02*
X75100348Y-26534951D01*
X75100348Y-26534951D02*
X75143205Y-26492094D01*
X75143205Y-26492094D02*
X75228920Y-26449237D01*
X75228920Y-26449237D02*
X75443205Y-26449237D01*
X75443205Y-26449237D02*
X75571777Y-26492094D01*
X75871777Y-26449237D02*
X76086063Y-27349237D01*
X76086063Y-27349237D02*
X76257491Y-26706380D01*
X76257491Y-26706380D02*
X76428920Y-27349237D01*
X76428920Y-27349237D02*
X76643206Y-26449237D01*
X77371777Y-26749237D02*
X77371777Y-27349237D01*
X77157491Y-26406380D02*
X76943205Y-27049237D01*
X76943205Y-27049237D02*
X77500348Y-27049237D01*
X93057491Y-29806380D02*
X93186063Y-29849237D01*
X93186063Y-29849237D02*
X93400348Y-29849237D01*
X93400348Y-29849237D02*
X93486063Y-29806380D01*
X93486063Y-29806380D02*
X93528920Y-29763522D01*
X93528920Y-29763522D02*
X93571777Y-29677808D01*
X93571777Y-29677808D02*
X93571777Y-29592094D01*
X93571777Y-29592094D02*
X93528920Y-29506380D01*
X93528920Y-29506380D02*
X93486063Y-29463522D01*
X93486063Y-29463522D02*
X93400348Y-29420665D01*
X93400348Y-29420665D02*
X93228920Y-29377808D01*
X93228920Y-29377808D02*
X93143205Y-29334951D01*
X93143205Y-29334951D02*
X93100348Y-29292094D01*
X93100348Y-29292094D02*
X93057491Y-29206380D01*
X93057491Y-29206380D02*
X93057491Y-29120665D01*
X93057491Y-29120665D02*
X93100348Y-29034951D01*
X93100348Y-29034951D02*
X93143205Y-28992094D01*
X93143205Y-28992094D02*
X93228920Y-28949237D01*
X93228920Y-28949237D02*
X93443205Y-28949237D01*
X93443205Y-28949237D02*
X93571777Y-28992094D01*
X93871777Y-28949237D02*
X94086063Y-29849237D01*
X94086063Y-29849237D02*
X94257491Y-29206380D01*
X94257491Y-29206380D02*
X94428920Y-29849237D01*
X94428920Y-29849237D02*
X94643206Y-28949237D01*
X95414634Y-28949237D02*
X94986062Y-28949237D01*
X94986062Y-28949237D02*
X94943205Y-29377808D01*
X94943205Y-29377808D02*
X94986062Y-29334951D01*
X94986062Y-29334951D02*
X95071777Y-29292094D01*
X95071777Y-29292094D02*
X95286062Y-29292094D01*
X95286062Y-29292094D02*
X95371777Y-29334951D01*
X95371777Y-29334951D02*
X95414634Y-29377808D01*
X95414634Y-29377808D02*
X95457491Y-29463522D01*
X95457491Y-29463522D02*
X95457491Y-29677808D01*
X95457491Y-29677808D02*
X95414634Y-29763522D01*
X95414634Y-29763522D02*
X95371777Y-29806380D01*
X95371777Y-29806380D02*
X95286062Y-29849237D01*
X95286062Y-29849237D02*
X95071777Y-29849237D01*
X95071777Y-29849237D02*
X94986062Y-29806380D01*
X94986062Y-29806380D02*
X94943205Y-29763522D01*
X21057491Y-57806380D02*
X21186063Y-57849237D01*
X21186063Y-57849237D02*
X21400348Y-57849237D01*
X21400348Y-57849237D02*
X21486063Y-57806380D01*
X21486063Y-57806380D02*
X21528920Y-57763522D01*
X21528920Y-57763522D02*
X21571777Y-57677808D01*
X21571777Y-57677808D02*
X21571777Y-57592094D01*
X21571777Y-57592094D02*
X21528920Y-57506380D01*
X21528920Y-57506380D02*
X21486063Y-57463522D01*
X21486063Y-57463522D02*
X21400348Y-57420665D01*
X21400348Y-57420665D02*
X21228920Y-57377808D01*
X21228920Y-57377808D02*
X21143205Y-57334951D01*
X21143205Y-57334951D02*
X21100348Y-57292094D01*
X21100348Y-57292094D02*
X21057491Y-57206380D01*
X21057491Y-57206380D02*
X21057491Y-57120665D01*
X21057491Y-57120665D02*
X21100348Y-57034951D01*
X21100348Y-57034951D02*
X21143205Y-56992094D01*
X21143205Y-56992094D02*
X21228920Y-56949237D01*
X21228920Y-56949237D02*
X21443205Y-56949237D01*
X21443205Y-56949237D02*
X21571777Y-56992094D01*
X21871777Y-56949237D02*
X22086063Y-57849237D01*
X22086063Y-57849237D02*
X22257491Y-57206380D01*
X22257491Y-57206380D02*
X22428920Y-57849237D01*
X22428920Y-57849237D02*
X22643206Y-56949237D01*
X23371777Y-56949237D02*
X23200348Y-56949237D01*
X23200348Y-56949237D02*
X23114634Y-56992094D01*
X23114634Y-56992094D02*
X23071777Y-57034951D01*
X23071777Y-57034951D02*
X22986062Y-57163522D01*
X22986062Y-57163522D02*
X22943205Y-57334951D01*
X22943205Y-57334951D02*
X22943205Y-57677808D01*
X22943205Y-57677808D02*
X22986062Y-57763522D01*
X22986062Y-57763522D02*
X23028919Y-57806380D01*
X23028919Y-57806380D02*
X23114634Y-57849237D01*
X23114634Y-57849237D02*
X23286062Y-57849237D01*
X23286062Y-57849237D02*
X23371777Y-57806380D01*
X23371777Y-57806380D02*
X23414634Y-57763522D01*
X23414634Y-57763522D02*
X23457491Y-57677808D01*
X23457491Y-57677808D02*
X23457491Y-57463522D01*
X23457491Y-57463522D02*
X23414634Y-57377808D01*
X23414634Y-57377808D02*
X23371777Y-57334951D01*
X23371777Y-57334951D02*
X23286062Y-57292094D01*
X23286062Y-57292094D02*
X23114634Y-57292094D01*
X23114634Y-57292094D02*
X23028919Y-57334951D01*
X23028919Y-57334951D02*
X22986062Y-57377808D01*
X22986062Y-57377808D02*
X22943205Y-57463522D01*
X39057491Y-45780380D02*
X39186063Y-45823237D01*
X39186063Y-45823237D02*
X39400348Y-45823237D01*
X39400348Y-45823237D02*
X39486063Y-45780380D01*
X39486063Y-45780380D02*
X39528920Y-45737522D01*
X39528920Y-45737522D02*
X39571777Y-45651808D01*
X39571777Y-45651808D02*
X39571777Y-45566094D01*
X39571777Y-45566094D02*
X39528920Y-45480380D01*
X39528920Y-45480380D02*
X39486063Y-45437522D01*
X39486063Y-45437522D02*
X39400348Y-45394665D01*
X39400348Y-45394665D02*
X39228920Y-45351808D01*
X39228920Y-45351808D02*
X39143205Y-45308951D01*
X39143205Y-45308951D02*
X39100348Y-45266094D01*
X39100348Y-45266094D02*
X39057491Y-45180380D01*
X39057491Y-45180380D02*
X39057491Y-45094665D01*
X39057491Y-45094665D02*
X39100348Y-45008951D01*
X39100348Y-45008951D02*
X39143205Y-44966094D01*
X39143205Y-44966094D02*
X39228920Y-44923237D01*
X39228920Y-44923237D02*
X39443205Y-44923237D01*
X39443205Y-44923237D02*
X39571777Y-44966094D01*
X39871777Y-44923237D02*
X40086063Y-45823237D01*
X40086063Y-45823237D02*
X40257491Y-45180380D01*
X40257491Y-45180380D02*
X40428920Y-45823237D01*
X40428920Y-45823237D02*
X40643206Y-44923237D01*
X40900348Y-44923237D02*
X41500348Y-44923237D01*
X41500348Y-44923237D02*
X41114634Y-45823237D01*
X57057491Y-38922380D02*
X57186063Y-38965237D01*
X57186063Y-38965237D02*
X57400348Y-38965237D01*
X57400348Y-38965237D02*
X57486063Y-38922380D01*
X57486063Y-38922380D02*
X57528920Y-38879522D01*
X57528920Y-38879522D02*
X57571777Y-38793808D01*
X57571777Y-38793808D02*
X57571777Y-38708094D01*
X57571777Y-38708094D02*
X57528920Y-38622380D01*
X57528920Y-38622380D02*
X57486063Y-38579522D01*
X57486063Y-38579522D02*
X57400348Y-38536665D01*
X57400348Y-38536665D02*
X57228920Y-38493808D01*
X57228920Y-38493808D02*
X57143205Y-38450951D01*
X57143205Y-38450951D02*
X57100348Y-38408094D01*
X57100348Y-38408094D02*
X57057491Y-38322380D01*
X57057491Y-38322380D02*
X57057491Y-38236665D01*
X57057491Y-38236665D02*
X57100348Y-38150951D01*
X57100348Y-38150951D02*
X57143205Y-38108094D01*
X57143205Y-38108094D02*
X57228920Y-38065237D01*
X57228920Y-38065237D02*
X57443205Y-38065237D01*
X57443205Y-38065237D02*
X57571777Y-38108094D01*
X57871777Y-38065237D02*
X58086063Y-38965237D01*
X58086063Y-38965237D02*
X58257491Y-38322380D01*
X58257491Y-38322380D02*
X58428920Y-38965237D01*
X58428920Y-38965237D02*
X58643206Y-38065237D01*
X59114634Y-38450951D02*
X59028919Y-38408094D01*
X59028919Y-38408094D02*
X58986062Y-38365237D01*
X58986062Y-38365237D02*
X58943205Y-38279522D01*
X58943205Y-38279522D02*
X58943205Y-38236665D01*
X58943205Y-38236665D02*
X58986062Y-38150951D01*
X58986062Y-38150951D02*
X59028919Y-38108094D01*
X59028919Y-38108094D02*
X59114634Y-38065237D01*
X59114634Y-38065237D02*
X59286062Y-38065237D01*
X59286062Y-38065237D02*
X59371777Y-38108094D01*
X59371777Y-38108094D02*
X59414634Y-38150951D01*
X59414634Y-38150951D02*
X59457491Y-38236665D01*
X59457491Y-38236665D02*
X59457491Y-38279522D01*
X59457491Y-38279522D02*
X59414634Y-38365237D01*
X59414634Y-38365237D02*
X59371777Y-38408094D01*
X59371777Y-38408094D02*
X59286062Y-38450951D01*
X59286062Y-38450951D02*
X59114634Y-38450951D01*
X59114634Y-38450951D02*
X59028919Y-38493808D01*
X59028919Y-38493808D02*
X58986062Y-38536665D01*
X58986062Y-38536665D02*
X58943205Y-38622380D01*
X58943205Y-38622380D02*
X58943205Y-38793808D01*
X58943205Y-38793808D02*
X58986062Y-38879522D01*
X58986062Y-38879522D02*
X59028919Y-38922380D01*
X59028919Y-38922380D02*
X59114634Y-38965237D01*
X59114634Y-38965237D02*
X59286062Y-38965237D01*
X59286062Y-38965237D02*
X59371777Y-38922380D01*
X59371777Y-38922380D02*
X59414634Y-38879522D01*
X59414634Y-38879522D02*
X59457491Y-38793808D01*
X59457491Y-38793808D02*
X59457491Y-38622380D01*
X59457491Y-38622380D02*
X59414634Y-38536665D01*
X59414634Y-38536665D02*
X59371777Y-38493808D01*
X59371777Y-38493808D02*
X59286062Y-38450951D01*
X75057491Y-44256380D02*
X75186063Y-44299237D01*
X75186063Y-44299237D02*
X75400348Y-44299237D01*
X75400348Y-44299237D02*
X75486063Y-44256380D01*
X75486063Y-44256380D02*
X75528920Y-44213522D01*
X75528920Y-44213522D02*
X75571777Y-44127808D01*
X75571777Y-44127808D02*
X75571777Y-44042094D01*
X75571777Y-44042094D02*
X75528920Y-43956380D01*
X75528920Y-43956380D02*
X75486063Y-43913522D01*
X75486063Y-43913522D02*
X75400348Y-43870665D01*
X75400348Y-43870665D02*
X75228920Y-43827808D01*
X75228920Y-43827808D02*
X75143205Y-43784951D01*
X75143205Y-43784951D02*
X75100348Y-43742094D01*
X75100348Y-43742094D02*
X75057491Y-43656380D01*
X75057491Y-43656380D02*
X75057491Y-43570665D01*
X75057491Y-43570665D02*
X75100348Y-43484951D01*
X75100348Y-43484951D02*
X75143205Y-43442094D01*
X75143205Y-43442094D02*
X75228920Y-43399237D01*
X75228920Y-43399237D02*
X75443205Y-43399237D01*
X75443205Y-43399237D02*
X75571777Y-43442094D01*
X75871777Y-43399237D02*
X76086063Y-44299237D01*
X76086063Y-44299237D02*
X76257491Y-43656380D01*
X76257491Y-43656380D02*
X76428920Y-44299237D01*
X76428920Y-44299237D02*
X76643206Y-43399237D01*
X77028919Y-44299237D02*
X77200348Y-44299237D01*
X77200348Y-44299237D02*
X77286062Y-44256380D01*
X77286062Y-44256380D02*
X77328919Y-44213522D01*
X77328919Y-44213522D02*
X77414634Y-44084951D01*
X77414634Y-44084951D02*
X77457491Y-43913522D01*
X77457491Y-43913522D02*
X77457491Y-43570665D01*
X77457491Y-43570665D02*
X77414634Y-43484951D01*
X77414634Y-43484951D02*
X77371777Y-43442094D01*
X77371777Y-43442094D02*
X77286062Y-43399237D01*
X77286062Y-43399237D02*
X77114634Y-43399237D01*
X77114634Y-43399237D02*
X77028919Y-43442094D01*
X77028919Y-43442094D02*
X76986062Y-43484951D01*
X76986062Y-43484951D02*
X76943205Y-43570665D01*
X76943205Y-43570665D02*
X76943205Y-43784951D01*
X76943205Y-43784951D02*
X76986062Y-43870665D01*
X76986062Y-43870665D02*
X77028919Y-43913522D01*
X77028919Y-43913522D02*
X77114634Y-43956380D01*
X77114634Y-43956380D02*
X77286062Y-43956380D01*
X77286062Y-43956380D02*
X77371777Y-43913522D01*
X77371777Y-43913522D02*
X77414634Y-43870665D01*
X77414634Y-43870665D02*
X77457491Y-43784951D01*
X93037491Y-46796380D02*
X93166063Y-46839237D01*
X93166063Y-46839237D02*
X93380348Y-46839237D01*
X93380348Y-46839237D02*
X93466063Y-46796380D01*
X93466063Y-46796380D02*
X93508920Y-46753522D01*
X93508920Y-46753522D02*
X93551777Y-46667808D01*
X93551777Y-46667808D02*
X93551777Y-46582094D01*
X93551777Y-46582094D02*
X93508920Y-46496380D01*
X93508920Y-46496380D02*
X93466063Y-46453522D01*
X93466063Y-46453522D02*
X93380348Y-46410665D01*
X93380348Y-46410665D02*
X93208920Y-46367808D01*
X93208920Y-46367808D02*
X93123205Y-46324951D01*
X93123205Y-46324951D02*
X93080348Y-46282094D01*
X93080348Y-46282094D02*
X93037491Y-46196380D01*
X93037491Y-46196380D02*
X93037491Y-46110665D01*
X93037491Y-46110665D02*
X93080348Y-46024951D01*
X93080348Y-46024951D02*
X93123205Y-45982094D01*
X93123205Y-45982094D02*
X93208920Y-45939237D01*
X93208920Y-45939237D02*
X93423205Y-45939237D01*
X93423205Y-45939237D02*
X93551777Y-45982094D01*
X93851777Y-45939237D02*
X94066063Y-46839237D01*
X94066063Y-46839237D02*
X94237491Y-46196380D01*
X94237491Y-46196380D02*
X94408920Y-46839237D01*
X94408920Y-46839237D02*
X94623206Y-45939237D01*
X95437491Y-46839237D02*
X94923205Y-46839237D01*
X95180348Y-46839237D02*
X95180348Y-45939237D01*
X95180348Y-45939237D02*
X95094634Y-46067808D01*
X95094634Y-46067808D02*
X95008919Y-46153522D01*
X95008919Y-46153522D02*
X94923205Y-46196380D01*
X95994634Y-45939237D02*
X96080348Y-45939237D01*
X96080348Y-45939237D02*
X96166062Y-45982094D01*
X96166062Y-45982094D02*
X96208920Y-46024951D01*
X96208920Y-46024951D02*
X96251777Y-46110665D01*
X96251777Y-46110665D02*
X96294634Y-46282094D01*
X96294634Y-46282094D02*
X96294634Y-46496380D01*
X96294634Y-46496380D02*
X96251777Y-46667808D01*
X96251777Y-46667808D02*
X96208920Y-46753522D01*
X96208920Y-46753522D02*
X96166062Y-46796380D01*
X96166062Y-46796380D02*
X96080348Y-46839237D01*
X96080348Y-46839237D02*
X95994634Y-46839237D01*
X95994634Y-46839237D02*
X95908920Y-46796380D01*
X95908920Y-46796380D02*
X95866062Y-46753522D01*
X95866062Y-46753522D02*
X95823205Y-46667808D01*
X95823205Y-46667808D02*
X95780348Y-46496380D01*
X95780348Y-46496380D02*
X95780348Y-46282094D01*
X95780348Y-46282094D02*
X95823205Y-46110665D01*
X95823205Y-46110665D02*
X95866062Y-46024951D01*
X95866062Y-46024951D02*
X95908920Y-45982094D01*
X95908920Y-45982094D02*
X95994634Y-45939237D01*
X21057491Y-74806380D02*
X21186063Y-74849237D01*
X21186063Y-74849237D02*
X21400348Y-74849237D01*
X21400348Y-74849237D02*
X21486063Y-74806380D01*
X21486063Y-74806380D02*
X21528920Y-74763522D01*
X21528920Y-74763522D02*
X21571777Y-74677808D01*
X21571777Y-74677808D02*
X21571777Y-74592094D01*
X21571777Y-74592094D02*
X21528920Y-74506380D01*
X21528920Y-74506380D02*
X21486063Y-74463522D01*
X21486063Y-74463522D02*
X21400348Y-74420665D01*
X21400348Y-74420665D02*
X21228920Y-74377808D01*
X21228920Y-74377808D02*
X21143205Y-74334951D01*
X21143205Y-74334951D02*
X21100348Y-74292094D01*
X21100348Y-74292094D02*
X21057491Y-74206380D01*
X21057491Y-74206380D02*
X21057491Y-74120665D01*
X21057491Y-74120665D02*
X21100348Y-74034951D01*
X21100348Y-74034951D02*
X21143205Y-73992094D01*
X21143205Y-73992094D02*
X21228920Y-73949237D01*
X21228920Y-73949237D02*
X21443205Y-73949237D01*
X21443205Y-73949237D02*
X21571777Y-73992094D01*
X21871777Y-73949237D02*
X22086063Y-74849237D01*
X22086063Y-74849237D02*
X22257491Y-74206380D01*
X22257491Y-74206380D02*
X22428920Y-74849237D01*
X22428920Y-74849237D02*
X22643206Y-73949237D01*
X23457491Y-74849237D02*
X22943205Y-74849237D01*
X23200348Y-74849237D02*
X23200348Y-73949237D01*
X23200348Y-73949237D02*
X23114634Y-74077808D01*
X23114634Y-74077808D02*
X23028919Y-74163522D01*
X23028919Y-74163522D02*
X22943205Y-74206380D01*
X24314634Y-74849237D02*
X23800348Y-74849237D01*
X24057491Y-74849237D02*
X24057491Y-73949237D01*
X24057491Y-73949237D02*
X23971777Y-74077808D01*
X23971777Y-74077808D02*
X23886062Y-74163522D01*
X23886062Y-74163522D02*
X23800348Y-74206380D01*
X39057491Y-62798380D02*
X39186063Y-62841237D01*
X39186063Y-62841237D02*
X39400348Y-62841237D01*
X39400348Y-62841237D02*
X39486063Y-62798380D01*
X39486063Y-62798380D02*
X39528920Y-62755522D01*
X39528920Y-62755522D02*
X39571777Y-62669808D01*
X39571777Y-62669808D02*
X39571777Y-62584094D01*
X39571777Y-62584094D02*
X39528920Y-62498380D01*
X39528920Y-62498380D02*
X39486063Y-62455522D01*
X39486063Y-62455522D02*
X39400348Y-62412665D01*
X39400348Y-62412665D02*
X39228920Y-62369808D01*
X39228920Y-62369808D02*
X39143205Y-62326951D01*
X39143205Y-62326951D02*
X39100348Y-62284094D01*
X39100348Y-62284094D02*
X39057491Y-62198380D01*
X39057491Y-62198380D02*
X39057491Y-62112665D01*
X39057491Y-62112665D02*
X39100348Y-62026951D01*
X39100348Y-62026951D02*
X39143205Y-61984094D01*
X39143205Y-61984094D02*
X39228920Y-61941237D01*
X39228920Y-61941237D02*
X39443205Y-61941237D01*
X39443205Y-61941237D02*
X39571777Y-61984094D01*
X39871777Y-61941237D02*
X40086063Y-62841237D01*
X40086063Y-62841237D02*
X40257491Y-62198380D01*
X40257491Y-62198380D02*
X40428920Y-62841237D01*
X40428920Y-62841237D02*
X40643206Y-61941237D01*
X41457491Y-62841237D02*
X40943205Y-62841237D01*
X41200348Y-62841237D02*
X41200348Y-61941237D01*
X41200348Y-61941237D02*
X41114634Y-62069808D01*
X41114634Y-62069808D02*
X41028919Y-62155522D01*
X41028919Y-62155522D02*
X40943205Y-62198380D01*
X41800348Y-62026951D02*
X41843205Y-61984094D01*
X41843205Y-61984094D02*
X41928920Y-61941237D01*
X41928920Y-61941237D02*
X42143205Y-61941237D01*
X42143205Y-61941237D02*
X42228920Y-61984094D01*
X42228920Y-61984094D02*
X42271777Y-62026951D01*
X42271777Y-62026951D02*
X42314634Y-62112665D01*
X42314634Y-62112665D02*
X42314634Y-62198380D01*
X42314634Y-62198380D02*
X42271777Y-62326951D01*
X42271777Y-62326951D02*
X41757491Y-62841237D01*
X41757491Y-62841237D02*
X42314634Y-62841237D01*
X57057491Y-55940380D02*
X57186063Y-55983237D01*
X57186063Y-55983237D02*
X57400348Y-55983237D01*
X57400348Y-55983237D02*
X57486063Y-55940380D01*
X57486063Y-55940380D02*
X57528920Y-55897522D01*
X57528920Y-55897522D02*
X57571777Y-55811808D01*
X57571777Y-55811808D02*
X57571777Y-55726094D01*
X57571777Y-55726094D02*
X57528920Y-55640380D01*
X57528920Y-55640380D02*
X57486063Y-55597522D01*
X57486063Y-55597522D02*
X57400348Y-55554665D01*
X57400348Y-55554665D02*
X57228920Y-55511808D01*
X57228920Y-55511808D02*
X57143205Y-55468951D01*
X57143205Y-55468951D02*
X57100348Y-55426094D01*
X57100348Y-55426094D02*
X57057491Y-55340380D01*
X57057491Y-55340380D02*
X57057491Y-55254665D01*
X57057491Y-55254665D02*
X57100348Y-55168951D01*
X57100348Y-55168951D02*
X57143205Y-55126094D01*
X57143205Y-55126094D02*
X57228920Y-55083237D01*
X57228920Y-55083237D02*
X57443205Y-55083237D01*
X57443205Y-55083237D02*
X57571777Y-55126094D01*
X57871777Y-55083237D02*
X58086063Y-55983237D01*
X58086063Y-55983237D02*
X58257491Y-55340380D01*
X58257491Y-55340380D02*
X58428920Y-55983237D01*
X58428920Y-55983237D02*
X58643206Y-55083237D01*
X59457491Y-55983237D02*
X58943205Y-55983237D01*
X59200348Y-55983237D02*
X59200348Y-55083237D01*
X59200348Y-55083237D02*
X59114634Y-55211808D01*
X59114634Y-55211808D02*
X59028919Y-55297522D01*
X59028919Y-55297522D02*
X58943205Y-55340380D01*
X59757491Y-55083237D02*
X60314634Y-55083237D01*
X60314634Y-55083237D02*
X60014634Y-55426094D01*
X60014634Y-55426094D02*
X60143205Y-55426094D01*
X60143205Y-55426094D02*
X60228920Y-55468951D01*
X60228920Y-55468951D02*
X60271777Y-55511808D01*
X60271777Y-55511808D02*
X60314634Y-55597522D01*
X60314634Y-55597522D02*
X60314634Y-55811808D01*
X60314634Y-55811808D02*
X60271777Y-55897522D01*
X60271777Y-55897522D02*
X60228920Y-55940380D01*
X60228920Y-55940380D02*
X60143205Y-55983237D01*
X60143205Y-55983237D02*
X59886062Y-55983237D01*
X59886062Y-55983237D02*
X59800348Y-55940380D01*
X59800348Y-55940380D02*
X59757491Y-55897522D01*
X75057491Y-61274380D02*
X75186063Y-61317237D01*
X75186063Y-61317237D02*
X75400348Y-61317237D01*
X75400348Y-61317237D02*
X75486063Y-61274380D01*
X75486063Y-61274380D02*
X75528920Y-61231522D01*
X75528920Y-61231522D02*
X75571777Y-61145808D01*
X75571777Y-61145808D02*
X75571777Y-61060094D01*
X75571777Y-61060094D02*
X75528920Y-60974380D01*
X75528920Y-60974380D02*
X75486063Y-60931522D01*
X75486063Y-60931522D02*
X75400348Y-60888665D01*
X75400348Y-60888665D02*
X75228920Y-60845808D01*
X75228920Y-60845808D02*
X75143205Y-60802951D01*
X75143205Y-60802951D02*
X75100348Y-60760094D01*
X75100348Y-60760094D02*
X75057491Y-60674380D01*
X75057491Y-60674380D02*
X75057491Y-60588665D01*
X75057491Y-60588665D02*
X75100348Y-60502951D01*
X75100348Y-60502951D02*
X75143205Y-60460094D01*
X75143205Y-60460094D02*
X75228920Y-60417237D01*
X75228920Y-60417237D02*
X75443205Y-60417237D01*
X75443205Y-60417237D02*
X75571777Y-60460094D01*
X75871777Y-60417237D02*
X76086063Y-61317237D01*
X76086063Y-61317237D02*
X76257491Y-60674380D01*
X76257491Y-60674380D02*
X76428920Y-61317237D01*
X76428920Y-61317237D02*
X76643206Y-60417237D01*
X77457491Y-61317237D02*
X76943205Y-61317237D01*
X77200348Y-61317237D02*
X77200348Y-60417237D01*
X77200348Y-60417237D02*
X77114634Y-60545808D01*
X77114634Y-60545808D02*
X77028919Y-60631522D01*
X77028919Y-60631522D02*
X76943205Y-60674380D01*
X78228920Y-60717237D02*
X78228920Y-61317237D01*
X78014634Y-60374380D02*
X77800348Y-61017237D01*
X77800348Y-61017237D02*
X78357491Y-61017237D01*
X93037491Y-63814380D02*
X93166063Y-63857237D01*
X93166063Y-63857237D02*
X93380348Y-63857237D01*
X93380348Y-63857237D02*
X93466063Y-63814380D01*
X93466063Y-63814380D02*
X93508920Y-63771522D01*
X93508920Y-63771522D02*
X93551777Y-63685808D01*
X93551777Y-63685808D02*
X93551777Y-63600094D01*
X93551777Y-63600094D02*
X93508920Y-63514380D01*
X93508920Y-63514380D02*
X93466063Y-63471522D01*
X93466063Y-63471522D02*
X93380348Y-63428665D01*
X93380348Y-63428665D02*
X93208920Y-63385808D01*
X93208920Y-63385808D02*
X93123205Y-63342951D01*
X93123205Y-63342951D02*
X93080348Y-63300094D01*
X93080348Y-63300094D02*
X93037491Y-63214380D01*
X93037491Y-63214380D02*
X93037491Y-63128665D01*
X93037491Y-63128665D02*
X93080348Y-63042951D01*
X93080348Y-63042951D02*
X93123205Y-63000094D01*
X93123205Y-63000094D02*
X93208920Y-62957237D01*
X93208920Y-62957237D02*
X93423205Y-62957237D01*
X93423205Y-62957237D02*
X93551777Y-63000094D01*
X93851777Y-62957237D02*
X94066063Y-63857237D01*
X94066063Y-63857237D02*
X94237491Y-63214380D01*
X94237491Y-63214380D02*
X94408920Y-63857237D01*
X94408920Y-63857237D02*
X94623206Y-62957237D01*
X95437491Y-63857237D02*
X94923205Y-63857237D01*
X95180348Y-63857237D02*
X95180348Y-62957237D01*
X95180348Y-62957237D02*
X95094634Y-63085808D01*
X95094634Y-63085808D02*
X95008919Y-63171522D01*
X95008919Y-63171522D02*
X94923205Y-63214380D01*
X96251777Y-62957237D02*
X95823205Y-62957237D01*
X95823205Y-62957237D02*
X95780348Y-63385808D01*
X95780348Y-63385808D02*
X95823205Y-63342951D01*
X95823205Y-63342951D02*
X95908920Y-63300094D01*
X95908920Y-63300094D02*
X96123205Y-63300094D01*
X96123205Y-63300094D02*
X96208920Y-63342951D01*
X96208920Y-63342951D02*
X96251777Y-63385808D01*
X96251777Y-63385808D02*
X96294634Y-63471522D01*
X96294634Y-63471522D02*
X96294634Y-63685808D01*
X96294634Y-63685808D02*
X96251777Y-63771522D01*
X96251777Y-63771522D02*
X96208920Y-63814380D01*
X96208920Y-63814380D02*
X96123205Y-63857237D01*
X96123205Y-63857237D02*
X95908920Y-63857237D01*
X95908920Y-63857237D02*
X95823205Y-63814380D01*
X95823205Y-63814380D02*
X95780348Y-63771522D01*
D14*
X72116752Y-38447499D02*
X73116752Y-38447499D01*
X72164371Y-38447499D02*
X72116752Y-38352261D01*
X72116752Y-38352261D02*
X72116752Y-38161785D01*
X72116752Y-38161785D02*
X72164371Y-38066547D01*
X72164371Y-38066547D02*
X72211990Y-38018928D01*
X72211990Y-38018928D02*
X72307228Y-37971309D01*
X72307228Y-37971309D02*
X72592942Y-37971309D01*
X72592942Y-37971309D02*
X72688180Y-38018928D01*
X72688180Y-38018928D02*
X72735800Y-38066547D01*
X72735800Y-38066547D02*
X72783419Y-38161785D01*
X72783419Y-38161785D02*
X72783419Y-38352261D01*
X72783419Y-38352261D02*
X72735800Y-38447499D01*
X72116752Y-37114166D02*
X72783419Y-37114166D01*
X72116752Y-37542737D02*
X72640561Y-37542737D01*
X72640561Y-37542737D02*
X72735800Y-37495118D01*
X72735800Y-37495118D02*
X72783419Y-37399880D01*
X72783419Y-37399880D02*
X72783419Y-37257023D01*
X72783419Y-37257023D02*
X72735800Y-37161785D01*
X72735800Y-37161785D02*
X72688180Y-37114166D01*
X72735800Y-36209404D02*
X72783419Y-36304642D01*
X72783419Y-36304642D02*
X72783419Y-36495118D01*
X72783419Y-36495118D02*
X72735800Y-36590356D01*
X72735800Y-36590356D02*
X72688180Y-36637975D01*
X72688180Y-36637975D02*
X72592942Y-36685594D01*
X72592942Y-36685594D02*
X72307228Y-36685594D01*
X72307228Y-36685594D02*
X72211990Y-36637975D01*
X72211990Y-36637975D02*
X72164371Y-36590356D01*
X72164371Y-36590356D02*
X72116752Y-36495118D01*
X72116752Y-36495118D02*
X72116752Y-36304642D01*
X72116752Y-36304642D02*
X72164371Y-36209404D01*
X72783419Y-35780832D02*
X71783419Y-35780832D01*
X72402466Y-35685594D02*
X72783419Y-35399880D01*
X72116752Y-35399880D02*
X72497704Y-35780832D01*
X72180252Y-52337999D02*
X72180252Y-51957047D01*
X71846919Y-52195142D02*
X72704061Y-52195142D01*
X72704061Y-52195142D02*
X72799300Y-52147523D01*
X72799300Y-52147523D02*
X72846919Y-52052285D01*
X72846919Y-52052285D02*
X72846919Y-51957047D01*
X72799300Y-51242761D02*
X72846919Y-51337999D01*
X72846919Y-51337999D02*
X72846919Y-51528475D01*
X72846919Y-51528475D02*
X72799300Y-51623713D01*
X72799300Y-51623713D02*
X72704061Y-51671332D01*
X72704061Y-51671332D02*
X72323109Y-51671332D01*
X72323109Y-51671332D02*
X72227871Y-51623713D01*
X72227871Y-51623713D02*
X72180252Y-51528475D01*
X72180252Y-51528475D02*
X72180252Y-51337999D01*
X72180252Y-51337999D02*
X72227871Y-51242761D01*
X72227871Y-51242761D02*
X72323109Y-51195142D01*
X72323109Y-51195142D02*
X72418347Y-51195142D01*
X72418347Y-51195142D02*
X72513585Y-51671332D01*
X72180252Y-50766570D02*
X72846919Y-50766570D01*
X72275490Y-50766570D02*
X72227871Y-50718951D01*
X72227871Y-50718951D02*
X72180252Y-50623713D01*
X72180252Y-50623713D02*
X72180252Y-50480856D01*
X72180252Y-50480856D02*
X72227871Y-50385618D01*
X72227871Y-50385618D02*
X72323109Y-50337999D01*
X72323109Y-50337999D02*
X72846919Y-50337999D01*
X72180252Y-50004665D02*
X72180252Y-49623713D01*
X71846919Y-49861808D02*
X72704061Y-49861808D01*
X72704061Y-49861808D02*
X72799300Y-49814189D01*
X72799300Y-49814189D02*
X72846919Y-49718951D01*
X72846919Y-49718951D02*
X72846919Y-49623713D01*
X72846919Y-49290379D02*
X72180252Y-49290379D01*
X71846919Y-49290379D02*
X71894538Y-49337998D01*
X71894538Y-49337998D02*
X71942157Y-49290379D01*
X71942157Y-49290379D02*
X71894538Y-49242760D01*
X71894538Y-49242760D02*
X71846919Y-49290379D01*
X71846919Y-49290379D02*
X71942157Y-49290379D01*
X72180252Y-48814189D02*
X72846919Y-48814189D01*
X72275490Y-48814189D02*
X72227871Y-48766570D01*
X72227871Y-48766570D02*
X72180252Y-48671332D01*
X72180252Y-48671332D02*
X72180252Y-48528475D01*
X72180252Y-48528475D02*
X72227871Y-48433237D01*
X72227871Y-48433237D02*
X72323109Y-48385618D01*
X72323109Y-48385618D02*
X72846919Y-48385618D01*
X72180252Y-47480856D02*
X72989776Y-47480856D01*
X72989776Y-47480856D02*
X73085014Y-47528475D01*
X73085014Y-47528475D02*
X73132633Y-47576094D01*
X73132633Y-47576094D02*
X73180252Y-47671332D01*
X73180252Y-47671332D02*
X73180252Y-47814189D01*
X73180252Y-47814189D02*
X73132633Y-47909427D01*
X72799300Y-47480856D02*
X72846919Y-47576094D01*
X72846919Y-47576094D02*
X72846919Y-47766570D01*
X72846919Y-47766570D02*
X72799300Y-47861808D01*
X72799300Y-47861808D02*
X72751680Y-47909427D01*
X72751680Y-47909427D02*
X72656442Y-47957046D01*
X72656442Y-47957046D02*
X72370728Y-47957046D01*
X72370728Y-47957046D02*
X72275490Y-47909427D01*
X72275490Y-47909427D02*
X72227871Y-47861808D01*
X72227871Y-47861808D02*
X72180252Y-47766570D01*
X72180252Y-47766570D02*
X72180252Y-47576094D01*
X72180252Y-47576094D02*
X72227871Y-47480856D01*
D10*
X92135507Y-25210204D02*
X92295850Y-24632026D01*
X92295850Y-24632026D02*
X92516108Y-24693109D01*
X92516108Y-24693109D02*
X92563538Y-24735912D01*
X92563538Y-24735912D02*
X92583435Y-24771080D01*
X92583435Y-24771080D02*
X92595696Y-24833780D01*
X92595696Y-24833780D02*
X92572790Y-24916376D01*
X92572790Y-24916376D02*
X92529987Y-24963806D01*
X92529987Y-24963806D02*
X92494819Y-24983703D01*
X92494819Y-24983703D02*
X92432119Y-24995964D01*
X92432119Y-24995964D02*
X92211861Y-24934881D01*
X92984158Y-24822910D02*
X93094287Y-24853452D01*
X93094287Y-24853452D02*
X93141716Y-24896255D01*
X93141716Y-24896255D02*
X93181510Y-24966590D01*
X93181510Y-24966590D02*
X93178501Y-25084355D01*
X93178501Y-25084355D02*
X93125053Y-25277081D01*
X93125053Y-25277081D02*
X93066979Y-25379575D01*
X93066979Y-25379575D02*
X92996644Y-25419369D01*
X92996644Y-25419369D02*
X92933944Y-25431630D01*
X92933944Y-25431630D02*
X92823815Y-25401089D01*
X92823815Y-25401089D02*
X92776385Y-25358286D01*
X92776385Y-25358286D02*
X92736591Y-25287950D01*
X92736591Y-25287950D02*
X92739601Y-25170186D01*
X92739601Y-25170186D02*
X92793048Y-24977460D01*
X92793048Y-24977460D02*
X92851122Y-24874966D01*
X92851122Y-24874966D02*
X92921458Y-24835172D01*
X92921458Y-24835172D02*
X92984158Y-24822910D01*
X93424674Y-24945076D02*
X93401992Y-25561432D01*
X93401992Y-25561432D02*
X93626652Y-25178989D01*
X93626652Y-25178989D02*
X93622251Y-25622515D01*
X93622251Y-25622515D02*
X93920255Y-25082513D01*
X94064160Y-25418919D02*
X94256886Y-25472367D01*
X94255493Y-25798128D02*
X93980170Y-25721774D01*
X93980170Y-25721774D02*
X94140513Y-25143596D01*
X94140513Y-25143596D02*
X94415836Y-25219950D01*
X94833671Y-25958471D02*
X94717299Y-25629701D01*
X94503284Y-25866847D02*
X94663627Y-25288668D01*
X94663627Y-25288668D02*
X94883885Y-25349751D01*
X94883885Y-25349751D02*
X94931315Y-25392555D01*
X94931315Y-25392555D02*
X94951211Y-25427722D01*
X94951211Y-25427722D02*
X94963473Y-25490422D01*
X94963473Y-25490422D02*
X94940567Y-25573019D01*
X94940567Y-25573019D02*
X94897764Y-25620448D01*
X94897764Y-25620448D02*
X94862596Y-25640345D01*
X94862596Y-25640345D02*
X94799896Y-25652607D01*
X94799896Y-25652607D02*
X94579638Y-25591524D01*
X95502082Y-26114188D02*
X95577044Y-26164627D01*
X95577044Y-26164627D02*
X95714705Y-26202804D01*
X95714705Y-26202804D02*
X95777405Y-26190542D01*
X95777405Y-26190542D02*
X95812573Y-26170645D01*
X95812573Y-26170645D02*
X95855376Y-26123216D01*
X95855376Y-26123216D02*
X95870647Y-26068151D01*
X95870647Y-26068151D02*
X95858385Y-26005451D01*
X95858385Y-26005451D02*
X95838488Y-25970284D01*
X95838488Y-25970284D02*
X95791059Y-25927481D01*
X95791059Y-25927481D02*
X95688565Y-25869407D01*
X95688565Y-25869407D02*
X95641136Y-25826604D01*
X95641136Y-25826604D02*
X95621239Y-25791436D01*
X95621239Y-25791436D02*
X95608978Y-25728736D01*
X95608978Y-25728736D02*
X95624248Y-25673671D01*
X95624248Y-25673671D02*
X95667051Y-25626242D01*
X95667051Y-25626242D02*
X95702219Y-25606345D01*
X95702219Y-25606345D02*
X95764919Y-25594084D01*
X95764919Y-25594084D02*
X95902581Y-25632261D01*
X95902581Y-25632261D02*
X95977542Y-25682699D01*
X96177904Y-25708615D02*
X96155222Y-26324970D01*
X96155222Y-26324970D02*
X96379882Y-25942527D01*
X96379882Y-25942527D02*
X96375481Y-26386053D01*
X96375481Y-26386053D02*
X96673485Y-25846051D01*
D11*
X85178572Y-47749757D02*
X85035715Y-47678328D01*
X85035715Y-47678328D02*
X84821429Y-47678328D01*
X84821429Y-47678328D02*
X84607143Y-47749757D01*
X84607143Y-47749757D02*
X84464286Y-47892614D01*
X84464286Y-47892614D02*
X84392857Y-48035471D01*
X84392857Y-48035471D02*
X84321429Y-48321185D01*
X84321429Y-48321185D02*
X84321429Y-48535471D01*
X84321429Y-48535471D02*
X84392857Y-48821185D01*
X84392857Y-48821185D02*
X84464286Y-48964042D01*
X84464286Y-48964042D02*
X84607143Y-49106900D01*
X84607143Y-49106900D02*
X84821429Y-49178328D01*
X84821429Y-49178328D02*
X84964286Y-49178328D01*
X84964286Y-49178328D02*
X85178572Y-49106900D01*
X85178572Y-49106900D02*
X85250000Y-49035471D01*
X85250000Y-49035471D02*
X85250000Y-48535471D01*
X85250000Y-48535471D02*
X84964286Y-48535471D01*
X86107143Y-47678328D02*
X86107143Y-48035471D01*
X85750000Y-47892614D02*
X86107143Y-48035471D01*
X86107143Y-48035471D02*
X86464286Y-47892614D01*
X85892857Y-48321185D02*
X86107143Y-48035471D01*
X86107143Y-48035471D02*
X86321429Y-48321185D01*
X87250000Y-47678328D02*
X87250000Y-48035471D01*
X86892857Y-47892614D02*
X87250000Y-48035471D01*
X87250000Y-48035471D02*
X87607143Y-47892614D01*
X87035714Y-48321185D02*
X87250000Y-48035471D01*
X87250000Y-48035471D02*
X87464286Y-48321185D01*
X88392857Y-47678328D02*
X88392857Y-48035471D01*
X88035714Y-47892614D02*
X88392857Y-48035471D01*
X88392857Y-48035471D02*
X88750000Y-47892614D01*
X88178571Y-48321185D02*
X88392857Y-48035471D01*
X88392857Y-48035471D02*
X88607143Y-48321185D01*
X33178572Y-85249757D02*
X33035715Y-85178328D01*
X33035715Y-85178328D02*
X32821429Y-85178328D01*
X32821429Y-85178328D02*
X32607143Y-85249757D01*
X32607143Y-85249757D02*
X32464286Y-85392614D01*
X32464286Y-85392614D02*
X32392857Y-85535471D01*
X32392857Y-85535471D02*
X32321429Y-85821185D01*
X32321429Y-85821185D02*
X32321429Y-86035471D01*
X32321429Y-86035471D02*
X32392857Y-86321185D01*
X32392857Y-86321185D02*
X32464286Y-86464042D01*
X32464286Y-86464042D02*
X32607143Y-86606900D01*
X32607143Y-86606900D02*
X32821429Y-86678328D01*
X32821429Y-86678328D02*
X32964286Y-86678328D01*
X32964286Y-86678328D02*
X33178572Y-86606900D01*
X33178572Y-86606900D02*
X33250000Y-86535471D01*
X33250000Y-86535471D02*
X33250000Y-86035471D01*
X33250000Y-86035471D02*
X32964286Y-86035471D01*
X34107143Y-85178328D02*
X34107143Y-85535471D01*
X33750000Y-85392614D02*
X34107143Y-85535471D01*
X34107143Y-85535471D02*
X34464286Y-85392614D01*
X33892857Y-85821185D02*
X34107143Y-85535471D01*
X34107143Y-85535471D02*
X34321429Y-85821185D01*
X35250000Y-85178328D02*
X35250000Y-85535471D01*
X34892857Y-85392614D02*
X35250000Y-85535471D01*
X35250000Y-85535471D02*
X35607143Y-85392614D01*
X35035714Y-85821185D02*
X35250000Y-85535471D01*
X35250000Y-85535471D02*
X35464286Y-85821185D01*
X36392857Y-85178328D02*
X36392857Y-85535471D01*
X36035714Y-85392614D02*
X36392857Y-85535471D01*
X36392857Y-85535471D02*
X36750000Y-85392614D01*
X36178571Y-85821185D02*
X36392857Y-85535471D01*
X36392857Y-85535471D02*
X36607143Y-85821185D01*
D10*
X125492000Y-44974000D02*
X125492000Y-46974000D01*
X125492000Y-46974000D02*
X127492000Y-46974000D01*
X127492000Y-44974000D02*
X125492000Y-44974000D01*
X127492000Y-46974000D02*
X127492000Y-44974000D01*
X110252000Y-44974000D02*
X110252000Y-46974000D01*
X110252000Y-46974000D02*
X112252000Y-46974000D01*
X112252000Y-44974000D02*
X110252000Y-44974000D01*
X112252000Y-46974000D02*
X112252000Y-44974000D01*
X111598000Y-85800000D02*
X111598000Y-79700000D01*
X123698000Y-79700000D02*
X111598000Y-79700000D01*
X123698000Y-79950000D02*
X125698000Y-79950000D01*
X123698000Y-85550000D02*
X125698000Y-85550000D01*
X123698000Y-85800000D02*
X111598000Y-85800000D01*
X123698000Y-85800000D02*
X123698000Y-79700000D01*
X125698000Y-85550000D02*
X125698000Y-79950000D01*
D12*
X20222000Y-39222000D02*
X20222000Y-41254000D01*
X20222000Y-39222000D02*
X22254000Y-39222000D01*
X38222000Y-27222000D02*
X38222000Y-29254000D01*
X38222000Y-27222000D02*
X40254000Y-27222000D01*
X56222000Y-20222000D02*
X56222000Y-22254000D01*
X56222000Y-20222000D02*
X58254000Y-20222000D01*
X74222000Y-25722000D02*
X74222000Y-27754000D01*
X74222000Y-25722000D02*
X76254000Y-25722000D01*
X92222000Y-28222000D02*
X92222000Y-30254000D01*
X92222000Y-28222000D02*
X94254000Y-28222000D01*
X20222000Y-56222000D02*
X20222000Y-58254000D01*
X20222000Y-56222000D02*
X22254000Y-56222000D01*
X38222000Y-44196000D02*
X38222000Y-46228000D01*
X38222000Y-44196000D02*
X40254000Y-44196000D01*
X56222000Y-37338000D02*
X56222000Y-39370000D01*
X56222000Y-37338000D02*
X58254000Y-37338000D01*
X74222000Y-42672000D02*
X74222000Y-44704000D01*
X74222000Y-42672000D02*
X76254000Y-42672000D01*
X92202000Y-45212000D02*
X92202000Y-47244000D01*
X92202000Y-45212000D02*
X94234000Y-45212000D01*
X20222000Y-73222000D02*
X20222000Y-75254000D01*
X20222000Y-73222000D02*
X22254000Y-73222000D01*
X38222000Y-61214000D02*
X38222000Y-63246000D01*
X38222000Y-61214000D02*
X40254000Y-61214000D01*
X56222000Y-54356000D02*
X56222000Y-56388000D01*
X56222000Y-54356000D02*
X58254000Y-54356000D01*
X74222000Y-59690000D02*
X74222000Y-61722000D01*
X74222000Y-59690000D02*
X76254000Y-59690000D01*
X92202000Y-62230000D02*
X92202000Y-64262000D01*
X92202000Y-62230000D02*
X94234000Y-62230000D01*
X111866202Y-104148202D02*
X110106439Y-103132202D01*
X111866202Y-104148202D02*
X112882202Y-102388439D01*
X95645338Y-95429300D02*
X93682577Y-94903380D01*
X95645338Y-95429300D02*
X96171259Y-93466539D01*
D10*
X109982000Y-47752000D02*
X109982000Y-78232000D01*
X109982000Y-47752000D02*
X127762000Y-47752000D01*
X127762000Y-47752000D02*
X127762000Y-78232000D01*
X127762000Y-78232000D02*
X109982000Y-78232000D01*
D15*
X52260000Y-40122500D02*
G75*
G02*
X53293866Y-35971952I20319983J-2857496D01*
G01*
X53293866Y-49988047D02*
G75*
G02*
X52260000Y-45837500I19286087J7008037D01*
G01*
X65571952Y-23693866D02*
G75*
G02*
X69722500Y-22660000I7008044J-19286117D01*
G01*
X69722500Y-63300000D02*
G75*
G02*
X65571954Y-62266135I2857500J20320000D01*
G01*
X71451615Y-32244136D02*
G75*
G02*
X72580000Y-32185000I1128379J-10735785D01*
G01*
X72580000Y-32185000D02*
G75*
G02*
X73708385Y-32244137I0J-10794900D01*
G01*
X72580000Y-53775000D02*
G75*
G02*
X71451615Y-53715864I-6J10794921D01*
G01*
X73708385Y-53715864D02*
G75*
G02*
X72580000Y-53775001I-1128385J10735764D01*
G01*
X75437500Y-22660000D02*
G75*
G02*
X79588047Y-23693866I-2857500J-20320000D01*
G01*
X79588047Y-62266134D02*
G75*
G02*
X75437500Y-63300000I-7008047J19286134D01*
G01*
X91866135Y-35971955D02*
G75*
G02*
X92900000Y-40122500I-19286154J-7008051D01*
G01*
X92900000Y-45837500D02*
G75*
G02*
X91866135Y-49988046I-20320050J2857512D01*
G01*
D16*
X70953245Y-57061867D02*
X71756191Y-56259167D01*
X72044559Y-56262261D01*
X72332927Y-56265354D01*
X71485703Y-57125491D01*
X71367778Y-57245214D01*
X71252979Y-57361763D01*
X71142525Y-57473903D01*
X71037633Y-57580396D01*
X70939521Y-57680007D01*
X70849406Y-57771500D01*
X70768507Y-57853637D01*
X70698040Y-57925182D01*
X70639224Y-57984900D01*
X70593277Y-58031554D01*
X70561416Y-58063907D01*
X70547635Y-58077903D01*
X70456791Y-58170179D01*
X70456791Y-55428309D01*
X70953245Y-55428309D01*
X70953245Y-57061867D01*
G36*
X70953245Y-57061867D02*
G01*
X71756191Y-56259167D01*
X72044559Y-56262261D01*
X72332927Y-56265354D01*
X71485703Y-57125491D01*
X71367778Y-57245214D01*
X71252979Y-57361763D01*
X71142525Y-57473903D01*
X71037633Y-57580396D01*
X70939521Y-57680007D01*
X70849406Y-57771500D01*
X70768507Y-57853637D01*
X70698040Y-57925182D01*
X70639224Y-57984900D01*
X70593277Y-58031554D01*
X70561416Y-58063907D01*
X70547635Y-58077903D01*
X70456791Y-58170179D01*
X70456791Y-55428309D01*
X70953245Y-55428309D01*
X70953245Y-57061867D01*
G37*
X71760025Y-57468398D02*
X71782728Y-57491261D01*
X71817207Y-57526792D01*
X71861476Y-57572884D01*
X71913543Y-57627430D01*
X71971422Y-57688324D01*
X72033121Y-57753459D01*
X72096654Y-57820729D01*
X72160029Y-57888027D01*
X72221259Y-57953246D01*
X72278355Y-58014281D01*
X72329327Y-58069024D01*
X72372187Y-58115369D01*
X72404945Y-58151209D01*
X72425613Y-58174438D01*
X72427906Y-58177129D01*
X72456207Y-58210764D01*
X71836193Y-58210764D01*
X71662843Y-58034695D01*
X71609101Y-57979952D01*
X71558818Y-57928439D01*
X71515002Y-57883259D01*
X71480656Y-57847513D01*
X71458788Y-57824304D01*
X71455611Y-57820812D01*
X71421729Y-57782997D01*
X71582764Y-57621653D01*
X71632477Y-57572198D01*
X71676701Y-57528873D01*
X71712848Y-57494160D01*
X71738330Y-57470540D01*
X71750559Y-57460492D01*
X71751090Y-57460309D01*
X71760025Y-57468398D01*
G36*
X71760025Y-57468398D02*
G01*
X71782728Y-57491261D01*
X71817207Y-57526792D01*
X71861476Y-57572884D01*
X71913543Y-57627430D01*
X71971422Y-57688324D01*
X72033121Y-57753459D01*
X72096654Y-57820729D01*
X72160029Y-57888027D01*
X72221259Y-57953246D01*
X72278355Y-58014281D01*
X72329327Y-58069024D01*
X72372187Y-58115369D01*
X72404945Y-58151209D01*
X72425613Y-58174438D01*
X72427906Y-58177129D01*
X72456207Y-58210764D01*
X71836193Y-58210764D01*
X71662843Y-58034695D01*
X71609101Y-57979952D01*
X71558818Y-57928439D01*
X71515002Y-57883259D01*
X71480656Y-57847513D01*
X71458788Y-57824304D01*
X71455611Y-57820812D01*
X71421729Y-57782997D01*
X71582764Y-57621653D01*
X71632477Y-57572198D01*
X71676701Y-57528873D01*
X71712848Y-57494160D01*
X71738330Y-57470540D01*
X71750559Y-57460492D01*
X71751090Y-57460309D01*
X71760025Y-57468398D01*
G37*
X73158279Y-55927650D02*
X73158471Y-56031890D01*
X73158960Y-56128635D01*
X73159710Y-56215521D01*
X73160686Y-56290183D01*
X73161855Y-56350258D01*
X73163182Y-56393381D01*
X73164631Y-56417188D01*
X73165539Y-56421218D01*
X73177970Y-56414904D01*
X73202816Y-56398561D01*
X73226950Y-56381359D01*
X73341647Y-56310637D01*
X73463863Y-56261533D01*
X73594246Y-56233857D01*
X73733447Y-56227419D01*
X73751259Y-56228087D01*
X73840894Y-56234639D01*
X73917377Y-56246576D01*
X73989029Y-56266068D01*
X74064167Y-56295285D01*
X74134018Y-56327924D01*
X74261951Y-56403217D01*
X74374871Y-56495197D01*
X74471765Y-56602186D01*
X74551623Y-56722511D01*
X74613433Y-56854496D01*
X74656185Y-56996465D01*
X74678866Y-57146744D01*
X74682427Y-57236414D01*
X74672136Y-57388892D01*
X74640780Y-57533456D01*
X74587635Y-57672692D01*
X74530380Y-57779611D01*
X74444668Y-57899904D01*
X74343055Y-58004753D01*
X74227722Y-58093075D01*
X74100847Y-58163789D01*
X73964611Y-58215812D01*
X73821192Y-58248065D01*
X73672771Y-58259464D01*
X73572525Y-58254981D01*
X73427917Y-58230100D01*
X73287349Y-58183825D01*
X73154176Y-58117846D01*
X73031756Y-58033849D01*
X72923444Y-57933523D01*
X72915050Y-57924357D01*
X72833919Y-57820237D01*
X72764227Y-57702055D01*
X72709061Y-57576192D01*
X72671508Y-57449032D01*
X72662639Y-57402582D01*
X72660026Y-57374187D01*
X72657681Y-57324115D01*
X72656212Y-57273781D01*
X73152550Y-57273781D01*
X73163122Y-57371330D01*
X73193554Y-57465349D01*
X73222208Y-57519494D01*
X73289142Y-57607777D01*
X73368623Y-57678654D01*
X73458055Y-57731147D01*
X73554841Y-57764279D01*
X73656382Y-57777073D01*
X73760083Y-57768552D01*
X73832910Y-57749264D01*
X73875907Y-57733178D01*
X73916812Y-57715818D01*
X73932979Y-57708042D01*
X73978265Y-57677038D01*
X74027588Y-57630844D01*
X74075645Y-57575388D01*
X74117130Y-57516594D01*
X74138618Y-57478267D01*
X74158799Y-57434021D01*
X74171444Y-57395413D01*
X74178801Y-57353121D01*
X74183119Y-57297818D01*
X74183401Y-57292528D01*
X74180033Y-57185283D01*
X74157177Y-57087391D01*
X74113525Y-56993968D01*
X74095755Y-56965439D01*
X74031213Y-56887535D01*
X73952396Y-56825365D01*
X73862760Y-56779869D01*
X73765761Y-56751991D01*
X73664857Y-56742671D01*
X73563505Y-56752853D01*
X73465159Y-56783478D01*
X73451156Y-56789764D01*
X73363204Y-56842713D01*
X73289214Y-56910927D01*
X73230171Y-56991273D01*
X73187058Y-57080620D01*
X73160856Y-57175833D01*
X73152550Y-57273781D01*
X72656212Y-57273781D01*
X72655628Y-57253778D01*
X72653889Y-57164589D01*
X72652486Y-57057960D01*
X72651442Y-56935304D01*
X72650778Y-56798032D01*
X72650517Y-56647558D01*
X72650514Y-56635822D01*
X72650427Y-55944108D01*
X73158131Y-55434082D01*
X73158279Y-55927650D01*
G36*
X73158279Y-55927650D02*
G01*
X73158471Y-56031890D01*
X73158960Y-56128635D01*
X73159710Y-56215521D01*
X73160686Y-56290183D01*
X73161855Y-56350258D01*
X73163182Y-56393381D01*
X73164631Y-56417188D01*
X73165539Y-56421218D01*
X73177970Y-56414904D01*
X73202816Y-56398561D01*
X73226950Y-56381359D01*
X73341647Y-56310637D01*
X73463863Y-56261533D01*
X73594246Y-56233857D01*
X73733447Y-56227419D01*
X73751259Y-56228087D01*
X73840894Y-56234639D01*
X73917377Y-56246576D01*
X73989029Y-56266068D01*
X74064167Y-56295285D01*
X74134018Y-56327924D01*
X74261951Y-56403217D01*
X74374871Y-56495197D01*
X74471765Y-56602186D01*
X74551623Y-56722511D01*
X74613433Y-56854496D01*
X74656185Y-56996465D01*
X74678866Y-57146744D01*
X74682427Y-57236414D01*
X74672136Y-57388892D01*
X74640780Y-57533456D01*
X74587635Y-57672692D01*
X74530380Y-57779611D01*
X74444668Y-57899904D01*
X74343055Y-58004753D01*
X74227722Y-58093075D01*
X74100847Y-58163789D01*
X73964611Y-58215812D01*
X73821192Y-58248065D01*
X73672771Y-58259464D01*
X73572525Y-58254981D01*
X73427917Y-58230100D01*
X73287349Y-58183825D01*
X73154176Y-58117846D01*
X73031756Y-58033849D01*
X72923444Y-57933523D01*
X72915050Y-57924357D01*
X72833919Y-57820237D01*
X72764227Y-57702055D01*
X72709061Y-57576192D01*
X72671508Y-57449032D01*
X72662639Y-57402582D01*
X72660026Y-57374187D01*
X72657681Y-57324115D01*
X72656212Y-57273781D01*
X73152550Y-57273781D01*
X73163122Y-57371330D01*
X73193554Y-57465349D01*
X73222208Y-57519494D01*
X73289142Y-57607777D01*
X73368623Y-57678654D01*
X73458055Y-57731147D01*
X73554841Y-57764279D01*
X73656382Y-57777073D01*
X73760083Y-57768552D01*
X73832910Y-57749264D01*
X73875907Y-57733178D01*
X73916812Y-57715818D01*
X73932979Y-57708042D01*
X73978265Y-57677038D01*
X74027588Y-57630844D01*
X74075645Y-57575388D01*
X74117130Y-57516594D01*
X74138618Y-57478267D01*
X74158799Y-57434021D01*
X74171444Y-57395413D01*
X74178801Y-57353121D01*
X74183119Y-57297818D01*
X74183401Y-57292528D01*
X74180033Y-57185283D01*
X74157177Y-57087391D01*
X74113525Y-56993968D01*
X74095755Y-56965439D01*
X74031213Y-56887535D01*
X73952396Y-56825365D01*
X73862760Y-56779869D01*
X73765761Y-56751991D01*
X73664857Y-56742671D01*
X73563505Y-56752853D01*
X73465159Y-56783478D01*
X73451156Y-56789764D01*
X73363204Y-56842713D01*
X73289214Y-56910927D01*
X73230171Y-56991273D01*
X73187058Y-57080620D01*
X73160856Y-57175833D01*
X73152550Y-57273781D01*
X72656212Y-57273781D01*
X72655628Y-57253778D01*
X72653889Y-57164589D01*
X72652486Y-57057960D01*
X72651442Y-56935304D01*
X72650778Y-56798032D01*
X72650517Y-56647558D01*
X72650514Y-56635822D01*
X72650427Y-55944108D01*
X73158131Y-55434082D01*
X73158279Y-55927650D01*
G37*
D12*
X83135200Y-20850400D02*
X86435200Y-20850400D01*
X83135200Y-21150400D02*
X83135200Y-20850400D01*
X83135200Y-23350400D02*
X83135200Y-23650400D01*
X83135200Y-23650400D02*
X86435200Y-23650400D01*
X86435200Y-20850400D02*
X86435200Y-21150400D01*
X86435200Y-23650400D02*
X86435200Y-23350400D01*
D17*
G36*
X80938562Y-32147712D02*
G01*
X80904379Y-32295754D01*
X80772549Y-32313725D01*
X80567578Y-32222613D01*
X80606536Y-32147712D01*
X80902064Y-32117909D01*
X80938562Y-32147712D01*
G37*
G36*
X170336601Y8442484D02*
G01*
X170302418Y8294442D01*
X170170588Y8276471D01*
X169965617Y8367583D01*
X170004575Y8442484D01*
X170300103Y8472287D01*
X170336601Y8442484D01*
G37*
G36*
X177333397Y4909826D02*
G01*
X177082116Y4622343D01*
X176848930Y4541177D01*
X176748551Y4683458D01*
X176899112Y4920724D01*
X177203613Y5181771D01*
X177328068Y5186311D01*
X177333397Y4909826D01*
G37*
G36*
X79900980Y-32372651D02*
G01*
X79153921Y-32562745D01*
X78387083Y-32706175D01*
X77784314Y-32757479D01*
X77161765Y-32762120D01*
X77784314Y-32562745D01*
X78517502Y-32413219D01*
X79153921Y-32368010D01*
X79900980Y-32372651D01*
G37*
G36*
X147253548Y-87536556D02*
G01*
X147260784Y-87596078D01*
X147071287Y-87837861D01*
X147011765Y-87845098D01*
X146769981Y-87655600D01*
X146762745Y-87596078D01*
X146952243Y-87354295D01*
X147011765Y-87347059D01*
X147253548Y-87536556D01*
G37*
G36*
X172653548Y8335993D02*
G01*
X172660784Y8276471D01*
X172471287Y8034688D01*
X172411765Y8027451D01*
X172169981Y8216949D01*
X172162745Y8276471D01*
X172352243Y8518254D01*
X172411765Y8525490D01*
X172653548Y8335993D01*
G37*
G36*
X170354281Y4336013D02*
G01*
X170362957Y4331569D01*
X170932787Y4066350D01*
X171166667Y3971937D01*
X171252613Y3867342D01*
X170890909Y3814053D01*
X170882034Y3813777D01*
X170326012Y3930173D01*
X170078325Y4173409D01*
X170052809Y4425683D01*
X170354281Y4336013D01*
G37*
G36*
X183663985Y1606211D02*
G01*
X183815767Y1232914D01*
X183548709Y940508D01*
X182942005Y807428D01*
X182855892Y805883D01*
X182275909Y918006D01*
X182123529Y1174668D01*
X182334174Y1498643D01*
X182817893Y1709104D01*
X183352364Y1743770D01*
X183663985Y1606211D01*
G37*
G36*
X175712828Y8512376D02*
G01*
X176168234Y8442170D01*
X176357357Y8268579D01*
X176396014Y7945311D01*
X176396078Y7917638D01*
X176296907Y7382978D01*
X176069725Y7129409D01*
X175820028Y7242587D01*
X175745128Y7389119D01*
X175427637Y7741320D01*
X174955876Y7647596D01*
X174528431Y7280392D01*
X174035093Y6851887D01*
X173741665Y6870224D01*
X173656863Y7260026D01*
X173577844Y7885332D01*
X173505710Y8131594D01*
X173493927Y8350683D01*
X173734480Y8470938D01*
X174321707Y8519490D01*
X174875318Y8525490D01*
X175712828Y8512376D01*
G37*
G36*
X164340185Y8522141D02*
G01*
X165908528Y8510154D01*
X167084134Y8486619D01*
X167919636Y8448628D01*
X168467669Y8393270D01*
X168780867Y8317637D01*
X168911865Y8218818D01*
X168925490Y8160723D01*
X169152258Y7726696D01*
X169750300Y7412764D01*
X170596219Y7281178D01*
X170670516Y7280392D01*
X171213234Y7220488D01*
X171374785Y6995352D01*
X171356901Y6844608D01*
X171207789Y6522576D01*
X170872631Y6491524D01*
X170419608Y6636777D01*
X169900760Y6657965D01*
X169559810Y6248228D01*
X169383285Y5387771D01*
X169362459Y5083707D01*
X169299019Y3786518D01*
X160956863Y3827429D01*
X159001655Y3840292D01*
X157238119Y3858240D01*
X155719358Y3880231D01*
X154498471Y3905224D01*
X153628563Y3932174D01*
X153162733Y3960039D01*
X153112745Y3981447D01*
X153917400Y4352457D01*
X154349516Y4970444D01*
X154377948Y5623493D01*
X154366075Y6203296D01*
X154638970Y6769528D01*
X154980677Y7194252D01*
X155431061Y7756171D01*
X155696946Y8182520D01*
X155727451Y8285136D01*
X155970603Y8360083D01*
X156676842Y8422623D01*
X157811338Y8471487D01*
X159339263Y8505406D01*
X161225789Y8523112D01*
X162326470Y8525490D01*
X164340185Y8522141D01*
G37*
G36*
X169397419Y-28018137D02*
G01*
X169384487Y-29367400D01*
X169364404Y-30272179D01*
X169328876Y-30786030D01*
X169269611Y-30962505D01*
X169178317Y-30855160D01*
X169046700Y-30517550D01*
X169021463Y-30446078D01*
X168671618Y-29450000D01*
X168800996Y-31068627D01*
X168902155Y-31908620D01*
X169040188Y-32522962D01*
X169176952Y-32770261D01*
X169285738Y-33042652D01*
X169368593Y-33714344D01*
X169416005Y-34686866D01*
X169423529Y-35322712D01*
X169423529Y-37792157D01*
X171415686Y-37792157D01*
X173407843Y-37792157D01*
X173407843Y-35675490D01*
X173407843Y-33558823D01*
X176769608Y-33558823D01*
X180131372Y-33558823D01*
X180131372Y-37792157D01*
X180131372Y-42025490D01*
X166103268Y-42025490D01*
X163505626Y-42022623D01*
X161058165Y-42014375D01*
X158806005Y-42001272D01*
X156794270Y-41983843D01*
X155068082Y-41962616D01*
X153672563Y-41938118D01*
X152652836Y-41910877D01*
X152054023Y-41881421D01*
X151909150Y-41859477D01*
X151864764Y-41575586D01*
X151824855Y-40860842D01*
X151791081Y-39782421D01*
X151765100Y-38407500D01*
X151748573Y-36803257D01*
X151743137Y-35135947D01*
X151743137Y-28931209D01*
X168447110Y-28931209D01*
X168492894Y-29254191D01*
X168577900Y-29258047D01*
X168637345Y-28924762D01*
X168597560Y-28780760D01*
X168486987Y-28686436D01*
X168447110Y-28931209D01*
X151743137Y-28931209D01*
X151743137Y-28578431D01*
X158093137Y-28578431D01*
X164443137Y-28578431D01*
X164443137Y-26586274D01*
X164443137Y-24594117D01*
X166933333Y-24594117D01*
X169423529Y-24594117D01*
X169397419Y-28018137D01*
G37*
G36*
X183809002Y8524171D02*
G01*
X184900996Y8477098D01*
X185666774Y8319596D01*
X186161983Y7986993D01*
X186442266Y7414615D01*
X186563267Y6537788D01*
X186580633Y5291838D01*
X186550276Y3626413D01*
X186499554Y1952855D01*
X186419696Y773007D01*
X186310375Y83377D01*
X186199014Y-118607D01*
X185894904Y3952D01*
X185408192Y418676D01*
X185016171Y839593D01*
X184386666Y1678639D01*
X184143037Y2310114D01*
X184263862Y2813069D01*
X184426961Y3014019D01*
X184587027Y3319692D01*
X184330701Y3629679D01*
X184277515Y3669804D01*
X183983294Y4036740D01*
X183987704Y4286540D01*
X183989293Y4675291D01*
X183770069Y5156074D01*
X183559553Y5616054D01*
X183629931Y5831873D01*
X183760552Y6111024D01*
X183721598Y6697390D01*
X183714920Y6731771D01*
X183517353Y7312674D01*
X183264802Y7408416D01*
X182971801Y7026998D01*
X182652886Y6176424D01*
X182642325Y6141245D01*
X182406044Y5355741D01*
X182235392Y4932104D01*
X182039565Y4759361D01*
X181727765Y4726545D01*
X181485888Y4727941D01*
X180829396Y4913216D01*
X180180619Y5374818D01*
X179533742Y6021695D01*
X179545991Y6035294D01*
X181127451Y6035294D01*
X181242192Y5640333D01*
X181438725Y5599510D01*
X181727897Y5905363D01*
X181750000Y6035294D01*
X181553628Y6409201D01*
X181438725Y6471079D01*
X181188798Y6355504D01*
X181127451Y6035294D01*
X179545991Y6035294D01*
X180044531Y6588789D01*
X180555207Y7192517D01*
X180686171Y7502944D01*
X180406553Y7567916D01*
X179685483Y7435279D01*
X179522530Y7397858D01*
X178727039Y7195163D01*
X178121059Y7008620D01*
X177910335Y6919310D01*
X177679017Y6962398D01*
X177641176Y7132425D01*
X177811134Y7516508D01*
X178191264Y7806574D01*
X178586949Y7890270D01*
X178761348Y7779105D01*
X179057833Y7512810D01*
X179228511Y7640442D01*
X179135294Y8027451D01*
X179104536Y8097213D01*
X184460890Y8097213D01*
X184634205Y7628670D01*
X184852536Y7294730D01*
X185354335Y6704616D01*
X185687164Y6576336D01*
X185845530Y6910619D01*
X185858823Y7161221D01*
X185653139Y7775085D01*
X185235222Y8073241D01*
X184663145Y8249301D01*
X184460890Y8097213D01*
X179104536Y8097213D01*
X179048355Y8224636D01*
X179082121Y8361427D01*
X179307486Y8448859D01*
X179795346Y8497966D01*
X180616595Y8519782D01*
X181842127Y8525342D01*
X182335148Y8525490D01*
X183809002Y8524171D01*
G37*
G36*
X141347926Y-24927447D02*
G01*
X142714456Y-25078007D01*
X144434316Y-25505437D01*
X146287344Y-26282214D01*
X148126245Y-27346118D01*
X148198428Y-27394442D01*
X148733154Y-27759407D01*
X149158448Y-28094427D01*
X149487947Y-28459465D01*
X149735286Y-28914479D01*
X149914104Y-29519431D01*
X150038036Y-30334281D01*
X150120719Y-31418991D01*
X150175790Y-32833519D01*
X150216886Y-34637828D01*
X150249019Y-36410891D01*
X150373529Y-43395098D01*
X165999510Y-43459224D01*
X181625490Y-43523350D01*
X181625490Y-38940575D01*
X181625490Y-34357800D01*
X182811391Y-33596810D01*
X183679619Y-33079392D01*
X184558592Y-32616431D01*
X184938893Y-32442393D01*
X185569447Y-32108508D01*
X185973702Y-31764394D01*
X186020811Y-31683307D01*
X186265682Y-31358702D01*
X186383505Y-31317647D01*
X186411326Y-31562985D01*
X186437838Y-32284280D01*
X186462909Y-33459451D01*
X186486406Y-35066414D01*
X186508197Y-37083090D01*
X186528150Y-39487396D01*
X186546132Y-42257251D01*
X186562012Y-45370575D01*
X186575656Y-48805284D01*
X186586932Y-52539299D01*
X186595708Y-56550537D01*
X186601852Y-60816917D01*
X186605231Y-65316357D01*
X186605882Y-68421568D01*
X186605882Y-105525490D01*
X177614534Y-105525490D01*
X175175544Y-105522147D01*
X173195451Y-105511201D01*
X171635150Y-105491278D01*
X170455537Y-105461003D01*
X169617509Y-105419002D01*
X169081962Y-105363901D01*
X168809791Y-105294323D01*
X168759277Y-105214215D01*
X169561330Y-103306368D01*
X170146734Y-101714667D01*
X170545100Y-100322360D01*
X170786037Y-99012699D01*
X170899157Y-97668931D01*
X170918181Y-96701814D01*
X170959512Y-95610942D01*
X171121357Y-94767791D01*
X171461672Y-93925987D01*
X171665298Y-93525827D01*
X172444878Y-91693942D01*
X172985663Y-89670766D01*
X173292348Y-87539790D01*
X173369633Y-85384505D01*
X173222213Y-83288403D01*
X172854786Y-81334974D01*
X172272050Y-79607711D01*
X171478701Y-78190104D01*
X170757394Y-77388296D01*
X170286537Y-77065964D01*
X169419040Y-76563331D01*
X168210778Y-75908119D01*
X166717623Y-75128053D01*
X164995450Y-74250859D01*
X163100131Y-73304259D01*
X161087540Y-72315979D01*
X159013551Y-71313743D01*
X156934038Y-70325275D01*
X154904873Y-69378300D01*
X152981930Y-68500543D01*
X151652935Y-67908675D01*
X149845789Y-67105272D01*
X148416550Y-66444632D01*
X147281908Y-65881580D01*
X146358552Y-65370944D01*
X145563170Y-64867548D01*
X144812451Y-64326218D01*
X144285417Y-63913760D01*
X143476585Y-63265755D01*
X144683881Y-62114140D01*
X145341791Y-61526801D01*
X145889203Y-61109889D01*
X146197707Y-60956752D01*
X146487600Y-60737604D01*
X146674206Y-60230064D01*
X146710603Y-59640580D01*
X146589802Y-59231555D01*
X146209748Y-58910941D01*
X145556256Y-58588511D01*
X145307256Y-58499165D01*
X144270993Y-58164017D01*
X144388961Y-58053818D01*
X146792751Y-58053818D01*
X146877015Y-58195197D01*
X147275782Y-58446572D01*
X147832982Y-58295609D01*
X148256863Y-57962745D01*
X148593702Y-57535573D01*
X148756931Y-57163464D01*
X148700897Y-56985243D01*
X148568137Y-57016160D01*
X148230737Y-57177683D01*
X147668413Y-57444715D01*
X147634314Y-57460863D01*
X147043902Y-57744997D01*
X146797674Y-57909396D01*
X146792751Y-58053818D01*
X144388961Y-58053818D01*
X145018830Y-57465432D01*
X145489423Y-56969034D01*
X145748946Y-56584905D01*
X145766667Y-56513595D01*
X145641732Y-55934415D01*
X145346607Y-55538165D01*
X145160883Y-55472549D01*
X144795065Y-55304801D01*
X144317550Y-54897325D01*
X144282636Y-54860737D01*
X143469566Y-54322860D01*
X142309327Y-53980983D01*
X141240345Y-53763973D01*
X140034665Y-53501752D01*
X139382823Y-53352050D01*
X137854862Y-52991061D01*
X136761036Y-54045040D01*
X136059989Y-54703254D01*
X135408795Y-55286171D01*
X135075297Y-55565502D01*
X134693084Y-55910217D01*
X134688607Y-56119100D01*
X134895614Y-56262680D01*
X135246442Y-56660779D01*
X135307850Y-56916785D01*
X135515267Y-57360968D01*
X136066179Y-57926666D01*
X136853594Y-58523012D01*
X137770523Y-59059139D01*
X137911949Y-59128428D01*
X138582180Y-59392269D01*
X139108737Y-59400348D01*
X139613349Y-59232593D01*
X140522536Y-58920931D01*
X141499424Y-58676994D01*
X142383526Y-58531990D01*
X143014357Y-58517124D01*
X143141030Y-58546642D01*
X143477977Y-58774773D01*
X143395614Y-59070806D01*
X142872592Y-59473254D01*
X142508513Y-59687706D01*
X141786079Y-60026302D01*
X141062942Y-60173092D01*
X140110705Y-60170445D01*
X139956062Y-60161199D01*
X139090481Y-60046361D01*
X138211434Y-59787832D01*
X137230002Y-59344329D01*
X136057263Y-58674569D01*
X134604298Y-57737270D01*
X134311765Y-57540753D01*
X133579493Y-57050554D01*
X132696400Y-56464705D01*
X132257353Y-56175341D01*
X131455327Y-55593568D01*
X131107675Y-55201653D01*
X131215865Y-55001803D01*
X131457960Y-54974510D01*
X131995753Y-54842165D01*
X132730269Y-54514818D01*
X133460334Y-54096996D01*
X133984772Y-53693229D01*
X134039125Y-53633362D01*
X134179500Y-53389765D01*
X134060389Y-53219413D01*
X133603580Y-53080788D01*
X132730864Y-52932372D01*
X132713772Y-52929793D01*
X132234238Y-52759092D01*
X132202312Y-52499576D01*
X132589250Y-52207789D01*
X133193801Y-51985539D01*
X134416340Y-51524387D01*
X134976003Y-51097453D01*
X142857502Y-51097453D01*
X142924325Y-52045842D01*
X143342025Y-53049651D01*
X144015079Y-53943464D01*
X144847965Y-54561864D01*
X144861984Y-54568576D01*
X145607312Y-54881075D01*
X146115315Y-54947675D01*
X146574174Y-54781296D01*
X146717459Y-54695981D01*
X147063134Y-54581741D01*
X147442510Y-54746873D01*
X147959178Y-55213175D01*
X148443022Y-55770543D01*
X148725218Y-56237858D01*
X148754902Y-56363273D01*
X148878831Y-56684794D01*
X149169297Y-56626629D01*
X149504318Y-56215048D01*
X149512375Y-56200149D01*
X149678786Y-55649568D01*
X149653461Y-55328580D01*
X149661363Y-55020149D01*
X149764959Y-54974510D01*
X149985083Y-54856467D01*
X150185067Y-54467280D01*
X150378213Y-53754359D01*
X150577825Y-52665115D01*
X150797208Y-51146961D01*
X150866048Y-50621892D01*
X151075204Y-48697834D01*
X151135331Y-47205429D01*
X151029235Y-46096054D01*
X150739722Y-45321088D01*
X150249599Y-44831912D01*
X149541671Y-44579902D01*
X148706741Y-44515686D01*
X148013253Y-44538227D01*
X147509845Y-44658556D01*
X147041758Y-44955732D01*
X146454234Y-45508815D01*
X146147604Y-45823039D01*
X145199057Y-46911656D01*
X144317678Y-48119819D01*
X143579907Y-49324990D01*
X143062182Y-50404627D01*
X142857502Y-51097453D01*
X134976003Y-51097453D01*
X135183514Y-50939155D01*
X135529075Y-50199617D01*
X135556863Y-49869321D01*
X135395917Y-48987172D01*
X134978110Y-48450347D01*
X134400985Y-48298024D01*
X133762086Y-48569384D01*
X133362516Y-48987955D01*
X132893029Y-49868119D01*
X132894283Y-50598540D01*
X133128921Y-50970596D01*
X133248947Y-51167036D01*
X133029081Y-51208514D01*
X132475716Y-51127874D01*
X131720466Y-50941417D01*
X131116636Y-50706194D01*
X131050069Y-50668122D01*
X130540344Y-50511885D01*
X130203658Y-50797326D01*
X130034405Y-51535090D01*
X130021705Y-52621359D01*
X130025206Y-53441279D01*
X129968289Y-54020058D01*
X129869007Y-54227451D01*
X129585360Y-54095816D01*
X128983245Y-53738612D01*
X128154623Y-53212393D01*
X127311027Y-52654373D01*
X126146639Y-51890487D01*
X124918431Y-51116964D01*
X123808281Y-50447017D01*
X123275824Y-50142582D01*
X120968886Y-48665308D01*
X118577123Y-46734143D01*
X117378431Y-45627734D01*
X116068720Y-44531942D01*
X114401907Y-43380514D01*
X112502947Y-42242970D01*
X110496796Y-41188831D01*
X108508409Y-40287619D01*
X106662740Y-39608852D01*
X106434856Y-39539103D01*
X105280386Y-39126647D01*
X103976401Y-38557412D01*
X102789341Y-37948524D01*
X102699562Y-37897066D01*
X101610806Y-37309520D01*
X100460929Y-36757733D01*
X99473854Y-36348174D01*
X99349496Y-36304157D01*
X98320717Y-35899181D01*
X97156995Y-35364001D01*
X96320798Y-34929021D01*
X95256194Y-34380155D01*
X94490684Y-34123952D01*
X93925340Y-34153704D01*
X93461234Y-34462702D01*
X93236192Y-34719873D01*
X92662496Y-35696167D01*
X92557813Y-36596779D01*
X92930361Y-37451254D01*
X93788352Y-38289139D01*
X94333884Y-38667924D01*
X95121130Y-39247324D01*
X95770910Y-39859764D01*
X96087827Y-40283459D01*
X96671149Y-41014442D01*
X97606009Y-41572640D01*
X98956755Y-41994726D01*
X99176577Y-42043730D01*
X100099531Y-42332928D01*
X100542198Y-42704082D01*
X100568108Y-42767824D01*
X100719968Y-43081708D01*
X101002730Y-43300400D01*
X101510904Y-43453999D01*
X102339002Y-43572605D01*
X103406908Y-43671890D01*
X104374018Y-43758587D01*
X104921740Y-43839695D01*
X105127276Y-43947600D01*
X105067828Y-44114690D01*
X104897077Y-44297040D01*
X104314751Y-44626642D01*
X103313791Y-44905078D01*
X102626692Y-45025302D01*
X100167508Y-45529071D01*
X97948174Y-46267170D01*
X96211765Y-47125333D01*
X95429661Y-47571430D01*
X94350085Y-48155439D01*
X93123366Y-48797286D01*
X92048017Y-49343124D01*
X90005283Y-50406280D01*
X88211055Y-51427136D01*
X86704408Y-52378609D01*
X85524416Y-53233614D01*
X84710156Y-53965066D01*
X84300701Y-54545881D01*
X84258823Y-54742162D01*
X84284188Y-55015951D01*
X84423596Y-55163438D01*
X84772021Y-55193690D01*
X85424436Y-55115775D01*
X86419916Y-54948499D01*
X87394669Y-54811112D01*
X88098082Y-54816637D01*
X88738809Y-54975153D01*
X88997804Y-55073009D01*
X89854556Y-55333485D01*
X90697970Y-55467659D01*
X90842131Y-55472549D01*
X91438596Y-55548078D01*
X91771100Y-55732513D01*
X91783191Y-55758396D01*
X92060860Y-55873460D01*
X92674078Y-55832198D01*
X93495709Y-55662595D01*
X94398622Y-55392631D01*
X95255684Y-55050291D01*
X95464706Y-54948069D01*
X96670021Y-54491098D01*
X98040689Y-54222721D01*
X99382562Y-54165530D01*
X100501494Y-54342120D01*
X100545930Y-54356751D01*
X101477233Y-54640832D01*
X102423258Y-54882861D01*
X102578601Y-54916433D01*
X103220698Y-55096113D01*
X103521260Y-55377563D01*
X103634587Y-55909348D01*
X103637190Y-55935680D01*
X103569125Y-56729633D01*
X103318757Y-57359983D01*
X102920978Y-57967071D01*
X102206996Y-57439201D01*
X101497962Y-57076005D01*
X100611454Y-56821581D01*
X100363350Y-56784002D01*
X99575675Y-56755494D01*
X98914044Y-56922924D01*
X98131868Y-57350276D01*
X98097314Y-57371963D01*
X97407259Y-57859311D01*
X97079695Y-58262804D01*
X97021098Y-58698817D01*
X97022138Y-58709804D01*
X97090755Y-59032256D01*
X97274736Y-59224814D01*
X97656192Y-59294331D01*
X98317232Y-59247662D01*
X99339967Y-59091661D01*
X100071568Y-58964369D01*
X101087620Y-58809925D01*
X102031516Y-58709550D01*
X102657744Y-58685142D01*
X103324264Y-58635904D01*
X103787551Y-58476053D01*
X103802209Y-58464646D01*
X104240305Y-58359774D01*
X105022336Y-58404057D01*
X106024285Y-58576166D01*
X107122137Y-58854774D01*
X108191873Y-59218553D01*
X108196470Y-59220363D01*
X108942446Y-59487718D01*
X109458127Y-59558090D01*
X109966785Y-59440212D01*
X110312839Y-59303157D01*
X111530813Y-59027287D01*
X112502934Y-59056507D01*
X113365785Y-59140585D01*
X114109600Y-59193932D01*
X114353911Y-59202814D01*
X114994575Y-59311945D01*
X115717445Y-59565856D01*
X115723519Y-59568635D01*
X117129662Y-60094197D01*
X118787653Y-60530971D01*
X120452146Y-60819141D01*
X121113725Y-60882802D01*
X122102373Y-60988534D01*
X122767622Y-61181581D01*
X123283201Y-61519079D01*
X123417157Y-61640365D01*
X123864806Y-62139894D01*
X124094088Y-62543076D01*
X124101961Y-62597091D01*
X124251710Y-62969314D01*
X124625005Y-63519545D01*
X124765399Y-63693377D01*
X125160031Y-64311420D01*
X125136618Y-64684623D01*
X124727045Y-64781699D01*
X123963197Y-64571362D01*
X123897901Y-64544575D01*
X122968503Y-64247214D01*
X122125791Y-64224868D01*
X121214786Y-64498073D01*
X120163392Y-65039436D01*
X119586588Y-65371212D01*
X120278600Y-65915548D01*
X120779090Y-66245017D01*
X121606950Y-66722086D01*
X122640544Y-67278864D01*
X123594620Y-67766386D01*
X125077853Y-68522593D01*
X126277195Y-69183266D01*
X127365978Y-69850328D01*
X128517536Y-70625702D01*
X128833333Y-70846855D01*
X129304330Y-71221766D01*
X129545566Y-71492089D01*
X129829846Y-71937706D01*
X130342910Y-72577730D01*
X130978167Y-73296351D01*
X131629030Y-73977759D01*
X132188909Y-74506144D01*
X132551215Y-74765695D01*
X132561986Y-74769461D01*
X132968299Y-75005776D01*
X133066667Y-75192370D01*
X132924456Y-75291839D01*
X132693137Y-75145098D01*
X132364328Y-74922101D01*
X132326202Y-75018433D01*
X132546208Y-75374526D01*
X132991792Y-75930816D01*
X133329482Y-76309496D01*
X133984000Y-77129512D01*
X134216316Y-77709021D01*
X134200241Y-77843399D01*
X134230639Y-78193386D01*
X134637923Y-78478884D01*
X134939821Y-78599457D01*
X135644170Y-78978098D01*
X136181653Y-79474378D01*
X136214369Y-79521344D01*
X136615620Y-79961023D01*
X136968403Y-80125490D01*
X137311277Y-80273810D01*
X137927985Y-80670904D01*
X138711210Y-81244974D01*
X139108628Y-81557353D01*
X140021510Y-82268312D01*
X140902082Y-82915811D01*
X141600807Y-83391060D01*
X141772295Y-83495177D01*
X142328752Y-83897088D01*
X142633988Y-84278062D01*
X142653921Y-84366746D01*
X142455556Y-84691349D01*
X141980451Y-84806745D01*
X141408590Y-84702332D01*
X141013232Y-84463367D01*
X140573316Y-84153281D01*
X140394503Y-84201942D01*
X140486799Y-84537989D01*
X140860210Y-85090058D01*
X140915917Y-85157395D01*
X141583629Y-85838306D01*
X142283519Y-86375119D01*
X142896504Y-86690664D01*
X143303505Y-86707775D01*
X143306020Y-86706247D01*
X143434869Y-86376549D01*
X143389292Y-85799727D01*
X143323543Y-85279818D01*
X143465303Y-85137057D01*
X143561478Y-85158135D01*
X143871028Y-85469340D01*
X143974705Y-85780512D01*
X144171203Y-86156688D01*
X144697489Y-86382906D01*
X145051808Y-86451755D01*
X145735949Y-86651446D01*
X145937526Y-86915594D01*
X145656616Y-87185764D01*
X145050608Y-87374046D01*
X144376316Y-87546265D01*
X144132083Y-87781525D01*
X144255353Y-88216181D01*
X144476927Y-88624538D01*
X144959476Y-89245308D01*
X145460122Y-89408309D01*
X145466211Y-89407671D01*
X145875821Y-89500389D01*
X146110612Y-89964440D01*
X146142868Y-90098440D01*
X146403024Y-90764854D01*
X146840826Y-91455267D01*
X147340874Y-92021213D01*
X147787763Y-92314230D01*
X147875507Y-92327451D01*
X148224883Y-92466853D01*
X148895665Y-92892850D01*
X149904624Y-93617126D01*
X151268531Y-94651365D01*
X151780361Y-95047886D01*
X152360387Y-95453389D01*
X152835229Y-95712728D01*
X152838694Y-95714068D01*
X153184464Y-95998034D01*
X153237255Y-96167067D01*
X153421598Y-96497158D01*
X153878069Y-96936406D01*
X154011525Y-97039566D01*
X154609760Y-97405367D01*
X155073773Y-97451196D01*
X155349600Y-97355122D01*
X155802464Y-97236730D01*
X156106711Y-97479839D01*
X156236036Y-97701078D01*
X156632869Y-98149993D01*
X157026994Y-98303921D01*
X157523644Y-98413605D01*
X158216390Y-98677199D01*
X158871809Y-98996517D01*
X159206514Y-99220699D01*
X159134917Y-99417293D01*
X158964706Y-99549019D01*
X158739590Y-99756275D01*
X158835430Y-99946603D01*
X159305820Y-100154646D01*
X160204355Y-100415049D01*
X160372392Y-100458958D01*
X161208285Y-100730001D01*
X162161248Y-101120597D01*
X163106909Y-101568947D01*
X163920897Y-102013250D01*
X164478841Y-102391706D01*
X164650653Y-102584834D01*
X164936894Y-102777365D01*
X165026537Y-102786274D01*
X165374829Y-102976194D01*
X165630444Y-103284313D01*
X166126566Y-103685198D01*
X166568077Y-103782353D01*
X167122213Y-104005322D01*
X167530400Y-104572260D01*
X167680392Y-105292681D01*
X167437647Y-105353655D01*
X166734423Y-105406962D01*
X165608236Y-105451615D01*
X164096599Y-105486627D01*
X162237029Y-105511008D01*
X160067041Y-105523772D01*
X158840196Y-105525490D01*
X150000000Y-105525490D01*
X150000000Y-102811001D01*
X149985827Y-101533377D01*
X149928803Y-100611382D01*
X149807175Y-99903049D01*
X149599186Y-99266415D01*
X149379883Y-98764432D01*
X148861143Y-97185281D01*
X148757334Y-96037649D01*
X148663897Y-94681350D01*
X148358419Y-93676184D01*
X147794931Y-92903749D01*
X147413515Y-92576470D01*
X146838731Y-92110785D01*
X146049324Y-91433802D01*
X145194631Y-90674188D01*
X144997291Y-90494711D01*
X143757426Y-89407667D01*
X142623533Y-88539110D01*
X141486283Y-87832530D01*
X140236352Y-87231417D01*
X138764410Y-86679260D01*
X136961133Y-86119548D01*
X136011087Y-85849782D01*
X133839082Y-85077116D01*
X131865552Y-83998024D01*
X129965050Y-82538184D01*
X129148174Y-81783712D01*
X128442751Y-81125551D01*
X127907253Y-80739219D01*
X127362670Y-80541177D01*
X126629993Y-80447884D01*
X126226056Y-80420030D01*
X125336659Y-80378928D01*
X124768326Y-80431973D01*
X124345796Y-80631963D01*
X123893814Y-81031697D01*
X123762480Y-81162225D01*
X123091650Y-82037553D01*
X122687302Y-83128308D01*
X122632910Y-83369911D01*
X122503229Y-83987956D01*
X122288020Y-85009751D01*
X122004903Y-86351801D01*
X121671500Y-87930616D01*
X121305432Y-89662703D01*
X121005188Y-91082353D01*
X120431701Y-93834460D01*
X119968799Y-96151385D01*
X119607791Y-98081488D01*
X119339986Y-99673132D01*
X119156695Y-100974680D01*
X119058718Y-101914706D01*
X118989550Y-102371735D01*
X118787808Y-102577517D01*
X118311154Y-102613327D01*
X117876470Y-102589777D01*
X116389591Y-102424543D01*
X114941653Y-102140956D01*
X113709035Y-101778214D01*
X113145098Y-101538324D01*
X112621882Y-101213134D01*
X111814845Y-100642485D01*
X110817122Y-99899369D01*
X109721845Y-99056776D01*
X108622148Y-98187700D01*
X107611164Y-97365131D01*
X106782028Y-96662061D01*
X106227871Y-96151482D01*
X106110294Y-96024929D01*
X105816701Y-95576794D01*
X105708850Y-95069242D01*
X105795994Y-94397291D01*
X106087386Y-93455963D01*
X106412752Y-92593533D01*
X106976438Y-91000757D01*
X107562853Y-89034780D01*
X108182953Y-86655966D01*
X108847692Y-83824679D01*
X108895453Y-83611764D01*
X109121778Y-82554018D01*
X109401870Y-81172520D01*
X109722224Y-79540732D01*
X110069331Y-77732115D01*
X110429685Y-75820132D01*
X110789780Y-73878243D01*
X111136108Y-71979909D01*
X111455163Y-70198594D01*
X111733438Y-68607758D01*
X111957425Y-67280862D01*
X112113619Y-66291369D01*
X112188512Y-65712739D01*
X112190138Y-65692518D01*
X112273529Y-64582095D01*
X110799553Y-64250656D01*
X109958035Y-64006421D01*
X109298311Y-63715664D01*
X109021440Y-63503286D01*
X108717823Y-63233846D01*
X108303665Y-63284060D01*
X108068462Y-63382987D01*
X107219309Y-63542931D01*
X106789948Y-63439218D01*
X106329165Y-63285440D01*
X105494709Y-63026986D01*
X104391858Y-62695740D01*
X103125892Y-62323588D01*
X102664072Y-62189663D01*
X100750591Y-61618102D01*
X99223736Y-61111139D01*
X97983928Y-60625448D01*
X96931586Y-60117702D01*
X95967132Y-59544572D01*
X94990986Y-58862731D01*
X94952787Y-58834437D01*
X93986530Y-58164631D01*
X92973828Y-57537013D01*
X92128311Y-57083701D01*
X92102941Y-57071958D01*
X90871182Y-56647231D01*
X89290034Y-56313587D01*
X87503103Y-56091396D01*
X85653994Y-56001027D01*
X84652966Y-56015269D01*
X82640196Y-56095098D01*
X82561803Y-55280951D01*
X82267755Y-54445975D01*
X81871401Y-54065799D01*
X81508428Y-53864966D01*
X81129424Y-53791947D01*
X80588910Y-53847918D01*
X79741410Y-54034053D01*
X79531760Y-54084697D01*
X78545729Y-54299498D01*
X77893651Y-54365482D01*
X77436409Y-54289549D01*
X77233927Y-54198675D01*
X76691251Y-53986495D01*
X75855966Y-53743618D01*
X75067000Y-53557433D01*
X74084821Y-53299969D01*
X73180220Y-52977365D01*
X72671921Y-52728704D01*
X72278208Y-52508194D01*
X71877028Y-52360838D01*
X71398545Y-52291678D01*
X70772924Y-52305752D01*
X69930331Y-52408101D01*
X68800928Y-52603765D01*
X67314882Y-52897783D01*
X65706863Y-53231372D01*
X64192112Y-53541487D01*
X62805191Y-53812176D01*
X61634957Y-54027141D01*
X60770266Y-54170084D01*
X60299975Y-54224706D01*
X60290686Y-54224823D01*
X59793654Y-54304885D01*
X59605882Y-54476470D01*
X59390255Y-54654288D01*
X58891078Y-54725490D01*
X58208052Y-54776364D01*
X57189201Y-54912903D01*
X55965297Y-55110976D01*
X54667109Y-55346457D01*
X53425407Y-55595216D01*
X52370961Y-55833125D01*
X51634541Y-56036056D01*
X51479250Y-56093044D01*
X50825925Y-56498080D01*
X50659572Y-56956903D01*
X50918809Y-57393711D01*
X50960283Y-57678087D01*
X50619948Y-57969512D01*
X50012606Y-58237367D01*
X49253060Y-58451037D01*
X48456113Y-58579904D01*
X47736569Y-58593350D01*
X47209231Y-58460760D01*
X47125816Y-58405268D01*
X46727938Y-57991903D01*
X46256685Y-57387136D01*
X46180480Y-57277941D01*
X45735760Y-56757711D01*
X45326783Y-56481942D01*
X45249526Y-56468627D01*
X44850504Y-56557198D01*
X44131320Y-56792026D01*
X43231111Y-57126786D01*
X43009922Y-57214312D01*
X41913455Y-57616204D01*
X40602641Y-58041097D01*
X39230630Y-58444886D01*
X37950570Y-58783471D01*
X36915610Y-59012746D01*
X36571568Y-59068388D01*
X35807249Y-59222018D01*
X34827110Y-59486130D01*
X33878890Y-59789122D01*
X33311457Y-60010626D01*
X32815735Y-60446991D01*
X32711765Y-60835951D01*
X32638213Y-61289914D01*
X32361597Y-61614479D01*
X31797972Y-61854041D01*
X30863395Y-62052994D01*
X30222822Y-62152267D01*
X29200847Y-62279704D01*
X28530608Y-62298714D01*
X28076628Y-62204145D01*
X27803642Y-62060238D01*
X27189010Y-61837953D01*
X26260327Y-61713589D01*
X25764758Y-61698039D01*
X24911559Y-61673867D01*
X24428778Y-61575862D01*
X24190069Y-61365793D01*
X24120772Y-61200578D01*
X23744772Y-60717278D01*
X23015631Y-60551215D01*
X21919992Y-60701019D01*
X21206073Y-60901679D01*
X17292614Y-61911573D01*
X14035294Y-62427767D01*
X13189416Y-62546572D01*
X11953552Y-62750791D01*
X10424980Y-63022809D01*
X8700979Y-63345009D01*
X6878829Y-63699776D01*
X5693137Y-63938421D01*
X3191041Y-64447705D01*
X1128892Y-64864119D01*
X-540899Y-65196523D01*
X-1865924Y-65453776D01*
X-2893773Y-65644739D01*
X-3672038Y-65778270D01*
X-4248309Y-65863230D01*
X-4670176Y-65908480D01*
X-4965371Y-65922684D01*
X-5637335Y-65812350D01*
X-6363585Y-65521076D01*
X-7005263Y-65130818D01*
X-7423511Y-64723530D01*
X-7500114Y-64426672D01*
X-7605674Y-64026333D01*
X-8047730Y-63435681D01*
X-8403279Y-63072555D01*
X-8987883Y-62484378D01*
X-9277599Y-62032744D01*
X-9354243Y-61528412D01*
X-9317047Y-60959006D01*
X-9054099Y-59960029D01*
X-8506171Y-58833158D01*
X-8087315Y-58209677D01*
X-7254592Y-58209677D01*
X-7210670Y-58548314D01*
X-6876941Y-58985289D01*
X-6402747Y-59384013D01*
X-5937432Y-59607899D01*
X-5730324Y-59603765D01*
X-5259109Y-59472004D01*
X-5118849Y-59456862D01*
X-4922022Y-59265704D01*
X-4917064Y-58835814D01*
X-5091330Y-58382576D01*
X-5189020Y-58261568D01*
X-5632576Y-58053004D01*
X-6274029Y-57970719D01*
X-6889035Y-58020350D01*
X-7253248Y-58207533D01*
X-7254592Y-58209677D01*
X-8087315Y-58209677D01*
X-7921950Y-57963526D01*
X-2623715Y-57963526D01*
X-2458387Y-58485107D01*
X-2141349Y-58841233D01*
X-1786789Y-58880176D01*
X-1549619Y-58594422D01*
X-1447061Y-58240808D01*
X-1508929Y-57626777D01*
X-1517360Y-57615072D01*
X34082734Y-57615072D01*
X34102855Y-57748485D01*
X34451004Y-57884303D01*
X35193771Y-57903190D01*
X36243553Y-57812749D01*
X37512752Y-57620583D01*
X38913765Y-57334296D01*
X38937255Y-57328881D01*
X40482181Y-56982186D01*
X42106466Y-56634648D01*
X43616438Y-56326852D01*
X44726961Y-56115675D01*
X45357850Y-55919889D01*
X45653800Y-55653152D01*
X45660784Y-55606526D01*
X45470706Y-55231919D01*
X44893612Y-55150571D01*
X44166667Y-55289703D01*
X43556052Y-55406540D01*
X42595906Y-55537564D01*
X41433660Y-55664290D01*
X40555882Y-55742383D01*
X39299998Y-55859347D01*
X38101830Y-55999606D01*
X37125627Y-56142519D01*
X36675177Y-56230033D01*
X35746313Y-56515410D01*
X34935217Y-56882343D01*
X34345990Y-57269381D01*
X34082734Y-57615072D01*
X-1517360Y-57615072D01*
X-1813751Y-57203606D01*
X-2249537Y-57117882D01*
X-2293697Y-57132620D01*
X-2585947Y-57453646D01*
X-2623715Y-57963526D01*
X-7921950Y-57963526D01*
X-7782109Y-57755367D01*
X-6990760Y-56903629D01*
X-6674425Y-56662354D01*
X-6036931Y-56383159D01*
X-5386676Y-56443673D01*
X-4601601Y-56867234D01*
X-4244142Y-57127007D01*
X-3676095Y-57507020D01*
X-3244893Y-57705436D01*
X-3185809Y-57713725D01*
X-2940506Y-57519431D01*
X-2936193Y-57036179D01*
X-3146871Y-56468978D01*
X-3249619Y-56185667D01*
X-3150597Y-55978237D01*
X-2774070Y-55810477D01*
X-2044302Y-55646179D01*
X-1079457Y-55480534D01*
X134387Y-55383438D01*
X1332433Y-55537990D01*
X1738059Y-55636098D01*
X2597773Y-55815009D01*
X3478607Y-55885747D01*
X4482603Y-55841197D01*
X5711800Y-55674246D01*
X7268239Y-55377780D01*
X8155498Y-55188698D01*
X9496614Y-54876163D01*
X10412829Y-54606439D01*
X10972068Y-54350467D01*
X11242257Y-54079190D01*
X11296078Y-53845160D01*
X11387499Y-53523820D01*
X11689948Y-53590178D01*
X12203220Y-54011850D01*
X12606123Y-54343997D01*
X12953327Y-54403595D01*
X13469312Y-54210281D01*
X13626511Y-54136360D01*
X14272277Y-53846543D01*
X14694616Y-53780406D01*
X15091633Y-53970570D01*
X15661436Y-54449656D01*
X15691967Y-54476470D01*
X16423453Y-55050537D01*
X16859041Y-55224180D01*
X17002764Y-54994575D01*
X16858657Y-54358895D01*
X16646731Y-53807689D01*
X16428738Y-53214630D01*
X16351132Y-52851349D01*
X16361957Y-52813860D01*
X16642039Y-52745005D01*
X17256598Y-52670219D01*
X17711675Y-52632084D01*
X18676610Y-52525440D01*
X18816557Y-52481286D01*
X57749892Y-52481286D01*
X57756390Y-52686401D01*
X57890165Y-52890882D01*
X58008166Y-53043114D01*
X58123009Y-53143548D01*
X58316660Y-53188809D01*
X58671085Y-53175521D01*
X59268248Y-53100306D01*
X60190115Y-52959789D01*
X61518650Y-52750593D01*
X61598039Y-52738142D01*
X63458850Y-52431720D01*
X65244361Y-52110355D01*
X66884781Y-51789025D01*
X68310323Y-51482709D01*
X69451199Y-51206384D01*
X70237619Y-50975029D01*
X70596741Y-50806788D01*
X70809769Y-50423804D01*
X70569890Y-50171993D01*
X69904592Y-50051136D01*
X68841364Y-50061014D01*
X67407694Y-50201407D01*
X65631069Y-50472096D01*
X63587983Y-50862693D01*
X61673683Y-51264649D01*
X60200332Y-51590792D01*
X59119604Y-51858325D01*
X58383173Y-52084450D01*
X57942711Y-52286370D01*
X57749892Y-52481286D01*
X18816557Y-52481286D01*
X19235639Y-52349063D01*
X19480078Y-52061743D01*
X19513725Y-51818804D01*
X19378698Y-51554165D01*
X18905526Y-51523495D01*
X18760535Y-51542253D01*
X18007344Y-51652798D01*
X18679421Y-50951300D01*
X19351498Y-50249803D01*
X19112756Y-48051012D01*
X22753941Y-48051012D01*
X22797311Y-48698926D01*
X22910132Y-49073620D01*
X22916993Y-49081045D01*
X23271054Y-49209426D01*
X23696634Y-49247059D01*
X24094301Y-49200523D01*
X24227749Y-48964838D01*
X24172080Y-48395887D01*
X24164552Y-48349151D01*
X23958944Y-47574920D01*
X23646770Y-46906606D01*
X23302429Y-46468199D01*
X23000316Y-46383684D01*
X22989060Y-46390094D01*
X22854963Y-46704382D01*
X22774874Y-47322093D01*
X22753941Y-48051012D01*
X19112756Y-48051012D01*
X18925284Y-46324411D01*
X18744303Y-44765101D01*
X18540129Y-43179862D01*
X18334202Y-41725115D01*
X18147963Y-40557285D01*
X18093756Y-40257705D01*
X17927493Y-39238994D01*
X17834538Y-38373706D01*
X17828242Y-37802550D01*
X17850524Y-37694010D01*
X18256151Y-37236628D01*
X18990052Y-36869532D01*
X19883408Y-36652279D01*
X20767403Y-36644428D01*
X20808128Y-36650569D01*
X21455908Y-36695284D01*
X21748061Y-36583788D01*
X21754902Y-36550001D01*
X21975232Y-36389657D01*
X22523166Y-36303014D01*
X22712385Y-36298039D01*
X23456739Y-36390007D01*
X24005150Y-36713565D01*
X24409382Y-37340193D01*
X24721198Y-38341372D01*
X24919536Y-39345871D01*
X25180939Y-40537436D01*
X25521780Y-41637305D01*
X25879425Y-42443362D01*
X26240344Y-43140324D01*
X26457664Y-43710849D01*
X26486274Y-43879829D01*
X26564430Y-44299963D01*
X26774033Y-45073479D01*
X27077792Y-46085176D01*
X27438415Y-47219853D01*
X27818607Y-48362309D01*
X28181077Y-49397343D01*
X28488532Y-50209754D01*
X28667119Y-50616666D01*
X29071729Y-51282892D01*
X29517722Y-51596366D01*
X30177210Y-51639875D01*
X30673241Y-51581629D01*
X31683757Y-51560698D01*
X32556719Y-51862773D01*
X32571236Y-51870552D01*
X32953189Y-52057933D01*
X33324709Y-52163890D01*
X33795695Y-52188850D01*
X34476049Y-52133239D01*
X35475669Y-51997481D01*
X36228387Y-51884711D01*
X37568521Y-51670523D01*
X39203143Y-51392539D01*
X40938362Y-51084574D01*
X42580288Y-50780446D01*
X42797059Y-50739067D01*
X44146545Y-50482821D01*
X45362490Y-50256548D01*
X46342174Y-50079019D01*
X46982878Y-49969006D01*
X47135397Y-49946252D01*
X47698327Y-49752512D01*
X47811746Y-49437271D01*
X47472704Y-49099540D01*
X47164650Y-48964123D01*
X46674303Y-48748522D01*
X46501247Y-48578797D01*
X46510530Y-48563325D01*
X46793215Y-48453384D01*
X47448960Y-48262156D01*
X48365723Y-48021121D01*
X48988627Y-47867098D01*
X50351639Y-47520041D01*
X51311161Y-47223863D01*
X51953698Y-46940291D01*
X52365756Y-46631050D01*
X52633839Y-46257865D01*
X52636388Y-46253116D01*
X52744851Y-45849758D01*
X52488439Y-45764549D01*
X51907391Y-45998502D01*
X51716284Y-46064131D01*
X51581070Y-45970209D01*
X51484747Y-45641321D01*
X51479290Y-45594451D01*
X56184026Y-45594451D01*
X56564964Y-46258084D01*
X56635721Y-46349751D01*
X56949552Y-46686857D01*
X57316426Y-46894116D01*
X57827824Y-46977497D01*
X58575226Y-46942971D01*
X59650112Y-46796510D01*
X60726470Y-46616755D01*
X62009772Y-46376956D01*
X63422773Y-46083326D01*
X64874370Y-45758195D01*
X66273458Y-45423894D01*
X67528936Y-45102756D01*
X68549698Y-44817110D01*
X69244641Y-44589288D01*
X69502534Y-44465577D01*
X69720420Y-44047751D01*
X69807068Y-43413026D01*
X69757243Y-42788016D01*
X69565709Y-42399330D01*
X69550509Y-42389033D01*
X69068967Y-42313068D01*
X68359452Y-42420218D01*
X67635813Y-42663737D01*
X67226284Y-42897125D01*
X66913977Y-43245596D01*
X67025756Y-43582760D01*
X67038640Y-43598535D01*
X67167216Y-43945468D01*
X66892111Y-44331916D01*
X66847107Y-44373388D01*
X66226270Y-44708631D01*
X65632583Y-44678760D01*
X65218084Y-44315192D01*
X65125482Y-44017647D01*
X64999969Y-43473813D01*
X64873492Y-43217813D01*
X64537012Y-43155703D01*
X63818591Y-43191435D01*
X62820639Y-43306876D01*
X61645562Y-43483891D01*
X60395767Y-43704347D01*
X59173662Y-43950108D01*
X58081656Y-44203040D01*
X57222154Y-44445009D01*
X56697565Y-44657880D01*
X56679902Y-44668741D01*
X56221488Y-45097034D01*
X56184026Y-45594451D01*
X51479290Y-45594451D01*
X51410314Y-45002053D01*
X51340769Y-43976990D01*
X51303900Y-43321541D01*
X51242612Y-42045398D01*
X51229363Y-41162360D01*
X51272940Y-40569044D01*
X51382131Y-40162064D01*
X51565724Y-39838037D01*
X51604561Y-39784313D01*
X52153775Y-39295817D01*
X52727572Y-39162276D01*
X53189694Y-39385939D01*
X53373498Y-39755110D01*
X53516901Y-40147851D01*
X53712783Y-40099985D01*
X53800490Y-40002737D01*
X54074813Y-39507001D01*
X54262664Y-38958754D01*
X54502589Y-38451007D01*
X54786371Y-38394205D01*
X55219485Y-38329472D01*
X55686479Y-37958765D01*
X56032424Y-37436974D01*
X56119608Y-37061309D01*
X56032254Y-36438596D01*
X55905395Y-36002975D01*
X55763294Y-35448137D01*
X55615488Y-34603844D01*
X55519500Y-33870098D01*
X55436242Y-33023461D01*
X55442864Y-32557607D01*
X55568258Y-32359030D01*
X55841318Y-32314223D01*
X55915665Y-32313725D01*
X56501816Y-32407785D01*
X57254846Y-32647649D01*
X58029475Y-32969843D01*
X58680422Y-33310893D01*
X59062404Y-33607325D01*
X59107843Y-33708404D01*
X59251022Y-34054920D01*
X59319510Y-34098366D01*
X59516351Y-34365160D01*
X59774342Y-34947141D01*
X59900151Y-35300747D01*
X60134897Y-35935703D01*
X60406193Y-36305624D01*
X60862863Y-36529741D01*
X61653730Y-36727288D01*
X61691105Y-36735587D01*
X62442058Y-36875819D01*
X63119958Y-36918443D01*
X63886743Y-36856390D01*
X64904355Y-36682589D01*
X65463624Y-36570868D01*
X66930198Y-36190033D01*
X68253523Y-35694295D01*
X69343228Y-35129562D01*
X69668863Y-34879582D01*
X72547469Y-34879582D01*
X72776372Y-35364249D01*
X72967026Y-35593627D01*
X73495018Y-35964242D01*
X74016915Y-36018460D01*
X74361945Y-35741519D01*
X74372867Y-35715163D01*
X74363370Y-35189146D01*
X73886818Y-34809827D01*
X73351837Y-34652034D01*
X72743206Y-34632595D01*
X72547469Y-34879582D01*
X69668863Y-34879582D01*
X70108944Y-34541745D01*
X70443232Y-34041118D01*
X70689875Y-33753318D01*
X71271776Y-33554439D01*
X72035266Y-33436820D01*
X72988823Y-33369498D01*
X73701378Y-33459240D01*
X74414906Y-33741550D01*
X74540228Y-33804358D01*
X75295005Y-34133426D01*
X75694966Y-34182308D01*
X75715712Y-33957770D01*
X75420009Y-33560350D01*
X75131530Y-33209386D01*
X75149379Y-33089401D01*
X75524914Y-33192470D01*
X76156825Y-33446659D01*
X76590620Y-33605809D01*
X77021490Y-33685830D01*
X77560760Y-33682683D01*
X78319756Y-33592330D01*
X79409803Y-33410733D01*
X79984785Y-33307787D01*
X82653505Y-32813311D01*
X84866009Y-32375718D01*
X86659858Y-31986853D01*
X88072612Y-31638563D01*
X89141829Y-31322694D01*
X89166281Y-31314541D01*
X90136536Y-31044563D01*
X91088240Y-30866646D01*
X91584150Y-30825731D01*
X92156572Y-30786981D01*
X92410199Y-30697429D01*
X92399941Y-30660072D01*
X92487014Y-30477287D01*
X93936032Y-30477287D01*
X94266787Y-30520400D01*
X94344118Y-30522042D01*
X94769399Y-30495125D01*
X94806842Y-30417171D01*
X94784641Y-30407247D01*
X94290291Y-30357985D01*
X94037582Y-30398020D01*
X93936032Y-30477287D01*
X92487014Y-30477287D01*
X92499157Y-30451797D01*
X92924782Y-30087232D01*
X93340781Y-29802698D01*
X94070626Y-29238370D01*
X94315314Y-28976992D01*
X97690636Y-28976992D01*
X98034966Y-29016289D01*
X98203921Y-29018697D01*
X98656967Y-28992735D01*
X98710360Y-28928095D01*
X98639706Y-28904815D01*
X98008135Y-28866087D01*
X97768137Y-28904815D01*
X97690636Y-28976992D01*
X94315314Y-28976992D01*
X94663155Y-28605425D01*
X94840348Y-28332909D01*
X95147033Y-27862947D01*
X95563870Y-27514142D01*
X96172751Y-27260082D01*
X97055569Y-27074355D01*
X98294214Y-26930552D01*
X99481593Y-26836058D01*
X101231214Y-26666710D01*
X102496234Y-26442801D01*
X103216887Y-26194861D01*
X103700048Y-26006116D01*
X104372662Y-25864781D01*
X105318911Y-25760527D01*
X106622978Y-25683026D01*
X107728921Y-25641243D01*
X109155197Y-25599552D01*
X110157592Y-25586144D01*
X110809782Y-25607287D01*
X111185438Y-25669247D01*
X111358234Y-25778292D01*
X111401842Y-25940690D01*
X111401961Y-25953703D01*
X111263491Y-26441867D01*
X110926304Y-27051697D01*
X110888175Y-27106428D01*
X110582349Y-27642054D01*
X110499701Y-28018773D01*
X110512919Y-28052119D01*
X110833768Y-28197933D01*
X111516182Y-28323620D01*
X112423826Y-28420862D01*
X113420364Y-28481338D01*
X114369462Y-28496727D01*
X115134785Y-28458709D01*
X115576046Y-28361120D01*
X116086219Y-28184089D01*
X116971153Y-27969612D01*
X118110989Y-27738501D01*
X119385868Y-27511568D01*
X120675931Y-27309625D01*
X121861317Y-27153484D01*
X122822169Y-27063956D01*
X123118866Y-27051419D01*
X124064766Y-27071086D01*
X124943645Y-27149653D01*
X125284804Y-27207949D01*
X125847092Y-27287819D01*
X126070181Y-27156574D01*
X126094118Y-26988067D01*
X126146463Y-26638120D01*
X126196721Y-26586274D01*
X126472579Y-26542723D01*
X127112375Y-26427208D01*
X127991090Y-26262441D01*
X128225907Y-26217658D01*
X129290772Y-26050917D01*
X130655867Y-25889726D01*
X132123631Y-25755371D01*
X133165950Y-25685402D01*
X134477475Y-25588745D01*
X135614647Y-25457021D01*
X136461758Y-25306018D01*
X136851849Y-25182449D01*
X137544733Y-24988412D01*
X138606485Y-24879781D01*
X139914938Y-24858734D01*
X141347926Y-24927447D01*
G37*
G36*
X57658783Y-71030860D02*
G01*
X57899080Y-71174750D01*
X58194601Y-71351062D01*
X58518319Y-71543710D01*
X58843208Y-71736607D01*
X59087594Y-71881353D01*
X59351384Y-72037685D01*
X59677164Y-72231238D01*
X60045016Y-72450150D01*
X60435024Y-72682558D01*
X60827268Y-72916600D01*
X61201831Y-73140415D01*
X61236090Y-73160905D01*
X61560671Y-73354593D01*
X61862788Y-73534003D01*
X62131685Y-73692814D01*
X62356604Y-73824705D01*
X62526787Y-73923357D01*
X62631477Y-73982448D01*
X62656485Y-73995453D01*
X62739907Y-74068283D01*
X62763910Y-74195297D01*
X62754176Y-74268505D01*
X62717677Y-74346938D01*
X62643468Y-74444872D01*
X62520605Y-74576585D01*
X62338143Y-74756352D01*
X62321406Y-74772502D01*
X62103841Y-74980253D01*
X61888534Y-75181248D01*
X61661561Y-75387958D01*
X61409001Y-75612852D01*
X61116933Y-75868401D01*
X60771435Y-76167075D01*
X60600261Y-76314201D01*
X60377417Y-76504876D01*
X60216654Y-76640376D01*
X60108024Y-76728217D01*
X60041583Y-76775916D01*
X60007385Y-76790989D01*
X59995483Y-76780954D01*
X59994737Y-76771831D01*
X60015208Y-76720735D01*
X60070423Y-76604167D01*
X60151085Y-76441378D01*
X60216183Y-76313218D01*
X60304629Y-76130162D01*
X60367457Y-75979183D01*
X60397266Y-75879482D01*
X60394546Y-75850504D01*
X60343424Y-75815871D01*
X60225202Y-75736688D01*
X60052315Y-75621252D01*
X59837192Y-75477861D01*
X59592266Y-75314813D01*
X59516616Y-75264490D01*
X58726945Y-74758361D01*
X57990284Y-74325489D01*
X57307359Y-73966155D01*
X56678897Y-73680637D01*
X56105626Y-73469215D01*
X55588273Y-73332168D01*
X55127565Y-73269775D01*
X54724231Y-73282316D01*
X54485160Y-73333168D01*
X54359793Y-73364505D01*
X54284917Y-73370681D01*
X54274659Y-73360704D01*
X54312958Y-73306338D01*
X54397027Y-73207053D01*
X54481408Y-73113909D01*
X54578574Y-73007640D01*
X54723388Y-72846980D01*
X54900384Y-72649194D01*
X55094093Y-72431546D01*
X55221445Y-72287824D01*
X55592471Y-71877931D01*
X55918725Y-71539173D01*
X56208951Y-71263599D01*
X56471892Y-71043259D01*
X56716292Y-70870203D01*
X56896827Y-70764446D01*
X57065499Y-70674568D01*
X57658783Y-71030860D01*
G37*
G36*
X59389804Y-77580151D02*
G01*
X59388528Y-77920525D01*
X59444142Y-78313846D01*
X59557632Y-78762748D01*
X59729979Y-79269869D01*
X59962168Y-79837842D01*
X60255181Y-80469304D01*
X60610002Y-81166890D01*
X60986326Y-81859399D01*
X61127970Y-82111269D01*
X61269709Y-82359688D01*
X61397673Y-82580585D01*
X61497994Y-82749889D01*
X61522719Y-82790414D01*
X61615962Y-82941983D01*
X61742875Y-83149049D01*
X61887496Y-83385533D01*
X62033863Y-83625358D01*
X62048769Y-83649812D01*
X62158793Y-83826057D01*
X62314654Y-84069623D01*
X62508588Y-84368805D01*
X62732832Y-84711897D01*
X62979623Y-85087195D01*
X63241198Y-85482993D01*
X63509795Y-85887585D01*
X63777651Y-86289266D01*
X64037002Y-86676330D01*
X64280086Y-87037073D01*
X64499140Y-87359788D01*
X64686400Y-87632770D01*
X64770829Y-87754322D01*
X64911683Y-87958460D01*
X65005939Y-88105999D01*
X65062910Y-88217751D01*
X65091910Y-88314525D01*
X65102254Y-88417132D01*
X65103384Y-88497364D01*
X65098448Y-88628712D01*
X65075588Y-88733967D01*
X65022726Y-88828429D01*
X64927782Y-88927394D01*
X64778678Y-89046159D01*
X64563335Y-89200023D01*
X64530451Y-89222979D01*
X64154824Y-89461863D01*
X63794979Y-89646213D01*
X63464498Y-89770255D01*
X63176961Y-89828216D01*
X63098120Y-89831864D01*
X62970091Y-89814320D01*
X62878666Y-89744622D01*
X62829688Y-89677212D01*
X62768317Y-89582437D01*
X62667614Y-89425824D01*
X62539565Y-89226057D01*
X62396158Y-89001823D01*
X62332219Y-88901692D01*
X62169005Y-88646319D01*
X61999641Y-88381923D01*
X61841869Y-88136163D01*
X61713428Y-87936697D01*
X61689115Y-87899060D01*
X61536388Y-87662310D01*
X61341508Y-87359373D01*
X61113651Y-87004583D01*
X60861995Y-86612272D01*
X60595719Y-86196773D01*
X60323999Y-85772419D01*
X60056013Y-85353540D01*
X59800938Y-84954472D01*
X59567952Y-84589544D01*
X59366233Y-84273091D01*
X59212777Y-84031767D01*
X59026305Y-83738263D01*
X58829998Y-83429758D01*
X58639798Y-83131273D01*
X58471646Y-82867828D01*
X58361027Y-82694925D01*
X57950800Y-82050954D01*
X57590504Y-81477257D01*
X57280779Y-80974925D01*
X57022265Y-80545048D01*
X56815603Y-80188713D01*
X56661434Y-79907012D01*
X56560396Y-79701033D01*
X56513130Y-79571866D01*
X56509399Y-79543772D01*
X56519140Y-79470768D01*
X56555744Y-79392861D01*
X56630280Y-79295765D01*
X56753818Y-79165200D01*
X56937427Y-78986882D01*
X56951034Y-78973936D01*
X57168263Y-78782908D01*
X57449388Y-78558969D01*
X57774994Y-78315864D01*
X58125664Y-78067341D01*
X58481982Y-77827144D01*
X58824530Y-77609022D01*
X59133893Y-77426720D01*
X59145827Y-77420076D01*
X59418910Y-77268458D01*
X59389804Y-77580151D01*
G37*
G36*
X53157074Y-71676649D02*
G01*
X53587232Y-72394972D01*
X53961961Y-73156840D01*
X54283016Y-73968441D01*
X54552155Y-74835968D01*
X54771130Y-75765608D01*
X54941700Y-76763553D01*
X55065618Y-77835992D01*
X55124242Y-78612782D01*
X55149671Y-79072107D01*
X55164376Y-79456266D01*
X55167768Y-79785045D01*
X55159259Y-80078227D01*
X55138260Y-80355597D01*
X55104185Y-80636939D01*
X55056445Y-80942037D01*
X55054712Y-80952256D01*
X54879914Y-81891470D01*
X54683341Y-82784110D01*
X54467285Y-83622953D01*
X54234037Y-84400774D01*
X53985891Y-85110349D01*
X53725138Y-85744454D01*
X53454071Y-86295865D01*
X53247585Y-86647367D01*
X53159075Y-86791353D01*
X53095930Y-86904808D01*
X53071805Y-86963194D01*
X53071805Y-86963221D01*
X53111332Y-87029143D01*
X53220617Y-87131418D01*
X53385710Y-87260449D01*
X53592662Y-87406637D01*
X53827525Y-87560384D01*
X54076351Y-87712092D01*
X54325191Y-87852164D01*
X54480263Y-87932387D01*
X54856187Y-88109455D01*
X55201312Y-88248562D01*
X55558729Y-88365543D01*
X55936466Y-88467489D01*
X56390038Y-88581181D01*
X56404948Y-88809889D01*
X56410268Y-88970084D01*
X56396151Y-89100418D01*
X56353283Y-89224718D01*
X56272353Y-89366809D01*
X56144048Y-89550519D01*
X56083181Y-89633167D01*
X55835600Y-89944328D01*
X55584800Y-90217818D01*
X55344721Y-90440070D01*
X55129302Y-90597516D01*
X55045740Y-90642852D01*
X54814214Y-90715187D01*
X54567195Y-90733353D01*
X54346283Y-90695109D01*
X54313158Y-90682342D01*
X54048812Y-90564563D01*
X53793284Y-90439469D01*
X53521540Y-90293920D01*
X53208543Y-90114774D01*
X53024060Y-90005701D01*
X52804721Y-89872564D01*
X52554528Y-89716698D01*
X52285562Y-89546054D01*
X52009904Y-89368581D01*
X51739634Y-89192231D01*
X51486835Y-89024954D01*
X51263587Y-88874699D01*
X51081972Y-88749419D01*
X50954070Y-88657063D01*
X50891963Y-88605582D01*
X50888148Y-88600076D01*
X50907872Y-88548866D01*
X50970068Y-88436735D01*
X51064100Y-88282119D01*
X51141101Y-88161654D01*
X51501207Y-87546987D01*
X51826401Y-86869489D01*
X52103696Y-86159268D01*
X52320105Y-85446432D01*
X52331309Y-85402495D01*
X52391319Y-85161368D01*
X52441998Y-84946361D01*
X52484220Y-84746641D01*
X52518858Y-84551377D01*
X52546787Y-84349737D01*
X52568881Y-84130890D01*
X52586015Y-83884003D01*
X52599062Y-83598244D01*
X52608897Y-83262783D01*
X52616394Y-82866788D01*
X52622428Y-82399425D01*
X52627872Y-81849865D01*
X52629115Y-81712614D01*
X52650366Y-79345716D01*
X52498878Y-78370509D01*
X52346507Y-77444142D01*
X52190304Y-76601431D01*
X52030746Y-75844344D01*
X51868312Y-75174847D01*
X51703479Y-74594907D01*
X51536726Y-74106492D01*
X51368528Y-73711569D01*
X51366394Y-73707181D01*
X51247552Y-73497356D01*
X51109875Y-73307151D01*
X50968986Y-73153929D01*
X50840508Y-73055051D01*
X50754057Y-73026692D01*
X50716866Y-73011496D01*
X50696586Y-72953905D01*
X50690321Y-72835912D01*
X50694514Y-72656673D01*
X50708459Y-72286654D01*
X51779610Y-71748266D01*
X52850760Y-71209878D01*
X53157074Y-71676649D01*
G37*
G36*
X24780151Y-71029654D02*
G01*
X25804213Y-71316159D01*
X26907532Y-71566093D01*
X28094211Y-71780346D01*
X28580892Y-71854483D01*
X28985928Y-71912821D01*
X29312974Y-71957356D01*
X29578569Y-71987800D01*
X29799248Y-72003870D01*
X29991551Y-72005278D01*
X30172013Y-71991740D01*
X30357172Y-71962970D01*
X30563566Y-71918682D01*
X30807732Y-71858592D01*
X30986639Y-71812941D01*
X31301243Y-71730793D01*
X31677638Y-71629836D01*
X32086013Y-71518227D01*
X32496559Y-71404124D01*
X32879464Y-71295685D01*
X32935838Y-71279502D01*
X33243244Y-71192498D01*
X33519539Y-71117035D01*
X33751748Y-71056433D01*
X33926896Y-71014013D01*
X34032007Y-70993094D01*
X34056720Y-70992685D01*
X34039464Y-71039738D01*
X33960968Y-71141614D01*
X33830596Y-71288849D01*
X33657713Y-71471977D01*
X33451683Y-71681531D01*
X33221869Y-71908046D01*
X32977635Y-72142055D01*
X32728346Y-72374094D01*
X32483366Y-72594695D01*
X32397600Y-72669864D01*
X32245012Y-72798928D01*
X32057220Y-72952297D01*
X31847215Y-73119979D01*
X31627984Y-73291983D01*
X31412518Y-73458318D01*
X31213805Y-73608993D01*
X31044833Y-73734017D01*
X30918593Y-73823399D01*
X30848073Y-73867148D01*
X30838095Y-73869424D01*
X30845558Y-73820189D01*
X30880551Y-73705832D01*
X30935727Y-73550122D01*
X30941672Y-73534254D01*
X31024653Y-73282489D01*
X31060002Y-73097135D01*
X31046646Y-72984745D01*
X31034365Y-72967573D01*
X30976854Y-72963813D01*
X30858264Y-72983350D01*
X30759835Y-73007263D01*
X30645766Y-73036571D01*
X30454416Y-73083923D01*
X30201463Y-73145520D01*
X29902581Y-73217561D01*
X29573446Y-73296247D01*
X29295113Y-73362321D01*
X28944070Y-73445623D01*
X28602402Y-73527141D01*
X28287735Y-73602636D01*
X28017693Y-73667869D01*
X27809899Y-73718604D01*
X27706366Y-73744372D01*
X27423695Y-73797920D01*
X27107091Y-73828934D01*
X26789303Y-73836447D01*
X26503079Y-73819489D01*
X26311090Y-73785648D01*
X26179113Y-73759470D01*
X25984292Y-73731271D01*
X25759057Y-73705466D01*
X25642669Y-73694628D01*
X25480127Y-73678068D01*
X25238178Y-73649721D01*
X24931912Y-73611532D01*
X24576419Y-73565447D01*
X24186788Y-73513412D01*
X23778108Y-73457373D01*
X23494173Y-73417569D01*
X23106404Y-73363241D01*
X22749421Y-73314271D01*
X22434025Y-73272059D01*
X22171015Y-73238006D01*
X21971190Y-73213514D01*
X21845351Y-73199984D01*
X21804277Y-73198340D01*
X21809439Y-73248772D01*
X21837993Y-73375406D01*
X21885708Y-73563036D01*
X21948351Y-73796459D01*
X22021692Y-74060468D01*
X22101500Y-74339861D01*
X22183543Y-74619431D01*
X22263592Y-74883975D01*
X22337413Y-75118286D01*
X22345374Y-75142796D01*
X22598596Y-75865133D01*
X22859791Y-76504255D01*
X23127793Y-77058286D01*
X23401438Y-77525346D01*
X23679563Y-77903559D01*
X23961002Y-78191047D01*
X24244591Y-78385932D01*
X24397256Y-78451680D01*
X24658237Y-78502825D01*
X24920852Y-78473492D01*
X25201332Y-78360994D01*
X25307360Y-78301092D01*
X25580226Y-78136781D01*
X25146220Y-78607504D01*
X24753677Y-79022835D01*
X24364983Y-79414291D01*
X23987116Y-79776019D01*
X23627053Y-80102163D01*
X23291772Y-80386870D01*
X22988252Y-80624286D01*
X22723468Y-80808556D01*
X22504400Y-80933827D01*
X22338025Y-80994243D01*
X22295814Y-80998952D01*
X22250568Y-80961556D01*
X22166917Y-80859116D01*
X22057048Y-80707574D01*
X21940690Y-80534493D01*
X21702513Y-80166394D01*
X21506183Y-79858330D01*
X21340130Y-79591187D01*
X21192778Y-79345854D01*
X21052556Y-79103217D01*
X20907889Y-78844164D01*
X20820402Y-78684399D01*
X20724143Y-78507751D01*
X20611312Y-78300779D01*
X20534109Y-78159211D01*
X20308654Y-77717952D01*
X20098789Y-77253474D01*
X19909814Y-76781557D01*
X19747030Y-76317978D01*
X19615735Y-75878516D01*
X19521231Y-75478948D01*
X19468816Y-75135052D01*
X19459775Y-74960874D01*
X19468938Y-74797146D01*
X19506982Y-74669369D01*
X19589737Y-74532956D01*
X19632422Y-74474616D01*
X19821933Y-74241243D01*
X20037119Y-74007521D01*
X20253627Y-73798114D01*
X20447102Y-73637684D01*
X20486278Y-73609970D01*
X20603118Y-73528262D01*
X20683438Y-73467428D01*
X20701128Y-73451251D01*
X20776736Y-73396910D01*
X20920906Y-73323754D01*
X21111232Y-73241995D01*
X21325307Y-73161848D01*
X21368242Y-73147166D01*
X21525029Y-73090222D01*
X21637013Y-73031651D01*
X21730700Y-72950154D01*
X21832597Y-72824434D01*
X21918609Y-72704925D01*
X22081365Y-72494674D01*
X22240771Y-72339494D01*
X22431274Y-72206765D01*
X22467669Y-72185004D01*
X22621914Y-72092866D01*
X22832918Y-71964835D01*
X23076500Y-71815679D01*
X23328476Y-71660167D01*
X23413379Y-71607465D01*
X23632904Y-71472099D01*
X23823891Y-71356464D01*
X23971726Y-71269241D01*
X24061794Y-71219110D01*
X24081800Y-71210451D01*
X24136964Y-71183718D01*
X24239872Y-71117982D01*
X24302708Y-71074264D01*
X24490566Y-70940033D01*
X24780151Y-71029654D01*
G37*
G36*
X91883994Y-70983565D02*
G01*
X91968020Y-71004268D01*
X92567154Y-71172410D01*
X93098988Y-71314128D01*
X93586355Y-71434536D01*
X94052086Y-71538744D01*
X94519012Y-71631865D01*
X95009966Y-71719011D01*
X95540414Y-71804161D01*
X95999066Y-71873723D01*
X96375254Y-71927850D01*
X96680575Y-71967539D01*
X96926630Y-71993785D01*
X97125017Y-72007584D01*
X97287337Y-72009931D01*
X97425187Y-72001824D01*
X97550167Y-71984257D01*
X97577786Y-71979086D01*
X97715187Y-71948975D01*
X97924920Y-71898918D01*
X98187175Y-71834028D01*
X98482142Y-71759416D01*
X98790010Y-71680193D01*
X99090968Y-71601471D01*
X99365207Y-71528361D01*
X99592917Y-71465974D01*
X99754286Y-71419422D01*
X99789662Y-71408387D01*
X99962466Y-71355011D01*
X100176866Y-71292428D01*
X100415264Y-71225338D01*
X100660065Y-71158441D01*
X100893669Y-71096439D01*
X101098481Y-71044032D01*
X101256904Y-71005921D01*
X101351340Y-70986806D01*
X101369850Y-70986267D01*
X101349913Y-71030376D01*
X101270107Y-71129025D01*
X101140694Y-71271947D01*
X100971936Y-71448874D01*
X100774093Y-71649540D01*
X100557427Y-71863677D01*
X100332199Y-72081017D01*
X100108669Y-72291293D01*
X99897100Y-72484238D01*
X99707751Y-72649585D01*
X99706310Y-72650806D01*
X99470240Y-72848106D01*
X99222967Y-73050221D01*
X98975758Y-73248427D01*
X98739882Y-73433998D01*
X98526607Y-73598211D01*
X98347200Y-73732342D01*
X98212930Y-73827666D01*
X98135064Y-73875459D01*
X98120554Y-73878576D01*
X98130123Y-73829919D01*
X98168961Y-73716076D01*
X98229173Y-73559825D01*
X98242058Y-73528008D01*
X98331850Y-73288051D01*
X98373481Y-73122212D01*
X98367641Y-73022566D01*
X98315023Y-72981185D01*
X98289948Y-72978948D01*
X98207861Y-72989518D01*
X98056238Y-73018139D01*
X97858293Y-73060170D01*
X97681207Y-73100564D01*
X97510156Y-73140823D01*
X97345020Y-73179848D01*
X97173083Y-73220686D01*
X96981629Y-73266381D01*
X96757942Y-73319981D01*
X96489307Y-73384530D01*
X96163007Y-73463075D01*
X95766327Y-73558661D01*
X95407584Y-73645149D01*
X94941290Y-73747882D01*
X94545752Y-73812256D01*
X94204751Y-73839326D01*
X93902070Y-73830151D01*
X93621491Y-73785788D01*
X93542852Y-73766730D01*
X93341184Y-73725492D01*
X93131214Y-73699606D01*
X93031890Y-73695113D01*
X92927151Y-73688546D01*
X92741368Y-73669932D01*
X92488002Y-73640904D01*
X92180513Y-73603093D01*
X91832362Y-73558131D01*
X91457009Y-73507650D01*
X91255742Y-73479789D01*
X90874068Y-73426450D01*
X90514948Y-73376306D01*
X90191381Y-73331169D01*
X89916369Y-73292851D01*
X89702913Y-73263163D01*
X89564013Y-73243918D01*
X89524624Y-73238511D01*
X89364224Y-73214905D01*
X89220935Y-73190999D01*
X89204963Y-73188022D01*
X89076279Y-73163486D01*
X89242646Y-73799318D01*
X89453359Y-74551438D01*
X89678841Y-75256847D01*
X89915907Y-75908220D01*
X90161374Y-76498233D01*
X90412057Y-77019562D01*
X90664771Y-77464883D01*
X90916332Y-77826872D01*
X91073014Y-78009076D01*
X91346423Y-78259985D01*
X91607924Y-78421019D01*
X91866678Y-78495441D01*
X92131843Y-78486513D01*
X92293797Y-78443882D01*
X92459749Y-78378365D01*
X92608075Y-78304830D01*
X92659250Y-78272923D01*
X92757457Y-78207282D01*
X92797487Y-78192632D01*
X92777163Y-78233205D01*
X92694306Y-78333237D01*
X92546737Y-78496959D01*
X92540449Y-78503813D01*
X92198336Y-78867779D01*
X91845066Y-79227601D01*
X91490516Y-79574323D01*
X91144561Y-79898988D01*
X90817075Y-80192640D01*
X90517934Y-80446324D01*
X90257013Y-80651083D01*
X90044188Y-80797961D01*
X89954323Y-80849248D01*
X89831387Y-80912852D01*
X89733629Y-80957174D01*
X89651633Y-80974806D01*
X89575980Y-80958339D01*
X89497255Y-80900365D01*
X89406040Y-80793476D01*
X89292919Y-80630264D01*
X89148474Y-80403322D01*
X88963288Y-80105240D01*
X88920002Y-80035582D01*
X88433192Y-79230962D01*
X88012578Y-78488049D01*
X87655919Y-77801955D01*
X87360976Y-77167793D01*
X87125509Y-76580677D01*
X86947279Y-76035718D01*
X86824045Y-75528030D01*
X86803512Y-75417546D01*
X86760433Y-75156367D01*
X86739525Y-74966071D01*
X86743650Y-74824026D01*
X86775676Y-74707598D01*
X86838467Y-74594153D01*
X86922532Y-74477378D01*
X87120407Y-74237275D01*
X87351947Y-73990648D01*
X87590514Y-73763933D01*
X87809470Y-73583568D01*
X87858426Y-73548540D01*
X88054471Y-73426998D01*
X88282276Y-73305990D01*
X88511884Y-73199680D01*
X88713338Y-73122231D01*
X88822834Y-73092535D01*
X88912618Y-73062974D01*
X88997209Y-72999980D01*
X89094203Y-72886654D01*
X89213855Y-72716992D01*
X89365760Y-72513997D01*
X89516000Y-72352093D01*
X89629179Y-72262703D01*
X89781850Y-72172239D01*
X89928573Y-72086056D01*
X89954323Y-72071052D01*
X90041697Y-72018822D01*
X90193644Y-71926509D01*
X90393539Y-71804274D01*
X90624755Y-71662278D01*
X90813722Y-71545838D01*
X91056309Y-71396302D01*
X91278979Y-71259349D01*
X91465519Y-71144929D01*
X91599715Y-71062989D01*
X91657682Y-71027988D01*
X91767320Y-70981009D01*
X91883994Y-70983565D01*
G37*
G36*
X97105411Y-74781037D02*
G01*
X97205851Y-74880968D01*
X97349018Y-75035210D01*
X97526378Y-75233691D01*
X97729400Y-75466341D01*
X97949552Y-75723087D01*
X98178304Y-75993859D01*
X98407122Y-76268585D01*
X98627475Y-76537194D01*
X98830832Y-76789613D01*
X99008661Y-77015773D01*
X99152430Y-77205601D01*
X99220589Y-77300444D01*
X99489687Y-77691809D01*
X99714847Y-78032163D01*
X99910996Y-78345682D01*
X100093060Y-78656539D01*
X100275968Y-78988912D01*
X100355172Y-79137970D01*
X100471519Y-79374085D01*
X100578286Y-79618116D01*
X100661636Y-79836954D01*
X100700132Y-79963323D01*
X100753828Y-80150803D01*
X100816123Y-80282011D01*
X100909608Y-80395132D01*
X101010847Y-80488511D01*
X101148861Y-80622619D01*
X101252843Y-80762252D01*
X101332688Y-80928910D01*
X101398292Y-81144095D01*
X101459552Y-81429307D01*
X101470335Y-81486782D01*
X101493325Y-81626840D01*
X101511822Y-81780174D01*
X101526287Y-81958569D01*
X101537184Y-82173812D01*
X101544976Y-82437687D01*
X101550125Y-82761979D01*
X101553094Y-83158473D01*
X101554332Y-83625940D01*
X101554594Y-84075772D01*
X101553878Y-84441867D01*
X101551570Y-84735974D01*
X101547057Y-84969845D01*
X101539724Y-85155229D01*
X101528958Y-85303878D01*
X101514146Y-85427541D01*
X101494673Y-85537969D01*
X101469927Y-85646913D01*
X101443386Y-85750564D01*
X101236623Y-86382606D01*
X100964543Y-86946285D01*
X100623566Y-87445966D01*
X100210110Y-87886012D01*
X99720595Y-88270790D01*
X99151440Y-88604663D01*
X99067565Y-88646436D01*
X98843954Y-88764354D01*
X98631287Y-88891721D01*
X98458210Y-89010647D01*
X98378576Y-89076777D01*
X98232669Y-89202000D01*
X98045164Y-89344786D01*
X97857070Y-89473948D01*
X97651462Y-89601702D01*
X97418812Y-89739709D01*
X97174723Y-89879464D01*
X96934797Y-90012462D01*
X96714636Y-90130198D01*
X96529841Y-90224165D01*
X96396016Y-90285858D01*
X96329312Y-90306807D01*
X96270537Y-90280045D01*
X96145046Y-90206767D01*
X95964828Y-90094528D01*
X95741873Y-89950884D01*
X95488167Y-89783392D01*
X95325564Y-89674182D01*
X94717308Y-89265425D01*
X94161784Y-88897472D01*
X93634772Y-88554585D01*
X93112051Y-88221030D01*
X92569402Y-87881070D01*
X92484775Y-87828543D01*
X92226694Y-87668494D01*
X91973597Y-87511468D01*
X91746303Y-87370389D01*
X91565632Y-87258176D01*
X91482143Y-87206268D01*
X91133551Y-86992476D01*
X90728382Y-86749116D01*
X90289430Y-86489488D01*
X89839485Y-86226891D01*
X89401341Y-85974623D01*
X88997790Y-85745984D01*
X88651623Y-85554273D01*
X88641353Y-85548682D01*
X88014383Y-85210341D01*
X87431036Y-84901100D01*
X86910161Y-84630949D01*
X86898684Y-84625080D01*
X86643060Y-84488341D01*
X86471673Y-84382009D01*
X86379454Y-84302693D01*
X86359635Y-84264516D01*
X86359860Y-84236734D01*
X86372849Y-84202139D01*
X86405071Y-84154107D01*
X86462996Y-84086016D01*
X86553093Y-83991245D01*
X86681832Y-83863171D01*
X86855680Y-83695172D01*
X87081109Y-83480626D01*
X87364586Y-83212911D01*
X87642590Y-82951227D01*
X87772643Y-82830075D01*
X87953879Y-82662790D01*
X88166686Y-82467316D01*
X88391454Y-82261599D01*
X88608569Y-82063582D01*
X88798420Y-81891212D01*
X88941394Y-81762432D01*
X88959173Y-81746570D01*
X89157631Y-81569871D01*
X89189947Y-81761149D01*
X89274079Y-82011762D01*
X89447443Y-82296087D01*
X89709962Y-82614049D01*
X90061557Y-82965571D01*
X90502150Y-83350580D01*
X91031662Y-83768999D01*
X91650015Y-84220752D01*
X92009250Y-84470600D01*
X92305580Y-84670465D01*
X92647545Y-84895935D01*
X93018446Y-85136439D01*
X93401585Y-85381406D01*
X93780264Y-85620266D01*
X94137783Y-85842446D01*
X94457444Y-86037376D01*
X94722548Y-86194484D01*
X94824248Y-86252646D01*
X94969042Y-86337714D01*
X95170298Y-86460906D01*
X95404776Y-86607763D01*
X95649233Y-86763826D01*
X95731391Y-86817000D01*
X95977283Y-86976775D01*
X96223831Y-87136996D01*
X96446669Y-87281827D01*
X96621430Y-87395430D01*
X96662406Y-87422073D01*
X97007820Y-87641754D01*
X97348326Y-87849190D01*
X97672602Y-88038214D01*
X97969328Y-88202661D01*
X98227184Y-88336363D01*
X98434850Y-88433156D01*
X98581004Y-88486873D01*
X98633797Y-88495865D01*
X98687175Y-88450173D01*
X98743355Y-88321051D01*
X98800222Y-88120433D01*
X98855659Y-87860252D01*
X98907552Y-87552439D01*
X98953785Y-87208928D01*
X98992243Y-86841652D01*
X99020811Y-86462544D01*
X99031601Y-86251880D01*
X99040902Y-86002789D01*
X99043014Y-85807202D01*
X99035151Y-85638737D01*
X99014530Y-85471016D01*
X98978366Y-85277658D01*
X98923877Y-85032282D01*
X98885485Y-84867293D01*
X98641020Y-83871825D01*
X98394232Y-82966563D01*
X98143107Y-82146223D01*
X97885627Y-81405525D01*
X97619777Y-80739186D01*
X97343541Y-80141923D01*
X97054902Y-79608453D01*
X96751846Y-79133495D01*
X96635162Y-78970865D01*
X96317703Y-78576231D01*
X96003788Y-78259599D01*
X95675927Y-78005827D01*
X95316632Y-77799774D01*
X95240501Y-77763439D01*
X95101402Y-77704330D01*
X94973273Y-77666775D01*
X94827045Y-77645969D01*
X94633651Y-77637110D01*
X94466166Y-77635475D01*
X94240589Y-77638333D01*
X94036515Y-77647202D01*
X93881921Y-77660548D01*
X93821617Y-77670796D01*
X93775537Y-77675716D01*
X93770660Y-77651994D01*
X93813305Y-77591640D01*
X93909793Y-77486662D01*
X94066444Y-77329069D01*
X94180380Y-77217224D01*
X94367083Y-77039036D01*
X94593575Y-76829621D01*
X94850578Y-76596951D01*
X95128814Y-76349002D01*
X95419006Y-76093747D01*
X95711874Y-75839162D01*
X95998141Y-75593219D01*
X96268530Y-75363895D01*
X96513761Y-75159161D01*
X96724558Y-74986994D01*
X96891642Y-74855367D01*
X97005735Y-74772255D01*
X97056227Y-74745489D01*
X97105411Y-74781037D01*
G37*
G36*
X74700000Y-71782230D02*
G01*
X74702084Y-72096219D01*
X74707914Y-72384072D01*
X74716856Y-72629922D01*
X74728274Y-72817901D01*
X74741535Y-72932140D01*
X74746786Y-72952554D01*
X74823907Y-73065702D01*
X74908193Y-73127835D01*
X74942440Y-73143407D01*
X74974942Y-73151564D01*
X75014966Y-73146694D01*
X75071780Y-73123186D01*
X75154652Y-73075427D01*
X75272847Y-72997808D01*
X75435635Y-72884715D01*
X75652282Y-72730537D01*
X75932056Y-72529663D01*
X76123923Y-72391691D01*
X76618318Y-72043643D01*
X77042876Y-71760640D01*
X77397642Y-71542657D01*
X77682662Y-71389668D01*
X77897982Y-71301645D01*
X78043646Y-71278563D01*
X78060389Y-71280875D01*
X78160904Y-71314475D01*
X78330477Y-71386278D01*
X78554239Y-71488934D01*
X78817326Y-71615093D01*
X79104872Y-71757405D01*
X79402009Y-71908521D01*
X79693873Y-72061089D01*
X79965596Y-72207761D01*
X80186863Y-72332239D01*
X80413702Y-72465474D01*
X80637229Y-72601948D01*
X80874582Y-72752689D01*
X81142902Y-72928724D01*
X81459327Y-73141078D01*
X81730889Y-73325604D01*
X82104793Y-73601057D01*
X82512993Y-73938345D01*
X82935942Y-74320438D01*
X83354099Y-74730307D01*
X83415300Y-74793233D01*
X83981046Y-75438961D01*
X84464843Y-76118347D01*
X84864572Y-76826140D01*
X85178118Y-77557089D01*
X85403362Y-78305941D01*
X85538187Y-79067445D01*
X85580477Y-79836350D01*
X85571240Y-80140602D01*
X85488678Y-80847182D01*
X85317203Y-81569304D01*
X85056412Y-82307561D01*
X84705903Y-83062540D01*
X84265273Y-83834834D01*
X83734118Y-84625031D01*
X83112037Y-85433723D01*
X82398627Y-86261500D01*
X81593485Y-87108951D01*
X80696208Y-87976667D01*
X79706394Y-88865239D01*
X79494284Y-89048084D01*
X79354613Y-89165321D01*
X79161701Y-89323996D01*
X78937271Y-89506397D01*
X78703046Y-89694812D01*
X78610492Y-89768681D01*
X78009141Y-90247398D01*
X77416883Y-90326641D01*
X77000395Y-90374536D01*
X76644615Y-90396002D01*
X76318541Y-90391222D01*
X75991175Y-90360378D01*
X75821993Y-90335976D01*
X75077479Y-90174281D01*
X74314917Y-89921855D01*
X73539348Y-89580622D01*
X72814098Y-89187206D01*
X72251572Y-88833462D01*
X71651594Y-88417529D01*
X71033497Y-87953986D01*
X70416615Y-87457410D01*
X69820284Y-86942381D01*
X69734587Y-86865147D01*
X69572818Y-86715237D01*
X69371489Y-86523538D01*
X69140574Y-86300030D01*
X68890049Y-86054695D01*
X68629887Y-85797513D01*
X68370063Y-85538464D01*
X68120554Y-85287531D01*
X67891334Y-85054694D01*
X67692377Y-84849934D01*
X67533660Y-84683231D01*
X67425156Y-84564567D01*
X67380046Y-84509211D01*
X67334249Y-84424628D01*
X67263835Y-84276716D01*
X67180480Y-84090470D01*
X67134734Y-83984023D01*
X67060051Y-83815572D01*
X66951151Y-83580620D01*
X66816945Y-83297857D01*
X66666346Y-82985974D01*
X66508267Y-82663664D01*
X66429605Y-82505238D01*
X65906402Y-81456152D01*
X65722624Y-80280631D01*
X65664940Y-79907079D01*
X65621783Y-79613063D01*
X65591857Y-79383951D01*
X65573866Y-79205110D01*
X65566511Y-79061908D01*
X65568497Y-78939713D01*
X65578528Y-78823892D01*
X65587399Y-78754744D01*
X65688087Y-78307024D01*
X65868536Y-77824011D01*
X66123883Y-77314644D01*
X66449264Y-76787863D01*
X66839816Y-76252608D01*
X67158214Y-75867481D01*
X67305236Y-75705743D01*
X67505175Y-75496336D01*
X67740774Y-75256353D01*
X67994779Y-75002885D01*
X68249932Y-74753024D01*
X68488979Y-74523862D01*
X68694662Y-74332492D01*
X68822380Y-74219129D01*
X68981178Y-74082528D01*
X69126669Y-73956309D01*
X69232085Y-73863718D01*
X69247115Y-73850282D01*
X69365441Y-73760064D01*
X69433474Y-73740533D01*
X69451288Y-73781249D01*
X69418961Y-73871777D01*
X69336565Y-74001676D01*
X69245207Y-74114954D01*
X68886814Y-74553892D01*
X68583897Y-74985151D01*
X68344497Y-75395933D01*
X68176655Y-75773440D01*
X68145522Y-75865221D01*
X68117095Y-75959727D01*
X68094261Y-76051092D01*
X68076410Y-76150758D01*
X68062932Y-76270170D01*
X68053215Y-76420769D01*
X68046649Y-76613999D01*
X68042623Y-76861302D01*
X68040527Y-77174121D01*
X68039749Y-77563899D01*
X68039662Y-77848872D01*
X68039931Y-78292534D01*
X68041170Y-78652730D01*
X68044028Y-78941484D01*
X68049150Y-79170820D01*
X68057186Y-79352760D01*
X68068783Y-79499329D01*
X68084589Y-79622548D01*
X68105251Y-79734441D01*
X68131417Y-79847032D01*
X68151545Y-79925752D01*
X68347359Y-80512468D01*
X68633162Y-81113289D01*
X69009431Y-81728778D01*
X69476647Y-82359501D01*
X70035286Y-83006020D01*
X70685827Y-83668901D01*
X71428749Y-84348707D01*
X72264529Y-85046003D01*
X72933459Y-85566320D01*
X73141004Y-85720460D01*
X73403216Y-85910737D01*
X73695718Y-86119712D01*
X73994134Y-86329945D01*
X74222556Y-86488568D01*
X74480277Y-86663268D01*
X74712878Y-86812792D01*
X74934712Y-86943839D01*
X75160133Y-87063110D01*
X75403494Y-87177305D01*
X75679148Y-87293125D01*
X76001449Y-87417270D01*
X76384750Y-87556439D01*
X76843405Y-87717334D01*
X76887970Y-87732797D01*
X77212410Y-87844075D01*
X77476911Y-87929477D01*
X77702804Y-87992422D01*
X77911418Y-88036331D01*
X78124083Y-88064622D01*
X78362128Y-88080715D01*
X78646884Y-88088030D01*
X78999680Y-88089985D01*
X79116353Y-88090038D01*
X79472174Y-88089053D01*
X79745974Y-88085502D01*
X79951207Y-88078488D01*
X80101326Y-88067118D01*
X80209783Y-88050495D01*
X80290033Y-88027724D01*
X80333835Y-88009012D01*
X80595065Y-87836162D01*
X80861297Y-87569066D01*
X81131995Y-87208803D01*
X81406622Y-86756455D01*
X81684642Y-86213103D01*
X81965518Y-85579829D01*
X82248714Y-84857712D01*
X82533693Y-84047833D01*
X82819920Y-83151275D01*
X82935253Y-82766542D01*
X83111078Y-82169737D01*
X83093360Y-81023872D01*
X83075641Y-79878008D01*
X82919578Y-79424436D01*
X82683146Y-78844650D01*
X82370124Y-78259912D01*
X81977754Y-77666595D01*
X81503276Y-77061071D01*
X80943932Y-76439711D01*
X80296964Y-75798887D01*
X79856391Y-75395346D01*
X79549611Y-75122494D01*
X79302811Y-74905730D01*
X79105097Y-74737153D01*
X78945575Y-74608858D01*
X78813351Y-74512943D01*
X78697530Y-74441506D01*
X78587219Y-74386643D01*
X78471523Y-74340452D01*
X78339637Y-74295059D01*
X78163510Y-74233187D01*
X78025780Y-74171933D01*
X77902364Y-74095506D01*
X77769177Y-73988119D01*
X77602138Y-73833982D01*
X77527983Y-73762954D01*
X77111090Y-73361773D01*
X76219547Y-73361338D01*
X75328003Y-73360903D01*
X75179392Y-73485951D01*
X75098258Y-73555920D01*
X75033115Y-73622156D01*
X74982449Y-73695420D01*
X74944743Y-73786475D01*
X74918483Y-73906083D01*
X74902152Y-74065005D01*
X74894236Y-74274003D01*
X74893218Y-74543840D01*
X74897583Y-74885276D01*
X74905816Y-75309075D01*
X74907973Y-75413323D01*
X74917268Y-75804128D01*
X74928491Y-76182562D01*
X74941014Y-76533049D01*
X74954209Y-76840015D01*
X74967447Y-77087886D01*
X74980099Y-77261088D01*
X74984110Y-77299812D01*
X74994563Y-77436297D01*
X75004298Y-77654589D01*
X75013014Y-77941011D01*
X75020411Y-78281882D01*
X75026187Y-78663522D01*
X75030042Y-79072252D01*
X75031636Y-79462147D01*
X75032047Y-79924029D01*
X75031504Y-80300406D01*
X75029551Y-80601259D01*
X75025731Y-80836569D01*
X75019588Y-81016318D01*
X75010663Y-81150488D01*
X74998502Y-81249060D01*
X74982645Y-81322016D01*
X74962638Y-81379337D01*
X74941855Y-81423558D01*
X74841183Y-81571062D01*
X74678950Y-81752175D01*
X74473961Y-81948939D01*
X74245021Y-82143395D01*
X74010935Y-82317583D01*
X73992769Y-82329955D01*
X73850315Y-82424255D01*
X73674931Y-82537409D01*
X73484254Y-82658417D01*
X73295920Y-82776272D01*
X73127567Y-82879973D01*
X72996830Y-82958515D01*
X72921347Y-83000894D01*
X72910392Y-83005263D01*
X72864363Y-83026974D01*
X72757697Y-83084138D01*
X72612645Y-83164805D01*
X72599248Y-83172369D01*
X72446253Y-83255188D01*
X72323477Y-83314965D01*
X72256284Y-83339400D01*
X72254693Y-83339474D01*
X72237080Y-83293486D01*
X72229028Y-83161508D01*
X72230163Y-82952521D01*
X72240111Y-82675507D01*
X72258498Y-82339447D01*
X72284951Y-81953321D01*
X72319095Y-81526110D01*
X72340149Y-81286466D01*
X72368147Y-80897560D01*
X72388657Y-80445834D01*
X72401730Y-79951262D01*
X72407417Y-79433819D01*
X72405769Y-78913480D01*
X72396837Y-78410219D01*
X72380672Y-77944012D01*
X72357324Y-77534832D01*
X72329802Y-77228196D01*
X72297394Y-76869050D01*
X72272137Y-76426583D01*
X72253890Y-75897277D01*
X72242511Y-75277616D01*
X72239883Y-75008083D01*
X72235010Y-74520101D01*
X72227387Y-74115255D01*
X72215310Y-73781198D01*
X72197078Y-73505585D01*
X72170988Y-73276067D01*
X72135336Y-73080299D01*
X72088421Y-72905934D01*
X72028539Y-72740625D01*
X71953988Y-72572026D01*
X71884319Y-72429813D01*
X71798494Y-72253439D01*
X71732429Y-72106645D01*
X71696100Y-72012098D01*
X71692105Y-71993069D01*
X71733954Y-71950730D01*
X71850769Y-71877647D01*
X72029449Y-71779989D01*
X72256896Y-71663929D01*
X72520011Y-71535636D01*
X72805695Y-71401281D01*
X73100847Y-71267035D01*
X73392369Y-71139069D01*
X73667163Y-71023553D01*
X73912127Y-70926658D01*
X74096691Y-70860332D01*
X74286620Y-70801405D01*
X74454242Y-70757352D01*
X74569418Y-70735893D01*
X74586071Y-70734963D01*
X74700000Y-70734963D01*
X74700000Y-71782230D01*
G37*
G36*
X34609518Y-70990351D02*
G01*
X34633140Y-70994975D01*
X34708136Y-71016948D01*
X34861390Y-71065274D01*
X35082280Y-71136426D01*
X35360185Y-71226879D01*
X35684483Y-71333104D01*
X36044552Y-71451574D01*
X36429770Y-71578764D01*
X36829517Y-71711147D01*
X37233170Y-71845194D01*
X37630108Y-71977380D01*
X38009709Y-72104178D01*
X38361352Y-72222060D01*
X38674415Y-72327500D01*
X38938276Y-72416972D01*
X39142313Y-72486947D01*
X39275906Y-72533900D01*
X39327303Y-72553647D01*
X39398017Y-72638518D01*
X39454388Y-72803700D01*
X39493252Y-73034675D01*
X39511447Y-73316922D01*
X39512406Y-73403259D01*
X39512406Y-73785286D01*
X39977914Y-73507534D01*
X40163676Y-73398425D01*
X40316861Y-73311719D01*
X40420612Y-73256739D01*
X40457854Y-73242137D01*
X40438921Y-73284304D01*
X40376728Y-73390116D01*
X40280931Y-73543731D01*
X40161183Y-73729308D01*
X40157832Y-73734424D01*
X40002498Y-73983883D01*
X39839888Y-74265381D01*
X39693871Y-74536737D01*
X39623178Y-74679199D01*
X39478290Y-75026781D01*
X39396257Y-75341252D01*
X39372298Y-75656904D01*
X39401633Y-76008030D01*
X39420908Y-76130075D01*
X39432540Y-76224411D01*
X39443180Y-76368701D01*
X39452911Y-76567396D01*
X39461817Y-76824944D01*
X39469981Y-77145792D01*
X39477487Y-77534389D01*
X39484417Y-77995184D01*
X39490856Y-78532626D01*
X39496886Y-79151161D01*
X39502590Y-79855240D01*
X39508053Y-80649309D01*
X39509315Y-80850159D01*
X39536278Y-85212161D01*
X39703384Y-85275360D01*
X39821168Y-85319440D01*
X39999255Y-85385539D01*
X40208300Y-85462781D01*
X40324060Y-85505419D01*
X40779106Y-85685203D01*
X41294234Y-85910029D01*
X41851130Y-86170424D01*
X42431479Y-86456915D01*
X43016966Y-86760026D01*
X43589277Y-87070286D01*
X44130098Y-87378218D01*
X44621113Y-87674351D01*
X45030377Y-87939929D01*
X45163116Y-88016436D01*
X45279881Y-88061278D01*
X45313988Y-88066166D01*
X45403357Y-88027667D01*
X45545831Y-87913653D01*
X45739062Y-87726344D01*
X45980701Y-87467962D01*
X46160755Y-87265082D01*
X46523082Y-86793694D01*
X46854951Y-86251409D01*
X47145729Y-85660740D01*
X47384785Y-85044200D01*
X47561486Y-84424299D01*
X47608879Y-84198872D01*
X47637035Y-84001309D01*
X47661471Y-83736045D01*
X47681960Y-83418363D01*
X47698274Y-83063543D01*
X47710186Y-82686866D01*
X47717467Y-82303614D01*
X47719891Y-81929067D01*
X47717231Y-81578506D01*
X47709257Y-81267213D01*
X47695744Y-81010468D01*
X47676462Y-80823553D01*
X47660304Y-80745324D01*
X47449787Y-80054144D01*
X47262034Y-79447618D01*
X47094262Y-78918393D01*
X46943689Y-78459116D01*
X46807531Y-78062433D01*
X46683003Y-77720990D01*
X46567324Y-77427435D01*
X46457709Y-77174415D01*
X46351375Y-76954574D01*
X46245539Y-76760561D01*
X46137418Y-76585023D01*
X46024227Y-76420604D01*
X46022322Y-76417971D01*
X45594015Y-75841718D01*
X45198250Y-75343102D01*
X44826271Y-74913665D01*
X44469321Y-74544950D01*
X44118642Y-74228497D01*
X43765478Y-73955850D01*
X43401072Y-73718549D01*
X43016667Y-73508137D01*
X43002151Y-73500860D01*
X42448898Y-73272724D01*
X41876094Y-73134325D01*
X41457989Y-73088564D01*
X41260366Y-73072289D01*
X41104396Y-73051105D01*
X41010528Y-73028264D01*
X40992481Y-73014503D01*
X41028589Y-72948091D01*
X41129626Y-72832938D01*
X41284668Y-72678303D01*
X41482786Y-72493442D01*
X41713056Y-72287614D01*
X41964550Y-72070076D01*
X42226342Y-71850086D01*
X42487505Y-71636903D01*
X42737113Y-71439784D01*
X42964240Y-71267986D01*
X43157958Y-71130768D01*
X43307343Y-71037388D01*
X43354131Y-71013514D01*
X43417993Y-70998838D01*
X43503223Y-71009497D01*
X43619981Y-71050210D01*
X43778428Y-71125693D01*
X43988725Y-71240663D01*
X44261031Y-71399836D01*
X44512026Y-71551036D01*
X45435864Y-72150002D01*
X46290698Y-72781881D01*
X47070017Y-73441177D01*
X47767307Y-74122392D01*
X48357739Y-74797165D01*
X48912660Y-75561644D01*
X49383411Y-76367599D01*
X49767918Y-77210231D01*
X50064108Y-78084742D01*
X50269910Y-78986335D01*
X50326542Y-79354117D01*
X50374915Y-79779015D01*
X50395929Y-80149441D01*
X50388128Y-80496963D01*
X50350053Y-80853150D01*
X50280246Y-81249570D01*
X50227571Y-81497208D01*
X50048537Y-82258943D01*
X49865792Y-82942845D01*
X49673575Y-83566546D01*
X49466121Y-84147680D01*
X49237667Y-84703880D01*
X49036298Y-85141932D01*
X48891070Y-85436605D01*
X48749633Y-85704241D01*
X48605150Y-85952706D01*
X48450786Y-86189866D01*
X48279707Y-86423588D01*
X48085078Y-86661737D01*
X47860062Y-86912181D01*
X47597827Y-87182786D01*
X47291535Y-87481417D01*
X46934353Y-87815943D01*
X46519445Y-88194228D01*
X46039976Y-88624139D01*
X45910150Y-88739777D01*
X45455207Y-89132757D01*
X45037419Y-89469629D01*
X44661167Y-89747459D01*
X44330830Y-89963314D01*
X44050788Y-90114260D01*
X43825421Y-90197362D01*
X43709798Y-90213613D01*
X43627634Y-90191198D01*
X43479991Y-90128567D01*
X43283786Y-90033760D01*
X43055940Y-89914816D01*
X42898144Y-89827950D01*
X42496751Y-89605122D01*
X42140765Y-89412999D01*
X41837185Y-89255112D01*
X41593007Y-89134990D01*
X41415231Y-89056165D01*
X41310853Y-89022167D01*
X41298743Y-89021053D01*
X41226189Y-89001134D01*
X41089029Y-88947143D01*
X40908057Y-88867725D01*
X40736792Y-88787399D01*
X40518936Y-88689432D01*
X40295224Y-88600878D01*
X40084609Y-88527852D01*
X39906046Y-88476469D01*
X39778489Y-88452845D01*
X39722997Y-88460337D01*
X39717973Y-88510338D01*
X39712973Y-88639947D01*
X39708391Y-88833285D01*
X39704620Y-89074473D01*
X39702503Y-89284918D01*
X39701872Y-89608110D01*
X39706822Y-89857556D01*
X39719047Y-90054921D01*
X39740246Y-90221866D01*
X39772116Y-90380056D01*
X39795705Y-90474605D01*
X39853791Y-90738329D01*
X39866519Y-90941576D01*
X39829669Y-91110042D01*
X39739020Y-91269423D01*
X39646431Y-91383528D01*
X39456546Y-91599248D01*
X38243123Y-91599248D01*
X37029699Y-91599248D01*
X37029337Y-90775658D01*
X37025736Y-90467319D01*
X37016041Y-90157309D01*
X37001518Y-89872960D01*
X36983434Y-89641606D01*
X36972344Y-89546241D01*
X36937124Y-89231797D01*
X36918788Y-88901391D01*
X36917117Y-88534132D01*
X36931890Y-88109134D01*
X36953350Y-87744112D01*
X36995395Y-87111721D01*
X36858909Y-87004075D01*
X36731497Y-86916510D01*
X36567508Y-86829612D01*
X36350281Y-86735740D01*
X36063158Y-86627250D01*
X35947131Y-86585845D01*
X35723160Y-86511196D01*
X35464045Y-86431869D01*
X35187493Y-86352494D01*
X34911211Y-86277700D01*
X34652907Y-86212116D01*
X34430286Y-86160373D01*
X34261056Y-86127100D01*
X34162923Y-86116926D01*
X34156118Y-86117571D01*
X34085371Y-86157538D01*
X34008046Y-86264482D01*
X33915491Y-86450607D01*
X33907813Y-86467831D01*
X33641753Y-86991392D01*
X33337846Y-87439293D01*
X32983882Y-87827858D01*
X32717508Y-88059264D01*
X32490742Y-88225203D01*
X32224236Y-88397769D01*
X31946738Y-88560114D01*
X31686994Y-88695387D01*
X31480557Y-88784309D01*
X31338934Y-88859309D01*
X31188555Y-88973966D01*
X31132919Y-89027557D01*
X31006686Y-89144174D01*
X30834822Y-89281894D01*
X30653201Y-89412068D01*
X30642399Y-89419263D01*
X30490310Y-89515767D01*
X30294831Y-89633560D01*
X30071833Y-89763781D01*
X29837188Y-89897570D01*
X29606766Y-90026068D01*
X29396438Y-90140414D01*
X29222076Y-90231747D01*
X29099551Y-90291208D01*
X29046560Y-90310151D01*
X28996265Y-90284692D01*
X28876889Y-90212688D01*
X28698714Y-90100693D01*
X28472019Y-89955263D01*
X28207085Y-89782955D01*
X27914194Y-89590323D01*
X27822396Y-89529540D01*
X27063585Y-89028847D01*
X26362671Y-88572094D01*
X25700250Y-88147156D01*
X25056922Y-87741910D01*
X24413284Y-87344230D01*
X23749936Y-86941993D01*
X23047475Y-86523074D01*
X22419925Y-86153487D01*
X22050988Y-85941224D01*
X21622596Y-85701338D01*
X21161077Y-85448146D01*
X20692763Y-85195962D01*
X20243984Y-84959103D01*
X19854080Y-84758464D01*
X19571930Y-84613951D01*
X19365321Y-84503297D01*
X19223449Y-84419582D01*
X19135512Y-84355886D01*
X19090707Y-84305286D01*
X19078234Y-84261393D01*
X19094783Y-84208672D01*
X19148315Y-84128728D01*
X19244169Y-84016046D01*
X19387685Y-83865115D01*
X19584202Y-83670421D01*
X19839059Y-83426450D01*
X20157596Y-83127691D01*
X20343045Y-82955457D01*
X20610414Y-82707787D01*
X20816490Y-82516959D01*
X20970015Y-82374903D01*
X21079729Y-82273551D01*
X21154374Y-82204834D01*
X21202690Y-82160682D01*
X21233417Y-82133027D01*
X21245911Y-82121993D01*
X21307065Y-82067021D01*
X21415196Y-81968676D01*
X21546965Y-81848187D01*
X21547755Y-81847463D01*
X21706723Y-81709229D01*
X21811340Y-81639056D01*
X21870621Y-81633571D01*
X21893583Y-81689402D01*
X21894737Y-81717699D01*
X21935774Y-81913205D01*
X22055410Y-82148583D01*
X22248428Y-82417948D01*
X22509614Y-82715417D01*
X22833754Y-83035108D01*
X23215631Y-83371137D01*
X23650030Y-83717620D01*
X23703265Y-83757980D01*
X24087584Y-84039240D01*
X24539427Y-84355229D01*
X25042391Y-84695131D01*
X25580073Y-85048131D01*
X26136070Y-85403410D01*
X26693980Y-85750153D01*
X27065857Y-85975408D01*
X27380674Y-86165314D01*
X27706782Y-86364467D01*
X28022121Y-86559225D01*
X28304636Y-86735947D01*
X28532267Y-86880990D01*
X28576080Y-86909439D01*
X29059023Y-87221263D01*
X29513252Y-87507980D01*
X29932168Y-87765768D01*
X30309171Y-87990806D01*
X30637663Y-88179271D01*
X30911045Y-88327342D01*
X31122718Y-88431195D01*
X31266083Y-88487010D01*
X31315103Y-88495865D01*
X31382143Y-88449861D01*
X31448290Y-88318801D01*
X31511568Y-88113111D01*
X31569997Y-87843217D01*
X31621600Y-87519545D01*
X31664399Y-87152521D01*
X31696415Y-86752571D01*
X31713654Y-86395113D01*
X31721527Y-86130142D01*
X31724206Y-85903066D01*
X31719466Y-85698998D01*
X31705084Y-85503050D01*
X31678836Y-85300336D01*
X31638498Y-85075969D01*
X31581848Y-84815061D01*
X31506661Y-84502726D01*
X31410713Y-84124076D01*
X31324719Y-83791193D01*
X31040443Y-82769736D01*
X30740949Y-81839318D01*
X30426465Y-81000328D01*
X30097215Y-80253155D01*
X29753427Y-79598187D01*
X29395327Y-79035811D01*
X29023142Y-78566416D01*
X28637096Y-78190391D01*
X28237418Y-77908123D01*
X27824332Y-77720001D01*
X27776226Y-77704497D01*
X27489526Y-77642383D01*
X27164313Y-77613441D01*
X26844688Y-77619582D01*
X26609493Y-77654006D01*
X26496002Y-77672558D01*
X26434229Y-77667475D01*
X26430451Y-77661364D01*
X26464429Y-77616371D01*
X26559358Y-77517892D01*
X26704728Y-77375781D01*
X26890030Y-77199889D01*
X27104756Y-77000070D01*
X27338397Y-76786177D01*
X27580444Y-76568061D01*
X27820388Y-76355576D01*
X27862782Y-76318479D01*
X28036810Y-76165813D01*
X28183896Y-76035487D01*
X28289466Y-75940507D01*
X28338946Y-75893877D01*
X28340226Y-75892403D01*
X28391551Y-75843921D01*
X28500654Y-75750557D01*
X28653395Y-75623675D01*
X28835634Y-75474639D01*
X29033232Y-75314815D01*
X29232047Y-75155567D01*
X29417942Y-75008259D01*
X29576775Y-74884258D01*
X29694407Y-74794926D01*
X29756698Y-74751630D01*
X29762444Y-74749312D01*
X29812300Y-74786871D01*
X29913745Y-74887911D01*
X30057809Y-75042086D01*
X30235518Y-75239051D01*
X30437900Y-75468461D01*
X30655984Y-75719971D01*
X30880796Y-75983235D01*
X31103365Y-76247909D01*
X31314717Y-76503646D01*
X31505881Y-76740102D01*
X31663898Y-76941730D01*
X31883255Y-77239125D01*
X32110103Y-77567206D01*
X32337793Y-77914433D01*
X32559673Y-78269262D01*
X32769092Y-78620153D01*
X32959399Y-78955563D01*
X33123941Y-79263952D01*
X33256069Y-79533777D01*
X33349131Y-79753497D01*
X33396475Y-79911570D01*
X33401128Y-79956280D01*
X33437566Y-80111491D01*
X33534634Y-80290829D01*
X33673965Y-80464780D01*
X33776406Y-80559307D01*
X33883275Y-80663182D01*
X33974169Y-80794938D01*
X34050556Y-80962649D01*
X34113904Y-81174393D01*
X34165682Y-81438246D01*
X34207357Y-81762283D01*
X34240398Y-82154581D01*
X34266273Y-82623217D01*
X34286449Y-83176265D01*
X34292641Y-83399154D01*
X34304317Y-83797379D01*
X34316728Y-84106545D01*
X34330544Y-84333085D01*
X34346432Y-84483429D01*
X34365060Y-84564009D01*
X34387098Y-84581254D01*
X34411717Y-84545019D01*
X34452788Y-84499431D01*
X34548879Y-84408280D01*
X34682408Y-84288025D01*
X34744047Y-84233994D01*
X35060462Y-83958778D01*
X35901703Y-84054953D01*
X36175942Y-84086051D01*
X36417497Y-84112959D01*
X36610290Y-84133927D01*
X36738240Y-84147201D01*
X36784250Y-84151128D01*
X36800779Y-84106221D01*
X36818153Y-83982784D01*
X36834665Y-83797740D01*
X36848605Y-83568013D01*
X36852943Y-83470771D01*
X36868703Y-83193971D01*
X36892276Y-82922010D01*
X36920670Y-82683544D01*
X36950890Y-82507228D01*
X36955781Y-82486352D01*
X36992169Y-82324589D01*
X37006832Y-82195080D01*
X36999549Y-82061146D01*
X36970097Y-81886110D01*
X36951585Y-81794059D01*
X36932236Y-81684483D01*
X36915516Y-81552530D01*
X36901062Y-81389428D01*
X36888510Y-81186406D01*
X36877498Y-80934691D01*
X36867662Y-80625511D01*
X36858640Y-80250096D01*
X36850069Y-79799674D01*
X36841585Y-79265472D01*
X36838701Y-79066354D01*
X36828673Y-78434951D01*
X36817831Y-77897021D01*
X36806101Y-77450549D01*
X36793412Y-77093521D01*
X36779692Y-76823925D01*
X36764868Y-76639746D01*
X36748868Y-76538970D01*
X36747981Y-76535903D01*
X36728246Y-76427620D01*
X36708380Y-76242933D01*
X36689856Y-76000912D01*
X36674145Y-75720626D01*
X36663212Y-75437782D01*
X36651237Y-75124627D01*
X36635978Y-74857695D01*
X36618485Y-74649969D01*
X36599807Y-74514432D01*
X36584817Y-74466829D01*
X36495074Y-74395904D01*
X36317342Y-74295996D01*
X36054228Y-74168301D01*
X35708338Y-74014016D01*
X35282277Y-73834336D01*
X34778652Y-73630457D01*
X34660583Y-73583614D01*
X34332324Y-73454232D01*
X34016517Y-73330547D01*
X33729334Y-73218832D01*
X33486950Y-73125362D01*
X33305539Y-73056411D01*
X33222087Y-73025589D01*
X32923684Y-72918409D01*
X32923684Y-72685017D01*
X32930673Y-72576431D01*
X32957795Y-72475559D01*
X33014284Y-72369616D01*
X33109373Y-72245816D01*
X33252295Y-72091375D01*
X33452284Y-71893508D01*
X33592105Y-71759483D01*
X33862471Y-71503934D01*
X34075015Y-71308802D01*
X34239426Y-71166970D01*
X34365394Y-71071325D01*
X34462606Y-71014750D01*
X34540751Y-70990130D01*
X34609518Y-70990351D01*
G37*
D18*
X126492000Y-45974000D03*
X111252000Y-45974000D03*
%LPC*%
D19*
X118235000Y-49022000D02*
G75*
G02*
X117985000Y-49022000I-125000J0D01*
G01*
X117985000Y-49022000D02*
G75*
G02*
X118235000Y-49022000I125000J0D01*
G01*
X118235000Y-51562000D02*
G75*
G02*
X117985000Y-51562000I-125000J0D01*
G01*
X117985000Y-51562000D02*
G75*
G02*
X118235000Y-51562000I125000J0D01*
G01*
X118235000Y-54102000D02*
G75*
G02*
X117985000Y-54102000I-125000J0D01*
G01*
X117985000Y-54102000D02*
G75*
G02*
X118235000Y-54102000I125000J0D01*
G01*
X118235000Y-56642000D02*
G75*
G02*
X117985000Y-56642000I-125000J0D01*
G01*
X117985000Y-56642000D02*
G75*
G02*
X118235000Y-56642000I125000J0D01*
G01*
X118235000Y-59182000D02*
G75*
G02*
X117985000Y-59182000I-125000J0D01*
G01*
X117985000Y-59182000D02*
G75*
G02*
X118235000Y-59182000I125000J0D01*
G01*
X118235000Y-61722000D02*
G75*
G02*
X117985000Y-61722000I-125000J0D01*
G01*
X117985000Y-61722000D02*
G75*
G02*
X118235000Y-61722000I125000J0D01*
G01*
X118235000Y-64262000D02*
G75*
G02*
X117985000Y-64262000I-125000J0D01*
G01*
X117985000Y-64262000D02*
G75*
G02*
X118235000Y-64262000I125000J0D01*
G01*
X118235000Y-66802000D02*
G75*
G02*
X117985000Y-66802000I-125000J0D01*
G01*
X117985000Y-66802000D02*
G75*
G02*
X118235000Y-66802000I125000J0D01*
G01*
X118235000Y-69342000D02*
G75*
G02*
X117985000Y-69342000I-125000J0D01*
G01*
X117985000Y-69342000D02*
G75*
G02*
X118235000Y-69342000I125000J0D01*
G01*
X118235000Y-71882000D02*
G75*
G02*
X117985000Y-71882000I-125000J0D01*
G01*
X117985000Y-71882000D02*
G75*
G02*
X118235000Y-71882000I125000J0D01*
G01*
X118235000Y-74422000D02*
G75*
G02*
X117985000Y-74422000I-125000J0D01*
G01*
X117985000Y-74422000D02*
G75*
G02*
X118235000Y-74422000I125000J0D01*
G01*
X118235000Y-76962000D02*
G75*
G02*
X117985000Y-76962000I-125000J0D01*
G01*
X117985000Y-76962000D02*
G75*
G02*
X118235000Y-76962000I125000J0D01*
G01*
X119759000Y-49022000D02*
G75*
G02*
X119509000Y-49022000I-125000J0D01*
G01*
X119509000Y-49022000D02*
G75*
G02*
X119759000Y-49022000I125000J0D01*
G01*
X119759000Y-51562000D02*
G75*
G02*
X119509000Y-51562000I-125000J0D01*
G01*
X119509000Y-51562000D02*
G75*
G02*
X119759000Y-51562000I125000J0D01*
G01*
X119759000Y-54102000D02*
G75*
G02*
X119509000Y-54102000I-125000J0D01*
G01*
X119509000Y-54102000D02*
G75*
G02*
X119759000Y-54102000I125000J0D01*
G01*
X119759000Y-56642000D02*
G75*
G02*
X119509000Y-56642000I-125000J0D01*
G01*
X119509000Y-56642000D02*
G75*
G02*
X119759000Y-56642000I125000J0D01*
G01*
X119759000Y-59182000D02*
G75*
G02*
X119509000Y-59182000I-125000J0D01*
G01*
X119509000Y-59182000D02*
G75*
G02*
X119759000Y-59182000I125000J0D01*
G01*
X119759000Y-61722000D02*
G75*
G02*
X119509000Y-61722000I-125000J0D01*
G01*
X119509000Y-61722000D02*
G75*
G02*
X119759000Y-61722000I125000J0D01*
G01*
X119759000Y-64262000D02*
G75*
G02*
X119509000Y-64262000I-125000J0D01*
G01*
X119509000Y-64262000D02*
G75*
G02*
X119759000Y-64262000I125000J0D01*
G01*
X119759000Y-66802000D02*
G75*
G02*
X119509000Y-66802000I-125000J0D01*
G01*
X119509000Y-66802000D02*
G75*
G02*
X119759000Y-66802000I125000J0D01*
G01*
X119759000Y-69342000D02*
G75*
G02*
X119509000Y-69342000I-125000J0D01*
G01*
X119509000Y-69342000D02*
G75*
G02*
X119759000Y-69342000I125000J0D01*
G01*
X119759000Y-71882000D02*
G75*
G02*
X119509000Y-71882000I-125000J0D01*
G01*
X119509000Y-71882000D02*
G75*
G02*
X119759000Y-71882000I125000J0D01*
G01*
X119759000Y-74422000D02*
G75*
G02*
X119509000Y-74422000I-125000J0D01*
G01*
X119509000Y-74422000D02*
G75*
G02*
X119759000Y-74422000I125000J0D01*
G01*
X119759000Y-76962000D02*
G75*
G02*
X119509000Y-76962000I-125000J0D01*
G01*
X119509000Y-76962000D02*
G75*
G02*
X119759000Y-76962000I125000J0D01*
G01*
D14*
X113792000Y-49530000D02*
X112776000Y-49530000D01*
X112776000Y-48514000D01*
X113792000Y-48514000D01*
X113792000Y-49530000D01*
G36*
X113792000Y-49530000D02*
G01*
X112776000Y-49530000D01*
X112776000Y-48514000D01*
X113792000Y-48514000D01*
X113792000Y-49530000D01*
G37*
X113792000Y-52070000D02*
X112776000Y-52070000D01*
X112776000Y-51054000D01*
X113792000Y-51054000D01*
X113792000Y-52070000D01*
G36*
X113792000Y-52070000D02*
G01*
X112776000Y-52070000D01*
X112776000Y-51054000D01*
X113792000Y-51054000D01*
X113792000Y-52070000D01*
G37*
X113792000Y-54610000D02*
X112776000Y-54610000D01*
X112776000Y-53594000D01*
X113792000Y-53594000D01*
X113792000Y-54610000D01*
G36*
X113792000Y-54610000D02*
G01*
X112776000Y-54610000D01*
X112776000Y-53594000D01*
X113792000Y-53594000D01*
X113792000Y-54610000D01*
G37*
X113792000Y-57150000D02*
X112776000Y-57150000D01*
X112776000Y-56134000D01*
X113792000Y-56134000D01*
X113792000Y-57150000D01*
G36*
X113792000Y-57150000D02*
G01*
X112776000Y-57150000D01*
X112776000Y-56134000D01*
X113792000Y-56134000D01*
X113792000Y-57150000D01*
G37*
X113792000Y-59690000D02*
X112776000Y-59690000D01*
X112776000Y-58674000D01*
X113792000Y-58674000D01*
X113792000Y-59690000D01*
G36*
X113792000Y-59690000D02*
G01*
X112776000Y-59690000D01*
X112776000Y-58674000D01*
X113792000Y-58674000D01*
X113792000Y-59690000D01*
G37*
X113792000Y-62230000D02*
X112776000Y-62230000D01*
X112776000Y-61214000D01*
X113792000Y-61214000D01*
X113792000Y-62230000D01*
G36*
X113792000Y-62230000D02*
G01*
X112776000Y-62230000D01*
X112776000Y-61214000D01*
X113792000Y-61214000D01*
X113792000Y-62230000D01*
G37*
X113792000Y-64770000D02*
X112776000Y-64770000D01*
X112776000Y-63754000D01*
X113792000Y-63754000D01*
X113792000Y-64770000D01*
G36*
X113792000Y-64770000D02*
G01*
X112776000Y-64770000D01*
X112776000Y-63754000D01*
X113792000Y-63754000D01*
X113792000Y-64770000D01*
G37*
X113792000Y-67310000D02*
X112776000Y-67310000D01*
X112776000Y-66294000D01*
X113792000Y-66294000D01*
X113792000Y-67310000D01*
G36*
X113792000Y-67310000D02*
G01*
X112776000Y-67310000D01*
X112776000Y-66294000D01*
X113792000Y-66294000D01*
X113792000Y-67310000D01*
G37*
X113792000Y-69850000D02*
X112776000Y-69850000D01*
X112776000Y-68834000D01*
X113792000Y-68834000D01*
X113792000Y-69850000D01*
G36*
X113792000Y-69850000D02*
G01*
X112776000Y-69850000D01*
X112776000Y-68834000D01*
X113792000Y-68834000D01*
X113792000Y-69850000D01*
G37*
X113792000Y-72390000D02*
X112776000Y-72390000D01*
X112776000Y-71374000D01*
X113792000Y-71374000D01*
X113792000Y-72390000D01*
G36*
X113792000Y-72390000D02*
G01*
X112776000Y-72390000D01*
X112776000Y-71374000D01*
X113792000Y-71374000D01*
X113792000Y-72390000D01*
G37*
X113792000Y-74930000D02*
X112776000Y-74930000D01*
X112776000Y-73914000D01*
X113792000Y-73914000D01*
X113792000Y-74930000D01*
G36*
X113792000Y-74930000D02*
G01*
X112776000Y-74930000D01*
X112776000Y-73914000D01*
X113792000Y-73914000D01*
X113792000Y-74930000D01*
G37*
X113792000Y-77470000D02*
X112776000Y-77470000D01*
X112776000Y-76454000D01*
X113792000Y-76454000D01*
X113792000Y-77470000D01*
G36*
X113792000Y-77470000D02*
G01*
X112776000Y-77470000D01*
X112776000Y-76454000D01*
X113792000Y-76454000D01*
X113792000Y-77470000D01*
G37*
X124968000Y-49530000D02*
X123952000Y-49530000D01*
X123952000Y-48514000D01*
X124968000Y-48514000D01*
X124968000Y-49530000D01*
G36*
X124968000Y-49530000D02*
G01*
X123952000Y-49530000D01*
X123952000Y-48514000D01*
X124968000Y-48514000D01*
X124968000Y-49530000D01*
G37*
X124968000Y-52070000D02*
X123952000Y-52070000D01*
X123952000Y-51054000D01*
X124968000Y-51054000D01*
X124968000Y-52070000D01*
G36*
X124968000Y-52070000D02*
G01*
X123952000Y-52070000D01*
X123952000Y-51054000D01*
X124968000Y-51054000D01*
X124968000Y-52070000D01*
G37*
X124968000Y-54610000D02*
X123952000Y-54610000D01*
X123952000Y-53594000D01*
X124968000Y-53594000D01*
X124968000Y-54610000D01*
G36*
X124968000Y-54610000D02*
G01*
X123952000Y-54610000D01*
X123952000Y-53594000D01*
X124968000Y-53594000D01*
X124968000Y-54610000D01*
G37*
X124968000Y-57150000D02*
X123952000Y-57150000D01*
X123952000Y-56134000D01*
X124968000Y-56134000D01*
X124968000Y-57150000D01*
G36*
X124968000Y-57150000D02*
G01*
X123952000Y-57150000D01*
X123952000Y-56134000D01*
X124968000Y-56134000D01*
X124968000Y-57150000D01*
G37*
X124968000Y-59690000D02*
X123952000Y-59690000D01*
X123952000Y-58674000D01*
X124968000Y-58674000D01*
X124968000Y-59690000D01*
G36*
X124968000Y-59690000D02*
G01*
X123952000Y-59690000D01*
X123952000Y-58674000D01*
X124968000Y-58674000D01*
X124968000Y-59690000D01*
G37*
X124968000Y-62230000D02*
X123952000Y-62230000D01*
X123952000Y-61214000D01*
X124968000Y-61214000D01*
X124968000Y-62230000D01*
G36*
X124968000Y-62230000D02*
G01*
X123952000Y-62230000D01*
X123952000Y-61214000D01*
X124968000Y-61214000D01*
X124968000Y-62230000D01*
G37*
X124968000Y-64770000D02*
X123952000Y-64770000D01*
X123952000Y-63754000D01*
X124968000Y-63754000D01*
X124968000Y-64770000D01*
G36*
X124968000Y-64770000D02*
G01*
X123952000Y-64770000D01*
X123952000Y-63754000D01*
X124968000Y-63754000D01*
X124968000Y-64770000D01*
G37*
X124968000Y-67310000D02*
X123952000Y-67310000D01*
X123952000Y-66294000D01*
X124968000Y-66294000D01*
X124968000Y-67310000D01*
G36*
X124968000Y-67310000D02*
G01*
X123952000Y-67310000D01*
X123952000Y-66294000D01*
X124968000Y-66294000D01*
X124968000Y-67310000D01*
G37*
X124968000Y-69850000D02*
X123952000Y-69850000D01*
X123952000Y-68834000D01*
X124968000Y-68834000D01*
X124968000Y-69850000D01*
G36*
X124968000Y-69850000D02*
G01*
X123952000Y-69850000D01*
X123952000Y-68834000D01*
X124968000Y-68834000D01*
X124968000Y-69850000D01*
G37*
X124968000Y-72390000D02*
X123952000Y-72390000D01*
X123952000Y-71374000D01*
X124968000Y-71374000D01*
X124968000Y-72390000D01*
G36*
X124968000Y-72390000D02*
G01*
X123952000Y-72390000D01*
X123952000Y-71374000D01*
X124968000Y-71374000D01*
X124968000Y-72390000D01*
G37*
X124968000Y-74930000D02*
X123952000Y-74930000D01*
X123952000Y-73914000D01*
X124968000Y-73914000D01*
X124968000Y-74930000D01*
G36*
X124968000Y-74930000D02*
G01*
X123952000Y-74930000D01*
X123952000Y-73914000D01*
X124968000Y-73914000D01*
X124968000Y-74930000D01*
G37*
X124968000Y-77470000D02*
X123952000Y-77470000D01*
X123952000Y-76454000D01*
X124968000Y-76454000D01*
X124968000Y-77470000D01*
G36*
X124968000Y-77470000D02*
G01*
X123952000Y-77470000D01*
X123952000Y-76454000D01*
X124968000Y-76454000D01*
X124968000Y-77470000D01*
G37*
D18*
X126492000Y-45974000D03*
X111252000Y-45974000D03*
D20*
X122098000Y-82750000D03*
X115098000Y-82750000D03*
D21*
X117478000Y-80420000D03*
X117498000Y-85050000D03*
X120478000Y-80420000D03*
X120498000Y-85050000D03*
X112398000Y-80450000D03*
X112378000Y-85020000D03*
X113478000Y-80420000D03*
X113498000Y-85050000D03*
D22*
X21580000Y-46080000D03*
D23*
X21860000Y-41880000D03*
D24*
X27080000Y-46080000D03*
D23*
X32300000Y-41880000D03*
D22*
X32580000Y-46080000D03*
D25*
X27080000Y-51980000D03*
X22080000Y-49880000D03*
X32080000Y-49880000D03*
D22*
X39580000Y-34080000D03*
D23*
X39860000Y-29880000D03*
D24*
X45080000Y-34080000D03*
D23*
X50300000Y-29880000D03*
D22*
X50580000Y-34080000D03*
D25*
X45080000Y-39980000D03*
X40080000Y-37880000D03*
X50080000Y-37880000D03*
D22*
X57580000Y-27080000D03*
D23*
X57860000Y-22880000D03*
D24*
X63080000Y-27080000D03*
D23*
X68300000Y-22880000D03*
D22*
X68580000Y-27080000D03*
D25*
X63080000Y-32980000D03*
X58080000Y-30880000D03*
X68080000Y-30880000D03*
D22*
X75580000Y-32580000D03*
D23*
X75860000Y-28380000D03*
D24*
X81080000Y-32580000D03*
D23*
X86300000Y-28380000D03*
D22*
X86580000Y-32580000D03*
D25*
X81080000Y-38480000D03*
X76080000Y-36380000D03*
X86080000Y-36380000D03*
D22*
X93580000Y-35080000D03*
D23*
X93860000Y-30880000D03*
D24*
X99080000Y-35080000D03*
D23*
X104300000Y-30880000D03*
D22*
X104580000Y-35080000D03*
D25*
X99080000Y-40980000D03*
X94080000Y-38880000D03*
X104080000Y-38880000D03*
D22*
X21580000Y-63080000D03*
D23*
X21860000Y-58880000D03*
D24*
X27080000Y-63080000D03*
D23*
X32300000Y-58880000D03*
D22*
X32580000Y-63080000D03*
D25*
X27080000Y-68980000D03*
X22080000Y-66880000D03*
X32080000Y-66880000D03*
D22*
X39580000Y-51054000D03*
D23*
X39860000Y-46854000D03*
D24*
X45080000Y-51054000D03*
D23*
X50300000Y-46854000D03*
D22*
X50580000Y-51054000D03*
D25*
X45080000Y-56954000D03*
X40080000Y-54854000D03*
X50080000Y-54854000D03*
D22*
X57580000Y-44196000D03*
D23*
X57860000Y-39996000D03*
D24*
X63080000Y-44196000D03*
D23*
X68300000Y-39996000D03*
D22*
X68580000Y-44196000D03*
D25*
X63080000Y-50096000D03*
X58080000Y-47996000D03*
X68080000Y-47996000D03*
D22*
X75580000Y-49530000D03*
D23*
X75860000Y-45330000D03*
D24*
X81080000Y-49530000D03*
D23*
X86300000Y-45330000D03*
D22*
X86580000Y-49530000D03*
D25*
X81080000Y-55430000D03*
X76080000Y-53330000D03*
X86080000Y-53330000D03*
D22*
X93560000Y-52070000D03*
D23*
X93840000Y-47870000D03*
D24*
X99060000Y-52070000D03*
D23*
X104280000Y-47870000D03*
D22*
X104560000Y-52070000D03*
D25*
X99060000Y-57970000D03*
X94060000Y-55870000D03*
X104060000Y-55870000D03*
D22*
X21580000Y-80080000D03*
D23*
X21860000Y-75880000D03*
D24*
X27080000Y-80080000D03*
D23*
X32300000Y-75880000D03*
D22*
X32580000Y-80080000D03*
D25*
X27080000Y-85980000D03*
X22080000Y-83880000D03*
X32080000Y-83880000D03*
D22*
X39580000Y-68072000D03*
D23*
X39860000Y-63872000D03*
D24*
X45080000Y-68072000D03*
D23*
X50300000Y-63872000D03*
D22*
X50580000Y-68072000D03*
D25*
X45080000Y-73972000D03*
X40080000Y-71872000D03*
X50080000Y-71872000D03*
D22*
X57580000Y-61214000D03*
D23*
X57860000Y-57014000D03*
D24*
X63080000Y-61214000D03*
D23*
X68300000Y-57014000D03*
D22*
X68580000Y-61214000D03*
D25*
X63080000Y-67114000D03*
X58080000Y-65014000D03*
X68080000Y-65014000D03*
D22*
X75580000Y-66548000D03*
D23*
X75860000Y-62348000D03*
D24*
X81080000Y-66548000D03*
D23*
X86300000Y-62348000D03*
D22*
X86580000Y-66548000D03*
D25*
X81080000Y-72448000D03*
X76080000Y-70348000D03*
X86080000Y-70348000D03*
D22*
X93560000Y-69088000D03*
D23*
X93840000Y-64888000D03*
D24*
X99060000Y-69088000D03*
D23*
X104280000Y-64888000D03*
D22*
X104560000Y-69088000D03*
D25*
X99060000Y-74988000D03*
X94060000Y-72888000D03*
X104060000Y-72888000D03*
D22*
X114119140Y-97530000D03*
D23*
X111776653Y-101027307D03*
D24*
X109356000Y-94780000D03*
D23*
X102735347Y-95807307D03*
D22*
X104592860Y-92030000D03*
D25*
X112306000Y-89670450D03*
X115586127Y-93989103D03*
X106925873Y-88989103D03*
D22*
X96108592Y-88453505D03*
D23*
X94751093Y-92437924D03*
D24*
X90796000Y-87030000D03*
D23*
X84666827Y-89735853D03*
D22*
X85483408Y-85606495D03*
D25*
X92323032Y-81331038D03*
X96609142Y-84653577D03*
X86949883Y-82065387D03*
D26*
X126492000Y-49022000D03*
D27*
X124714000Y-49022000D03*
D28*
X113030000Y-49022000D03*
D26*
X111252000Y-49022000D03*
D29*
X111252000Y-49022000D03*
D26*
X126492000Y-51562000D03*
D27*
X124714000Y-51562000D03*
D28*
X113030000Y-51562000D03*
D26*
X111252000Y-51562000D03*
X126492000Y-54102000D03*
D27*
X124714000Y-54102000D03*
D28*
X113030000Y-54102000D03*
D26*
X111252000Y-54102000D03*
X126492000Y-56642000D03*
D27*
X124714000Y-56642000D03*
D28*
X113030000Y-56642000D03*
D26*
X111252000Y-56642000D03*
X126492000Y-59182000D03*
D27*
X124714000Y-59182000D03*
D28*
X113030000Y-59182000D03*
D26*
X111252000Y-59182000D03*
X126492000Y-61722000D03*
D27*
X124714000Y-61722000D03*
D28*
X113030000Y-61722000D03*
D26*
X111252000Y-61722000D03*
X126492000Y-64262000D03*
D27*
X124714000Y-64262000D03*
D28*
X113030000Y-64262000D03*
D26*
X111252000Y-64262000D03*
X126492000Y-66802000D03*
D27*
X124714000Y-66802000D03*
D28*
X113030000Y-66802000D03*
D26*
X111252000Y-66802000D03*
X126492000Y-69342000D03*
D27*
X124714000Y-69342000D03*
D28*
X113030000Y-69342000D03*
D26*
X111252000Y-69342000D03*
X126492000Y-71882000D03*
D27*
X124714000Y-71882000D03*
D28*
X113030000Y-71882000D03*
D26*
X111252000Y-71882000D03*
X126492000Y-74422000D03*
D27*
X124714000Y-74422000D03*
D28*
X113030000Y-74422000D03*
D26*
X111252000Y-74422000D03*
X126492000Y-76962000D03*
D27*
X124714000Y-76962000D03*
D28*
X113030000Y-76962000D03*
D26*
X111252000Y-76962000D03*
D30*
X114046000Y-49022000D03*
X114046000Y-51562000D03*
X114046000Y-54102000D03*
X114046000Y-56642000D03*
X114046000Y-59182000D03*
X114046000Y-61722000D03*
X114046000Y-64262000D03*
X114046000Y-66802000D03*
X114046000Y-69342000D03*
X114046000Y-71882000D03*
X114046000Y-74422000D03*
X114046000Y-76962000D03*
D31*
X123698000Y-76962000D03*
X123698000Y-74422000D03*
X123698000Y-71882000D03*
X123698000Y-69342000D03*
X123698000Y-66802000D03*
X123698000Y-64262000D03*
X123698000Y-61722000D03*
X123698000Y-59182000D03*
X123698000Y-56642000D03*
X123698000Y-54102000D03*
X123698000Y-51562000D03*
X123698000Y-49022000D03*
D32*
X53530000Y-42980000D03*
X72580000Y-23930000D03*
X72580000Y-62030000D03*
X91630000Y-42980000D03*
D33*
X93194954Y-24169715D03*
X96085846Y-24971431D03*
D34*
X90781005Y-24641785D03*
X91368931Y-22521798D03*
X97911869Y-26619348D03*
X98499795Y-24499361D03*
D35*
X96254049Y-27171393D03*
X93363158Y-26369676D03*
X91917712Y-25968820D03*
D36*
X83085200Y-22250400D03*
X86485200Y-22250400D03*
%LPD*%
M02*
