%TF.GenerationSoftware,KiCad,Pcbnew,8.0.5*%
%TF.CreationDate,2024-09-27T20:56:13+02:00*%
%TF.ProjectId,half-swept,68616c66-2d73-4776-9570-742e6b696361,rev?*%
%TF.SameCoordinates,Original*%
%TF.FileFunction,Drillmap*%
%TF.FilePolarity,Positive*%
%FSLAX45Y45*%
G04 Gerber Fmt 4.5, Leading zero omitted, Abs format (unit mm)*
G04 Created by KiCad (PCBNEW 8.0.5) date 2024-09-27 20:56:13*
%MOMM*%
%LPD*%
G01*
G04 APERTURE LIST*
%ADD10C,0.050000*%
%ADD11C,0.200000*%
%ADD12C,0.100000*%
%ADD13C,0.170180*%
%ADD14C,0.342900*%
G04 APERTURE END LIST*
D10*
X12688500Y-4461200D02*
G75*
G02*
X12763500Y-4536200I0J-75000D01*
G01*
X1869054Y-3943149D02*
X1873025Y-8624502D01*
X10678729Y-2645689D02*
G75*
G02*
X10722200Y-2713742I-31529J-68051D01*
G01*
X8940913Y-9556195D02*
G75*
G02*
X11093800Y-10474800I-2278713J-8322605D01*
G01*
X10925700Y-4461492D02*
G75*
G02*
X10722200Y-4268400I-3500J200092D01*
G01*
X6929178Y-1820068D02*
G75*
G02*
X10678729Y-2645689I-1194733J-14352958D01*
G01*
X11367000Y-10414927D02*
G75*
G02*
X11093800Y-10474800I-166200J105127D01*
G01*
X2076800Y-8808112D02*
G75*
G02*
X8940913Y-9556195I-57803J-32395624D01*
G01*
X2076800Y-8808112D02*
G75*
G02*
X1873025Y-8624502I-5975J198251D01*
G01*
X12763500Y-4536200D02*
X12763500Y-6248400D01*
X10722200Y-4268400D02*
X10722205Y-2713742D01*
X10925700Y-4461492D02*
X12688500Y-4461200D01*
X12588830Y-8331200D02*
X11367000Y-10414927D01*
X12763500Y-7598785D02*
G75*
G02*
X12588831Y-8331200I-1677390J12995D01*
G01*
X6929178Y-1820068D02*
X5600000Y-1820614D01*
X12763500Y-6248400D02*
X12764700Y-6985000D01*
X12764700Y-6985000D02*
X12763500Y-7598785D01*
X3648941Y-2728456D02*
G75*
G02*
X3778139Y-2599491I129079J-114D01*
G01*
X5468566Y-1950454D02*
G75*
G02*
X5600000Y-1820614I129964J-116D01*
G01*
X5468715Y-2518665D02*
G75*
G02*
X5372421Y-2600385I-89005J7285D01*
G01*
X5469024Y-1950455D02*
X5468715Y-2518665D01*
X3648941Y-2728456D02*
X3650228Y-3684956D01*
X1869054Y-3943149D02*
G75*
G02*
X1998252Y-3814182I129083J-116D01*
G01*
X3650228Y-3684956D02*
G75*
G02*
X3521031Y-3813918I-129079J116D01*
G01*
X5372421Y-2600385D02*
X3778139Y-2599489D01*
X3521031Y-3813923D02*
X1998252Y-3814182D01*
D11*
D12*
X11469800Y-8235000D02*
X11549800Y-8315000D01*
X11549800Y-8235000D02*
X11469800Y-8315000D01*
X12169800Y-8235000D02*
X12249800Y-8315000D01*
X12249800Y-8235000D02*
X12169800Y-8315000D01*
X9364495Y-2416972D02*
G75*
G02*
X9274495Y-2416972I-45000J0D01*
G01*
X9274495Y-2416972D02*
G75*
G02*
X9364495Y-2416972I45000J0D01*
G01*
X9653585Y-2497143D02*
G75*
G02*
X9563585Y-2497143I-45000J0D01*
G01*
X9563585Y-2497143D02*
G75*
G02*
X9653585Y-2497143I45000J0D01*
G01*
X2186000Y-4138470D02*
X2186000Y-4237530D01*
X2136470Y-4188000D02*
X2235530Y-4188000D01*
X2186000Y-5838470D02*
X2186000Y-5937530D01*
X2136470Y-5888000D02*
X2235530Y-5888000D01*
X2186000Y-7538470D02*
X2186000Y-7637530D01*
X2136470Y-7588000D02*
X2235530Y-7588000D01*
X3230000Y-4138470D02*
X3230000Y-4237530D01*
X3180470Y-4188000D02*
X3279530Y-4188000D01*
X3230000Y-5838470D02*
X3230000Y-5937530D01*
X3180470Y-5888000D02*
X3279530Y-5888000D01*
X3230000Y-7538470D02*
X3230000Y-7637530D01*
X3180470Y-7588000D02*
X3279530Y-7588000D01*
X3986000Y-2938470D02*
X3986000Y-3037530D01*
X3936470Y-2988000D02*
X4035530Y-2988000D01*
X3986000Y-4635870D02*
X3986000Y-4734930D01*
X3936470Y-4685400D02*
X4035530Y-4685400D01*
X3986000Y-6337670D02*
X3986000Y-6436730D01*
X3936470Y-6387200D02*
X4035530Y-6387200D01*
X5030000Y-2938470D02*
X5030000Y-3037530D01*
X4980470Y-2988000D02*
X5079530Y-2988000D01*
X5030000Y-4635870D02*
X5030000Y-4734930D01*
X4980470Y-4685400D02*
X5079530Y-4685400D01*
X5030000Y-6337670D02*
X5030000Y-6436730D01*
X4980470Y-6387200D02*
X5079530Y-6387200D01*
X5786000Y-2238470D02*
X5786000Y-2337530D01*
X5736470Y-2288000D02*
X5835530Y-2288000D01*
X5786000Y-3950070D02*
X5786000Y-4049130D01*
X5736470Y-3999600D02*
X5835530Y-3999600D01*
X5786000Y-5651870D02*
X5786000Y-5750930D01*
X5736470Y-5701400D02*
X5835530Y-5701400D01*
X6830000Y-2238470D02*
X6830000Y-2337530D01*
X6780470Y-2288000D02*
X6879530Y-2288000D01*
X6830000Y-3950070D02*
X6830000Y-4049130D01*
X6780470Y-3999600D02*
X6879530Y-3999600D01*
X6830000Y-5651870D02*
X6830000Y-5750930D01*
X6780470Y-5701400D02*
X6879530Y-5701400D01*
X7586000Y-2788470D02*
X7586000Y-2887530D01*
X7536470Y-2838000D02*
X7635530Y-2838000D01*
X7586000Y-4483470D02*
X7586000Y-4582530D01*
X7536470Y-4533000D02*
X7635530Y-4533000D01*
X7586000Y-6185270D02*
X7586000Y-6284330D01*
X7536470Y-6234800D02*
X7635530Y-6234800D01*
X8466683Y-8924055D02*
X8466683Y-9023115D01*
X8417153Y-8973585D02*
X8516213Y-8973585D01*
X8630000Y-2788470D02*
X8630000Y-2887530D01*
X8580470Y-2838000D02*
X8679530Y-2838000D01*
X8630000Y-4483470D02*
X8630000Y-4582530D01*
X8580470Y-4533000D02*
X8679530Y-4533000D01*
X8630000Y-6185270D02*
X8630000Y-6284330D01*
X8580470Y-6234800D02*
X8679530Y-6234800D01*
X9384000Y-4737470D02*
X9384000Y-4836530D01*
X9334470Y-4787000D02*
X9433530Y-4787000D01*
X9384000Y-6439270D02*
X9384000Y-6538330D01*
X9334470Y-6488800D02*
X9433530Y-6488800D01*
X9386000Y-3038470D02*
X9386000Y-3137530D01*
X9336470Y-3088000D02*
X9435530Y-3088000D01*
X9475109Y-9194262D02*
X9475109Y-9293322D01*
X9425579Y-9243792D02*
X9524639Y-9243792D01*
X10273535Y-9531201D02*
X10273535Y-9630261D01*
X10224005Y-9580731D02*
X10323065Y-9580731D01*
X10428000Y-4737470D02*
X10428000Y-4836530D01*
X10378470Y-4787000D02*
X10477530Y-4787000D01*
X10428000Y-6439270D02*
X10428000Y-6538330D01*
X10378470Y-6488800D02*
X10477530Y-6488800D01*
X10430000Y-3038470D02*
X10430000Y-3137530D01*
X10380470Y-3088000D02*
X10479530Y-3088000D01*
X11177665Y-10053201D02*
X11177665Y-10152261D01*
X11128135Y-10102731D02*
X11227195Y-10102731D01*
D13*
X2218168Y-4668168D02*
X2218168Y-4547832D01*
X2097832Y-4547832D01*
X2097832Y-4668168D01*
X2218168Y-4668168D01*
X2218168Y-6368168D02*
X2218168Y-6247832D01*
X2097832Y-6247832D01*
X2097832Y-6368168D01*
X2218168Y-6368168D01*
X2218168Y-8068168D02*
X2218168Y-7947832D01*
X2097832Y-7947832D01*
X2097832Y-8068168D01*
X2218168Y-8068168D01*
X3318168Y-4668168D02*
X3318168Y-4547832D01*
X3197832Y-4547832D01*
X3197832Y-4668168D01*
X3318168Y-4668168D01*
X3318168Y-6368168D02*
X3318168Y-6247832D01*
X3197832Y-6247832D01*
X3197832Y-6368168D01*
X3318168Y-6368168D01*
X3318168Y-8068168D02*
X3318168Y-7947832D01*
X3197832Y-7947832D01*
X3197832Y-8068168D01*
X3318168Y-8068168D01*
X4018168Y-3468168D02*
X4018168Y-3347832D01*
X3897832Y-3347832D01*
X3897832Y-3468168D01*
X4018168Y-3468168D01*
X4018168Y-5165568D02*
X4018168Y-5045232D01*
X3897832Y-5045232D01*
X3897832Y-5165568D01*
X4018168Y-5165568D01*
X4018168Y-6867368D02*
X4018168Y-6747032D01*
X3897832Y-6747032D01*
X3897832Y-6867368D01*
X4018168Y-6867368D01*
X5118168Y-3468168D02*
X5118168Y-3347832D01*
X4997832Y-3347832D01*
X4997832Y-3468168D01*
X5118168Y-3468168D01*
X5118168Y-5165568D02*
X5118168Y-5045232D01*
X4997832Y-5045232D01*
X4997832Y-5165568D01*
X5118168Y-5165568D01*
X5118168Y-6867368D02*
X5118168Y-6747032D01*
X4997832Y-6747032D01*
X4997832Y-6867368D01*
X5118168Y-6867368D01*
X5818168Y-2768168D02*
X5818168Y-2647832D01*
X5697832Y-2647832D01*
X5697832Y-2768168D01*
X5818168Y-2768168D01*
X5818168Y-4479768D02*
X5818168Y-4359432D01*
X5697832Y-4359432D01*
X5697832Y-4479768D01*
X5818168Y-4479768D01*
X5818168Y-6181568D02*
X5818168Y-6061232D01*
X5697832Y-6061232D01*
X5697832Y-6181568D01*
X5818168Y-6181568D01*
X6918168Y-2768168D02*
X6918168Y-2647832D01*
X6797832Y-2647832D01*
X6797832Y-2768168D01*
X6918168Y-2768168D01*
X6918168Y-4479768D02*
X6918168Y-4359432D01*
X6797832Y-4359432D01*
X6797832Y-4479768D01*
X6918168Y-4479768D01*
X6918168Y-6181568D02*
X6918168Y-6061232D01*
X6797832Y-6061232D01*
X6797832Y-6181568D01*
X6918168Y-6181568D01*
X7618168Y-3318168D02*
X7618168Y-3197832D01*
X7497832Y-3197832D01*
X7497832Y-3318168D01*
X7618168Y-3318168D01*
X7618168Y-5013168D02*
X7618168Y-4892832D01*
X7497832Y-4892832D01*
X7497832Y-5013168D01*
X7618168Y-5013168D01*
X7618168Y-6714968D02*
X7618168Y-6594632D01*
X7497832Y-6594632D01*
X7497832Y-6714968D01*
X7618168Y-6714968D01*
X8608509Y-8620818D02*
X8608509Y-8500481D01*
X8488173Y-8500481D01*
X8488173Y-8620818D01*
X8608509Y-8620818D01*
X8718168Y-3318168D02*
X8718168Y-3197832D01*
X8597832Y-3197832D01*
X8597832Y-3318168D01*
X8718168Y-3318168D01*
X8718168Y-5013168D02*
X8718168Y-4892832D01*
X8597832Y-4892832D01*
X8597832Y-5013168D01*
X8718168Y-5013168D01*
X8718168Y-6714968D02*
X8718168Y-6594632D01*
X8597832Y-6594632D01*
X8597832Y-6714968D01*
X8718168Y-6714968D01*
X9416168Y-5267168D02*
X9416168Y-5146832D01*
X9295832Y-5146832D01*
X9295832Y-5267168D01*
X9416168Y-5267168D01*
X9416168Y-6968968D02*
X9416168Y-6848632D01*
X9295832Y-6848632D01*
X9295832Y-6968968D01*
X9416168Y-6968968D01*
X9418168Y-3568168D02*
X9418168Y-3447832D01*
X9297832Y-3447832D01*
X9297832Y-3568168D01*
X9418168Y-3568168D01*
X9671028Y-8905519D02*
X9671028Y-8785182D01*
X9550691Y-8785182D01*
X9550691Y-8905519D01*
X9671028Y-8905519D01*
X10516168Y-5267168D02*
X10516168Y-5146832D01*
X10395832Y-5146832D01*
X10395832Y-5267168D01*
X10516168Y-5267168D01*
X10516168Y-6968968D02*
X10516168Y-6848632D01*
X10395832Y-6848632D01*
X10395832Y-6968968D01*
X10516168Y-6968968D01*
X10518168Y-3568168D02*
X10518168Y-3447832D01*
X10397832Y-3447832D01*
X10397832Y-3568168D01*
X10518168Y-3568168D01*
X10519454Y-9263168D02*
X10519454Y-9142832D01*
X10399118Y-9142832D01*
X10399118Y-9263168D01*
X10519454Y-9263168D01*
X11472082Y-9813168D02*
X11472082Y-9692832D01*
X11351746Y-9692832D01*
X11351746Y-9813168D01*
X11472082Y-9813168D01*
D14*
X2708000Y-4779450D02*
X2879450Y-4608000D01*
X2708000Y-4436550D01*
X2536550Y-4608000D01*
X2708000Y-4779450D01*
X2708000Y-6479450D02*
X2879450Y-6308000D01*
X2708000Y-6136550D01*
X2536550Y-6308000D01*
X2708000Y-6479450D01*
X2708000Y-8179450D02*
X2879450Y-8008000D01*
X2708000Y-7836550D01*
X2536550Y-8008000D01*
X2708000Y-8179450D01*
X4508000Y-3579450D02*
X4679450Y-3408000D01*
X4508000Y-3236550D01*
X4336550Y-3408000D01*
X4508000Y-3579450D01*
X4508000Y-5276850D02*
X4679450Y-5105400D01*
X4508000Y-4933950D01*
X4336550Y-5105400D01*
X4508000Y-5276850D01*
X4508000Y-6978650D02*
X4679450Y-6807200D01*
X4508000Y-6635750D01*
X4336550Y-6807200D01*
X4508000Y-6978650D01*
X6308000Y-2879450D02*
X6479450Y-2708000D01*
X6308000Y-2536550D01*
X6136550Y-2708000D01*
X6308000Y-2879450D01*
X6308000Y-4591050D02*
X6479450Y-4419600D01*
X6308000Y-4248150D01*
X6136550Y-4419600D01*
X6308000Y-4591050D01*
X6308000Y-6292850D02*
X6479450Y-6121400D01*
X6308000Y-5949950D01*
X6136550Y-6121400D01*
X6308000Y-6292850D01*
X8108000Y-3429450D02*
X8279450Y-3258000D01*
X8108000Y-3086550D01*
X7936550Y-3258000D01*
X8108000Y-3429450D01*
X8108000Y-5124450D02*
X8279450Y-4953000D01*
X8108000Y-4781550D01*
X7936550Y-4953000D01*
X8108000Y-5124450D01*
X8108000Y-6826250D02*
X8279450Y-6654800D01*
X8108000Y-6483350D01*
X7936550Y-6654800D01*
X8108000Y-6826250D01*
X9079600Y-8874450D02*
X9251050Y-8703000D01*
X9079600Y-8531550D01*
X8908150Y-8703000D01*
X9079600Y-8874450D01*
X9906000Y-5378450D02*
X10077450Y-5207000D01*
X9906000Y-5035550D01*
X9734550Y-5207000D01*
X9906000Y-5378450D01*
X9906000Y-7080250D02*
X10077450Y-6908800D01*
X9906000Y-6737350D01*
X9734550Y-6908800D01*
X9906000Y-7080250D01*
X9908000Y-3679450D02*
X10079450Y-3508000D01*
X9908000Y-3336550D01*
X9736550Y-3508000D01*
X9908000Y-3679450D01*
X10935600Y-9649450D02*
X11107050Y-9478000D01*
X10935600Y-9306550D01*
X10764150Y-9478000D01*
X10935600Y-9649450D01*
D11*
X2127331Y-10820441D02*
X2127331Y-10620441D01*
X2127331Y-10620441D02*
X2174950Y-10620441D01*
X2174950Y-10620441D02*
X2203521Y-10629965D01*
X2203521Y-10629965D02*
X2222569Y-10649012D01*
X2222569Y-10649012D02*
X2232093Y-10668060D01*
X2232093Y-10668060D02*
X2241616Y-10706155D01*
X2241616Y-10706155D02*
X2241616Y-10734727D01*
X2241616Y-10734727D02*
X2232093Y-10772822D01*
X2232093Y-10772822D02*
X2222569Y-10791869D01*
X2222569Y-10791869D02*
X2203521Y-10810917D01*
X2203521Y-10810917D02*
X2174950Y-10820441D01*
X2174950Y-10820441D02*
X2127331Y-10820441D01*
X2327331Y-10820441D02*
X2327331Y-10687108D01*
X2327331Y-10725203D02*
X2336855Y-10706155D01*
X2336855Y-10706155D02*
X2346378Y-10696631D01*
X2346378Y-10696631D02*
X2365426Y-10687108D01*
X2365426Y-10687108D02*
X2384474Y-10687108D01*
X2451140Y-10820441D02*
X2451140Y-10687108D01*
X2451140Y-10620441D02*
X2441616Y-10629965D01*
X2441616Y-10629965D02*
X2451140Y-10639489D01*
X2451140Y-10639489D02*
X2460664Y-10629965D01*
X2460664Y-10629965D02*
X2451140Y-10620441D01*
X2451140Y-10620441D02*
X2451140Y-10639489D01*
X2574950Y-10820441D02*
X2555902Y-10810917D01*
X2555902Y-10810917D02*
X2546378Y-10791869D01*
X2546378Y-10791869D02*
X2546378Y-10620441D01*
X2679712Y-10820441D02*
X2660664Y-10810917D01*
X2660664Y-10810917D02*
X2651140Y-10791869D01*
X2651140Y-10791869D02*
X2651140Y-10620441D01*
X2908283Y-10820441D02*
X2908283Y-10620441D01*
X2908283Y-10620441D02*
X2974950Y-10763298D01*
X2974950Y-10763298D02*
X3041616Y-10620441D01*
X3041616Y-10620441D02*
X3041616Y-10820441D01*
X3222569Y-10820441D02*
X3222569Y-10715679D01*
X3222569Y-10715679D02*
X3213045Y-10696631D01*
X3213045Y-10696631D02*
X3193997Y-10687108D01*
X3193997Y-10687108D02*
X3155902Y-10687108D01*
X3155902Y-10687108D02*
X3136854Y-10696631D01*
X3222569Y-10810917D02*
X3203521Y-10820441D01*
X3203521Y-10820441D02*
X3155902Y-10820441D01*
X3155902Y-10820441D02*
X3136854Y-10810917D01*
X3136854Y-10810917D02*
X3127331Y-10791869D01*
X3127331Y-10791869D02*
X3127331Y-10772822D01*
X3127331Y-10772822D02*
X3136854Y-10753774D01*
X3136854Y-10753774D02*
X3155902Y-10744250D01*
X3155902Y-10744250D02*
X3203521Y-10744250D01*
X3203521Y-10744250D02*
X3222569Y-10734727D01*
X3317807Y-10687108D02*
X3317807Y-10887108D01*
X3317807Y-10696631D02*
X3336854Y-10687108D01*
X3336854Y-10687108D02*
X3374950Y-10687108D01*
X3374950Y-10687108D02*
X3393997Y-10696631D01*
X3393997Y-10696631D02*
X3403521Y-10706155D01*
X3403521Y-10706155D02*
X3413045Y-10725203D01*
X3413045Y-10725203D02*
X3413045Y-10782346D01*
X3413045Y-10782346D02*
X3403521Y-10801393D01*
X3403521Y-10801393D02*
X3393997Y-10810917D01*
X3393997Y-10810917D02*
X3374950Y-10820441D01*
X3374950Y-10820441D02*
X3336854Y-10820441D01*
X3336854Y-10820441D02*
X3317807Y-10810917D01*
X3498759Y-10801393D02*
X3508283Y-10810917D01*
X3508283Y-10810917D02*
X3498759Y-10820441D01*
X3498759Y-10820441D02*
X3489235Y-10810917D01*
X3489235Y-10810917D02*
X3498759Y-10801393D01*
X3498759Y-10801393D02*
X3498759Y-10820441D01*
X3498759Y-10696631D02*
X3508283Y-10706155D01*
X3508283Y-10706155D02*
X3498759Y-10715679D01*
X3498759Y-10715679D02*
X3489235Y-10706155D01*
X3489235Y-10706155D02*
X3498759Y-10696631D01*
X3498759Y-10696631D02*
X3498759Y-10715679D01*
D12*
X1786554Y-11108957D02*
X1866554Y-11188957D01*
X1866554Y-11108957D02*
X1786554Y-11188957D01*
D11*
X2165426Y-11040441D02*
X2184474Y-11040441D01*
X2184474Y-11040441D02*
X2203521Y-11049965D01*
X2203521Y-11049965D02*
X2213045Y-11059489D01*
X2213045Y-11059489D02*
X2222569Y-11078536D01*
X2222569Y-11078536D02*
X2232093Y-11116631D01*
X2232093Y-11116631D02*
X2232093Y-11164250D01*
X2232093Y-11164250D02*
X2222569Y-11202346D01*
X2222569Y-11202346D02*
X2213045Y-11221393D01*
X2213045Y-11221393D02*
X2203521Y-11230917D01*
X2203521Y-11230917D02*
X2184474Y-11240441D01*
X2184474Y-11240441D02*
X2165426Y-11240441D01*
X2165426Y-11240441D02*
X2146378Y-11230917D01*
X2146378Y-11230917D02*
X2136855Y-11221393D01*
X2136855Y-11221393D02*
X2127331Y-11202346D01*
X2127331Y-11202346D02*
X2117807Y-11164250D01*
X2117807Y-11164250D02*
X2117807Y-11116631D01*
X2117807Y-11116631D02*
X2127331Y-11078536D01*
X2127331Y-11078536D02*
X2136855Y-11059489D01*
X2136855Y-11059489D02*
X2146378Y-11049965D01*
X2146378Y-11049965D02*
X2165426Y-11040441D01*
X2317807Y-11221393D02*
X2327331Y-11230917D01*
X2327331Y-11230917D02*
X2317807Y-11240441D01*
X2317807Y-11240441D02*
X2308283Y-11230917D01*
X2308283Y-11230917D02*
X2317807Y-11221393D01*
X2317807Y-11221393D02*
X2317807Y-11240441D01*
X2441616Y-11126155D02*
X2422569Y-11116631D01*
X2422569Y-11116631D02*
X2413045Y-11107108D01*
X2413045Y-11107108D02*
X2403521Y-11088060D01*
X2403521Y-11088060D02*
X2403521Y-11078536D01*
X2403521Y-11078536D02*
X2413045Y-11059489D01*
X2413045Y-11059489D02*
X2422569Y-11049965D01*
X2422569Y-11049965D02*
X2441616Y-11040441D01*
X2441616Y-11040441D02*
X2479712Y-11040441D01*
X2479712Y-11040441D02*
X2498759Y-11049965D01*
X2498759Y-11049965D02*
X2508283Y-11059489D01*
X2508283Y-11059489D02*
X2517807Y-11078536D01*
X2517807Y-11078536D02*
X2517807Y-11088060D01*
X2517807Y-11088060D02*
X2508283Y-11107108D01*
X2508283Y-11107108D02*
X2498759Y-11116631D01*
X2498759Y-11116631D02*
X2479712Y-11126155D01*
X2479712Y-11126155D02*
X2441616Y-11126155D01*
X2441616Y-11126155D02*
X2422569Y-11135679D01*
X2422569Y-11135679D02*
X2413045Y-11145203D01*
X2413045Y-11145203D02*
X2403521Y-11164250D01*
X2403521Y-11164250D02*
X2403521Y-11202346D01*
X2403521Y-11202346D02*
X2413045Y-11221393D01*
X2413045Y-11221393D02*
X2422569Y-11230917D01*
X2422569Y-11230917D02*
X2441616Y-11240441D01*
X2441616Y-11240441D02*
X2479712Y-11240441D01*
X2479712Y-11240441D02*
X2498759Y-11230917D01*
X2498759Y-11230917D02*
X2508283Y-11221393D01*
X2508283Y-11221393D02*
X2517807Y-11202346D01*
X2517807Y-11202346D02*
X2517807Y-11164250D01*
X2517807Y-11164250D02*
X2508283Y-11145203D01*
X2508283Y-11145203D02*
X2498759Y-11135679D01*
X2498759Y-11135679D02*
X2479712Y-11126155D01*
X2641616Y-11040441D02*
X2660664Y-11040441D01*
X2660664Y-11040441D02*
X2679712Y-11049965D01*
X2679712Y-11049965D02*
X2689236Y-11059489D01*
X2689236Y-11059489D02*
X2698759Y-11078536D01*
X2698759Y-11078536D02*
X2708283Y-11116631D01*
X2708283Y-11116631D02*
X2708283Y-11164250D01*
X2708283Y-11164250D02*
X2698759Y-11202346D01*
X2698759Y-11202346D02*
X2689236Y-11221393D01*
X2689236Y-11221393D02*
X2679712Y-11230917D01*
X2679712Y-11230917D02*
X2660664Y-11240441D01*
X2660664Y-11240441D02*
X2641616Y-11240441D01*
X2641616Y-11240441D02*
X2622569Y-11230917D01*
X2622569Y-11230917D02*
X2613045Y-11221393D01*
X2613045Y-11221393D02*
X2603521Y-11202346D01*
X2603521Y-11202346D02*
X2593997Y-11164250D01*
X2593997Y-11164250D02*
X2593997Y-11116631D01*
X2593997Y-11116631D02*
X2603521Y-11078536D01*
X2603521Y-11078536D02*
X2613045Y-11059489D01*
X2613045Y-11059489D02*
X2622569Y-11049965D01*
X2622569Y-11049965D02*
X2641616Y-11040441D01*
X2832093Y-11040441D02*
X2851140Y-11040441D01*
X2851140Y-11040441D02*
X2870188Y-11049965D01*
X2870188Y-11049965D02*
X2879712Y-11059489D01*
X2879712Y-11059489D02*
X2889235Y-11078536D01*
X2889235Y-11078536D02*
X2898759Y-11116631D01*
X2898759Y-11116631D02*
X2898759Y-11164250D01*
X2898759Y-11164250D02*
X2889235Y-11202346D01*
X2889235Y-11202346D02*
X2879712Y-11221393D01*
X2879712Y-11221393D02*
X2870188Y-11230917D01*
X2870188Y-11230917D02*
X2851140Y-11240441D01*
X2851140Y-11240441D02*
X2832093Y-11240441D01*
X2832093Y-11240441D02*
X2813045Y-11230917D01*
X2813045Y-11230917D02*
X2803521Y-11221393D01*
X2803521Y-11221393D02*
X2793997Y-11202346D01*
X2793997Y-11202346D02*
X2784474Y-11164250D01*
X2784474Y-11164250D02*
X2784474Y-11116631D01*
X2784474Y-11116631D02*
X2793997Y-11078536D01*
X2793997Y-11078536D02*
X2803521Y-11059489D01*
X2803521Y-11059489D02*
X2813045Y-11049965D01*
X2813045Y-11049965D02*
X2832093Y-11040441D01*
X2984474Y-11240441D02*
X2984474Y-11107108D01*
X2984474Y-11126155D02*
X2993997Y-11116631D01*
X2993997Y-11116631D02*
X3013045Y-11107108D01*
X3013045Y-11107108D02*
X3041616Y-11107108D01*
X3041616Y-11107108D02*
X3060664Y-11116631D01*
X3060664Y-11116631D02*
X3070188Y-11135679D01*
X3070188Y-11135679D02*
X3070188Y-11240441D01*
X3070188Y-11135679D02*
X3079712Y-11116631D01*
X3079712Y-11116631D02*
X3098759Y-11107108D01*
X3098759Y-11107108D02*
X3127331Y-11107108D01*
X3127331Y-11107108D02*
X3146378Y-11116631D01*
X3146378Y-11116631D02*
X3155902Y-11135679D01*
X3155902Y-11135679D02*
X3155902Y-11240441D01*
X3251140Y-11240441D02*
X3251140Y-11107108D01*
X3251140Y-11126155D02*
X3260664Y-11116631D01*
X3260664Y-11116631D02*
X3279712Y-11107108D01*
X3279712Y-11107108D02*
X3308283Y-11107108D01*
X3308283Y-11107108D02*
X3327331Y-11116631D01*
X3327331Y-11116631D02*
X3336855Y-11135679D01*
X3336855Y-11135679D02*
X3336855Y-11240441D01*
X3336855Y-11135679D02*
X3346378Y-11116631D01*
X3346378Y-11116631D02*
X3365426Y-11107108D01*
X3365426Y-11107108D02*
X3393997Y-11107108D01*
X3393997Y-11107108D02*
X3413045Y-11116631D01*
X3413045Y-11116631D02*
X3422569Y-11135679D01*
X3422569Y-11135679D02*
X3422569Y-11240441D01*
X3813045Y-11030917D02*
X3641617Y-11288060D01*
X4070188Y-11040441D02*
X4089236Y-11040441D01*
X4089236Y-11040441D02*
X4108283Y-11049965D01*
X4108283Y-11049965D02*
X4117807Y-11059489D01*
X4117807Y-11059489D02*
X4127331Y-11078536D01*
X4127331Y-11078536D02*
X4136855Y-11116631D01*
X4136855Y-11116631D02*
X4136855Y-11164250D01*
X4136855Y-11164250D02*
X4127331Y-11202346D01*
X4127331Y-11202346D02*
X4117807Y-11221393D01*
X4117807Y-11221393D02*
X4108283Y-11230917D01*
X4108283Y-11230917D02*
X4089236Y-11240441D01*
X4089236Y-11240441D02*
X4070188Y-11240441D01*
X4070188Y-11240441D02*
X4051140Y-11230917D01*
X4051140Y-11230917D02*
X4041617Y-11221393D01*
X4041617Y-11221393D02*
X4032093Y-11202346D01*
X4032093Y-11202346D02*
X4022569Y-11164250D01*
X4022569Y-11164250D02*
X4022569Y-11116631D01*
X4022569Y-11116631D02*
X4032093Y-11078536D01*
X4032093Y-11078536D02*
X4041617Y-11059489D01*
X4041617Y-11059489D02*
X4051140Y-11049965D01*
X4051140Y-11049965D02*
X4070188Y-11040441D01*
X4222569Y-11221393D02*
X4232093Y-11230917D01*
X4232093Y-11230917D02*
X4222569Y-11240441D01*
X4222569Y-11240441D02*
X4213045Y-11230917D01*
X4213045Y-11230917D02*
X4222569Y-11221393D01*
X4222569Y-11221393D02*
X4222569Y-11240441D01*
X4355902Y-11040441D02*
X4374950Y-11040441D01*
X4374950Y-11040441D02*
X4393998Y-11049965D01*
X4393998Y-11049965D02*
X4403521Y-11059489D01*
X4403521Y-11059489D02*
X4413045Y-11078536D01*
X4413045Y-11078536D02*
X4422569Y-11116631D01*
X4422569Y-11116631D02*
X4422569Y-11164250D01*
X4422569Y-11164250D02*
X4413045Y-11202346D01*
X4413045Y-11202346D02*
X4403521Y-11221393D01*
X4403521Y-11221393D02*
X4393998Y-11230917D01*
X4393998Y-11230917D02*
X4374950Y-11240441D01*
X4374950Y-11240441D02*
X4355902Y-11240441D01*
X4355902Y-11240441D02*
X4336855Y-11230917D01*
X4336855Y-11230917D02*
X4327331Y-11221393D01*
X4327331Y-11221393D02*
X4317807Y-11202346D01*
X4317807Y-11202346D02*
X4308283Y-11164250D01*
X4308283Y-11164250D02*
X4308283Y-11116631D01*
X4308283Y-11116631D02*
X4317807Y-11078536D01*
X4317807Y-11078536D02*
X4327331Y-11059489D01*
X4327331Y-11059489D02*
X4336855Y-11049965D01*
X4336855Y-11049965D02*
X4355902Y-11040441D01*
X4489236Y-11040441D02*
X4613045Y-11040441D01*
X4613045Y-11040441D02*
X4546379Y-11116631D01*
X4546379Y-11116631D02*
X4574950Y-11116631D01*
X4574950Y-11116631D02*
X4593998Y-11126155D01*
X4593998Y-11126155D02*
X4603521Y-11135679D01*
X4603521Y-11135679D02*
X4613045Y-11154727D01*
X4613045Y-11154727D02*
X4613045Y-11202346D01*
X4613045Y-11202346D02*
X4603521Y-11221393D01*
X4603521Y-11221393D02*
X4593998Y-11230917D01*
X4593998Y-11230917D02*
X4574950Y-11240441D01*
X4574950Y-11240441D02*
X4517807Y-11240441D01*
X4517807Y-11240441D02*
X4498760Y-11230917D01*
X4498760Y-11230917D02*
X4489236Y-11221393D01*
X4803521Y-11240441D02*
X4689236Y-11240441D01*
X4746379Y-11240441D02*
X4746379Y-11040441D01*
X4746379Y-11040441D02*
X4727331Y-11069012D01*
X4727331Y-11069012D02*
X4708283Y-11088060D01*
X4708283Y-11088060D02*
X4689236Y-11097584D01*
X4984474Y-11040441D02*
X4889236Y-11040441D01*
X4889236Y-11040441D02*
X4879712Y-11135679D01*
X4879712Y-11135679D02*
X4889236Y-11126155D01*
X4889236Y-11126155D02*
X4908283Y-11116631D01*
X4908283Y-11116631D02*
X4955902Y-11116631D01*
X4955902Y-11116631D02*
X4974950Y-11126155D01*
X4974950Y-11126155D02*
X4984474Y-11135679D01*
X4984474Y-11135679D02*
X4993998Y-11154727D01*
X4993998Y-11154727D02*
X4993998Y-11202346D01*
X4993998Y-11202346D02*
X4984474Y-11221393D01*
X4984474Y-11221393D02*
X4974950Y-11230917D01*
X4974950Y-11230917D02*
X4955902Y-11240441D01*
X4955902Y-11240441D02*
X4908283Y-11240441D01*
X4908283Y-11240441D02*
X4889236Y-11230917D01*
X4889236Y-11230917D02*
X4879712Y-11221393D01*
X5070188Y-11040441D02*
X5070188Y-11078536D01*
X5146379Y-11040441D02*
X5146379Y-11078536D01*
X5441617Y-11316631D02*
X5432093Y-11307107D01*
X5432093Y-11307107D02*
X5413045Y-11278536D01*
X5413045Y-11278536D02*
X5403522Y-11259488D01*
X5403522Y-11259488D02*
X5393998Y-11230917D01*
X5393998Y-11230917D02*
X5384474Y-11183298D01*
X5384474Y-11183298D02*
X5384474Y-11145203D01*
X5384474Y-11145203D02*
X5393998Y-11097584D01*
X5393998Y-11097584D02*
X5403522Y-11069012D01*
X5403522Y-11069012D02*
X5413045Y-11049965D01*
X5413045Y-11049965D02*
X5432093Y-11021393D01*
X5432093Y-11021393D02*
X5441617Y-11011869D01*
X5508283Y-11059489D02*
X5517807Y-11049965D01*
X5517807Y-11049965D02*
X5536855Y-11040441D01*
X5536855Y-11040441D02*
X5584474Y-11040441D01*
X5584474Y-11040441D02*
X5603521Y-11049965D01*
X5603521Y-11049965D02*
X5613045Y-11059489D01*
X5613045Y-11059489D02*
X5622569Y-11078536D01*
X5622569Y-11078536D02*
X5622569Y-11097584D01*
X5622569Y-11097584D02*
X5613045Y-11126155D01*
X5613045Y-11126155D02*
X5498760Y-11240441D01*
X5498760Y-11240441D02*
X5622569Y-11240441D01*
X5860664Y-11240441D02*
X5860664Y-11040441D01*
X5946379Y-11240441D02*
X5946379Y-11135679D01*
X5946379Y-11135679D02*
X5936855Y-11116631D01*
X5936855Y-11116631D02*
X5917807Y-11107108D01*
X5917807Y-11107108D02*
X5889236Y-11107108D01*
X5889236Y-11107108D02*
X5870188Y-11116631D01*
X5870188Y-11116631D02*
X5860664Y-11126155D01*
X6070188Y-11240441D02*
X6051141Y-11230917D01*
X6051141Y-11230917D02*
X6041617Y-11221393D01*
X6041617Y-11221393D02*
X6032093Y-11202346D01*
X6032093Y-11202346D02*
X6032093Y-11145203D01*
X6032093Y-11145203D02*
X6041617Y-11126155D01*
X6041617Y-11126155D02*
X6051141Y-11116631D01*
X6051141Y-11116631D02*
X6070188Y-11107108D01*
X6070188Y-11107108D02*
X6098760Y-11107108D01*
X6098760Y-11107108D02*
X6117807Y-11116631D01*
X6117807Y-11116631D02*
X6127331Y-11126155D01*
X6127331Y-11126155D02*
X6136855Y-11145203D01*
X6136855Y-11145203D02*
X6136855Y-11202346D01*
X6136855Y-11202346D02*
X6127331Y-11221393D01*
X6127331Y-11221393D02*
X6117807Y-11230917D01*
X6117807Y-11230917D02*
X6098760Y-11240441D01*
X6098760Y-11240441D02*
X6070188Y-11240441D01*
X6251141Y-11240441D02*
X6232093Y-11230917D01*
X6232093Y-11230917D02*
X6222569Y-11211869D01*
X6222569Y-11211869D02*
X6222569Y-11040441D01*
X6403522Y-11230917D02*
X6384474Y-11240441D01*
X6384474Y-11240441D02*
X6346379Y-11240441D01*
X6346379Y-11240441D02*
X6327331Y-11230917D01*
X6327331Y-11230917D02*
X6317807Y-11211869D01*
X6317807Y-11211869D02*
X6317807Y-11135679D01*
X6317807Y-11135679D02*
X6327331Y-11116631D01*
X6327331Y-11116631D02*
X6346379Y-11107108D01*
X6346379Y-11107108D02*
X6384474Y-11107108D01*
X6384474Y-11107108D02*
X6403522Y-11116631D01*
X6403522Y-11116631D02*
X6413045Y-11135679D01*
X6413045Y-11135679D02*
X6413045Y-11154727D01*
X6413045Y-11154727D02*
X6317807Y-11173774D01*
X6489236Y-11230917D02*
X6508283Y-11240441D01*
X6508283Y-11240441D02*
X6546379Y-11240441D01*
X6546379Y-11240441D02*
X6565426Y-11230917D01*
X6565426Y-11230917D02*
X6574950Y-11211869D01*
X6574950Y-11211869D02*
X6574950Y-11202346D01*
X6574950Y-11202346D02*
X6565426Y-11183298D01*
X6565426Y-11183298D02*
X6546379Y-11173774D01*
X6546379Y-11173774D02*
X6517807Y-11173774D01*
X6517807Y-11173774D02*
X6498760Y-11164250D01*
X6498760Y-11164250D02*
X6489236Y-11145203D01*
X6489236Y-11145203D02*
X6489236Y-11135679D01*
X6489236Y-11135679D02*
X6498760Y-11116631D01*
X6498760Y-11116631D02*
X6517807Y-11107108D01*
X6517807Y-11107108D02*
X6546379Y-11107108D01*
X6546379Y-11107108D02*
X6565426Y-11116631D01*
X6641617Y-11316631D02*
X6651141Y-11307107D01*
X6651141Y-11307107D02*
X6670188Y-11278536D01*
X6670188Y-11278536D02*
X6679712Y-11259488D01*
X6679712Y-11259488D02*
X6689236Y-11230917D01*
X6689236Y-11230917D02*
X6698760Y-11183298D01*
X6698760Y-11183298D02*
X6698760Y-11145203D01*
X6698760Y-11145203D02*
X6689236Y-11097584D01*
X6689236Y-11097584D02*
X6679712Y-11069012D01*
X6679712Y-11069012D02*
X6670188Y-11049965D01*
X6670188Y-11049965D02*
X6651141Y-11021393D01*
X6651141Y-11021393D02*
X6641617Y-11011869D01*
X7003522Y-11316631D02*
X6993998Y-11307107D01*
X6993998Y-11307107D02*
X6974950Y-11278536D01*
X6974950Y-11278536D02*
X6965426Y-11259488D01*
X6965426Y-11259488D02*
X6955903Y-11230917D01*
X6955903Y-11230917D02*
X6946379Y-11183298D01*
X6946379Y-11183298D02*
X6946379Y-11145203D01*
X6946379Y-11145203D02*
X6955903Y-11097584D01*
X6955903Y-11097584D02*
X6965426Y-11069012D01*
X6965426Y-11069012D02*
X6974950Y-11049965D01*
X6974950Y-11049965D02*
X6993998Y-11021393D01*
X6993998Y-11021393D02*
X7003522Y-11011869D01*
X7079712Y-11107108D02*
X7079712Y-11240441D01*
X7079712Y-11126155D02*
X7089236Y-11116631D01*
X7089236Y-11116631D02*
X7108283Y-11107108D01*
X7108283Y-11107108D02*
X7136855Y-11107108D01*
X7136855Y-11107108D02*
X7155903Y-11116631D01*
X7155903Y-11116631D02*
X7165426Y-11135679D01*
X7165426Y-11135679D02*
X7165426Y-11240441D01*
X7289236Y-11240441D02*
X7270188Y-11230917D01*
X7270188Y-11230917D02*
X7260664Y-11221393D01*
X7260664Y-11221393D02*
X7251141Y-11202346D01*
X7251141Y-11202346D02*
X7251141Y-11145203D01*
X7251141Y-11145203D02*
X7260664Y-11126155D01*
X7260664Y-11126155D02*
X7270188Y-11116631D01*
X7270188Y-11116631D02*
X7289236Y-11107108D01*
X7289236Y-11107108D02*
X7317807Y-11107108D01*
X7317807Y-11107108D02*
X7336855Y-11116631D01*
X7336855Y-11116631D02*
X7346379Y-11126155D01*
X7346379Y-11126155D02*
X7355903Y-11145203D01*
X7355903Y-11145203D02*
X7355903Y-11202346D01*
X7355903Y-11202346D02*
X7346379Y-11221393D01*
X7346379Y-11221393D02*
X7336855Y-11230917D01*
X7336855Y-11230917D02*
X7317807Y-11240441D01*
X7317807Y-11240441D02*
X7289236Y-11240441D01*
X7413045Y-11107108D02*
X7489236Y-11107108D01*
X7441617Y-11040441D02*
X7441617Y-11211869D01*
X7441617Y-11211869D02*
X7451141Y-11230917D01*
X7451141Y-11230917D02*
X7470188Y-11240441D01*
X7470188Y-11240441D02*
X7489236Y-11240441D01*
X7708284Y-11107108D02*
X7708284Y-11307107D01*
X7708284Y-11116631D02*
X7727331Y-11107108D01*
X7727331Y-11107108D02*
X7765426Y-11107108D01*
X7765426Y-11107108D02*
X7784474Y-11116631D01*
X7784474Y-11116631D02*
X7793998Y-11126155D01*
X7793998Y-11126155D02*
X7803522Y-11145203D01*
X7803522Y-11145203D02*
X7803522Y-11202346D01*
X7803522Y-11202346D02*
X7793998Y-11221393D01*
X7793998Y-11221393D02*
X7784474Y-11230917D01*
X7784474Y-11230917D02*
X7765426Y-11240441D01*
X7765426Y-11240441D02*
X7727331Y-11240441D01*
X7727331Y-11240441D02*
X7708284Y-11230917D01*
X7917807Y-11240441D02*
X7898760Y-11230917D01*
X7898760Y-11230917D02*
X7889236Y-11211869D01*
X7889236Y-11211869D02*
X7889236Y-11040441D01*
X8079712Y-11240441D02*
X8079712Y-11135679D01*
X8079712Y-11135679D02*
X8070188Y-11116631D01*
X8070188Y-11116631D02*
X8051141Y-11107108D01*
X8051141Y-11107108D02*
X8013045Y-11107108D01*
X8013045Y-11107108D02*
X7993998Y-11116631D01*
X8079712Y-11230917D02*
X8060665Y-11240441D01*
X8060665Y-11240441D02*
X8013045Y-11240441D01*
X8013045Y-11240441D02*
X7993998Y-11230917D01*
X7993998Y-11230917D02*
X7984474Y-11211869D01*
X7984474Y-11211869D02*
X7984474Y-11192822D01*
X7984474Y-11192822D02*
X7993998Y-11173774D01*
X7993998Y-11173774D02*
X8013045Y-11164250D01*
X8013045Y-11164250D02*
X8060665Y-11164250D01*
X8060665Y-11164250D02*
X8079712Y-11154727D01*
X8146379Y-11107108D02*
X8222569Y-11107108D01*
X8174950Y-11040441D02*
X8174950Y-11211869D01*
X8174950Y-11211869D02*
X8184474Y-11230917D01*
X8184474Y-11230917D02*
X8203522Y-11240441D01*
X8203522Y-11240441D02*
X8222569Y-11240441D01*
X8365426Y-11230917D02*
X8346379Y-11240441D01*
X8346379Y-11240441D02*
X8308284Y-11240441D01*
X8308284Y-11240441D02*
X8289236Y-11230917D01*
X8289236Y-11230917D02*
X8279712Y-11211869D01*
X8279712Y-11211869D02*
X8279712Y-11135679D01*
X8279712Y-11135679D02*
X8289236Y-11116631D01*
X8289236Y-11116631D02*
X8308284Y-11107108D01*
X8308284Y-11107108D02*
X8346379Y-11107108D01*
X8346379Y-11107108D02*
X8365426Y-11116631D01*
X8365426Y-11116631D02*
X8374950Y-11135679D01*
X8374950Y-11135679D02*
X8374950Y-11154727D01*
X8374950Y-11154727D02*
X8279712Y-11173774D01*
X8546379Y-11240441D02*
X8546379Y-11040441D01*
X8546379Y-11230917D02*
X8527331Y-11240441D01*
X8527331Y-11240441D02*
X8489236Y-11240441D01*
X8489236Y-11240441D02*
X8470188Y-11230917D01*
X8470188Y-11230917D02*
X8460665Y-11221393D01*
X8460665Y-11221393D02*
X8451141Y-11202346D01*
X8451141Y-11202346D02*
X8451141Y-11145203D01*
X8451141Y-11145203D02*
X8460665Y-11126155D01*
X8460665Y-11126155D02*
X8470188Y-11116631D01*
X8470188Y-11116631D02*
X8489236Y-11107108D01*
X8489236Y-11107108D02*
X8527331Y-11107108D01*
X8527331Y-11107108D02*
X8546379Y-11116631D01*
X8622569Y-11316631D02*
X8632093Y-11307107D01*
X8632093Y-11307107D02*
X8651141Y-11278536D01*
X8651141Y-11278536D02*
X8660665Y-11259488D01*
X8660665Y-11259488D02*
X8670188Y-11230917D01*
X8670188Y-11230917D02*
X8679712Y-11183298D01*
X8679712Y-11183298D02*
X8679712Y-11145203D01*
X8679712Y-11145203D02*
X8670188Y-11097584D01*
X8670188Y-11097584D02*
X8660665Y-11069012D01*
X8660665Y-11069012D02*
X8651141Y-11049965D01*
X8651141Y-11049965D02*
X8632093Y-11021393D01*
X8632093Y-11021393D02*
X8622569Y-11011869D01*
D12*
X1866554Y-11412957D02*
G75*
G02*
X1776554Y-11412957I-45000J0D01*
G01*
X1776554Y-11412957D02*
G75*
G02*
X1866554Y-11412957I45000J0D01*
G01*
D11*
X2165426Y-11304441D02*
X2184474Y-11304441D01*
X2184474Y-11304441D02*
X2203521Y-11313965D01*
X2203521Y-11313965D02*
X2213045Y-11323488D01*
X2213045Y-11323488D02*
X2222569Y-11342536D01*
X2222569Y-11342536D02*
X2232093Y-11380631D01*
X2232093Y-11380631D02*
X2232093Y-11428250D01*
X2232093Y-11428250D02*
X2222569Y-11466346D01*
X2222569Y-11466346D02*
X2213045Y-11485393D01*
X2213045Y-11485393D02*
X2203521Y-11494917D01*
X2203521Y-11494917D02*
X2184474Y-11504441D01*
X2184474Y-11504441D02*
X2165426Y-11504441D01*
X2165426Y-11504441D02*
X2146378Y-11494917D01*
X2146378Y-11494917D02*
X2136855Y-11485393D01*
X2136855Y-11485393D02*
X2127331Y-11466346D01*
X2127331Y-11466346D02*
X2117807Y-11428250D01*
X2117807Y-11428250D02*
X2117807Y-11380631D01*
X2117807Y-11380631D02*
X2127331Y-11342536D01*
X2127331Y-11342536D02*
X2136855Y-11323488D01*
X2136855Y-11323488D02*
X2146378Y-11313965D01*
X2146378Y-11313965D02*
X2165426Y-11304441D01*
X2317807Y-11485393D02*
X2327331Y-11494917D01*
X2327331Y-11494917D02*
X2317807Y-11504441D01*
X2317807Y-11504441D02*
X2308283Y-11494917D01*
X2308283Y-11494917D02*
X2317807Y-11485393D01*
X2317807Y-11485393D02*
X2317807Y-11504441D01*
X2422569Y-11504441D02*
X2460664Y-11504441D01*
X2460664Y-11504441D02*
X2479712Y-11494917D01*
X2479712Y-11494917D02*
X2489236Y-11485393D01*
X2489236Y-11485393D02*
X2508283Y-11456822D01*
X2508283Y-11456822D02*
X2517807Y-11418727D01*
X2517807Y-11418727D02*
X2517807Y-11342536D01*
X2517807Y-11342536D02*
X2508283Y-11323488D01*
X2508283Y-11323488D02*
X2498759Y-11313965D01*
X2498759Y-11313965D02*
X2479712Y-11304441D01*
X2479712Y-11304441D02*
X2441616Y-11304441D01*
X2441616Y-11304441D02*
X2422569Y-11313965D01*
X2422569Y-11313965D02*
X2413045Y-11323488D01*
X2413045Y-11323488D02*
X2403521Y-11342536D01*
X2403521Y-11342536D02*
X2403521Y-11390155D01*
X2403521Y-11390155D02*
X2413045Y-11409203D01*
X2413045Y-11409203D02*
X2422569Y-11418727D01*
X2422569Y-11418727D02*
X2441616Y-11428250D01*
X2441616Y-11428250D02*
X2479712Y-11428250D01*
X2479712Y-11428250D02*
X2498759Y-11418727D01*
X2498759Y-11418727D02*
X2508283Y-11409203D01*
X2508283Y-11409203D02*
X2517807Y-11390155D01*
X2641616Y-11304441D02*
X2660664Y-11304441D01*
X2660664Y-11304441D02*
X2679712Y-11313965D01*
X2679712Y-11313965D02*
X2689236Y-11323488D01*
X2689236Y-11323488D02*
X2698759Y-11342536D01*
X2698759Y-11342536D02*
X2708283Y-11380631D01*
X2708283Y-11380631D02*
X2708283Y-11428250D01*
X2708283Y-11428250D02*
X2698759Y-11466346D01*
X2698759Y-11466346D02*
X2689236Y-11485393D01*
X2689236Y-11485393D02*
X2679712Y-11494917D01*
X2679712Y-11494917D02*
X2660664Y-11504441D01*
X2660664Y-11504441D02*
X2641616Y-11504441D01*
X2641616Y-11504441D02*
X2622569Y-11494917D01*
X2622569Y-11494917D02*
X2613045Y-11485393D01*
X2613045Y-11485393D02*
X2603521Y-11466346D01*
X2603521Y-11466346D02*
X2593997Y-11428250D01*
X2593997Y-11428250D02*
X2593997Y-11380631D01*
X2593997Y-11380631D02*
X2603521Y-11342536D01*
X2603521Y-11342536D02*
X2613045Y-11323488D01*
X2613045Y-11323488D02*
X2622569Y-11313965D01*
X2622569Y-11313965D02*
X2641616Y-11304441D01*
X2832093Y-11304441D02*
X2851140Y-11304441D01*
X2851140Y-11304441D02*
X2870188Y-11313965D01*
X2870188Y-11313965D02*
X2879712Y-11323488D01*
X2879712Y-11323488D02*
X2889235Y-11342536D01*
X2889235Y-11342536D02*
X2898759Y-11380631D01*
X2898759Y-11380631D02*
X2898759Y-11428250D01*
X2898759Y-11428250D02*
X2889235Y-11466346D01*
X2889235Y-11466346D02*
X2879712Y-11485393D01*
X2879712Y-11485393D02*
X2870188Y-11494917D01*
X2870188Y-11494917D02*
X2851140Y-11504441D01*
X2851140Y-11504441D02*
X2832093Y-11504441D01*
X2832093Y-11504441D02*
X2813045Y-11494917D01*
X2813045Y-11494917D02*
X2803521Y-11485393D01*
X2803521Y-11485393D02*
X2793997Y-11466346D01*
X2793997Y-11466346D02*
X2784474Y-11428250D01*
X2784474Y-11428250D02*
X2784474Y-11380631D01*
X2784474Y-11380631D02*
X2793997Y-11342536D01*
X2793997Y-11342536D02*
X2803521Y-11323488D01*
X2803521Y-11323488D02*
X2813045Y-11313965D01*
X2813045Y-11313965D02*
X2832093Y-11304441D01*
X2984474Y-11504441D02*
X2984474Y-11371107D01*
X2984474Y-11390155D02*
X2993997Y-11380631D01*
X2993997Y-11380631D02*
X3013045Y-11371107D01*
X3013045Y-11371107D02*
X3041616Y-11371107D01*
X3041616Y-11371107D02*
X3060664Y-11380631D01*
X3060664Y-11380631D02*
X3070188Y-11399679D01*
X3070188Y-11399679D02*
X3070188Y-11504441D01*
X3070188Y-11399679D02*
X3079712Y-11380631D01*
X3079712Y-11380631D02*
X3098759Y-11371107D01*
X3098759Y-11371107D02*
X3127331Y-11371107D01*
X3127331Y-11371107D02*
X3146378Y-11380631D01*
X3146378Y-11380631D02*
X3155902Y-11399679D01*
X3155902Y-11399679D02*
X3155902Y-11504441D01*
X3251140Y-11504441D02*
X3251140Y-11371107D01*
X3251140Y-11390155D02*
X3260664Y-11380631D01*
X3260664Y-11380631D02*
X3279712Y-11371107D01*
X3279712Y-11371107D02*
X3308283Y-11371107D01*
X3308283Y-11371107D02*
X3327331Y-11380631D01*
X3327331Y-11380631D02*
X3336855Y-11399679D01*
X3336855Y-11399679D02*
X3336855Y-11504441D01*
X3336855Y-11399679D02*
X3346378Y-11380631D01*
X3346378Y-11380631D02*
X3365426Y-11371107D01*
X3365426Y-11371107D02*
X3393997Y-11371107D01*
X3393997Y-11371107D02*
X3413045Y-11380631D01*
X3413045Y-11380631D02*
X3422569Y-11399679D01*
X3422569Y-11399679D02*
X3422569Y-11504441D01*
X3813045Y-11294917D02*
X3641617Y-11552060D01*
X4070188Y-11304441D02*
X4089236Y-11304441D01*
X4089236Y-11304441D02*
X4108283Y-11313965D01*
X4108283Y-11313965D02*
X4117807Y-11323488D01*
X4117807Y-11323488D02*
X4127331Y-11342536D01*
X4127331Y-11342536D02*
X4136855Y-11380631D01*
X4136855Y-11380631D02*
X4136855Y-11428250D01*
X4136855Y-11428250D02*
X4127331Y-11466346D01*
X4127331Y-11466346D02*
X4117807Y-11485393D01*
X4117807Y-11485393D02*
X4108283Y-11494917D01*
X4108283Y-11494917D02*
X4089236Y-11504441D01*
X4089236Y-11504441D02*
X4070188Y-11504441D01*
X4070188Y-11504441D02*
X4051140Y-11494917D01*
X4051140Y-11494917D02*
X4041617Y-11485393D01*
X4041617Y-11485393D02*
X4032093Y-11466346D01*
X4032093Y-11466346D02*
X4022569Y-11428250D01*
X4022569Y-11428250D02*
X4022569Y-11380631D01*
X4022569Y-11380631D02*
X4032093Y-11342536D01*
X4032093Y-11342536D02*
X4041617Y-11323488D01*
X4041617Y-11323488D02*
X4051140Y-11313965D01*
X4051140Y-11313965D02*
X4070188Y-11304441D01*
X4222569Y-11485393D02*
X4232093Y-11494917D01*
X4232093Y-11494917D02*
X4222569Y-11504441D01*
X4222569Y-11504441D02*
X4213045Y-11494917D01*
X4213045Y-11494917D02*
X4222569Y-11485393D01*
X4222569Y-11485393D02*
X4222569Y-11504441D01*
X4355902Y-11304441D02*
X4374950Y-11304441D01*
X4374950Y-11304441D02*
X4393998Y-11313965D01*
X4393998Y-11313965D02*
X4403521Y-11323488D01*
X4403521Y-11323488D02*
X4413045Y-11342536D01*
X4413045Y-11342536D02*
X4422569Y-11380631D01*
X4422569Y-11380631D02*
X4422569Y-11428250D01*
X4422569Y-11428250D02*
X4413045Y-11466346D01*
X4413045Y-11466346D02*
X4403521Y-11485393D01*
X4403521Y-11485393D02*
X4393998Y-11494917D01*
X4393998Y-11494917D02*
X4374950Y-11504441D01*
X4374950Y-11504441D02*
X4355902Y-11504441D01*
X4355902Y-11504441D02*
X4336855Y-11494917D01*
X4336855Y-11494917D02*
X4327331Y-11485393D01*
X4327331Y-11485393D02*
X4317807Y-11466346D01*
X4317807Y-11466346D02*
X4308283Y-11428250D01*
X4308283Y-11428250D02*
X4308283Y-11380631D01*
X4308283Y-11380631D02*
X4317807Y-11342536D01*
X4317807Y-11342536D02*
X4327331Y-11323488D01*
X4327331Y-11323488D02*
X4336855Y-11313965D01*
X4336855Y-11313965D02*
X4355902Y-11304441D01*
X4489236Y-11304441D02*
X4613045Y-11304441D01*
X4613045Y-11304441D02*
X4546379Y-11380631D01*
X4546379Y-11380631D02*
X4574950Y-11380631D01*
X4574950Y-11380631D02*
X4593998Y-11390155D01*
X4593998Y-11390155D02*
X4603521Y-11399679D01*
X4603521Y-11399679D02*
X4613045Y-11418727D01*
X4613045Y-11418727D02*
X4613045Y-11466346D01*
X4613045Y-11466346D02*
X4603521Y-11485393D01*
X4603521Y-11485393D02*
X4593998Y-11494917D01*
X4593998Y-11494917D02*
X4574950Y-11504441D01*
X4574950Y-11504441D02*
X4517807Y-11504441D01*
X4517807Y-11504441D02*
X4498760Y-11494917D01*
X4498760Y-11494917D02*
X4489236Y-11485393D01*
X4793998Y-11304441D02*
X4698760Y-11304441D01*
X4698760Y-11304441D02*
X4689236Y-11399679D01*
X4689236Y-11399679D02*
X4698760Y-11390155D01*
X4698760Y-11390155D02*
X4717807Y-11380631D01*
X4717807Y-11380631D02*
X4765426Y-11380631D01*
X4765426Y-11380631D02*
X4784474Y-11390155D01*
X4784474Y-11390155D02*
X4793998Y-11399679D01*
X4793998Y-11399679D02*
X4803521Y-11418727D01*
X4803521Y-11418727D02*
X4803521Y-11466346D01*
X4803521Y-11466346D02*
X4793998Y-11485393D01*
X4793998Y-11485393D02*
X4784474Y-11494917D01*
X4784474Y-11494917D02*
X4765426Y-11504441D01*
X4765426Y-11504441D02*
X4717807Y-11504441D01*
X4717807Y-11504441D02*
X4698760Y-11494917D01*
X4698760Y-11494917D02*
X4689236Y-11485393D01*
X4974950Y-11371107D02*
X4974950Y-11504441D01*
X4927331Y-11294917D02*
X4879712Y-11437774D01*
X4879712Y-11437774D02*
X5003521Y-11437774D01*
X5070188Y-11304441D02*
X5070188Y-11342536D01*
X5146379Y-11304441D02*
X5146379Y-11342536D01*
X5441617Y-11580631D02*
X5432093Y-11571107D01*
X5432093Y-11571107D02*
X5413045Y-11542536D01*
X5413045Y-11542536D02*
X5403522Y-11523488D01*
X5403522Y-11523488D02*
X5393998Y-11494917D01*
X5393998Y-11494917D02*
X5384474Y-11447298D01*
X5384474Y-11447298D02*
X5384474Y-11409203D01*
X5384474Y-11409203D02*
X5393998Y-11361584D01*
X5393998Y-11361584D02*
X5403522Y-11333012D01*
X5403522Y-11333012D02*
X5413045Y-11313965D01*
X5413045Y-11313965D02*
X5432093Y-11285393D01*
X5432093Y-11285393D02*
X5441617Y-11275869D01*
X5508283Y-11323488D02*
X5517807Y-11313965D01*
X5517807Y-11313965D02*
X5536855Y-11304441D01*
X5536855Y-11304441D02*
X5584474Y-11304441D01*
X5584474Y-11304441D02*
X5603521Y-11313965D01*
X5603521Y-11313965D02*
X5613045Y-11323488D01*
X5613045Y-11323488D02*
X5622569Y-11342536D01*
X5622569Y-11342536D02*
X5622569Y-11361584D01*
X5622569Y-11361584D02*
X5613045Y-11390155D01*
X5613045Y-11390155D02*
X5498760Y-11504441D01*
X5498760Y-11504441D02*
X5622569Y-11504441D01*
X5860664Y-11504441D02*
X5860664Y-11304441D01*
X5946379Y-11504441D02*
X5946379Y-11399679D01*
X5946379Y-11399679D02*
X5936855Y-11380631D01*
X5936855Y-11380631D02*
X5917807Y-11371107D01*
X5917807Y-11371107D02*
X5889236Y-11371107D01*
X5889236Y-11371107D02*
X5870188Y-11380631D01*
X5870188Y-11380631D02*
X5860664Y-11390155D01*
X6070188Y-11504441D02*
X6051141Y-11494917D01*
X6051141Y-11494917D02*
X6041617Y-11485393D01*
X6041617Y-11485393D02*
X6032093Y-11466346D01*
X6032093Y-11466346D02*
X6032093Y-11409203D01*
X6032093Y-11409203D02*
X6041617Y-11390155D01*
X6041617Y-11390155D02*
X6051141Y-11380631D01*
X6051141Y-11380631D02*
X6070188Y-11371107D01*
X6070188Y-11371107D02*
X6098760Y-11371107D01*
X6098760Y-11371107D02*
X6117807Y-11380631D01*
X6117807Y-11380631D02*
X6127331Y-11390155D01*
X6127331Y-11390155D02*
X6136855Y-11409203D01*
X6136855Y-11409203D02*
X6136855Y-11466346D01*
X6136855Y-11466346D02*
X6127331Y-11485393D01*
X6127331Y-11485393D02*
X6117807Y-11494917D01*
X6117807Y-11494917D02*
X6098760Y-11504441D01*
X6098760Y-11504441D02*
X6070188Y-11504441D01*
X6251141Y-11504441D02*
X6232093Y-11494917D01*
X6232093Y-11494917D02*
X6222569Y-11475869D01*
X6222569Y-11475869D02*
X6222569Y-11304441D01*
X6403522Y-11494917D02*
X6384474Y-11504441D01*
X6384474Y-11504441D02*
X6346379Y-11504441D01*
X6346379Y-11504441D02*
X6327331Y-11494917D01*
X6327331Y-11494917D02*
X6317807Y-11475869D01*
X6317807Y-11475869D02*
X6317807Y-11399679D01*
X6317807Y-11399679D02*
X6327331Y-11380631D01*
X6327331Y-11380631D02*
X6346379Y-11371107D01*
X6346379Y-11371107D02*
X6384474Y-11371107D01*
X6384474Y-11371107D02*
X6403522Y-11380631D01*
X6403522Y-11380631D02*
X6413045Y-11399679D01*
X6413045Y-11399679D02*
X6413045Y-11418727D01*
X6413045Y-11418727D02*
X6317807Y-11437774D01*
X6489236Y-11494917D02*
X6508283Y-11504441D01*
X6508283Y-11504441D02*
X6546379Y-11504441D01*
X6546379Y-11504441D02*
X6565426Y-11494917D01*
X6565426Y-11494917D02*
X6574950Y-11475869D01*
X6574950Y-11475869D02*
X6574950Y-11466346D01*
X6574950Y-11466346D02*
X6565426Y-11447298D01*
X6565426Y-11447298D02*
X6546379Y-11437774D01*
X6546379Y-11437774D02*
X6517807Y-11437774D01*
X6517807Y-11437774D02*
X6498760Y-11428250D01*
X6498760Y-11428250D02*
X6489236Y-11409203D01*
X6489236Y-11409203D02*
X6489236Y-11399679D01*
X6489236Y-11399679D02*
X6498760Y-11380631D01*
X6498760Y-11380631D02*
X6517807Y-11371107D01*
X6517807Y-11371107D02*
X6546379Y-11371107D01*
X6546379Y-11371107D02*
X6565426Y-11380631D01*
X6641617Y-11580631D02*
X6651141Y-11571107D01*
X6651141Y-11571107D02*
X6670188Y-11542536D01*
X6670188Y-11542536D02*
X6679712Y-11523488D01*
X6679712Y-11523488D02*
X6689236Y-11494917D01*
X6689236Y-11494917D02*
X6698760Y-11447298D01*
X6698760Y-11447298D02*
X6698760Y-11409203D01*
X6698760Y-11409203D02*
X6689236Y-11361584D01*
X6689236Y-11361584D02*
X6679712Y-11333012D01*
X6679712Y-11333012D02*
X6670188Y-11313965D01*
X6670188Y-11313965D02*
X6651141Y-11285393D01*
X6651141Y-11285393D02*
X6641617Y-11275869D01*
X7003522Y-11580631D02*
X6993998Y-11571107D01*
X6993998Y-11571107D02*
X6974950Y-11542536D01*
X6974950Y-11542536D02*
X6965426Y-11523488D01*
X6965426Y-11523488D02*
X6955903Y-11494917D01*
X6955903Y-11494917D02*
X6946379Y-11447298D01*
X6946379Y-11447298D02*
X6946379Y-11409203D01*
X6946379Y-11409203D02*
X6955903Y-11361584D01*
X6955903Y-11361584D02*
X6965426Y-11333012D01*
X6965426Y-11333012D02*
X6974950Y-11313965D01*
X6974950Y-11313965D02*
X6993998Y-11285393D01*
X6993998Y-11285393D02*
X7003522Y-11275869D01*
X7079712Y-11371107D02*
X7079712Y-11504441D01*
X7079712Y-11390155D02*
X7089236Y-11380631D01*
X7089236Y-11380631D02*
X7108283Y-11371107D01*
X7108283Y-11371107D02*
X7136855Y-11371107D01*
X7136855Y-11371107D02*
X7155903Y-11380631D01*
X7155903Y-11380631D02*
X7165426Y-11399679D01*
X7165426Y-11399679D02*
X7165426Y-11504441D01*
X7289236Y-11504441D02*
X7270188Y-11494917D01*
X7270188Y-11494917D02*
X7260664Y-11485393D01*
X7260664Y-11485393D02*
X7251141Y-11466346D01*
X7251141Y-11466346D02*
X7251141Y-11409203D01*
X7251141Y-11409203D02*
X7260664Y-11390155D01*
X7260664Y-11390155D02*
X7270188Y-11380631D01*
X7270188Y-11380631D02*
X7289236Y-11371107D01*
X7289236Y-11371107D02*
X7317807Y-11371107D01*
X7317807Y-11371107D02*
X7336855Y-11380631D01*
X7336855Y-11380631D02*
X7346379Y-11390155D01*
X7346379Y-11390155D02*
X7355903Y-11409203D01*
X7355903Y-11409203D02*
X7355903Y-11466346D01*
X7355903Y-11466346D02*
X7346379Y-11485393D01*
X7346379Y-11485393D02*
X7336855Y-11494917D01*
X7336855Y-11494917D02*
X7317807Y-11504441D01*
X7317807Y-11504441D02*
X7289236Y-11504441D01*
X7413045Y-11371107D02*
X7489236Y-11371107D01*
X7441617Y-11304441D02*
X7441617Y-11475869D01*
X7441617Y-11475869D02*
X7451141Y-11494917D01*
X7451141Y-11494917D02*
X7470188Y-11504441D01*
X7470188Y-11504441D02*
X7489236Y-11504441D01*
X7708284Y-11371107D02*
X7708284Y-11571107D01*
X7708284Y-11380631D02*
X7727331Y-11371107D01*
X7727331Y-11371107D02*
X7765426Y-11371107D01*
X7765426Y-11371107D02*
X7784474Y-11380631D01*
X7784474Y-11380631D02*
X7793998Y-11390155D01*
X7793998Y-11390155D02*
X7803522Y-11409203D01*
X7803522Y-11409203D02*
X7803522Y-11466346D01*
X7803522Y-11466346D02*
X7793998Y-11485393D01*
X7793998Y-11485393D02*
X7784474Y-11494917D01*
X7784474Y-11494917D02*
X7765426Y-11504441D01*
X7765426Y-11504441D02*
X7727331Y-11504441D01*
X7727331Y-11504441D02*
X7708284Y-11494917D01*
X7917807Y-11504441D02*
X7898760Y-11494917D01*
X7898760Y-11494917D02*
X7889236Y-11475869D01*
X7889236Y-11475869D02*
X7889236Y-11304441D01*
X8079712Y-11504441D02*
X8079712Y-11399679D01*
X8079712Y-11399679D02*
X8070188Y-11380631D01*
X8070188Y-11380631D02*
X8051141Y-11371107D01*
X8051141Y-11371107D02*
X8013045Y-11371107D01*
X8013045Y-11371107D02*
X7993998Y-11380631D01*
X8079712Y-11494917D02*
X8060665Y-11504441D01*
X8060665Y-11504441D02*
X8013045Y-11504441D01*
X8013045Y-11504441D02*
X7993998Y-11494917D01*
X7993998Y-11494917D02*
X7984474Y-11475869D01*
X7984474Y-11475869D02*
X7984474Y-11456822D01*
X7984474Y-11456822D02*
X7993998Y-11437774D01*
X7993998Y-11437774D02*
X8013045Y-11428250D01*
X8013045Y-11428250D02*
X8060665Y-11428250D01*
X8060665Y-11428250D02*
X8079712Y-11418727D01*
X8146379Y-11371107D02*
X8222569Y-11371107D01*
X8174950Y-11304441D02*
X8174950Y-11475869D01*
X8174950Y-11475869D02*
X8184474Y-11494917D01*
X8184474Y-11494917D02*
X8203522Y-11504441D01*
X8203522Y-11504441D02*
X8222569Y-11504441D01*
X8365426Y-11494917D02*
X8346379Y-11504441D01*
X8346379Y-11504441D02*
X8308284Y-11504441D01*
X8308284Y-11504441D02*
X8289236Y-11494917D01*
X8289236Y-11494917D02*
X8279712Y-11475869D01*
X8279712Y-11475869D02*
X8279712Y-11399679D01*
X8279712Y-11399679D02*
X8289236Y-11380631D01*
X8289236Y-11380631D02*
X8308284Y-11371107D01*
X8308284Y-11371107D02*
X8346379Y-11371107D01*
X8346379Y-11371107D02*
X8365426Y-11380631D01*
X8365426Y-11380631D02*
X8374950Y-11399679D01*
X8374950Y-11399679D02*
X8374950Y-11418727D01*
X8374950Y-11418727D02*
X8279712Y-11437774D01*
X8546379Y-11504441D02*
X8546379Y-11304441D01*
X8546379Y-11494917D02*
X8527331Y-11504441D01*
X8527331Y-11504441D02*
X8489236Y-11504441D01*
X8489236Y-11504441D02*
X8470188Y-11494917D01*
X8470188Y-11494917D02*
X8460665Y-11485393D01*
X8460665Y-11485393D02*
X8451141Y-11466346D01*
X8451141Y-11466346D02*
X8451141Y-11409203D01*
X8451141Y-11409203D02*
X8460665Y-11390155D01*
X8460665Y-11390155D02*
X8470188Y-11380631D01*
X8470188Y-11380631D02*
X8489236Y-11371107D01*
X8489236Y-11371107D02*
X8527331Y-11371107D01*
X8527331Y-11371107D02*
X8546379Y-11380631D01*
X8622569Y-11580631D02*
X8632093Y-11571107D01*
X8632093Y-11571107D02*
X8651141Y-11542536D01*
X8651141Y-11542536D02*
X8660665Y-11523488D01*
X8660665Y-11523488D02*
X8670188Y-11494917D01*
X8670188Y-11494917D02*
X8679712Y-11447298D01*
X8679712Y-11447298D02*
X8679712Y-11409203D01*
X8679712Y-11409203D02*
X8670188Y-11361584D01*
X8670188Y-11361584D02*
X8660665Y-11333012D01*
X8660665Y-11333012D02*
X8651141Y-11313965D01*
X8651141Y-11313965D02*
X8632093Y-11285393D01*
X8632093Y-11285393D02*
X8622569Y-11275869D01*
D12*
X1817024Y-11627427D02*
X1817024Y-11726487D01*
X1767494Y-11676957D02*
X1866554Y-11676957D01*
D11*
X2165426Y-11568441D02*
X2184474Y-11568441D01*
X2184474Y-11568441D02*
X2203521Y-11577965D01*
X2203521Y-11577965D02*
X2213045Y-11587488D01*
X2213045Y-11587488D02*
X2222569Y-11606536D01*
X2222569Y-11606536D02*
X2232093Y-11644631D01*
X2232093Y-11644631D02*
X2232093Y-11692250D01*
X2232093Y-11692250D02*
X2222569Y-11730346D01*
X2222569Y-11730346D02*
X2213045Y-11749393D01*
X2213045Y-11749393D02*
X2203521Y-11758917D01*
X2203521Y-11758917D02*
X2184474Y-11768441D01*
X2184474Y-11768441D02*
X2165426Y-11768441D01*
X2165426Y-11768441D02*
X2146378Y-11758917D01*
X2146378Y-11758917D02*
X2136855Y-11749393D01*
X2136855Y-11749393D02*
X2127331Y-11730346D01*
X2127331Y-11730346D02*
X2117807Y-11692250D01*
X2117807Y-11692250D02*
X2117807Y-11644631D01*
X2117807Y-11644631D02*
X2127331Y-11606536D01*
X2127331Y-11606536D02*
X2136855Y-11587488D01*
X2136855Y-11587488D02*
X2146378Y-11577965D01*
X2146378Y-11577965D02*
X2165426Y-11568441D01*
X2317807Y-11749393D02*
X2327331Y-11758917D01*
X2327331Y-11758917D02*
X2317807Y-11768441D01*
X2317807Y-11768441D02*
X2308283Y-11758917D01*
X2308283Y-11758917D02*
X2317807Y-11749393D01*
X2317807Y-11749393D02*
X2317807Y-11768441D01*
X2422569Y-11768441D02*
X2460664Y-11768441D01*
X2460664Y-11768441D02*
X2479712Y-11758917D01*
X2479712Y-11758917D02*
X2489236Y-11749393D01*
X2489236Y-11749393D02*
X2508283Y-11720822D01*
X2508283Y-11720822D02*
X2517807Y-11682727D01*
X2517807Y-11682727D02*
X2517807Y-11606536D01*
X2517807Y-11606536D02*
X2508283Y-11587488D01*
X2508283Y-11587488D02*
X2498759Y-11577965D01*
X2498759Y-11577965D02*
X2479712Y-11568441D01*
X2479712Y-11568441D02*
X2441616Y-11568441D01*
X2441616Y-11568441D02*
X2422569Y-11577965D01*
X2422569Y-11577965D02*
X2413045Y-11587488D01*
X2413045Y-11587488D02*
X2403521Y-11606536D01*
X2403521Y-11606536D02*
X2403521Y-11654155D01*
X2403521Y-11654155D02*
X2413045Y-11673203D01*
X2413045Y-11673203D02*
X2422569Y-11682727D01*
X2422569Y-11682727D02*
X2441616Y-11692250D01*
X2441616Y-11692250D02*
X2479712Y-11692250D01*
X2479712Y-11692250D02*
X2498759Y-11682727D01*
X2498759Y-11682727D02*
X2508283Y-11673203D01*
X2508283Y-11673203D02*
X2517807Y-11654155D01*
X2613045Y-11768441D02*
X2651140Y-11768441D01*
X2651140Y-11768441D02*
X2670188Y-11758917D01*
X2670188Y-11758917D02*
X2679712Y-11749393D01*
X2679712Y-11749393D02*
X2698759Y-11720822D01*
X2698759Y-11720822D02*
X2708283Y-11682727D01*
X2708283Y-11682727D02*
X2708283Y-11606536D01*
X2708283Y-11606536D02*
X2698759Y-11587488D01*
X2698759Y-11587488D02*
X2689236Y-11577965D01*
X2689236Y-11577965D02*
X2670188Y-11568441D01*
X2670188Y-11568441D02*
X2632093Y-11568441D01*
X2632093Y-11568441D02*
X2613045Y-11577965D01*
X2613045Y-11577965D02*
X2603521Y-11587488D01*
X2603521Y-11587488D02*
X2593997Y-11606536D01*
X2593997Y-11606536D02*
X2593997Y-11654155D01*
X2593997Y-11654155D02*
X2603521Y-11673203D01*
X2603521Y-11673203D02*
X2613045Y-11682727D01*
X2613045Y-11682727D02*
X2632093Y-11692250D01*
X2632093Y-11692250D02*
X2670188Y-11692250D01*
X2670188Y-11692250D02*
X2689236Y-11682727D01*
X2689236Y-11682727D02*
X2698759Y-11673203D01*
X2698759Y-11673203D02*
X2708283Y-11654155D01*
X2898759Y-11768441D02*
X2784474Y-11768441D01*
X2841616Y-11768441D02*
X2841616Y-11568441D01*
X2841616Y-11568441D02*
X2822569Y-11597012D01*
X2822569Y-11597012D02*
X2803521Y-11616060D01*
X2803521Y-11616060D02*
X2784474Y-11625584D01*
X2984474Y-11768441D02*
X2984474Y-11635107D01*
X2984474Y-11654155D02*
X2993997Y-11644631D01*
X2993997Y-11644631D02*
X3013045Y-11635107D01*
X3013045Y-11635107D02*
X3041616Y-11635107D01*
X3041616Y-11635107D02*
X3060664Y-11644631D01*
X3060664Y-11644631D02*
X3070188Y-11663679D01*
X3070188Y-11663679D02*
X3070188Y-11768441D01*
X3070188Y-11663679D02*
X3079712Y-11644631D01*
X3079712Y-11644631D02*
X3098759Y-11635107D01*
X3098759Y-11635107D02*
X3127331Y-11635107D01*
X3127331Y-11635107D02*
X3146378Y-11644631D01*
X3146378Y-11644631D02*
X3155902Y-11663679D01*
X3155902Y-11663679D02*
X3155902Y-11768441D01*
X3251140Y-11768441D02*
X3251140Y-11635107D01*
X3251140Y-11654155D02*
X3260664Y-11644631D01*
X3260664Y-11644631D02*
X3279712Y-11635107D01*
X3279712Y-11635107D02*
X3308283Y-11635107D01*
X3308283Y-11635107D02*
X3327331Y-11644631D01*
X3327331Y-11644631D02*
X3336855Y-11663679D01*
X3336855Y-11663679D02*
X3336855Y-11768441D01*
X3336855Y-11663679D02*
X3346378Y-11644631D01*
X3346378Y-11644631D02*
X3365426Y-11635107D01*
X3365426Y-11635107D02*
X3393997Y-11635107D01*
X3393997Y-11635107D02*
X3413045Y-11644631D01*
X3413045Y-11644631D02*
X3422569Y-11663679D01*
X3422569Y-11663679D02*
X3422569Y-11768441D01*
X3813045Y-11558917D02*
X3641617Y-11816060D01*
X4070188Y-11568441D02*
X4089236Y-11568441D01*
X4089236Y-11568441D02*
X4108283Y-11577965D01*
X4108283Y-11577965D02*
X4117807Y-11587488D01*
X4117807Y-11587488D02*
X4127331Y-11606536D01*
X4127331Y-11606536D02*
X4136855Y-11644631D01*
X4136855Y-11644631D02*
X4136855Y-11692250D01*
X4136855Y-11692250D02*
X4127331Y-11730346D01*
X4127331Y-11730346D02*
X4117807Y-11749393D01*
X4117807Y-11749393D02*
X4108283Y-11758917D01*
X4108283Y-11758917D02*
X4089236Y-11768441D01*
X4089236Y-11768441D02*
X4070188Y-11768441D01*
X4070188Y-11768441D02*
X4051140Y-11758917D01*
X4051140Y-11758917D02*
X4041617Y-11749393D01*
X4041617Y-11749393D02*
X4032093Y-11730346D01*
X4032093Y-11730346D02*
X4022569Y-11692250D01*
X4022569Y-11692250D02*
X4022569Y-11644631D01*
X4022569Y-11644631D02*
X4032093Y-11606536D01*
X4032093Y-11606536D02*
X4041617Y-11587488D01*
X4041617Y-11587488D02*
X4051140Y-11577965D01*
X4051140Y-11577965D02*
X4070188Y-11568441D01*
X4222569Y-11749393D02*
X4232093Y-11758917D01*
X4232093Y-11758917D02*
X4222569Y-11768441D01*
X4222569Y-11768441D02*
X4213045Y-11758917D01*
X4213045Y-11758917D02*
X4222569Y-11749393D01*
X4222569Y-11749393D02*
X4222569Y-11768441D01*
X4355902Y-11568441D02*
X4374950Y-11568441D01*
X4374950Y-11568441D02*
X4393998Y-11577965D01*
X4393998Y-11577965D02*
X4403521Y-11587488D01*
X4403521Y-11587488D02*
X4413045Y-11606536D01*
X4413045Y-11606536D02*
X4422569Y-11644631D01*
X4422569Y-11644631D02*
X4422569Y-11692250D01*
X4422569Y-11692250D02*
X4413045Y-11730346D01*
X4413045Y-11730346D02*
X4403521Y-11749393D01*
X4403521Y-11749393D02*
X4393998Y-11758917D01*
X4393998Y-11758917D02*
X4374950Y-11768441D01*
X4374950Y-11768441D02*
X4355902Y-11768441D01*
X4355902Y-11768441D02*
X4336855Y-11758917D01*
X4336855Y-11758917D02*
X4327331Y-11749393D01*
X4327331Y-11749393D02*
X4317807Y-11730346D01*
X4317807Y-11730346D02*
X4308283Y-11692250D01*
X4308283Y-11692250D02*
X4308283Y-11644631D01*
X4308283Y-11644631D02*
X4317807Y-11606536D01*
X4317807Y-11606536D02*
X4327331Y-11587488D01*
X4327331Y-11587488D02*
X4336855Y-11577965D01*
X4336855Y-11577965D02*
X4355902Y-11568441D01*
X4489236Y-11568441D02*
X4613045Y-11568441D01*
X4613045Y-11568441D02*
X4546379Y-11644631D01*
X4546379Y-11644631D02*
X4574950Y-11644631D01*
X4574950Y-11644631D02*
X4593998Y-11654155D01*
X4593998Y-11654155D02*
X4603521Y-11663679D01*
X4603521Y-11663679D02*
X4613045Y-11682727D01*
X4613045Y-11682727D02*
X4613045Y-11730346D01*
X4613045Y-11730346D02*
X4603521Y-11749393D01*
X4603521Y-11749393D02*
X4593998Y-11758917D01*
X4593998Y-11758917D02*
X4574950Y-11768441D01*
X4574950Y-11768441D02*
X4517807Y-11768441D01*
X4517807Y-11768441D02*
X4498760Y-11758917D01*
X4498760Y-11758917D02*
X4489236Y-11749393D01*
X4708283Y-11768441D02*
X4746379Y-11768441D01*
X4746379Y-11768441D02*
X4765426Y-11758917D01*
X4765426Y-11758917D02*
X4774950Y-11749393D01*
X4774950Y-11749393D02*
X4793998Y-11720822D01*
X4793998Y-11720822D02*
X4803521Y-11682727D01*
X4803521Y-11682727D02*
X4803521Y-11606536D01*
X4803521Y-11606536D02*
X4793998Y-11587488D01*
X4793998Y-11587488D02*
X4784474Y-11577965D01*
X4784474Y-11577965D02*
X4765426Y-11568441D01*
X4765426Y-11568441D02*
X4727331Y-11568441D01*
X4727331Y-11568441D02*
X4708283Y-11577965D01*
X4708283Y-11577965D02*
X4698760Y-11587488D01*
X4698760Y-11587488D02*
X4689236Y-11606536D01*
X4689236Y-11606536D02*
X4689236Y-11654155D01*
X4689236Y-11654155D02*
X4698760Y-11673203D01*
X4698760Y-11673203D02*
X4708283Y-11682727D01*
X4708283Y-11682727D02*
X4727331Y-11692250D01*
X4727331Y-11692250D02*
X4765426Y-11692250D01*
X4765426Y-11692250D02*
X4784474Y-11682727D01*
X4784474Y-11682727D02*
X4793998Y-11673203D01*
X4793998Y-11673203D02*
X4803521Y-11654155D01*
X4927331Y-11568441D02*
X4946379Y-11568441D01*
X4946379Y-11568441D02*
X4965426Y-11577965D01*
X4965426Y-11577965D02*
X4974950Y-11587488D01*
X4974950Y-11587488D02*
X4984474Y-11606536D01*
X4984474Y-11606536D02*
X4993998Y-11644631D01*
X4993998Y-11644631D02*
X4993998Y-11692250D01*
X4993998Y-11692250D02*
X4984474Y-11730346D01*
X4984474Y-11730346D02*
X4974950Y-11749393D01*
X4974950Y-11749393D02*
X4965426Y-11758917D01*
X4965426Y-11758917D02*
X4946379Y-11768441D01*
X4946379Y-11768441D02*
X4927331Y-11768441D01*
X4927331Y-11768441D02*
X4908283Y-11758917D01*
X4908283Y-11758917D02*
X4898760Y-11749393D01*
X4898760Y-11749393D02*
X4889236Y-11730346D01*
X4889236Y-11730346D02*
X4879712Y-11692250D01*
X4879712Y-11692250D02*
X4879712Y-11644631D01*
X4879712Y-11644631D02*
X4889236Y-11606536D01*
X4889236Y-11606536D02*
X4898760Y-11587488D01*
X4898760Y-11587488D02*
X4908283Y-11577965D01*
X4908283Y-11577965D02*
X4927331Y-11568441D01*
X5070188Y-11568441D02*
X5070188Y-11606536D01*
X5146379Y-11568441D02*
X5146379Y-11606536D01*
X5441617Y-11844631D02*
X5432093Y-11835107D01*
X5432093Y-11835107D02*
X5413045Y-11806536D01*
X5413045Y-11806536D02*
X5403522Y-11787488D01*
X5403522Y-11787488D02*
X5393998Y-11758917D01*
X5393998Y-11758917D02*
X5384474Y-11711298D01*
X5384474Y-11711298D02*
X5384474Y-11673203D01*
X5384474Y-11673203D02*
X5393998Y-11625584D01*
X5393998Y-11625584D02*
X5403522Y-11597012D01*
X5403522Y-11597012D02*
X5413045Y-11577965D01*
X5413045Y-11577965D02*
X5432093Y-11549393D01*
X5432093Y-11549393D02*
X5441617Y-11539869D01*
X5498760Y-11568441D02*
X5622569Y-11568441D01*
X5622569Y-11568441D02*
X5555902Y-11644631D01*
X5555902Y-11644631D02*
X5584474Y-11644631D01*
X5584474Y-11644631D02*
X5603521Y-11654155D01*
X5603521Y-11654155D02*
X5613045Y-11663679D01*
X5613045Y-11663679D02*
X5622569Y-11682727D01*
X5622569Y-11682727D02*
X5622569Y-11730346D01*
X5622569Y-11730346D02*
X5613045Y-11749393D01*
X5613045Y-11749393D02*
X5603521Y-11758917D01*
X5603521Y-11758917D02*
X5584474Y-11768441D01*
X5584474Y-11768441D02*
X5527331Y-11768441D01*
X5527331Y-11768441D02*
X5508283Y-11758917D01*
X5508283Y-11758917D02*
X5498760Y-11749393D01*
X5793998Y-11635107D02*
X5793998Y-11768441D01*
X5746379Y-11558917D02*
X5698760Y-11701774D01*
X5698760Y-11701774D02*
X5822569Y-11701774D01*
X6051141Y-11768441D02*
X6051141Y-11568441D01*
X6136855Y-11768441D02*
X6136855Y-11663679D01*
X6136855Y-11663679D02*
X6127331Y-11644631D01*
X6127331Y-11644631D02*
X6108283Y-11635107D01*
X6108283Y-11635107D02*
X6079712Y-11635107D01*
X6079712Y-11635107D02*
X6060664Y-11644631D01*
X6060664Y-11644631D02*
X6051141Y-11654155D01*
X6260664Y-11768441D02*
X6241617Y-11758917D01*
X6241617Y-11758917D02*
X6232093Y-11749393D01*
X6232093Y-11749393D02*
X6222569Y-11730346D01*
X6222569Y-11730346D02*
X6222569Y-11673203D01*
X6222569Y-11673203D02*
X6232093Y-11654155D01*
X6232093Y-11654155D02*
X6241617Y-11644631D01*
X6241617Y-11644631D02*
X6260664Y-11635107D01*
X6260664Y-11635107D02*
X6289236Y-11635107D01*
X6289236Y-11635107D02*
X6308283Y-11644631D01*
X6308283Y-11644631D02*
X6317807Y-11654155D01*
X6317807Y-11654155D02*
X6327331Y-11673203D01*
X6327331Y-11673203D02*
X6327331Y-11730346D01*
X6327331Y-11730346D02*
X6317807Y-11749393D01*
X6317807Y-11749393D02*
X6308283Y-11758917D01*
X6308283Y-11758917D02*
X6289236Y-11768441D01*
X6289236Y-11768441D02*
X6260664Y-11768441D01*
X6441617Y-11768441D02*
X6422569Y-11758917D01*
X6422569Y-11758917D02*
X6413045Y-11739869D01*
X6413045Y-11739869D02*
X6413045Y-11568441D01*
X6593998Y-11758917D02*
X6574950Y-11768441D01*
X6574950Y-11768441D02*
X6536855Y-11768441D01*
X6536855Y-11768441D02*
X6517807Y-11758917D01*
X6517807Y-11758917D02*
X6508283Y-11739869D01*
X6508283Y-11739869D02*
X6508283Y-11663679D01*
X6508283Y-11663679D02*
X6517807Y-11644631D01*
X6517807Y-11644631D02*
X6536855Y-11635107D01*
X6536855Y-11635107D02*
X6574950Y-11635107D01*
X6574950Y-11635107D02*
X6593998Y-11644631D01*
X6593998Y-11644631D02*
X6603522Y-11663679D01*
X6603522Y-11663679D02*
X6603522Y-11682727D01*
X6603522Y-11682727D02*
X6508283Y-11701774D01*
X6679712Y-11758917D02*
X6698760Y-11768441D01*
X6698760Y-11768441D02*
X6736855Y-11768441D01*
X6736855Y-11768441D02*
X6755903Y-11758917D01*
X6755903Y-11758917D02*
X6765426Y-11739869D01*
X6765426Y-11739869D02*
X6765426Y-11730346D01*
X6765426Y-11730346D02*
X6755903Y-11711298D01*
X6755903Y-11711298D02*
X6736855Y-11701774D01*
X6736855Y-11701774D02*
X6708283Y-11701774D01*
X6708283Y-11701774D02*
X6689236Y-11692250D01*
X6689236Y-11692250D02*
X6679712Y-11673203D01*
X6679712Y-11673203D02*
X6679712Y-11663679D01*
X6679712Y-11663679D02*
X6689236Y-11644631D01*
X6689236Y-11644631D02*
X6708283Y-11635107D01*
X6708283Y-11635107D02*
X6736855Y-11635107D01*
X6736855Y-11635107D02*
X6755903Y-11644631D01*
X6832093Y-11844631D02*
X6841617Y-11835107D01*
X6841617Y-11835107D02*
X6860664Y-11806536D01*
X6860664Y-11806536D02*
X6870188Y-11787488D01*
X6870188Y-11787488D02*
X6879712Y-11758917D01*
X6879712Y-11758917D02*
X6889236Y-11711298D01*
X6889236Y-11711298D02*
X6889236Y-11673203D01*
X6889236Y-11673203D02*
X6879712Y-11625584D01*
X6879712Y-11625584D02*
X6870188Y-11597012D01*
X6870188Y-11597012D02*
X6860664Y-11577965D01*
X6860664Y-11577965D02*
X6841617Y-11549393D01*
X6841617Y-11549393D02*
X6832093Y-11539869D01*
X7193998Y-11844631D02*
X7184474Y-11835107D01*
X7184474Y-11835107D02*
X7165426Y-11806536D01*
X7165426Y-11806536D02*
X7155903Y-11787488D01*
X7155903Y-11787488D02*
X7146379Y-11758917D01*
X7146379Y-11758917D02*
X7136855Y-11711298D01*
X7136855Y-11711298D02*
X7136855Y-11673203D01*
X7136855Y-11673203D02*
X7146379Y-11625584D01*
X7146379Y-11625584D02*
X7155903Y-11597012D01*
X7155903Y-11597012D02*
X7165426Y-11577965D01*
X7165426Y-11577965D02*
X7184474Y-11549393D01*
X7184474Y-11549393D02*
X7193998Y-11539869D01*
X7270188Y-11635107D02*
X7270188Y-11768441D01*
X7270188Y-11654155D02*
X7279712Y-11644631D01*
X7279712Y-11644631D02*
X7298760Y-11635107D01*
X7298760Y-11635107D02*
X7327331Y-11635107D01*
X7327331Y-11635107D02*
X7346379Y-11644631D01*
X7346379Y-11644631D02*
X7355903Y-11663679D01*
X7355903Y-11663679D02*
X7355903Y-11768441D01*
X7479712Y-11768441D02*
X7460664Y-11758917D01*
X7460664Y-11758917D02*
X7451141Y-11749393D01*
X7451141Y-11749393D02*
X7441617Y-11730346D01*
X7441617Y-11730346D02*
X7441617Y-11673203D01*
X7441617Y-11673203D02*
X7451141Y-11654155D01*
X7451141Y-11654155D02*
X7460664Y-11644631D01*
X7460664Y-11644631D02*
X7479712Y-11635107D01*
X7479712Y-11635107D02*
X7508284Y-11635107D01*
X7508284Y-11635107D02*
X7527331Y-11644631D01*
X7527331Y-11644631D02*
X7536855Y-11654155D01*
X7536855Y-11654155D02*
X7546379Y-11673203D01*
X7546379Y-11673203D02*
X7546379Y-11730346D01*
X7546379Y-11730346D02*
X7536855Y-11749393D01*
X7536855Y-11749393D02*
X7527331Y-11758917D01*
X7527331Y-11758917D02*
X7508284Y-11768441D01*
X7508284Y-11768441D02*
X7479712Y-11768441D01*
X7603522Y-11635107D02*
X7679712Y-11635107D01*
X7632093Y-11568441D02*
X7632093Y-11739869D01*
X7632093Y-11739869D02*
X7641617Y-11758917D01*
X7641617Y-11758917D02*
X7660664Y-11768441D01*
X7660664Y-11768441D02*
X7679712Y-11768441D01*
X7898760Y-11635107D02*
X7898760Y-11835107D01*
X7898760Y-11644631D02*
X7917807Y-11635107D01*
X7917807Y-11635107D02*
X7955903Y-11635107D01*
X7955903Y-11635107D02*
X7974950Y-11644631D01*
X7974950Y-11644631D02*
X7984474Y-11654155D01*
X7984474Y-11654155D02*
X7993998Y-11673203D01*
X7993998Y-11673203D02*
X7993998Y-11730346D01*
X7993998Y-11730346D02*
X7984474Y-11749393D01*
X7984474Y-11749393D02*
X7974950Y-11758917D01*
X7974950Y-11758917D02*
X7955903Y-11768441D01*
X7955903Y-11768441D02*
X7917807Y-11768441D01*
X7917807Y-11768441D02*
X7898760Y-11758917D01*
X8108284Y-11768441D02*
X8089236Y-11758917D01*
X8089236Y-11758917D02*
X8079712Y-11739869D01*
X8079712Y-11739869D02*
X8079712Y-11568441D01*
X8270188Y-11768441D02*
X8270188Y-11663679D01*
X8270188Y-11663679D02*
X8260665Y-11644631D01*
X8260665Y-11644631D02*
X8241617Y-11635107D01*
X8241617Y-11635107D02*
X8203522Y-11635107D01*
X8203522Y-11635107D02*
X8184474Y-11644631D01*
X8270188Y-11758917D02*
X8251141Y-11768441D01*
X8251141Y-11768441D02*
X8203522Y-11768441D01*
X8203522Y-11768441D02*
X8184474Y-11758917D01*
X8184474Y-11758917D02*
X8174950Y-11739869D01*
X8174950Y-11739869D02*
X8174950Y-11720822D01*
X8174950Y-11720822D02*
X8184474Y-11701774D01*
X8184474Y-11701774D02*
X8203522Y-11692250D01*
X8203522Y-11692250D02*
X8251141Y-11692250D01*
X8251141Y-11692250D02*
X8270188Y-11682727D01*
X8336855Y-11635107D02*
X8413046Y-11635107D01*
X8365426Y-11568441D02*
X8365426Y-11739869D01*
X8365426Y-11739869D02*
X8374950Y-11758917D01*
X8374950Y-11758917D02*
X8393998Y-11768441D01*
X8393998Y-11768441D02*
X8413046Y-11768441D01*
X8555903Y-11758917D02*
X8536855Y-11768441D01*
X8536855Y-11768441D02*
X8498760Y-11768441D01*
X8498760Y-11768441D02*
X8479712Y-11758917D01*
X8479712Y-11758917D02*
X8470188Y-11739869D01*
X8470188Y-11739869D02*
X8470188Y-11663679D01*
X8470188Y-11663679D02*
X8479712Y-11644631D01*
X8479712Y-11644631D02*
X8498760Y-11635107D01*
X8498760Y-11635107D02*
X8536855Y-11635107D01*
X8536855Y-11635107D02*
X8555903Y-11644631D01*
X8555903Y-11644631D02*
X8565427Y-11663679D01*
X8565427Y-11663679D02*
X8565427Y-11682727D01*
X8565427Y-11682727D02*
X8470188Y-11701774D01*
X8736855Y-11768441D02*
X8736855Y-11568441D01*
X8736855Y-11758917D02*
X8717808Y-11768441D01*
X8717808Y-11768441D02*
X8679712Y-11768441D01*
X8679712Y-11768441D02*
X8660665Y-11758917D01*
X8660665Y-11758917D02*
X8651141Y-11749393D01*
X8651141Y-11749393D02*
X8641617Y-11730346D01*
X8641617Y-11730346D02*
X8641617Y-11673203D01*
X8641617Y-11673203D02*
X8651141Y-11654155D01*
X8651141Y-11654155D02*
X8660665Y-11644631D01*
X8660665Y-11644631D02*
X8679712Y-11635107D01*
X8679712Y-11635107D02*
X8717808Y-11635107D01*
X8717808Y-11635107D02*
X8736855Y-11644631D01*
X8813046Y-11844631D02*
X8822569Y-11835107D01*
X8822569Y-11835107D02*
X8841617Y-11806536D01*
X8841617Y-11806536D02*
X8851141Y-11787488D01*
X8851141Y-11787488D02*
X8860665Y-11758917D01*
X8860665Y-11758917D02*
X8870188Y-11711298D01*
X8870188Y-11711298D02*
X8870188Y-11673203D01*
X8870188Y-11673203D02*
X8860665Y-11625584D01*
X8860665Y-11625584D02*
X8851141Y-11597012D01*
X8851141Y-11597012D02*
X8841617Y-11577965D01*
X8841617Y-11577965D02*
X8822569Y-11549393D01*
X8822569Y-11549393D02*
X8813046Y-11539869D01*
D13*
X1841632Y-12001125D02*
X1841632Y-11880789D01*
X1721296Y-11880789D01*
X1721296Y-12001125D01*
X1841632Y-12001125D01*
D11*
X2232093Y-12032441D02*
X2117807Y-12032441D01*
X2174950Y-12032441D02*
X2174950Y-11832441D01*
X2174950Y-11832441D02*
X2155902Y-11861012D01*
X2155902Y-11861012D02*
X2136855Y-11880060D01*
X2136855Y-11880060D02*
X2117807Y-11889584D01*
X2317807Y-12013393D02*
X2327331Y-12022917D01*
X2327331Y-12022917D02*
X2317807Y-12032441D01*
X2317807Y-12032441D02*
X2308283Y-12022917D01*
X2308283Y-12022917D02*
X2317807Y-12013393D01*
X2317807Y-12013393D02*
X2317807Y-12032441D01*
X2393997Y-11832441D02*
X2527331Y-11832441D01*
X2527331Y-11832441D02*
X2441616Y-12032441D01*
X2641616Y-11832441D02*
X2660664Y-11832441D01*
X2660664Y-11832441D02*
X2679712Y-11841965D01*
X2679712Y-11841965D02*
X2689236Y-11851488D01*
X2689236Y-11851488D02*
X2698759Y-11870536D01*
X2698759Y-11870536D02*
X2708283Y-11908631D01*
X2708283Y-11908631D02*
X2708283Y-11956250D01*
X2708283Y-11956250D02*
X2698759Y-11994346D01*
X2698759Y-11994346D02*
X2689236Y-12013393D01*
X2689236Y-12013393D02*
X2679712Y-12022917D01*
X2679712Y-12022917D02*
X2660664Y-12032441D01*
X2660664Y-12032441D02*
X2641616Y-12032441D01*
X2641616Y-12032441D02*
X2622569Y-12022917D01*
X2622569Y-12022917D02*
X2613045Y-12013393D01*
X2613045Y-12013393D02*
X2603521Y-11994346D01*
X2603521Y-11994346D02*
X2593997Y-11956250D01*
X2593997Y-11956250D02*
X2593997Y-11908631D01*
X2593997Y-11908631D02*
X2603521Y-11870536D01*
X2603521Y-11870536D02*
X2613045Y-11851488D01*
X2613045Y-11851488D02*
X2622569Y-11841965D01*
X2622569Y-11841965D02*
X2641616Y-11832441D01*
X2784474Y-11851488D02*
X2793997Y-11841965D01*
X2793997Y-11841965D02*
X2813045Y-11832441D01*
X2813045Y-11832441D02*
X2860664Y-11832441D01*
X2860664Y-11832441D02*
X2879712Y-11841965D01*
X2879712Y-11841965D02*
X2889235Y-11851488D01*
X2889235Y-11851488D02*
X2898759Y-11870536D01*
X2898759Y-11870536D02*
X2898759Y-11889584D01*
X2898759Y-11889584D02*
X2889235Y-11918155D01*
X2889235Y-11918155D02*
X2774950Y-12032441D01*
X2774950Y-12032441D02*
X2898759Y-12032441D01*
X2984474Y-12032441D02*
X2984474Y-11899107D01*
X2984474Y-11918155D02*
X2993997Y-11908631D01*
X2993997Y-11908631D02*
X3013045Y-11899107D01*
X3013045Y-11899107D02*
X3041616Y-11899107D01*
X3041616Y-11899107D02*
X3060664Y-11908631D01*
X3060664Y-11908631D02*
X3070188Y-11927679D01*
X3070188Y-11927679D02*
X3070188Y-12032441D01*
X3070188Y-11927679D02*
X3079712Y-11908631D01*
X3079712Y-11908631D02*
X3098759Y-11899107D01*
X3098759Y-11899107D02*
X3127331Y-11899107D01*
X3127331Y-11899107D02*
X3146378Y-11908631D01*
X3146378Y-11908631D02*
X3155902Y-11927679D01*
X3155902Y-11927679D02*
X3155902Y-12032441D01*
X3251140Y-12032441D02*
X3251140Y-11899107D01*
X3251140Y-11918155D02*
X3260664Y-11908631D01*
X3260664Y-11908631D02*
X3279712Y-11899107D01*
X3279712Y-11899107D02*
X3308283Y-11899107D01*
X3308283Y-11899107D02*
X3327331Y-11908631D01*
X3327331Y-11908631D02*
X3336855Y-11927679D01*
X3336855Y-11927679D02*
X3336855Y-12032441D01*
X3336855Y-11927679D02*
X3346378Y-11908631D01*
X3346378Y-11908631D02*
X3365426Y-11899107D01*
X3365426Y-11899107D02*
X3393997Y-11899107D01*
X3393997Y-11899107D02*
X3413045Y-11908631D01*
X3413045Y-11908631D02*
X3422569Y-11927679D01*
X3422569Y-11927679D02*
X3422569Y-12032441D01*
X3813045Y-11822917D02*
X3641617Y-12080060D01*
X4070188Y-11832441D02*
X4089236Y-11832441D01*
X4089236Y-11832441D02*
X4108283Y-11841965D01*
X4108283Y-11841965D02*
X4117807Y-11851488D01*
X4117807Y-11851488D02*
X4127331Y-11870536D01*
X4127331Y-11870536D02*
X4136855Y-11908631D01*
X4136855Y-11908631D02*
X4136855Y-11956250D01*
X4136855Y-11956250D02*
X4127331Y-11994346D01*
X4127331Y-11994346D02*
X4117807Y-12013393D01*
X4117807Y-12013393D02*
X4108283Y-12022917D01*
X4108283Y-12022917D02*
X4089236Y-12032441D01*
X4089236Y-12032441D02*
X4070188Y-12032441D01*
X4070188Y-12032441D02*
X4051140Y-12022917D01*
X4051140Y-12022917D02*
X4041617Y-12013393D01*
X4041617Y-12013393D02*
X4032093Y-11994346D01*
X4032093Y-11994346D02*
X4022569Y-11956250D01*
X4022569Y-11956250D02*
X4022569Y-11908631D01*
X4022569Y-11908631D02*
X4032093Y-11870536D01*
X4032093Y-11870536D02*
X4041617Y-11851488D01*
X4041617Y-11851488D02*
X4051140Y-11841965D01*
X4051140Y-11841965D02*
X4070188Y-11832441D01*
X4222569Y-12013393D02*
X4232093Y-12022917D01*
X4232093Y-12022917D02*
X4222569Y-12032441D01*
X4222569Y-12032441D02*
X4213045Y-12022917D01*
X4213045Y-12022917D02*
X4222569Y-12013393D01*
X4222569Y-12013393D02*
X4222569Y-12032441D01*
X4355902Y-11832441D02*
X4374950Y-11832441D01*
X4374950Y-11832441D02*
X4393998Y-11841965D01*
X4393998Y-11841965D02*
X4403521Y-11851488D01*
X4403521Y-11851488D02*
X4413045Y-11870536D01*
X4413045Y-11870536D02*
X4422569Y-11908631D01*
X4422569Y-11908631D02*
X4422569Y-11956250D01*
X4422569Y-11956250D02*
X4413045Y-11994346D01*
X4413045Y-11994346D02*
X4403521Y-12013393D01*
X4403521Y-12013393D02*
X4393998Y-12022917D01*
X4393998Y-12022917D02*
X4374950Y-12032441D01*
X4374950Y-12032441D02*
X4355902Y-12032441D01*
X4355902Y-12032441D02*
X4336855Y-12022917D01*
X4336855Y-12022917D02*
X4327331Y-12013393D01*
X4327331Y-12013393D02*
X4317807Y-11994346D01*
X4317807Y-11994346D02*
X4308283Y-11956250D01*
X4308283Y-11956250D02*
X4308283Y-11908631D01*
X4308283Y-11908631D02*
X4317807Y-11870536D01*
X4317807Y-11870536D02*
X4327331Y-11851488D01*
X4327331Y-11851488D02*
X4336855Y-11841965D01*
X4336855Y-11841965D02*
X4355902Y-11832441D01*
X4593998Y-11832441D02*
X4555902Y-11832441D01*
X4555902Y-11832441D02*
X4536855Y-11841965D01*
X4536855Y-11841965D02*
X4527331Y-11851488D01*
X4527331Y-11851488D02*
X4508283Y-11880060D01*
X4508283Y-11880060D02*
X4498760Y-11918155D01*
X4498760Y-11918155D02*
X4498760Y-11994346D01*
X4498760Y-11994346D02*
X4508283Y-12013393D01*
X4508283Y-12013393D02*
X4517807Y-12022917D01*
X4517807Y-12022917D02*
X4536855Y-12032441D01*
X4536855Y-12032441D02*
X4574950Y-12032441D01*
X4574950Y-12032441D02*
X4593998Y-12022917D01*
X4593998Y-12022917D02*
X4603521Y-12013393D01*
X4603521Y-12013393D02*
X4613045Y-11994346D01*
X4613045Y-11994346D02*
X4613045Y-11946727D01*
X4613045Y-11946727D02*
X4603521Y-11927679D01*
X4603521Y-11927679D02*
X4593998Y-11918155D01*
X4593998Y-11918155D02*
X4574950Y-11908631D01*
X4574950Y-11908631D02*
X4536855Y-11908631D01*
X4536855Y-11908631D02*
X4517807Y-11918155D01*
X4517807Y-11918155D02*
X4508283Y-11927679D01*
X4508283Y-11927679D02*
X4498760Y-11946727D01*
X4679712Y-11832441D02*
X4813045Y-11832441D01*
X4813045Y-11832441D02*
X4727331Y-12032441D01*
X4927331Y-11832441D02*
X4946379Y-11832441D01*
X4946379Y-11832441D02*
X4965426Y-11841965D01*
X4965426Y-11841965D02*
X4974950Y-11851488D01*
X4974950Y-11851488D02*
X4984474Y-11870536D01*
X4984474Y-11870536D02*
X4993998Y-11908631D01*
X4993998Y-11908631D02*
X4993998Y-11956250D01*
X4993998Y-11956250D02*
X4984474Y-11994346D01*
X4984474Y-11994346D02*
X4974950Y-12013393D01*
X4974950Y-12013393D02*
X4965426Y-12022917D01*
X4965426Y-12022917D02*
X4946379Y-12032441D01*
X4946379Y-12032441D02*
X4927331Y-12032441D01*
X4927331Y-12032441D02*
X4908283Y-12022917D01*
X4908283Y-12022917D02*
X4898760Y-12013393D01*
X4898760Y-12013393D02*
X4889236Y-11994346D01*
X4889236Y-11994346D02*
X4879712Y-11956250D01*
X4879712Y-11956250D02*
X4879712Y-11908631D01*
X4879712Y-11908631D02*
X4889236Y-11870536D01*
X4889236Y-11870536D02*
X4898760Y-11851488D01*
X4898760Y-11851488D02*
X4908283Y-11841965D01*
X4908283Y-11841965D02*
X4927331Y-11832441D01*
X5070188Y-11832441D02*
X5070188Y-11870536D01*
X5146379Y-11832441D02*
X5146379Y-11870536D01*
X5441617Y-12108631D02*
X5432093Y-12099107D01*
X5432093Y-12099107D02*
X5413045Y-12070536D01*
X5413045Y-12070536D02*
X5403522Y-12051488D01*
X5403522Y-12051488D02*
X5393998Y-12022917D01*
X5393998Y-12022917D02*
X5384474Y-11975298D01*
X5384474Y-11975298D02*
X5384474Y-11937203D01*
X5384474Y-11937203D02*
X5393998Y-11889584D01*
X5393998Y-11889584D02*
X5403522Y-11861012D01*
X5403522Y-11861012D02*
X5413045Y-11841965D01*
X5413045Y-11841965D02*
X5432093Y-11813393D01*
X5432093Y-11813393D02*
X5441617Y-11803869D01*
X5498760Y-11832441D02*
X5622569Y-11832441D01*
X5622569Y-11832441D02*
X5555902Y-11908631D01*
X5555902Y-11908631D02*
X5584474Y-11908631D01*
X5584474Y-11908631D02*
X5603521Y-11918155D01*
X5603521Y-11918155D02*
X5613045Y-11927679D01*
X5613045Y-11927679D02*
X5622569Y-11946727D01*
X5622569Y-11946727D02*
X5622569Y-11994346D01*
X5622569Y-11994346D02*
X5613045Y-12013393D01*
X5613045Y-12013393D02*
X5603521Y-12022917D01*
X5603521Y-12022917D02*
X5584474Y-12032441D01*
X5584474Y-12032441D02*
X5527331Y-12032441D01*
X5527331Y-12032441D02*
X5508283Y-12022917D01*
X5508283Y-12022917D02*
X5498760Y-12013393D01*
X5793998Y-11899107D02*
X5793998Y-12032441D01*
X5746379Y-11822917D02*
X5698760Y-11965774D01*
X5698760Y-11965774D02*
X5822569Y-11965774D01*
X6051141Y-12032441D02*
X6051141Y-11832441D01*
X6136855Y-12032441D02*
X6136855Y-11927679D01*
X6136855Y-11927679D02*
X6127331Y-11908631D01*
X6127331Y-11908631D02*
X6108283Y-11899107D01*
X6108283Y-11899107D02*
X6079712Y-11899107D01*
X6079712Y-11899107D02*
X6060664Y-11908631D01*
X6060664Y-11908631D02*
X6051141Y-11918155D01*
X6260664Y-12032441D02*
X6241617Y-12022917D01*
X6241617Y-12022917D02*
X6232093Y-12013393D01*
X6232093Y-12013393D02*
X6222569Y-11994346D01*
X6222569Y-11994346D02*
X6222569Y-11937203D01*
X6222569Y-11937203D02*
X6232093Y-11918155D01*
X6232093Y-11918155D02*
X6241617Y-11908631D01*
X6241617Y-11908631D02*
X6260664Y-11899107D01*
X6260664Y-11899107D02*
X6289236Y-11899107D01*
X6289236Y-11899107D02*
X6308283Y-11908631D01*
X6308283Y-11908631D02*
X6317807Y-11918155D01*
X6317807Y-11918155D02*
X6327331Y-11937203D01*
X6327331Y-11937203D02*
X6327331Y-11994346D01*
X6327331Y-11994346D02*
X6317807Y-12013393D01*
X6317807Y-12013393D02*
X6308283Y-12022917D01*
X6308283Y-12022917D02*
X6289236Y-12032441D01*
X6289236Y-12032441D02*
X6260664Y-12032441D01*
X6441617Y-12032441D02*
X6422569Y-12022917D01*
X6422569Y-12022917D02*
X6413045Y-12003869D01*
X6413045Y-12003869D02*
X6413045Y-11832441D01*
X6593998Y-12022917D02*
X6574950Y-12032441D01*
X6574950Y-12032441D02*
X6536855Y-12032441D01*
X6536855Y-12032441D02*
X6517807Y-12022917D01*
X6517807Y-12022917D02*
X6508283Y-12003869D01*
X6508283Y-12003869D02*
X6508283Y-11927679D01*
X6508283Y-11927679D02*
X6517807Y-11908631D01*
X6517807Y-11908631D02*
X6536855Y-11899107D01*
X6536855Y-11899107D02*
X6574950Y-11899107D01*
X6574950Y-11899107D02*
X6593998Y-11908631D01*
X6593998Y-11908631D02*
X6603522Y-11927679D01*
X6603522Y-11927679D02*
X6603522Y-11946727D01*
X6603522Y-11946727D02*
X6508283Y-11965774D01*
X6679712Y-12022917D02*
X6698760Y-12032441D01*
X6698760Y-12032441D02*
X6736855Y-12032441D01*
X6736855Y-12032441D02*
X6755903Y-12022917D01*
X6755903Y-12022917D02*
X6765426Y-12003869D01*
X6765426Y-12003869D02*
X6765426Y-11994346D01*
X6765426Y-11994346D02*
X6755903Y-11975298D01*
X6755903Y-11975298D02*
X6736855Y-11965774D01*
X6736855Y-11965774D02*
X6708283Y-11965774D01*
X6708283Y-11965774D02*
X6689236Y-11956250D01*
X6689236Y-11956250D02*
X6679712Y-11937203D01*
X6679712Y-11937203D02*
X6679712Y-11927679D01*
X6679712Y-11927679D02*
X6689236Y-11908631D01*
X6689236Y-11908631D02*
X6708283Y-11899107D01*
X6708283Y-11899107D02*
X6736855Y-11899107D01*
X6736855Y-11899107D02*
X6755903Y-11908631D01*
X6832093Y-12108631D02*
X6841617Y-12099107D01*
X6841617Y-12099107D02*
X6860664Y-12070536D01*
X6860664Y-12070536D02*
X6870188Y-12051488D01*
X6870188Y-12051488D02*
X6879712Y-12022917D01*
X6879712Y-12022917D02*
X6889236Y-11975298D01*
X6889236Y-11975298D02*
X6889236Y-11937203D01*
X6889236Y-11937203D02*
X6879712Y-11889584D01*
X6879712Y-11889584D02*
X6870188Y-11861012D01*
X6870188Y-11861012D02*
X6860664Y-11841965D01*
X6860664Y-11841965D02*
X6841617Y-11813393D01*
X6841617Y-11813393D02*
X6832093Y-11803869D01*
X7193998Y-12108631D02*
X7184474Y-12099107D01*
X7184474Y-12099107D02*
X7165426Y-12070536D01*
X7165426Y-12070536D02*
X7155903Y-12051488D01*
X7155903Y-12051488D02*
X7146379Y-12022917D01*
X7146379Y-12022917D02*
X7136855Y-11975298D01*
X7136855Y-11975298D02*
X7136855Y-11937203D01*
X7136855Y-11937203D02*
X7146379Y-11889584D01*
X7146379Y-11889584D02*
X7155903Y-11861012D01*
X7155903Y-11861012D02*
X7165426Y-11841965D01*
X7165426Y-11841965D02*
X7184474Y-11813393D01*
X7184474Y-11813393D02*
X7193998Y-11803869D01*
X7270188Y-11899107D02*
X7270188Y-12032441D01*
X7270188Y-11918155D02*
X7279712Y-11908631D01*
X7279712Y-11908631D02*
X7298760Y-11899107D01*
X7298760Y-11899107D02*
X7327331Y-11899107D01*
X7327331Y-11899107D02*
X7346379Y-11908631D01*
X7346379Y-11908631D02*
X7355903Y-11927679D01*
X7355903Y-11927679D02*
X7355903Y-12032441D01*
X7479712Y-12032441D02*
X7460664Y-12022917D01*
X7460664Y-12022917D02*
X7451141Y-12013393D01*
X7451141Y-12013393D02*
X7441617Y-11994346D01*
X7441617Y-11994346D02*
X7441617Y-11937203D01*
X7441617Y-11937203D02*
X7451141Y-11918155D01*
X7451141Y-11918155D02*
X7460664Y-11908631D01*
X7460664Y-11908631D02*
X7479712Y-11899107D01*
X7479712Y-11899107D02*
X7508284Y-11899107D01*
X7508284Y-11899107D02*
X7527331Y-11908631D01*
X7527331Y-11908631D02*
X7536855Y-11918155D01*
X7536855Y-11918155D02*
X7546379Y-11937203D01*
X7546379Y-11937203D02*
X7546379Y-11994346D01*
X7546379Y-11994346D02*
X7536855Y-12013393D01*
X7536855Y-12013393D02*
X7527331Y-12022917D01*
X7527331Y-12022917D02*
X7508284Y-12032441D01*
X7508284Y-12032441D02*
X7479712Y-12032441D01*
X7603522Y-11899107D02*
X7679712Y-11899107D01*
X7632093Y-11832441D02*
X7632093Y-12003869D01*
X7632093Y-12003869D02*
X7641617Y-12022917D01*
X7641617Y-12022917D02*
X7660664Y-12032441D01*
X7660664Y-12032441D02*
X7679712Y-12032441D01*
X7898760Y-11899107D02*
X7898760Y-12099107D01*
X7898760Y-11908631D02*
X7917807Y-11899107D01*
X7917807Y-11899107D02*
X7955903Y-11899107D01*
X7955903Y-11899107D02*
X7974950Y-11908631D01*
X7974950Y-11908631D02*
X7984474Y-11918155D01*
X7984474Y-11918155D02*
X7993998Y-11937203D01*
X7993998Y-11937203D02*
X7993998Y-11994346D01*
X7993998Y-11994346D02*
X7984474Y-12013393D01*
X7984474Y-12013393D02*
X7974950Y-12022917D01*
X7974950Y-12022917D02*
X7955903Y-12032441D01*
X7955903Y-12032441D02*
X7917807Y-12032441D01*
X7917807Y-12032441D02*
X7898760Y-12022917D01*
X8108284Y-12032441D02*
X8089236Y-12022917D01*
X8089236Y-12022917D02*
X8079712Y-12003869D01*
X8079712Y-12003869D02*
X8079712Y-11832441D01*
X8270188Y-12032441D02*
X8270188Y-11927679D01*
X8270188Y-11927679D02*
X8260665Y-11908631D01*
X8260665Y-11908631D02*
X8241617Y-11899107D01*
X8241617Y-11899107D02*
X8203522Y-11899107D01*
X8203522Y-11899107D02*
X8184474Y-11908631D01*
X8270188Y-12022917D02*
X8251141Y-12032441D01*
X8251141Y-12032441D02*
X8203522Y-12032441D01*
X8203522Y-12032441D02*
X8184474Y-12022917D01*
X8184474Y-12022917D02*
X8174950Y-12003869D01*
X8174950Y-12003869D02*
X8174950Y-11984822D01*
X8174950Y-11984822D02*
X8184474Y-11965774D01*
X8184474Y-11965774D02*
X8203522Y-11956250D01*
X8203522Y-11956250D02*
X8251141Y-11956250D01*
X8251141Y-11956250D02*
X8270188Y-11946727D01*
X8336855Y-11899107D02*
X8413046Y-11899107D01*
X8365426Y-11832441D02*
X8365426Y-12003869D01*
X8365426Y-12003869D02*
X8374950Y-12022917D01*
X8374950Y-12022917D02*
X8393998Y-12032441D01*
X8393998Y-12032441D02*
X8413046Y-12032441D01*
X8555903Y-12022917D02*
X8536855Y-12032441D01*
X8536855Y-12032441D02*
X8498760Y-12032441D01*
X8498760Y-12032441D02*
X8479712Y-12022917D01*
X8479712Y-12022917D02*
X8470188Y-12003869D01*
X8470188Y-12003869D02*
X8470188Y-11927679D01*
X8470188Y-11927679D02*
X8479712Y-11908631D01*
X8479712Y-11908631D02*
X8498760Y-11899107D01*
X8498760Y-11899107D02*
X8536855Y-11899107D01*
X8536855Y-11899107D02*
X8555903Y-11908631D01*
X8555903Y-11908631D02*
X8565427Y-11927679D01*
X8565427Y-11927679D02*
X8565427Y-11946727D01*
X8565427Y-11946727D02*
X8470188Y-11965774D01*
X8736855Y-12032441D02*
X8736855Y-11832441D01*
X8736855Y-12022917D02*
X8717808Y-12032441D01*
X8717808Y-12032441D02*
X8679712Y-12032441D01*
X8679712Y-12032441D02*
X8660665Y-12022917D01*
X8660665Y-12022917D02*
X8651141Y-12013393D01*
X8651141Y-12013393D02*
X8641617Y-11994346D01*
X8641617Y-11994346D02*
X8641617Y-11937203D01*
X8641617Y-11937203D02*
X8651141Y-11918155D01*
X8651141Y-11918155D02*
X8660665Y-11908631D01*
X8660665Y-11908631D02*
X8679712Y-11899107D01*
X8679712Y-11899107D02*
X8717808Y-11899107D01*
X8717808Y-11899107D02*
X8736855Y-11908631D01*
X8813046Y-12108631D02*
X8822569Y-12099107D01*
X8822569Y-12099107D02*
X8841617Y-12070536D01*
X8841617Y-12070536D02*
X8851141Y-12051488D01*
X8851141Y-12051488D02*
X8860665Y-12022917D01*
X8860665Y-12022917D02*
X8870188Y-11975298D01*
X8870188Y-11975298D02*
X8870188Y-11937203D01*
X8870188Y-11937203D02*
X8860665Y-11889584D01*
X8860665Y-11889584D02*
X8851141Y-11861012D01*
X8851141Y-11861012D02*
X8841617Y-11841965D01*
X8841617Y-11841965D02*
X8822569Y-11813393D01*
X8822569Y-11813393D02*
X8813046Y-11803869D01*
X1766554Y-12331137D02*
X1866554Y-12231137D01*
X1766554Y-12131137D01*
X1666554Y-12231137D01*
X1766554Y-12331137D01*
X2108283Y-12122621D02*
X2232093Y-12122621D01*
X2232093Y-12122621D02*
X2165426Y-12198811D01*
X2165426Y-12198811D02*
X2193997Y-12198811D01*
X2193997Y-12198811D02*
X2213045Y-12208335D01*
X2213045Y-12208335D02*
X2222569Y-12217859D01*
X2222569Y-12217859D02*
X2232093Y-12236907D01*
X2232093Y-12236907D02*
X2232093Y-12284526D01*
X2232093Y-12284526D02*
X2222569Y-12303573D01*
X2222569Y-12303573D02*
X2213045Y-12313097D01*
X2213045Y-12313097D02*
X2193997Y-12322621D01*
X2193997Y-12322621D02*
X2136855Y-12322621D01*
X2136855Y-12322621D02*
X2117807Y-12313097D01*
X2117807Y-12313097D02*
X2108283Y-12303573D01*
X2317807Y-12303573D02*
X2327331Y-12313097D01*
X2327331Y-12313097D02*
X2317807Y-12322621D01*
X2317807Y-12322621D02*
X2308283Y-12313097D01*
X2308283Y-12313097D02*
X2317807Y-12303573D01*
X2317807Y-12303573D02*
X2317807Y-12322621D01*
X2498759Y-12189287D02*
X2498759Y-12322621D01*
X2451140Y-12113097D02*
X2403521Y-12255954D01*
X2403521Y-12255954D02*
X2527331Y-12255954D01*
X2593997Y-12141668D02*
X2603521Y-12132145D01*
X2603521Y-12132145D02*
X2622569Y-12122621D01*
X2622569Y-12122621D02*
X2670188Y-12122621D01*
X2670188Y-12122621D02*
X2689236Y-12132145D01*
X2689236Y-12132145D02*
X2698759Y-12141668D01*
X2698759Y-12141668D02*
X2708283Y-12160716D01*
X2708283Y-12160716D02*
X2708283Y-12179764D01*
X2708283Y-12179764D02*
X2698759Y-12208335D01*
X2698759Y-12208335D02*
X2584474Y-12322621D01*
X2584474Y-12322621D02*
X2708283Y-12322621D01*
X2803521Y-12322621D02*
X2841616Y-12322621D01*
X2841616Y-12322621D02*
X2860664Y-12313097D01*
X2860664Y-12313097D02*
X2870188Y-12303573D01*
X2870188Y-12303573D02*
X2889235Y-12275002D01*
X2889235Y-12275002D02*
X2898759Y-12236907D01*
X2898759Y-12236907D02*
X2898759Y-12160716D01*
X2898759Y-12160716D02*
X2889235Y-12141668D01*
X2889235Y-12141668D02*
X2879712Y-12132145D01*
X2879712Y-12132145D02*
X2860664Y-12122621D01*
X2860664Y-12122621D02*
X2822569Y-12122621D01*
X2822569Y-12122621D02*
X2803521Y-12132145D01*
X2803521Y-12132145D02*
X2793997Y-12141668D01*
X2793997Y-12141668D02*
X2784474Y-12160716D01*
X2784474Y-12160716D02*
X2784474Y-12208335D01*
X2784474Y-12208335D02*
X2793997Y-12227383D01*
X2793997Y-12227383D02*
X2803521Y-12236907D01*
X2803521Y-12236907D02*
X2822569Y-12246430D01*
X2822569Y-12246430D02*
X2860664Y-12246430D01*
X2860664Y-12246430D02*
X2879712Y-12236907D01*
X2879712Y-12236907D02*
X2889235Y-12227383D01*
X2889235Y-12227383D02*
X2898759Y-12208335D01*
X2984474Y-12322621D02*
X2984474Y-12189287D01*
X2984474Y-12208335D02*
X2993997Y-12198811D01*
X2993997Y-12198811D02*
X3013045Y-12189287D01*
X3013045Y-12189287D02*
X3041616Y-12189287D01*
X3041616Y-12189287D02*
X3060664Y-12198811D01*
X3060664Y-12198811D02*
X3070188Y-12217859D01*
X3070188Y-12217859D02*
X3070188Y-12322621D01*
X3070188Y-12217859D02*
X3079712Y-12198811D01*
X3079712Y-12198811D02*
X3098759Y-12189287D01*
X3098759Y-12189287D02*
X3127331Y-12189287D01*
X3127331Y-12189287D02*
X3146378Y-12198811D01*
X3146378Y-12198811D02*
X3155902Y-12217859D01*
X3155902Y-12217859D02*
X3155902Y-12322621D01*
X3251140Y-12322621D02*
X3251140Y-12189287D01*
X3251140Y-12208335D02*
X3260664Y-12198811D01*
X3260664Y-12198811D02*
X3279712Y-12189287D01*
X3279712Y-12189287D02*
X3308283Y-12189287D01*
X3308283Y-12189287D02*
X3327331Y-12198811D01*
X3327331Y-12198811D02*
X3336855Y-12217859D01*
X3336855Y-12217859D02*
X3336855Y-12322621D01*
X3336855Y-12217859D02*
X3346378Y-12198811D01*
X3346378Y-12198811D02*
X3365426Y-12189287D01*
X3365426Y-12189287D02*
X3393997Y-12189287D01*
X3393997Y-12189287D02*
X3413045Y-12198811D01*
X3413045Y-12198811D02*
X3422569Y-12217859D01*
X3422569Y-12217859D02*
X3422569Y-12322621D01*
X3813045Y-12113097D02*
X3641617Y-12370240D01*
X4070188Y-12122621D02*
X4089236Y-12122621D01*
X4089236Y-12122621D02*
X4108283Y-12132145D01*
X4108283Y-12132145D02*
X4117807Y-12141668D01*
X4117807Y-12141668D02*
X4127331Y-12160716D01*
X4127331Y-12160716D02*
X4136855Y-12198811D01*
X4136855Y-12198811D02*
X4136855Y-12246430D01*
X4136855Y-12246430D02*
X4127331Y-12284526D01*
X4127331Y-12284526D02*
X4117807Y-12303573D01*
X4117807Y-12303573D02*
X4108283Y-12313097D01*
X4108283Y-12313097D02*
X4089236Y-12322621D01*
X4089236Y-12322621D02*
X4070188Y-12322621D01*
X4070188Y-12322621D02*
X4051140Y-12313097D01*
X4051140Y-12313097D02*
X4041617Y-12303573D01*
X4041617Y-12303573D02*
X4032093Y-12284526D01*
X4032093Y-12284526D02*
X4022569Y-12246430D01*
X4022569Y-12246430D02*
X4022569Y-12198811D01*
X4022569Y-12198811D02*
X4032093Y-12160716D01*
X4032093Y-12160716D02*
X4041617Y-12141668D01*
X4041617Y-12141668D02*
X4051140Y-12132145D01*
X4051140Y-12132145D02*
X4070188Y-12122621D01*
X4222569Y-12303573D02*
X4232093Y-12313097D01*
X4232093Y-12313097D02*
X4222569Y-12322621D01*
X4222569Y-12322621D02*
X4213045Y-12313097D01*
X4213045Y-12313097D02*
X4222569Y-12303573D01*
X4222569Y-12303573D02*
X4222569Y-12322621D01*
X4422569Y-12322621D02*
X4308283Y-12322621D01*
X4365426Y-12322621D02*
X4365426Y-12122621D01*
X4365426Y-12122621D02*
X4346379Y-12151192D01*
X4346379Y-12151192D02*
X4327331Y-12170240D01*
X4327331Y-12170240D02*
X4308283Y-12179764D01*
X4489236Y-12122621D02*
X4613045Y-12122621D01*
X4613045Y-12122621D02*
X4546379Y-12198811D01*
X4546379Y-12198811D02*
X4574950Y-12198811D01*
X4574950Y-12198811D02*
X4593998Y-12208335D01*
X4593998Y-12208335D02*
X4603521Y-12217859D01*
X4603521Y-12217859D02*
X4613045Y-12236907D01*
X4613045Y-12236907D02*
X4613045Y-12284526D01*
X4613045Y-12284526D02*
X4603521Y-12303573D01*
X4603521Y-12303573D02*
X4593998Y-12313097D01*
X4593998Y-12313097D02*
X4574950Y-12322621D01*
X4574950Y-12322621D02*
X4517807Y-12322621D01*
X4517807Y-12322621D02*
X4498760Y-12313097D01*
X4498760Y-12313097D02*
X4489236Y-12303573D01*
X4793998Y-12122621D02*
X4698760Y-12122621D01*
X4698760Y-12122621D02*
X4689236Y-12217859D01*
X4689236Y-12217859D02*
X4698760Y-12208335D01*
X4698760Y-12208335D02*
X4717807Y-12198811D01*
X4717807Y-12198811D02*
X4765426Y-12198811D01*
X4765426Y-12198811D02*
X4784474Y-12208335D01*
X4784474Y-12208335D02*
X4793998Y-12217859D01*
X4793998Y-12217859D02*
X4803521Y-12236907D01*
X4803521Y-12236907D02*
X4803521Y-12284526D01*
X4803521Y-12284526D02*
X4793998Y-12303573D01*
X4793998Y-12303573D02*
X4784474Y-12313097D01*
X4784474Y-12313097D02*
X4765426Y-12322621D01*
X4765426Y-12322621D02*
X4717807Y-12322621D01*
X4717807Y-12322621D02*
X4698760Y-12313097D01*
X4698760Y-12313097D02*
X4689236Y-12303573D01*
X4927331Y-12122621D02*
X4946379Y-12122621D01*
X4946379Y-12122621D02*
X4965426Y-12132145D01*
X4965426Y-12132145D02*
X4974950Y-12141668D01*
X4974950Y-12141668D02*
X4984474Y-12160716D01*
X4984474Y-12160716D02*
X4993998Y-12198811D01*
X4993998Y-12198811D02*
X4993998Y-12246430D01*
X4993998Y-12246430D02*
X4984474Y-12284526D01*
X4984474Y-12284526D02*
X4974950Y-12303573D01*
X4974950Y-12303573D02*
X4965426Y-12313097D01*
X4965426Y-12313097D02*
X4946379Y-12322621D01*
X4946379Y-12322621D02*
X4927331Y-12322621D01*
X4927331Y-12322621D02*
X4908283Y-12313097D01*
X4908283Y-12313097D02*
X4898760Y-12303573D01*
X4898760Y-12303573D02*
X4889236Y-12284526D01*
X4889236Y-12284526D02*
X4879712Y-12246430D01*
X4879712Y-12246430D02*
X4879712Y-12198811D01*
X4879712Y-12198811D02*
X4889236Y-12160716D01*
X4889236Y-12160716D02*
X4898760Y-12141668D01*
X4898760Y-12141668D02*
X4908283Y-12132145D01*
X4908283Y-12132145D02*
X4927331Y-12122621D01*
X5070188Y-12122621D02*
X5070188Y-12160716D01*
X5146379Y-12122621D02*
X5146379Y-12160716D01*
X5441617Y-12398811D02*
X5432093Y-12389287D01*
X5432093Y-12389287D02*
X5413045Y-12360716D01*
X5413045Y-12360716D02*
X5403522Y-12341668D01*
X5403522Y-12341668D02*
X5393998Y-12313097D01*
X5393998Y-12313097D02*
X5384474Y-12265478D01*
X5384474Y-12265478D02*
X5384474Y-12227383D01*
X5384474Y-12227383D02*
X5393998Y-12179764D01*
X5393998Y-12179764D02*
X5403522Y-12151192D01*
X5403522Y-12151192D02*
X5413045Y-12132145D01*
X5413045Y-12132145D02*
X5432093Y-12103573D01*
X5432093Y-12103573D02*
X5441617Y-12094049D01*
X5622569Y-12322621D02*
X5508283Y-12322621D01*
X5565426Y-12322621D02*
X5565426Y-12122621D01*
X5565426Y-12122621D02*
X5546379Y-12151192D01*
X5546379Y-12151192D02*
X5527331Y-12170240D01*
X5527331Y-12170240D02*
X5508283Y-12179764D01*
X5689236Y-12122621D02*
X5822569Y-12122621D01*
X5822569Y-12122621D02*
X5736855Y-12322621D01*
X6051141Y-12322621D02*
X6051141Y-12122621D01*
X6136855Y-12322621D02*
X6136855Y-12217859D01*
X6136855Y-12217859D02*
X6127331Y-12198811D01*
X6127331Y-12198811D02*
X6108283Y-12189287D01*
X6108283Y-12189287D02*
X6079712Y-12189287D01*
X6079712Y-12189287D02*
X6060664Y-12198811D01*
X6060664Y-12198811D02*
X6051141Y-12208335D01*
X6260664Y-12322621D02*
X6241617Y-12313097D01*
X6241617Y-12313097D02*
X6232093Y-12303573D01*
X6232093Y-12303573D02*
X6222569Y-12284526D01*
X6222569Y-12284526D02*
X6222569Y-12227383D01*
X6222569Y-12227383D02*
X6232093Y-12208335D01*
X6232093Y-12208335D02*
X6241617Y-12198811D01*
X6241617Y-12198811D02*
X6260664Y-12189287D01*
X6260664Y-12189287D02*
X6289236Y-12189287D01*
X6289236Y-12189287D02*
X6308283Y-12198811D01*
X6308283Y-12198811D02*
X6317807Y-12208335D01*
X6317807Y-12208335D02*
X6327331Y-12227383D01*
X6327331Y-12227383D02*
X6327331Y-12284526D01*
X6327331Y-12284526D02*
X6317807Y-12303573D01*
X6317807Y-12303573D02*
X6308283Y-12313097D01*
X6308283Y-12313097D02*
X6289236Y-12322621D01*
X6289236Y-12322621D02*
X6260664Y-12322621D01*
X6441617Y-12322621D02*
X6422569Y-12313097D01*
X6422569Y-12313097D02*
X6413045Y-12294049D01*
X6413045Y-12294049D02*
X6413045Y-12122621D01*
X6593998Y-12313097D02*
X6574950Y-12322621D01*
X6574950Y-12322621D02*
X6536855Y-12322621D01*
X6536855Y-12322621D02*
X6517807Y-12313097D01*
X6517807Y-12313097D02*
X6508283Y-12294049D01*
X6508283Y-12294049D02*
X6508283Y-12217859D01*
X6508283Y-12217859D02*
X6517807Y-12198811D01*
X6517807Y-12198811D02*
X6536855Y-12189287D01*
X6536855Y-12189287D02*
X6574950Y-12189287D01*
X6574950Y-12189287D02*
X6593998Y-12198811D01*
X6593998Y-12198811D02*
X6603522Y-12217859D01*
X6603522Y-12217859D02*
X6603522Y-12236907D01*
X6603522Y-12236907D02*
X6508283Y-12255954D01*
X6679712Y-12313097D02*
X6698760Y-12322621D01*
X6698760Y-12322621D02*
X6736855Y-12322621D01*
X6736855Y-12322621D02*
X6755903Y-12313097D01*
X6755903Y-12313097D02*
X6765426Y-12294049D01*
X6765426Y-12294049D02*
X6765426Y-12284526D01*
X6765426Y-12284526D02*
X6755903Y-12265478D01*
X6755903Y-12265478D02*
X6736855Y-12255954D01*
X6736855Y-12255954D02*
X6708283Y-12255954D01*
X6708283Y-12255954D02*
X6689236Y-12246430D01*
X6689236Y-12246430D02*
X6679712Y-12227383D01*
X6679712Y-12227383D02*
X6679712Y-12217859D01*
X6679712Y-12217859D02*
X6689236Y-12198811D01*
X6689236Y-12198811D02*
X6708283Y-12189287D01*
X6708283Y-12189287D02*
X6736855Y-12189287D01*
X6736855Y-12189287D02*
X6755903Y-12198811D01*
X6832093Y-12398811D02*
X6841617Y-12389287D01*
X6841617Y-12389287D02*
X6860664Y-12360716D01*
X6860664Y-12360716D02*
X6870188Y-12341668D01*
X6870188Y-12341668D02*
X6879712Y-12313097D01*
X6879712Y-12313097D02*
X6889236Y-12265478D01*
X6889236Y-12265478D02*
X6889236Y-12227383D01*
X6889236Y-12227383D02*
X6879712Y-12179764D01*
X6879712Y-12179764D02*
X6870188Y-12151192D01*
X6870188Y-12151192D02*
X6860664Y-12132145D01*
X6860664Y-12132145D02*
X6841617Y-12103573D01*
X6841617Y-12103573D02*
X6832093Y-12094049D01*
X7193998Y-12398811D02*
X7184474Y-12389287D01*
X7184474Y-12389287D02*
X7165426Y-12360716D01*
X7165426Y-12360716D02*
X7155903Y-12341668D01*
X7155903Y-12341668D02*
X7146379Y-12313097D01*
X7146379Y-12313097D02*
X7136855Y-12265478D01*
X7136855Y-12265478D02*
X7136855Y-12227383D01*
X7136855Y-12227383D02*
X7146379Y-12179764D01*
X7146379Y-12179764D02*
X7155903Y-12151192D01*
X7155903Y-12151192D02*
X7165426Y-12132145D01*
X7165426Y-12132145D02*
X7184474Y-12103573D01*
X7184474Y-12103573D02*
X7193998Y-12094049D01*
X7270188Y-12189287D02*
X7270188Y-12322621D01*
X7270188Y-12208335D02*
X7279712Y-12198811D01*
X7279712Y-12198811D02*
X7298760Y-12189287D01*
X7298760Y-12189287D02*
X7327331Y-12189287D01*
X7327331Y-12189287D02*
X7346379Y-12198811D01*
X7346379Y-12198811D02*
X7355903Y-12217859D01*
X7355903Y-12217859D02*
X7355903Y-12322621D01*
X7479712Y-12322621D02*
X7460664Y-12313097D01*
X7460664Y-12313097D02*
X7451141Y-12303573D01*
X7451141Y-12303573D02*
X7441617Y-12284526D01*
X7441617Y-12284526D02*
X7441617Y-12227383D01*
X7441617Y-12227383D02*
X7451141Y-12208335D01*
X7451141Y-12208335D02*
X7460664Y-12198811D01*
X7460664Y-12198811D02*
X7479712Y-12189287D01*
X7479712Y-12189287D02*
X7508284Y-12189287D01*
X7508284Y-12189287D02*
X7527331Y-12198811D01*
X7527331Y-12198811D02*
X7536855Y-12208335D01*
X7536855Y-12208335D02*
X7546379Y-12227383D01*
X7546379Y-12227383D02*
X7546379Y-12284526D01*
X7546379Y-12284526D02*
X7536855Y-12303573D01*
X7536855Y-12303573D02*
X7527331Y-12313097D01*
X7527331Y-12313097D02*
X7508284Y-12322621D01*
X7508284Y-12322621D02*
X7479712Y-12322621D01*
X7603522Y-12189287D02*
X7679712Y-12189287D01*
X7632093Y-12122621D02*
X7632093Y-12294049D01*
X7632093Y-12294049D02*
X7641617Y-12313097D01*
X7641617Y-12313097D02*
X7660664Y-12322621D01*
X7660664Y-12322621D02*
X7679712Y-12322621D01*
X7898760Y-12189287D02*
X7898760Y-12389287D01*
X7898760Y-12198811D02*
X7917807Y-12189287D01*
X7917807Y-12189287D02*
X7955903Y-12189287D01*
X7955903Y-12189287D02*
X7974950Y-12198811D01*
X7974950Y-12198811D02*
X7984474Y-12208335D01*
X7984474Y-12208335D02*
X7993998Y-12227383D01*
X7993998Y-12227383D02*
X7993998Y-12284526D01*
X7993998Y-12284526D02*
X7984474Y-12303573D01*
X7984474Y-12303573D02*
X7974950Y-12313097D01*
X7974950Y-12313097D02*
X7955903Y-12322621D01*
X7955903Y-12322621D02*
X7917807Y-12322621D01*
X7917807Y-12322621D02*
X7898760Y-12313097D01*
X8108284Y-12322621D02*
X8089236Y-12313097D01*
X8089236Y-12313097D02*
X8079712Y-12294049D01*
X8079712Y-12294049D02*
X8079712Y-12122621D01*
X8270188Y-12322621D02*
X8270188Y-12217859D01*
X8270188Y-12217859D02*
X8260665Y-12198811D01*
X8260665Y-12198811D02*
X8241617Y-12189287D01*
X8241617Y-12189287D02*
X8203522Y-12189287D01*
X8203522Y-12189287D02*
X8184474Y-12198811D01*
X8270188Y-12313097D02*
X8251141Y-12322621D01*
X8251141Y-12322621D02*
X8203522Y-12322621D01*
X8203522Y-12322621D02*
X8184474Y-12313097D01*
X8184474Y-12313097D02*
X8174950Y-12294049D01*
X8174950Y-12294049D02*
X8174950Y-12275002D01*
X8174950Y-12275002D02*
X8184474Y-12255954D01*
X8184474Y-12255954D02*
X8203522Y-12246430D01*
X8203522Y-12246430D02*
X8251141Y-12246430D01*
X8251141Y-12246430D02*
X8270188Y-12236907D01*
X8336855Y-12189287D02*
X8413046Y-12189287D01*
X8365426Y-12122621D02*
X8365426Y-12294049D01*
X8365426Y-12294049D02*
X8374950Y-12313097D01*
X8374950Y-12313097D02*
X8393998Y-12322621D01*
X8393998Y-12322621D02*
X8413046Y-12322621D01*
X8555903Y-12313097D02*
X8536855Y-12322621D01*
X8536855Y-12322621D02*
X8498760Y-12322621D01*
X8498760Y-12322621D02*
X8479712Y-12313097D01*
X8479712Y-12313097D02*
X8470188Y-12294049D01*
X8470188Y-12294049D02*
X8470188Y-12217859D01*
X8470188Y-12217859D02*
X8479712Y-12198811D01*
X8479712Y-12198811D02*
X8498760Y-12189287D01*
X8498760Y-12189287D02*
X8536855Y-12189287D01*
X8536855Y-12189287D02*
X8555903Y-12198811D01*
X8555903Y-12198811D02*
X8565427Y-12217859D01*
X8565427Y-12217859D02*
X8565427Y-12236907D01*
X8565427Y-12236907D02*
X8470188Y-12255954D01*
X8736855Y-12322621D02*
X8736855Y-12122621D01*
X8736855Y-12313097D02*
X8717808Y-12322621D01*
X8717808Y-12322621D02*
X8679712Y-12322621D01*
X8679712Y-12322621D02*
X8660665Y-12313097D01*
X8660665Y-12313097D02*
X8651141Y-12303573D01*
X8651141Y-12303573D02*
X8641617Y-12284526D01*
X8641617Y-12284526D02*
X8641617Y-12227383D01*
X8641617Y-12227383D02*
X8651141Y-12208335D01*
X8651141Y-12208335D02*
X8660665Y-12198811D01*
X8660665Y-12198811D02*
X8679712Y-12189287D01*
X8679712Y-12189287D02*
X8717808Y-12189287D01*
X8717808Y-12189287D02*
X8736855Y-12198811D01*
X8813046Y-12398811D02*
X8822569Y-12389287D01*
X8822569Y-12389287D02*
X8841617Y-12360716D01*
X8841617Y-12360716D02*
X8851141Y-12341668D01*
X8851141Y-12341668D02*
X8860665Y-12313097D01*
X8860665Y-12313097D02*
X8870188Y-12265478D01*
X8870188Y-12265478D02*
X8870188Y-12227383D01*
X8870188Y-12227383D02*
X8860665Y-12179764D01*
X8860665Y-12179764D02*
X8851141Y-12151192D01*
X8851141Y-12151192D02*
X8841617Y-12132145D01*
X8841617Y-12132145D02*
X8822569Y-12103573D01*
X8822569Y-12103573D02*
X8813046Y-12094049D01*
M02*
